<?xml version="1.0" standalone="no"?>
<!DOCTYPE svg PUBLIC "-//W3C//DTD SVG 1.1//EN" "http://www.w3.org/Graphics/SVG/1.1/DTD/svg11.dtd" >
<svg xmlns="http://www.w3.org/2000/svg">
<metadata>Generated by IcoMoon</metadata>
<defs>
<font id="apart" horiz-adv-x="1024">
<font-face units-per-em="1024" ascent="960" descent="-64" />
<missing-glyph horiz-adv-x="1024" />
<glyph unicode="&#x20;" horiz-adv-x="512" d="" />
<glyph unicode="&#xe900;" glyph-name="ArrowRight" d="M85.333 469.334l756.359-0.006-228.83 228.869c-16.662 16.662-16.662 43.677 0 60.34s43.677 16.662 60.34 0l301.699-301.699c15.472-15.472 16.577-39.871 3.315-56.618l-3.315-3.721-301.699-301.699c-16.662-16.662-43.677-16.662-60.34 0s-16.662 43.677 0 60.34l228.83 228.869-756.359-0.006c-23.564 0-42.667 19.103-42.667 42.667s19.103 42.667 42.667 42.667z" />
<glyph unicode="&#xe901;" glyph-name="ArrowLeft" d="M944.731 384l-756.359 0.006 228.83-228.869c16.662-16.662 16.662-43.677 0-60.34s-43.677-16.662-60.34 0l-301.699 301.699c-15.472 15.472-16.577 39.871-3.315 56.618l3.315 3.721 301.699 301.699c16.662 16.662 43.677 16.662 60.34 0s16.662-43.677 0-60.34l-228.83-228.869 756.359 0.006c23.564 0 42.667-19.103 42.667-42.667s-19.103-42.667-42.667-42.667z" />
<glyph unicode="&#xe902;" glyph-name="Calendar" d="M704 871.111c21.881 0 39.915-16.471 42.38-37.691l0.287-4.976v-60.416l192-0.028c21.881 0 39.915-16.471 42.38-37.691l0.287-4.976v-682.667c0-23.564-19.103-42.667-42.667-42.667v0h-853.333c-23.564 0-42.667 19.103-42.667 42.667v0 682.667c0 23.564 19.103 42.667 42.667 42.667v0l192 0.028v60.416c0 23.564 19.103 42.667 42.667 42.667 21.881 0 39.915-16.471 42.38-37.691l0.287-4.976v-60.416h298.667v60.416c0 23.564 19.103 42.667 42.667 42.667zM277.333 682.695l-149.333-0.028v-597.333h768v597.333l-149.333 0.028v-103.14c0-23.564-19.103-42.667-42.667-42.667-21.881 0-39.915 16.471-42.38 37.691l-0.287 4.976v103.14h-298.667v-103.14c0-23.564-19.103-42.667-42.667-42.667-21.881 0-39.915 16.471-42.38 37.691l-0.287 4.976v103.14z" />
<glyph unicode="&#xe903;" glyph-name="ChevronLeft" d="M417.202 755.504c16.662-16.662 16.662-43.677 0-60.34l-271.538-271.526 271.538-271.532c16.662-16.662 16.662-43.677 0-60.34s-43.677-16.662-60.34 0l-301.699 301.699c-16.662 16.662-16.662 43.677 0 60.34l301.699 301.699c16.662 16.662 43.677 16.662 60.34 0z" />
<glyph unicode="&#xe904;" glyph-name="ChevronRight" d="M670.17 755.504l301.699-301.699c16.662-16.662 16.662-43.677 0-60.34l-301.699-301.699c-16.662-16.662-43.677-16.662-60.34 0s-16.662 43.677 0 60.34l271.493 271.532-271.493 271.526c-16.662 16.662-16.662 43.677 0 60.34s43.677 16.662 60.34 0z" />
<glyph unicode="&#xe905;" glyph-name="Close" d="M843.869 758.536c16.662-16.662 16.662-43.677 0-60.34l-603.398-603.398c-16.662-16.662-43.677-16.662-60.34 0s-16.662 43.677 0 60.34l603.398 603.398c16.662 16.662 43.677 16.662 60.34 0zM843.869 94.798c-16.662-16.662-43.677-16.662-60.34 0l-603.398 603.398c-16.662 16.662-16.662 43.677 0 60.34s43.677 16.662 60.34 0l603.398-603.398c16.662-16.662 16.662-43.677 0-60.34z" />
<glyph unicode="&#xe906;" glyph-name="Edit" d="M744.917-42.666h-465.835c-130.389 0-236.416 106.027-236.416 236.416v465.835c0 130.389 106.027 236.416 236.416 236.416h222.635c23.595 0 42.667-19.115 42.667-42.667s-19.072-42.667-42.667-42.667h-222.635c-83.328 0-151.083-67.755-151.083-151.083v-465.835c0-83.285 67.755-151.083 151.083-151.083h465.835c83.285 0 151.083 67.797 151.083 151.083v201.813c0 23.595 19.072 42.667 42.667 42.667s42.667-19.072 42.667-42.667v-201.813c0-130.389-106.027-236.416-236.416-236.416zM469.333 341.334c-10.923 0-21.845 4.181-30.165 12.501-16.683 16.683-16.683 43.648 0 60.331l426.667 426.667c16.683 16.683 43.648 16.683 60.331 0s16.683-43.648 0-60.331l-426.667-426.667c-8.32-8.32-19.243-12.501-30.165-12.501zM426.667 298.667c0-23.552-19.115-42.667-42.667-42.667s-42.667 19.115-42.667 42.667c0 23.552 19.115 42.667 42.667 42.667s42.667-19.115 42.667-42.667z" />
<glyph unicode="&#xe907;" glyph-name="Menu" d="M213.333 426.667c0-47.128-38.205-85.333-85.333-85.333s-85.333 38.205-85.333 85.333c0 47.128 38.205 85.333 85.333 85.333s85.333-38.205 85.333-85.333zM597.333 426.667c0-47.128-38.205-85.333-85.333-85.333s-85.333 38.205-85.333 85.333c0 47.128 38.205 85.333 85.333 85.333s85.333-38.205 85.333-85.333zM981.333 426.667c0-47.128-38.205-85.333-85.333-85.333s-85.333 38.205-85.333 85.333c0 47.128 38.205 85.333 85.333 85.333s85.333-38.205 85.333-85.333z" />
<glyph unicode="&#xe908;" glyph-name="New" d="M512 896c23.564 0 42.667-19.103 42.667-42.667v-384h384c23.564 0 42.667-19.103 42.667-42.667s-19.103-42.667-42.667-42.667h-384v-384c0-23.564-19.103-42.667-42.667-42.667s-42.667 19.103-42.667 42.667v384.043l-384-0.043c-23.564 0-42.667 19.103-42.667 42.667s19.103 42.667 42.667 42.667l384 0.043v383.957c0 23.564 19.103 42.667 42.667 42.667z" />
<glyph unicode="&#xe909;" glyph-name="Notification" d="M512 896c-47.917 0-85.394-29.115-99.608-71.584l-1.91-6.049c-1.144-3.885-2.041-7.516-2.741-11.141l-0.787-4.539-8.086-2.133c-134.074-37.14-270.869-172.171-270.869-331.222v-160.597l-38.162-19.078c-28.91-14.455-47.171-44.003-47.171-76.324v-42.667l0.234-6.369c3.258-44.154 40.113-78.965 85.099-78.965h223.829l1.726-6.155c21.501-72.070 72.183-121.845 158.444-121.845l9.819 0.212c80.506 3.521 128.068 50.635 148.675 120.207l2.060 7.581h223.445c47.128 0 85.333 38.205 85.333 85.333v42.667l-0.277 6.879c-2.386 29.587-20.050 56.023-46.894 69.445l-38.162 19.078v160.597l-0.2 10.63c-5.857 155.323-139.11 284.568-270.456 320.659l-8.384 2.151-0.702 4.453c-1.051 5.437-2.542 10.888-4.651 17.19-14.214 42.469-51.691 71.584-99.608 71.584zM512 810.667c17.455 0 20.651-14.281 21.246-31.159l0.275-23.016c0.585-16.878 3.748-31.159 21.146-31.159 78.265 0 256-94.588 256-256v-213.333l85.333-42.667v-42.667h-298.667c0-67.131-19.055-128-85.333-128s-85.333 66.451-85.333 128h-298.667v42.667l85.333 42.667v213.333c0 159.927 177.797 256 256 256 19.331 0 21.089 17.631 21.261 36.865l0.041 11.604c0.178 19.234 1.97 36.865 21.364 36.865z" />
<glyph unicode="&#xe90a;" glyph-name="Pause" d="M384 810.667c23.564 0 42.667-19.103 42.667-42.667v-682.667c0-23.564-19.103-42.667-42.667-42.667s-42.667 19.103-42.667 42.667v682.667c0 23.564 19.103 42.667 42.667 42.667zM640 810.667c23.564 0 42.667-19.103 42.667-42.667v-682.667c0-23.564-19.103-42.667-42.667-42.667s-42.667 19.103-42.667 42.667v682.667c0 23.564 19.103 42.667 42.667 42.667z" />
<glyph unicode="&#xe90b;" glyph-name="Play" d="M312.196 775.588v-693.805c0-34.476 38.772-54.717 67.059-35.007l497.854 346.902c24.366 16.978 24.366 53.035 0 70.013l-497.854 346.902c-28.287 19.71-67.059-0.53-67.059-35.007zM397.517 693.818l380.563-265.133-380.563-265.133v530.266z" />
<glyph unicode="&#xe90c;" glyph-name="Search" d="M426.667 810.667c164.949 0 298.667-133.718 298.667-298.667 0-67.259-22.232-129.325-59.749-179.25 0.179-0.065 0.373-0.214 0.566-0.364l4.020-3.549 213.333-213.333c16.662-16.662 16.662-43.677 0-60.34-15.381-15.381-39.583-16.564-56.32-3.549l-4.020 3.549-213.333 213.333c-1.459 1.459-2.791 2.998-3.995 4.602-49.844-37.534-111.91-59.766-179.169-59.766-164.949 0-298.667 133.718-298.667 298.667s133.718 298.667 298.667 298.667zM426.667 725.334c-117.821 0-213.333-95.513-213.333-213.333s95.513-213.333 213.333-213.333c117.821 0 213.333 95.513 213.333 213.333s-95.513 213.333-213.333 213.333z" />
<glyph unicode="&#xe90d;" glyph-name="Stop" d="M768 725.334h-512c-23.564 0-42.667-19.103-42.667-42.667v-512c0-23.564 19.103-42.667 42.667-42.667h512c23.564 0 42.667 19.103 42.667 42.667v512c0 23.564-19.103 42.667-42.667 42.667zM725.333 640v-426.667h-426.667v426.667h426.667z" />
<glyph unicode="&#xe90e;" glyph-name="Warning" d="M548.567 826.65c22.896-12.051 41.602-30.757 53.652-53.652l328.969-625.026c32.925-62.557 8.904-139.96-53.652-172.886-18.382-9.675-38.844-14.731-59.617-14.731h-657.938c-70.692 0-128 57.308-128 128 0 20.773 5.056 41.234 14.731 59.617l328.969 625.026c32.925 62.557 110.329 86.578 172.886 53.652zM453.765 737.523l-2.572-4.269-328.969-625.026c-3.225-6.127-4.91-12.948-4.91-19.872 0-21.752 16.277-39.701 37.315-42.334l5.352-0.332h657.938c6.924 0 13.745 1.685 19.872 4.91 19.363 10.191 27.65 33.166 19.948 53.092l-2.064 4.537-328.969 625.026c-4.017 7.632-10.252 13.867-17.884 17.884-19.363 10.191-42.993 4.015-55.057-13.615zM512 213.334c23.564 0 42.667-19.103 42.667-42.667s-19.103-42.667-42.667-42.667c-23.564 0-42.667 19.103-42.667 42.667s19.103 42.667 42.667 42.667zM512 554.667c23.564 0 42.667-19.103 42.667-42.667v-170.667c0-23.564-19.103-42.667-42.667-42.667s-42.667 19.103-42.667 42.667v170.667c0 23.564 19.103 42.667 42.667 42.667z" />
<glyph unicode="&#xe90f;" glyph-name="Delete" d="M744.009 0.854c-3.669-0.469-8.576-0.853-14.976-0.853h-434.091c-8.875 0-13.312 3.328-15.403 5.76-4.395 60.331-33.579 335.488-56.533 548.907h577.536c-19.285-173.013-54.187-491.691-56.533-553.813v0zM127.987 718.763c0 3.627 2.944 6.571 6.571 6.571h754.859c3.627 0 6.571-2.944 6.571-6.571v-72.192c0-3.627-2.944-6.571-6.571-6.571h-754.859c-3.627 0-6.571 2.944-6.571 6.571v72.192zM401.182 835.84c11.307 11.136 27.008 17.493 43.136 17.493h135.339c16.128 0 31.872-6.357 43.136-17.493 6.4-6.315 11.136-13.781 13.995-21.888h-249.6c2.859 8.107 7.595 15.573 13.995 21.888v0zM889.417 810.667h-165.632c-3.584 32.299-17.536 62.763-41.131 85.973-27.307 26.923-64.341 42.027-102.997 42.027h-135.339c-38.613 0-75.648-15.104-102.997-42.027-23.552-23.211-37.547-53.675-41.088-85.973h-165.675c-50.731 0-91.904-41.131-91.904-91.904v-72.192c0-50.773 41.173-91.904 91.904-91.904h2.645c18.261-170.411 57.6-538.795 57.6-559.403 0-26.88 33.365-80.597 100.139-80.597h434.091c66.773 0 100.181 26.88 100.181 80.597 0 40.96 38.784 393.771 57.216 559.403h2.987c50.773 0 91.904 41.131 91.904 91.904v72.192c0 50.773-41.131 91.904-91.904 91.904v0z" />
<glyph unicode="&#xe910;" glyph-name="Valide" d="M426.667 213.334c-11.307 0-22.144 4.48-30.165 12.501l-170.667 170.667c-16.683 16.683-16.683 43.648 0 60.331s43.648 16.683 60.331 0l138.411-138.411 268.629 307.029c15.573 17.749 42.496 19.499 60.203 3.968 17.749-15.488 19.541-42.453 4.053-60.203l-298.709-341.291c-7.765-8.917-18.859-14.165-30.677-14.549-0.469-0.043-0.939-0.043-1.408-0.043zM512 853.334c-235.264 0-426.667-191.403-426.667-426.667s191.403-426.667 426.667-426.667c235.264 0 426.667 191.403 426.667 426.667s-191.403 426.667-426.667 426.667zM512-85.333c-282.325 0-512 229.675-512 512s229.675 512 512 512c282.325 0 512-229.675 512-512s-229.675-512-512-512z" />
<glyph unicode="&#xe911;" glyph-name="gear" d="M512 938.667c23.564 0 42.667-19.103 42.667-42.667l0.030-87.68c74.042-8.191 141.738-37.433 196.97-81.608l62.033 61.994c16.662 16.662 43.677 16.662 60.34 0s16.662-43.677 0-60.34l-61.994-62.033c44.175-55.232 73.417-122.928 81.608-196.97l87.68-0.030c23.564 0 42.667-19.103 42.667-42.667s-19.103-42.667-42.667-42.667l-87.676 0.013c-8.184-74.058-37.429-141.77-81.613-197.012l61.994-62.033c16.662-16.662 16.662-43.677 0-60.34s-43.677-16.662-60.34 0l-62.033 61.994c-55.232-44.175-122.928-73.417-196.97-81.608l-0.030-87.68c0-23.564-19.103-42.667-42.667-42.667s-42.667 19.103-42.667 42.667l0.013 87.676c-74.058 8.184-141.77 37.429-197.012 81.613l-62.033-61.994c-16.662-16.662-43.677-16.662-60.34 0s-16.662 43.677 0 60.34l61.994 62.033c-44.184 55.243-73.428 122.954-81.613 197.012l-87.676-0.013c-23.564 0-42.667 19.103-42.667 42.667s19.103 42.667 42.667 42.667l87.68 0.030c8.191 74.042 37.433 141.738 81.608 196.97l-61.994 62.033c-16.662 16.662-16.662 43.677 0 60.34s43.677 16.662 60.34 0l62.033-61.994c55.243 44.184 122.954 73.428 197.012 81.613l-0.013 87.676c0 23.564 19.103 42.667 42.667 42.667zM512 725.334c-164.949 0-298.667-133.718-298.667-298.667s133.718-298.667 298.667-298.667c164.949 0 298.667 133.718 298.667 298.667s-133.718 298.667-298.667 298.667zM512 512c47.128 0 85.333-38.205 85.333-85.333s-38.205-85.333-85.333-85.333c-47.128 0-85.333 38.205-85.333 85.333s38.205 85.333 85.333 85.333z" />
<glyph unicode="&#xe912;" glyph-name="history" d="M519.121 668.334c-23.552 0-42.667-19.115-42.667-42.667v-213.333c0-0.512 0.299-0.939 0.299-1.493-0.427-11.435 3.456-22.955 12.203-31.659l153.003-153.003c8.32-8.363 19.243-12.501 30.165-12.501s21.845 4.139 30.165 12.501c16.64 16.64 16.64 43.648 0 60.331l-140.501 140.501v198.656c0 23.552-19.115 42.667-42.667 42.667zM519.121 625.667v0zM1004.028 476.854c-14.677 125.739-77.397 238.251-176.725 316.8-99.243 78.549-223.147 113.792-348.928 99.072-141.781-16.512-267.989-97.408-344.021-215.979l-53.163 111.744c-10.112 21.291-35.541 30.336-56.832 20.181-21.291-10.112-30.336-35.541-20.224-56.832l91.648-192.64c3.371-7.168 8.875-12.331 15.019-16.469 1.493-1.152 3.2-1.877 4.821-2.859 2.048-0.981 3.883-2.133 6.059-2.816 6.784-2.688 14.080-4.267 21.803-3.072l210.816 32.768c23.296 3.584 39.253 25.387 35.627 48.683s-25.429 39.253-48.725 35.627l-135.68-21.077c62.293 97.707 166.101 164.395 282.752 178.005 103.125 11.819 204.715-16.853 286.123-81.28 81.365-64.384 132.821-156.629 144.896-259.712 11.989-103.125-16.853-204.715-81.28-286.123-64.384-81.408-156.629-132.821-259.755-144.896-157.355-18.432-309.12 59.691-385.664 198.827-11.307 20.608-37.291 28.117-57.941 16.768-20.651-11.307-28.203-37.291-16.811-57.941 84.267-153.216 242.901-245.632 414.549-245.632 18.475 0 37.077 1.067 55.765 3.243 125.696 14.677 238.251 77.44 316.8 176.683 78.549 99.285 113.749 223.189 99.072 348.928z" />
<glyph unicode="&#xe913;" glyph-name="logout" d="M512-85.333c-258.773 0-469.333 210.56-469.333 469.333 0 102.485 32.469 199.893 93.867 281.643 14.165 18.816 40.832 22.571 59.733 8.491 18.859-14.165 22.656-40.917 8.491-59.776-50.219-66.816-76.757-146.517-76.757-230.357 0-211.755 172.288-384 384-384 211.755 0 384 172.245 384 384 0 83.84-26.539 163.541-76.757 230.357-14.123 18.859-10.325 45.611 8.491 59.776 18.859 14.080 45.696 10.325 59.776-8.491 61.355-81.792 93.824-179.157 93.824-281.643 0-258.773-210.56-469.333-469.333-469.333zM512 384v0c-23.552 0-42.667 19.115-42.667 42.667v469.333c0 23.552 19.115 42.667 42.667 42.667v0c23.552 0 42.667-19.115 42.667-42.667v-469.333c0-23.552-19.115-42.667-42.667-42.667z" />
<glyph unicode="&#xe914;" glyph-name="reload" d="M1011.498 554.462c-16.67 18.132-43.614 18.132-60.284 0l-55.807-60.702c-30.014 203.483-192.063 359.573-387.495 359.573-134.125 0-257.676-73.315-330.451-196.11-12.747-21.517-7.035-50.222 12.747-64.087 19.782-13.912 46.215-7.651 58.962 13.865 56.958 96.177 153.693 153.586 258.742 153.586 151.263 0 277.074-119.409 302.612-276.056l-67.531 55.091c-18.759 15.442-45.532 11.176-59.644-9.275-14.154-20.45-10.317-49.526 8.527-64.875l140.775-114.865c7.589-6.214 16.584-9.275 25.537-9.275 10.957 0 21.914 4.591 30.142 13.587l123.168 133.97c16.67 18.132 16.67 47.439 0 65.571zM792.435 235.564c-19.095 13.792-45.299 8.708-58.506-11.405-55.603-85.005-147.378-135.751-245.42-135.751-146.117 0-267.67 111.262-292.696 257.357l81.050-45.265c20.483-11.581 45.972-3.271 56.865 18.256 10.936 21.572 3.112 48.359-17.371 59.764l-153.267 85.623c-18.506 10.344-41.387 4.818-53.711-12.952l-101.281-145.874c-13.712-19.715-9.59-47.387 9.169-61.753 7.487-5.747 16.151-8.531 24.731-8.531 12.997 0 25.783 6.321 34.027 18.124l40.63 58.526c38.863-178.231 190.658-311.684 371.853-311.684 125.76 0 243.444 65.113 314.778 174.076 13.123 20.113 8.286 47.652-10.851 61.488z" />
<glyph unicode="&#xe915;" glyph-name="user" d="M512 469.334c211.813 0 384-167.413 384-374.535 0-240.175-768-240.175-768 0 0 207.123 172.187 374.535 384 374.535zM590.896 373.808l0.861-2.068c3.603-9.445 5.576-19.695 5.576-30.406 0-47.128-38.205-85.333-85.333-85.333s-85.333 38.205-85.333 85.333c0 11.512 2.28 22.492 6.412 32.513-126.78-33.571-219.746-145.966-219.746-279.048 0-126.397 597.333-126.397 597.333 0 0 133.082-92.966 245.477-219.771 279.010zM511.848 938.667c117.821 0 213.333-95.513 213.333-213.333s-95.513-213.333-213.333-213.333c-117.821 0-213.333 95.513-213.333 213.333s95.513 213.333 213.333 213.333zM511.848 853.334c-70.692 0-128-57.308-128-128s57.308-128 128-128c70.692 0 128 57.308 128 128s-57.308 128-128 128z" />
<glyph unicode="&#xe916;" glyph-name="ChevronBottom" d="M183.055 525.061l298.946-299.385c15.218-15.24 39.181-16.429 55.763-3.555l3.982 3.512c0.015 0.015 0.029 0.029 0.044 0.044l298.947 299.385c16.517 16.542 16.517 43.335 0 59.877-16.486 16.51-43.235 16.53-59.745 0.044l-0.044-0.044-269.076-269.418-269.028 269.418c-16.486 16.51-43.235 16.53-59.745 0.044l-0.022-0.022c-16.539-16.564-16.539-43.357-0.022-59.899z" />
<glyph unicode="&#xe917;" glyph-name="ChevronTop" d="M183.159 328.246l298.946 299.385c16.486 16.51 43.235 16.53 59.745 0.044l0.044-0.044 298.946-299.385c16.517-16.542 16.517-43.335 0-59.877-16.486-16.51-43.235-16.53-59.745-0.044-0.015 0.015-0.029 0.029-0.044 0.044l-269.052 269.402-269.052-269.402c-16.486-16.51-43.235-16.53-59.745-0.044-0.015 0.015-0.029 0.029-0.044 0.044-16.517 16.542-16.517 43.335 0 59.877z" />
<glyph unicode="&#xe918;" glyph-name="Copy" d="M896 938.667c47.128 0 85.333-38.205 85.333-85.333v-597.333c0-47.128-38.205-85.333-85.333-85.333h-128v85.333h128v597.333h-469.333v-85.333h-85.333v85.333c0 47.128 38.205 85.333 85.333 85.333h469.333zM597.333 682.667c47.128 0 85.333-38.205 85.333-85.333v-597.333c0-47.128-38.205-85.333-85.333-85.333h-469.333c-47.128 0-85.333 38.205-85.333 85.333v597.333c0 47.128 38.205 85.333 85.333 85.333h469.333zM597.333 597.334h-469.333v-597.333h469.333v597.333z" />
<glyph unicode="&#xe919;" glyph-name="icon-Filter" d="M896 896h-768c-23.552 0-42.667-19.115-42.667-42.667v-154.88c0-10.197 3.627-20.011 10.283-27.776l235.435-274.645c6.656-7.765 10.283-17.621 10.283-27.776v-368.213c0-24.704 20.309-42.709 42.667-42.709 6.357 0 12.843 1.451 19.072 4.565l256 154.368c14.464 7.211 23.595 21.973 23.595 38.144v213.845c0 10.155 3.627 20.011 10.283 27.776l235.435 274.645c6.656 7.765 10.283 17.579 10.283 27.776v154.88c0 23.552-19.115 42.667-42.667 42.667v0zM853.333 810.667v-96.427l-225.195-262.699c-19.883-23.168-30.805-52.779-30.805-83.285v-189.611l-170.667-102.869v292.48c0 30.507-10.923 60.117-30.805 83.285l-225.195 262.699v96.427h682.667z" />
<glyph unicode="&#xe91a;" glyph-name="icon-moon" d="M770.938 868.602c-63.791 39.861-133.909 65.552-206.391 76.26-37.285 5.508-62.546-34.93-41.241-66.021 96.516-140.854 103.458-323.778 13.529-467.695-89.935-143.925-257.393-217.862-426.328-192.83-37.291 5.526-62.569-34.918-41.261-66.017 41.442-60.485 95.268-112.24 159.055-152.099 246.642-154.119 568.059-84.659 717.904 155.143s71.375 559.139-175.267 713.258zM725.718 796.235c205.535-128.433 270.927-394.547 146.056-594.382s-392.718-257.719-598.254-129.286l-14.306 9.312c-18.793 12.736-36.449 26.741-52.879 41.891l-4.454 4.329 5.26 0.2c163.769 9.122 315.401 94.349 404.125 236.338l7.021 11.58c82.191 139.768 90.119 308.127 28.273 455.226l-2.136 4.874 5.826-2.144c26.018-10.155 51.273-22.819 75.467-37.937z" />
<glyph unicode="&#xe91b;" glyph-name="icon-sun" d="M512 938.667c23.564 0 42.667-19.103 42.667-42.667l0.030-87.68c74.042-8.191 141.738-37.433 196.97-81.608l62.033 61.994c16.662 16.662 43.677 16.662 60.34 0s16.662-43.677 0-60.34l-61.994-62.033c44.175-55.232 73.417-122.928 81.608-196.97l87.68-0.030c23.564 0 42.667-19.103 42.667-42.667s-19.103-42.667-42.667-42.667l-87.676 0.013c-8.184-74.058-37.429-141.77-81.613-197.012l61.994-62.033c16.662-16.662 16.662-43.677 0-60.34s-43.677-16.662-60.34 0l-62.033 61.994c-55.232-44.175-122.928-73.417-196.97-81.608l-0.030-87.68c0-23.564-19.103-42.667-42.667-42.667s-42.667 19.103-42.667 42.667l0.013 87.676c-74.058 8.184-141.77 37.429-197.012 81.613l-62.033-61.994c-16.662-16.662-43.677-16.662-60.34 0s-16.662 43.677 0 60.34l61.994 62.033c-44.184 55.243-73.428 122.954-81.613 197.012l-87.676-0.013c-23.564 0-42.667 19.103-42.667 42.667s19.103 42.667 42.667 42.667l87.68 0.030c8.191 74.042 37.433 141.738 81.608 196.97l-61.994 62.033c-16.662 16.662-16.662 43.677 0 60.34s43.677 16.662 60.34 0l62.033-61.994c55.243 44.184 122.954 73.428 197.012 81.613l-0.013 87.676c0 23.564 19.103 42.667 42.667 42.667zM512 725.334c-164.949 0-298.667-133.718-298.667-298.667s133.718-298.667 298.667-298.667c164.949 0 298.667 133.718 298.667 298.667s-133.718 298.667-298.667 298.667z" />
</font>
</defs>
</svg>
