<svg xmlns="http://www.w3.org/2000/svg" width="260" height="442" viewBox="0 0 260 442"><g fill="none" fill-rule="evenodd"><rect width="258" height="440" x="1" y="1" fill="#000" rx="24"/><path fill="#FFF" d="M236,0 C249.254834,0 260,10.745166 260,24 L260,418 C260,431.254834 249.254834,442 236,442 L24,442 C10.745166,442 0,431.254834 0,418 L0,24 C0,10.745166 10.745166,0 24,0 L236,0 Z M236,2 L24,2 C11.9712381,2 2.19722476,11.6537258 2.00294737,23.6361898 L2,24 L2,418 C2,430.028762 11.6537258,439.802775 23.6361898,440 L24,440 L236,440 C248.028762,440 257.802775,430.346274 257.997053,418.36381 L258,418 L258,24 C258,11.9712381 248.346274,2.19722476 236.36381,2 L236,2 Z"/><path fill="#FFF" d="M249.000144 361C249.512906 361 249.935516 361.38604 249.993273 361.883379L250 362 250 414.934096C250 424.215019 242.563872 431.758892 233.325433 431.931088L233.00244 431.934096 143.616452 431.957999 63.230323 431.999082 53.9998565 432C53.447651 432 53 431.552285 53 431 53 430.447715 53.447651 430 53.9998565 430L201.240476 429.936969 233.00244 429.934096C241.180673 429.934096 247.830042 423.38731 247.99707 415.247924L248.000287 414.934096 248.000287 362C248.000287 361.447715 248.447938 361 249.000144 361ZM93.0043916 11C93.5542509 11 94 11.4472753 94 11.9990173 94 12.5113492 93.6156551 12.9336052 93.1205006 12.9913135L93.0043916 12.9980347 27.9534986 12.9980347C19.8100121 12.9980347 13.1888943 19.5383877 13.0225759 27.6697748L13.0193723 27.9832946 13.0091941 55.0458857 12.9920891 72.2181909 12.9912168 77.0009827C12.9912168 77.5527247 12.5454678 78 11.9956084 78 11.4850247 78 11.0642096 77.6143392 11.0066982 77.1174892L11 77.0009827 11.0038809 67.5810773 11.0259575 42.5029311 11.0281555 27.9832946C11.0281555 18.7114916 18.4326901 11.1750319 27.6318775 11.0030049L27.9534986 11 93.0043916 11Z"/><path fill="#FFF" d="M39.0000768,172 C40.5977577,172 41.9037377,173.24892 41.9949841,174.823727 L42.0000768,175 L42.0000768,190.497851 C42.0000768,192.095532 40.7511568,193.401512 39.1763496,193.492758 L39.0000768,193.497851 L28.0000768,193.497851 C26.4023959,193.497851 25.0964159,192.248931 25.0051695,190.674124 L25.0000768,190.497851 L25.0000768,188.822082 C25.0000768,187.224401 26.2489967,185.918421 27.823804,185.827175 L28.0000768,185.822082 L33.0010533,185.822082 C33.5138892,185.822082 33.9365605,185.436042 33.9943256,184.938703 L34.0010533,184.822082 L34.0010533,183.0005 C34.0010533,182.487664 33.6150131,182.064993 33.1176745,182.007228 L33.0010533,182.0005 L23.0000768,182.0005 C22.4872409,182.0005 22.0645696,182.38654 22.0068045,182.883879 L22.0000768,183.0005 L22.0000768,196.319433 C22.0000768,196.832269 22.386117,197.25494 22.8834556,197.312705 L23.0000768,197.319433 L41.0000768,197.319433 C41.5523615,197.319433 42.0000768,197.767148 42.0000768,198.319433 C42.0000768,198.832269 41.6140366,199.25494 41.1166979,199.312705 L41.0000768,199.319433 L23.0000768,199.319433 C21.4023959,199.319433 20.0964159,198.070513 20.0051695,196.495706 L20.0000768,196.319433 L20.0000768,183.0005 C20.0000768,181.402819 21.2489967,180.096839 22.823804,180.005593 L23.0000768,180.0005 L33.0010533,180.0005 C34.5987342,180.0005 35.9047142,181.24942 35.9959606,182.824227 L36.0010533,183.0005 L36.0010533,184.822082 C36.0010533,186.419763 34.7521334,187.725743 33.1773261,187.816989 L33.0010533,187.822082 L28.0000768,187.822082 C27.4872409,187.822082 27.0645696,188.208122 27.0068045,188.705461 L27.0000768,188.822082 L27.0000768,190.497851 C27.0000768,191.010687 27.386117,191.433358 27.8834556,191.491123 L28.0000768,191.497851 L39.0000768,191.497851 C39.5129126,191.497851 39.9355839,191.111811 39.993349,190.614472 L40.0000768,190.497851 L40.0000768,175 C40.0000768,174.487164 39.6140366,174.064493 39.1166979,174.006728 L39.0000768,174 L24,174 C18.0212984,174 13.1566348,178.769764 13.0037074,184.711593 L13,185 L13,431 C13,431.552285 12.5522847,432 12,432 C11.4871642,432 11.0644928,431.61396 11.0067277,431.116621 L11,431 L11,185 C11,177.922865 16.6551918,172.166572 23.6931438,172.00355 L24,172 L39.0000768,172 Z" transform="matrix(1 0 0 -1 0 604)"/><path fill="#FFF" d="M199.5,3.5 C201.097681,3.5 202.403661,4.74891996 202.494907,6.32372721 L202.5,6.5 L202.5,17.4365883 C202.5,19.0342692 201.25108,20.3402492 199.676273,20.4314956 L199.5,20.4365883 L193.5,20.4365883 C191.902319,20.4365883 190.596339,19.1876683 190.505093,17.6128611 L190.5,17.4365883 L190.5,16.5 C190.5,14.9023191 191.74892,13.5963391 193.323727,13.5050927 L193.5,13.5 L194.5,13.5 C195.012836,13.5 195.435507,13.1139598 195.493272,12.6166211 L195.5,12.5 L195.5,11.4365883 C195.5,10.9237524 195.11396,10.5010811 194.616621,10.443316 L194.5,10.4365883 L188.5,10.4365883 C187.987164,10.4365883 187.564493,10.8226285 187.506728,11.3199672 L187.5,11.4365883 L187.5,22.5 C187.5,23.0128358 187.88604,23.4355072 188.383379,23.4932723 L188.5,23.5 L206.5,23.5 C207.052285,23.5 207.5,23.9477153 207.5,24.5 C207.5,25.0128358 207.11396,25.4355072 206.616621,25.4932723 L206.5,25.5 L188.5,25.5 C186.902319,25.5 185.596339,24.25108 185.505093,22.6762728 L185.5,22.5 L185.5,11.4365883 C185.5,9.8389074 186.74892,8.53292741 188.323727,8.44168098 L188.5,8.43658829 L194.5,8.43658829 C196.097681,8.43658829 197.403661,9.68550825 197.494907,11.2603155 L197.5,11.4365883 L197.5,12.5 C197.5,14.0976809 196.25108,15.4036609 194.676273,15.4949073 L194.5,15.5 L193.5,15.5 C192.987164,15.5 192.564493,15.8860402 192.506728,16.3833789 L192.5,16.5 L192.5,17.4365883 C192.5,17.9494241 192.88604,18.3720954 193.383379,18.4298606 L193.5,18.4365883 L199.5,18.4365883 C200.012836,18.4365883 200.435507,18.0505481 200.493272,17.5532094 L200.5,17.4365883 L200.5,6.5 C200.5,5.98716416 200.11396,5.56449284 199.616621,5.50672773 L199.5,5.5 L182.5,5.5 C180.357805,5.5 178.608921,7.18396847 178.504895,9.30035966 L178.5,9.5 L178.5,48.5 C178.5,49.0522847 178.052285,49.5 177.5,49.5 C176.987164,49.5 176.564493,49.1139598 176.506728,48.6166211 L176.5,48.5 L176.5,9.5 C176.5,6.26160306 179.065575,3.62242824 182.275062,3.50413847 L182.5,3.5 L199.5,3.5 Z" transform="rotate(90 192 26.5)"/><path fill="#FFF" d="M248.971588,43 C249.484424,43 249.907146,43.3859166 249.964977,43.8832476 L249.97172,43.9998679 L249.999,253.996 C250,256.689422 247.877509,258.882479 245.216875,258.995431 L245,259 L225,259 C223.402319,259 222.096339,257.75108 222.005093,256.176273 L222,256 L222,244.941226 C222,243.343545 223.24892,242.037565 224.823727,241.946318 L225,241.941226 L231,241.941226 C232.597681,241.941226 233.903661,243.190146 233.994907,244.764953 L234,244.941226 L234,246.003079 C234,247.600759 232.75108,248.906739 231.176273,248.997986 L231,249.003079 L230,249.003079 C229.487164,249.003079 229.064493,249.389119 229.006728,249.886457 L229,250.003079 L229,250.938147 C229,251.450983 229.38604,251.873654 229.883379,251.931419 L230,251.938147 L236,251.938147 C236.512836,251.938147 236.935507,251.552107 236.993272,251.054768 L237,250.938147 L237,240.006157 C237,239.493321 236.61396,239.07065 236.116621,239.012885 L236,239.006157 L218,239.006157 C217.447715,239.006157 217,238.558442 217,238.006157 C217,237.493321 217.38604,237.07065 217.883379,237.012885 L218,237.006157 L236,237.006157 C237.597681,237.006157 238.903661,238.255077 238.994907,239.829884 L239,240.006157 L239,250.938147 C239,252.535828 237.75108,253.841808 236.176273,253.933054 L236,253.938147 L230,253.938147 C228.402319,253.938147 227.096339,252.689227 227.005093,251.11442 L227,250.938147 L227,250.003079 C227,248.405398 228.24892,247.099418 229.823727,247.008171 L230,247.003079 L231,247.003079 C231.512836,247.003079 231.935507,246.617038 231.993272,246.1197 L232,246.003079 L232,244.941226 C232,244.42839 231.61396,244.005719 231.116621,243.947953 L231,243.941226 L225,243.941226 C224.487164,243.941226 224.064493,244.327266 224.006728,244.824605 L224,244.941226 L224,256 C224,256.512836 224.38604,256.935507 224.883379,256.993272 L225,257 L245.000239,257 C246.597719,257.000382 247.903663,255.751619 247.994907,254.176803 L247.999471,254.000132 L247.97172,44.0001321 C247.971647,43.4478474 248.419303,43 248.971588,43 Z" transform="matrix(1 0 0 -1 0 302)"/><path fill="#FFF" d="M248.971588,43 C249.484424,43 249.907146,43.3859166 249.964977,43.8832476 L249.97172,43.9998679 L249.999,253.996 C250,256.689422 247.877509,258.882479 245.216875,258.995431 L245,259 L225,259 C223.402319,259 222.096339,257.75108 222.005093,256.176273 L222,256 L222,244.941226 C222,243.343545 223.24892,242.037565 224.823727,241.946318 L225,241.941226 L231,241.941226 C232.597681,241.941226 233.903661,243.190146 233.994907,244.764953 L234,244.941226 L234,246.003079 C234,247.600759 232.75108,248.906739 231.176273,248.997986 L231,249.003079 L230,249.003079 C229.487164,249.003079 229.064493,249.389119 229.006728,249.886457 L229,250.003079 L229,250.938147 C229,251.450983 229.38604,251.873654 229.883379,251.931419 L230,251.938147 L236,251.938147 C236.512836,251.938147 236.935507,251.552107 236.993272,251.054768 L237,250.938147 L237,240.006157 C237,239.493321 236.61396,239.07065 236.116621,239.012885 L236,239.006157 L218,239.006157 C217.447715,239.006157 217,238.558442 217,238.006157 C217,237.493321 217.38604,237.07065 217.883379,237.012885 L218,237.006157 L236,237.006157 C237.597681,237.006157 238.903661,238.255077 238.994907,239.829884 L239,240.006157 L239,250.938147 C239,252.535828 237.75108,253.841808 236.176273,253.933054 L236,253.938147 L230,253.938147 C228.402319,253.938147 227.096339,252.689227 227.005093,251.11442 L227,250.938147 L227,250.003079 C227,248.405398 228.24892,247.099418 229.823727,247.008171 L230,247.003079 L231,247.003079 C231.512836,247.003079 231.935507,246.617038 231.993272,246.1197 L232,246.003079 L232,244.941226 C232,244.42839 231.61396,244.005719 231.116621,243.947953 L231,243.941226 L225,243.941226 C224.487164,243.941226 224.064493,244.327266 224.006728,244.824605 L224,244.941226 L224,256 C224,256.512836 224.38604,256.935507 224.883379,256.993272 L225,257 L245.000239,257 C246.597719,257.000382 247.903663,255.751619 247.994907,254.176803 L247.999471,254.000132 L247.97172,44.0001321 C247.971647,43.4478474 248.419303,43 248.971588,43 Z" transform="matrix(1 0 0 -1 0 302)"/></g></svg>