<svg xmlns="http://www.w3.org/2000/svg" width="262" height="442" viewBox="0 0 262 442"><g fill="none" fill-rule="evenodd"><rect width="260" height="440" x="1" y="1" fill="#000" rx="24"/><path fill="#FFF" d="M132.000022,136 C173.973663,136 208.000022,170.026359 208.000022,212 C208.000022,253.973641 173.973663,288 132.000022,288 C90.0263809,288 56.0000219,253.973641 56.0000219,212 C56.0000219,170.026359 90.0263809,136 132.000022,136 Z M132.000022,138 C91.1309504,138 58.0000219,171.130929 58.0000219,212 C58.0000219,252.869071 91.1309504,286 132.000022,286 C172.869093,286 206.000022,252.869071 206.000022,212 C206.000022,171.130929 172.869093,138 132.000022,138 Z"/><circle cx="132" cy="212" r="68" fill="#FFD600"/><path fill="#FFF" d="M132.000022,144 C169.555385,144 200.000022,174.444637 200.000022,212 C200.000022,249.555363 169.555385,280 132.000022,280 C94.4446589,280 64.0000219,249.555363 64.0000219,212 C64.0000219,174.444637 94.4446589,144 132.000022,144 Z M132.000022,146 C95.5492284,146 66.0000219,175.549207 66.0000219,212 C66.0000219,248.450793 95.5492284,278 132.000022,278 C168.450815,278 198.000022,248.450793 198.000022,212 C198.000022,175.549207 168.450815,146 132.000022,146 Z"/><g transform="translate(63.309 140.395)"><path fill="#FFF" d="M29.274811,82.3256559 C35.337089,84.0252654 39.495981,72.4929185 31.5254771,71.28768 C28.21845,70.7888452 25.9593137,68.9854513 25.9593137,66.5716264 C25.9593137,63.5585302 22.8458923,61.4515947 19.3125886,61.4549387 C16.155606,61.4549387 13.9170403,62.8588223 12.4516872,64.5651275 C10.9863342,66.2714328 8.59530406,65.8696866 6.96417619,65.9701231 C5.33304831,66.0705597 2.28617888,66.872936 1.30605012,68.8794349 C0.325921348,70.8859338 1.57830811,73.2194095 1.30605012,74.0976712 C1.18262649,74.5016493 0.0863343158,75.5060147 0.00405190075,78.1586554 C-0.167773142,83.5297784 5.17090355,82.0522453 7.31992663,81.6873259 C9.4689497,81.3224064 11.6010323,79.7555964 12.4589475,80.2298801 C14.0646646,81.1159535 16.9505993,83.5297784 19.3198488,83.5297784 C22.9620557,83.5297784 23.6082147,80.6784966 24.8860122,80.2298801 C26.1638097,79.7812635 28.0913963,81.9942153 29.274811,82.3256559"/><path fill="#FF6963" d="M39.0422177,48.2441896 C38.5582035,62.2517392 17.9597689,112.269137 17.9597689,112.269137 L70.1861118,112.269137 C70.1861118,112.269137 82.2150749,73.8320724 83.0814603,58.6884739 C83.9478457,43.5448754 39.0422177,48.2441896 39.0422177,48.2441896"/><path fill="#000" d="M80.0829923,105.874677 C79.5989781,102.627229 73.3140536,100.997925 73.3140536,100.997925 L68.9482455,102.886132 C56.5478015,103.398358 33.6152084,105.612426 21.813732,102.916263 L21.8052618,102.916263 L23.4206592,98.6198107 C23.4206592,98.6198107 14.0924954,97.5228205 13.0506548,100.697731 C11.284003,106.084478 4.07340134,126.662809 42.6372332,131.171294 C81.7794621,135.74562 81.5507654,115.584659 80.0829923,105.874677"/><path fill="#FFF" d="M123.051353 40.8955827C128.72037 42.4847119 132.206482 33.539164 124.753873 32.4142747 121.661023 31.9466868 119.429717 30.258237 119.550721 28.0039946 119.947612 20.9533494 108.072324 20.2179308 106.91916 26.1280632 106.392794 28.8264583 103.666584 39.6311982 114.542384 38.2808847 118.904562 37.7407593 121.944171 40.5853453 123.051353 40.8955827M97.5329144 23.1082712C98.7235894 25.1582926 102.304084 23.9072997 101.713587 21.0917287 101.534502 20.2357861 99.8319819 17.3510255 98.5674948 16.3053695 97.0585805 15.0510287 95.9138869 20.3150194 97.5329144 23.1082712M12.7203151 4.89576726C12.9223911 1.31241467 6.88673391.93856754 6.3071269 3.94162012 6.03970905 5.31313689 6.15950257 6.529535 2.52334584 7.46359483-.13873229 8.1499112.451765041 11.987703 3.8640652 12.0792119 4.9034857 12.1071109 6.57938489 10.593867 8.66306605 10.2434551 12.3355238 9.62521239 12.6561833 6.04185979 12.7203151 4.89576726M10.4309279 16.1770339C9.17612111 16.4995468 9.46289953 18.3040567 11.0613564 18.3464632 11.5453706 18.3598547 13.9497112 18.2292872 14.0307836 17.424679 14.1917183 15.8109985 12.1394981 15.7373451 10.4309279 16.1770339M121.717894 75.1901976C114.999777 76.6097007 111.35636 83.3367171 108.689442 84.2875163 107.479406 84.7193935 103.038576 84.1558329 96.2744775 88.595128 85.9081033 95.4024935 88.8037182 106.19719 95.8255543 106.612328 108.167917 107.342166 135.220681 90.4744073 135.272727 79.0670481 135.286023 74.8152345 126.515685 74.1757886 121.717894 75.1901976"/><path fill="#FF6963" d="M38.0415183,59.729666 C49.0734121,49.0867406 23.9796956,16.7807691 17.9549288,30.1879314 C10.0074155,47.8881978 28.7363452,66.7535282 30.7232235,78.7958694 C48.2118668,89.5648986 33.2897089,48.5187161 33.2897089,48.5187161 L38.0415183,59.729666 Z"/><path fill="#C577FF" d="M24.7166072,11.1875697 C28.8767093,0.531252728 77.4741557,2.58127413 80.9614781,3.61688646 C88.4576481,5.84322979 113.241596,81.103678 113.241596,85.7047875 C113.241596,90.3058971 65.2782077,108.416837 56.2707034,106.641343 C47.263199,104.865848 23.2681947,14.898142 24.7166072,11.1875697"/><path fill="#C577FF" d="M16.29476,8.44342025 C20.4536521,-2.21289677 69.0523085,-0.162875368 72.5384208,0.872736968 C80.0321708,3.1046601 104.819748,78.3595285 104.819748,82.960638 C104.819748,87.5617476 56.8551505,105.672688 47.841596,103.890497 C38.8280414,102.108307 14.8463475,12.1539925 16.29476,8.44342025"/><path fill="#C577FF" d="M56.2707034,106.641343 C56.2707034,106.641343 50.1334032,105.739646 47.8476461,103.896077 C45.5618891,102.052509 69.6597463,0.503353688 72.5384208,0.871731698 C75.4170953,1.24212025 81.4830034,2.74420452 83.0209585,5.41581651 C84.5589137,8.08742851 56.2707034,106.641343 56.2707034,106.641343"/><path fill="#FFF" d="M79.5590469,6.36326788 C71.1335696,3.20286472 30.1399864,6.42687769 29.1429171,11.4844155 C26.7288963,23.7309778 54.6710364,101.507919 57.3597353,102.810246 C60.0484342,104.112574 108.817706,88.302746 108.575699,83.8489434 C108.333691,79.3951408 82.8781743,7.60756503 79.5590469,6.36326788"/><path fill="#FF6963" d="M28.9952928,41.5439563 C39.5226018,19.6811532 29.1429171,11.4844155 17.9597689,30.1879314 C7.92857449,46.9641817 28.7411854,66.7535282 30.7280637,78.7958694 C30.8333368,66.4823495 26.7700375,46.1640372 28.9952928,41.5439563"/><path fill="#FFD600" d="M44.5224686,55.0359317 C48.4780747,66.1096183 61.4194045,72.129115 73.4265869,68.4810367 C85.4337693,64.8329583 93.8616667,53.4534982 89.9096907,42.3798115 C85.9577147,31.3061249 73.0079146,25.2877442 61.0007322,28.9358225 C48.9935498,32.5839009 40.5656524,43.962245 44.5224686,55.0359317"/><path fill="#002333" d="M63.8576261 47.2956223C58.8843801 45.8571478 53.3775085 48.1426371 52.6781079 50.2384129 51.9787074 52.3341887 54.2511541 52.4960032 55.1235897 51.368882 55.9960253 50.2417608 59.5583699 48.5990654 61.4992668 49.0253627 63.4401638 49.45166 65.8795954 47.8803861 63.8576261 47.2956223M70.1425505 45.3750524C73.3201038 41.5640436 79.2516979 40.5206196 81.128463 41.8664692 83.005228 43.2123189 81.2494665 44.544777 79.8300949 44.0861168 78.4107232 43.6274566 74.4623773 44.4755874 73.1398085 45.8549159 71.8172397 47.2342444 68.8550727 46.9217751 70.1425505 45.3750524M50.4080813 45.4297345C50.2386763 47.7129919 47.4374441 49.4159492 47.7871444 50.5910568 48.1368446 51.7661643 53.1113006 48.3836848 52.5474241 45.3226022 51.9835475 42.2615196 50.6077372 42.744731 50.4080813 45.4297345M79.2153968 36.8669614C80.652919 38.7328491 84.0059274 38.8366336 84.3737782 40.0061613 84.741629 41.175689 78.5801282 40.6880138 77.3253213 37.806601 76.0705145 34.9251883 77.5249772 34.672981 79.2153968 36.8669614M83.8716135 51.8855722C84.3955589 58.2889597 76.3827037 63.4625575 72.0640869 64.173425 62.5447375 65.742467 55.8096798 60.427142 55.950044 59.5399526 56.054107 58.888231 57.7360564 58.9060864 58.0918068 59.3390795 58.4475573 59.7720726 64.7361118 60.7496549 70.2817046 59.3000208 79.9801393 56.7656721 82.7220797 52.2549555 82.7220797 52.2549555L83.8716135 51.8855722Z"/><path fill="#FFF" d="M57.1600795,59.6069103 C57.1600795,59.6069103 60.2517202,61.6323805 62.0643534,61.9191826 C65.3834808,62.4425686 80.6141979,57.4385969 81.4624328,56.1161825 C82.2332254,54.9075961 83.1334918,52.6567016 82.7220797,52.2605353 C82.3106677,51.8643689 57.1600795,59.6069103 57.1600795,59.6069103"/><path fill="#002333" d="M57.1745878,58.7342283 C66.3224563,56.3661579 79.7223896,51.8509774 81.9428048,51.4894058 C84.1632199,51.1278343 84.2939038,52.2147808 83.246013,52.5763524 C82.1981223,52.9379239 59.9249985,59.701767 57.8352672,59.9416987 C55.7455359,60.1816305 55.2167503,59.2408749 57.1745878,58.7342283"/><path fill="#0080FF" d="M51.7512207 54.8674215C52.8620333 51.6467564 52.9080147 65.2235449 51.2381657 67.8460545 48.4792847 72.1782173 43.856949 68.6986492 45.2000884 65.4456212 46.5432279 62.1925932 50.6754991 57.9854181 51.7512207 54.8674215M85.967395 43.9700568C83.1516423 41.8073233 91.0362338 53.2727124 93.9742 54.6542728 98.8276524 56.9352983 100.697157 51.7059024 97.6623882 49.6324458 94.6276192 47.5589892 88.6996552 46.0647166 85.967395 43.9700568"/><path fill="#FF6963" d="M109.000421,61.1223861 C117.159691,53.2503932 121.854628,45.8325966 100.369238,38.7908791 C85.8911628,34.0446946 86.0908186,47.216389 95.8921063,50.4236625 C102.540041,52.5964397 105.484058,52.8307916 105.484058,52.8307916 L109.000421,61.1223861 Z"/><path fill="#FF6963" d="M108.829806,70.0132519 C115.165552,60.8244243 118.201531,52.703572 95.6404189,49.6659246 C80.4375327,47.6192511 83.4190602,60.5007955 93.7188825,61.879008 C100.699577,62.8130679 103.641174,62.5139902 103.641174,62.5139902 L108.829806,70.0132519 Z"/><path fill="#FF6963" d="M111.968638,80.2979537 C118.304384,71.1080102 121.340363,62.9871579 98.779251,59.9495105 C83.5751548,57.902837 86.5578923,70.7854973 96.8577146,72.1637098 C103.837199,73.0977697 104.53176,71.80995 106.780006,72.797576 C108.947179,73.757303 111.968638,80.2979537 111.968638,80.2979537"/><path fill="#002333" d="M48.7527527,11.3728194 C50.532715,11.2009613 61.8864782,9.81047317 62.9718801,9.81047317 C64.0572819,9.81047317 65.8759653,10.5916463 62.9718801,11.3728194 C60.0677948,12.1539925 50.2205258,12.4709255 48.7527527,12.8124098 C47.2849796,13.153894 47.1204148,11.5312859 48.7527527,11.3728194"/></g><path fill="#FFF" d="M238.000022,0 C251.254856,0 262.000022,10.745166 262.000022,24 L262.000022,418 C262.000022,431.254834 251.254856,442 238.000022,442 L25.0000219,442 C11.7451879,442 1.00002189,431.254834 1.00002189,418 L1.00002189,24 C1.00002189,10.745166 11.7451879,0 25.0000219,0 L238.000022,0 Z M238.000022,2 L25.0000219,2 C12.97126,2 3.19724665,11.6537258 3.00296926,23.6361898 L3.00002189,24 L3.00002189,418 C3.00002189,430.028762 12.6537477,439.802775 24.6362117,440 L25.0000219,440 L238.000022,440 C250.028784,440 259.802797,430.346274 259.997075,418.36381 L260.000022,418 L260.000022,24 C260.000022,11.9712381 250.346296,2.19722476 238.363832,2 L238.000022,2 Z"/><g fill="#FFF" transform="matrix(1 0 0 -1 0 153)"><path d="M0.343349604,21.0932665 C0.759869533,20.7305964 1.39152785,20.7742503 1.75419794,21.1907703 C3.7771646,23.5141103 7.34925006,24.7448001 12.525073,24.8151838 L13.0000219,24.818384 C23.4814355,24.818384 29.0000219,28.8186399 29.0000219,36.7384729 C29.0000219,43.4811004 26.5149393,47.073864 22.2647002,48.2431034 C21.0375187,48.5807006 19.9691066,48.68211 18.4229978,48.6777562 L17.0000219,48.6585619 C12.2524871,48.6585619 8.00002189,45.5117727 8.00002189,39.716679 C8.00002189,36.3909196 10.3110166,33.9363257 13.3262786,33.4043534 C16.3899194,32.8638457 19.0000219,34.5613935 19.0000219,37.7312083 C19.0000219,38.283493 18.5523066,38.7312083 18.0000219,38.7312083 C17.4477371,38.7312083 17.0000219,38.283493 17.0000219,37.7312083 C17.0000219,35.9342947 15.6125085,35.0318895 13.6737652,35.3739353 C11.5704096,35.7450231 10.0000219,37.4129907 10.0000219,39.716679 C10.0000219,44.1598295 13.1150105,46.557461 16.76626,46.6554339 L17.7129714,46.6688898 C19.5020014,46.7044979 20.5563083,46.6387817 21.7342085,46.3147418 C25.0778951,45.3948947 27.0000219,42.6160143 27.0000219,36.7384729 C27.0000219,30.1867733 22.623699,26.916723 13.4216231,26.8205691 L13.0000219,26.818384 C7.04295808,26.818384 2.77165406,25.4049591 0.24584584,22.5041148 C-0.116824248,22.0875949 -0.0731703262,21.4559366 0.343349604,21.0932665 Z"/><path d="M12.9781123,11.9130644 C24.8160953,11.6536363 33.1861447,16.8469137 37.8761841,27.3218384 C41.2302427,33.4185188 45.7910273,36.5160736 51.6332159,36.7220959 L52.0000219,36.7312083 L85.0000219,36.7312083 C85.5523066,36.7312083 86.0000219,37.1789235 86.0000219,37.7312083 C86.0000219,38.2440441 85.6139817,38.6667154 85.116643,38.7244806 L85.0000219,38.7312083 L51.9855236,38.7312083 C45.1981716,38.6326876 39.8796365,35.1127557 36.0874488,28.2127683 C31.7562618,18.5468509 24.2830957,13.8089142 13.4788419,13.90543 L13.0000219,13.9128243 L1.00002189,13.9128243 C0.447737138,13.9128243 2.18881046e-05,13.4651091 2.18881046e-05,12.9128243 C2.18881046e-05,12.3999885 0.386062078,11.9773171 0.883400763,11.919552 L1.00002189,11.9128243 L12.9781123,11.9130644 Z"/><path d="M13.0000219 0C28.1685138 0 38.8286202 4.77926788 44.8398114 14.3553829L45.8208869 15.8628874 46.7211841 17.2231454 47.3474612 18.1510077 47.9349521 19.003079 48.4865076 19.7823745 49.0049785 20.4919093 49.3336531 20.9276655 49.6497351 21.3346504 49.9540692 21.7137573 50.2474999 22.0658795C50.2955433 22.1223675 50.3431676 22.1777683 50.3903904 22.2321006L50.6690499 22.545421 50.9389177 22.8339903C51.0275022 22.9261541 51.1147622 23.0143416 51.2008385 23.0987017L51.455657 23.3404487 51.7042177 23.5601245 51.9473655 23.7586227C52.1479678 23.9154619 52.3438114 24.0511716 52.537096 24.1680783L52.7679498 24.2994897C53.0744926 24.4630679 53.3767366 24.5808927 53.6836915 24.6624932L53.9149317 24.7170504C53.9536659 24.7250609 53.9925089 24.7325426 54.0314782 24.7395142L54.2669521 24.7753703 54.5063042 24.7998758C54.5465664 24.8030638 54.5870253 24.805816 54.6276986 24.8081512L54.8744518 24.8173057 66.0000219 24.8184081C66.5523066 24.8184081 67.0000219 25.2661233 67.0000219 25.8184081 67.0000219 26.3312439 66.6139817 26.7539153 66.116643 26.8116804L66.0000219 26.8184081 55.0000219 26.8184081C54.8899175 26.8184081 54.7813757 26.81678 54.6742496 26.8133881L54.3569715 26.7977852C53.2603352 26.7237042 52.3035891 26.4401924 51.3167217 25.7900843L51.0337932 25.5942279C50.5603899 25.2507225 50.0764849 24.8206944 49.5637204 24.2871732L49.2524516 23.9545054C49.1999474 23.8969457 49.1471178 23.8383171 49.0939446 23.7786026L48.7706342 23.40715C48.7160128 23.3430242 48.6610111 23.2777787 48.6056106 23.2113965L48.268276 22.7993261 47.9204903 22.3591589 47.5613725 21.8900804 47.1900414 21.3912759 46.8056158 20.8619309 46.4072144 20.3012308 45.9939563 19.708361 45.5649601 19.0825069 44.8900294 18.0800982 44.417833 17.3682194 43.6739716 16.2329554 43.1530676 15.4299608C37.6178383 6.61222973 27.813207 2.12725782 13.6113648 2.00266978L13.0000219 2 1.00002189 2C.447737138 2 .0000218881046 1.55228475.0000218881046 1 .0000218881046.487164161.386062078.0644928393.883400763.00672773133L1.00002189 0 13.0000219 0ZM36.2854169 50.6658491C39.5171155 47.4416691 44.8261827 46.4267991 52.1471411 47.5157014 52.6934163 47.5969531 53.0703924 48.1056642 52.9891407 48.6519394 52.907889 49.1982146 52.3991779 49.5751906 51.8529027 49.4939389 45.0957863 48.4889012 40.3993054 49.3866705 37.6979825 52.0817087L36.4003719 53.3684179 35.9611321 53.7948113C30.1748726 59.373017 25.0148364 62 17.0088989 62 9.82012234 62 4.20115617 59.6503853.235731238 54.9506348-.120421693 54.5285287-.0669561096 53.8976251.355149961 53.5414722.777256031 53.1853193 1.40815961 53.2387849 1.76431254 53.6608909 5.32992415 57.8867899 10.3835426 60 17.0088989 60 24.2653265 60 28.9254912 57.7061036 34.2263893 52.6862025L34.9765589 51.963401 35.758125 51.1913094 36.2854169 50.6658491Z"/></g><path fill="#FFF" d="M249.000141,359.065904 C249.512916,359.065904 249.935537,359.451944 249.993295,359.949283 L250.000022,360.065904 L250.000022,413 C250.000022,422.280923 242.56371,429.824796 233.325043,429.996992 L233.002042,430 L73.3154877,430 C72.7632685,430 72.3156065,429.552285 72.3156065,429 C72.3156065,428.487164 72.7016008,428.064493 73.1988804,428.006728 L73.3154877,428 L233.002042,428 C241.180477,428 247.83001,421.453214 247.997042,413.313828 L248.00026,413 L248.00026,360.065904 C248.00026,359.513619 248.447922,359.065904 249.000141,359.065904 Z M93.3563454,11 C93.9085645,11 94.3562266,11.4477153 94.3562266,12 C94.3562266,12.5128358 93.9702323,12.9355072 93.4729527,12.9932723 L93.3563454,13 L28.0262785,13 C19.8478432,13 13.1983101,19.5467864 13.031278,27.6861718 L13.0280606,28 L13.0178387,55.089211 L13.0006603,72.2784075 L12.9997843,77.0659039 C12.9997843,77.6181886 12.5521222,78.0659039 11.9999031,78.0659039 C11.4871282,78.0659039 11.0645071,77.6798637 11.0067488,77.182525 L11.0000219,77.0659039 L11.0039194,67.6367327 L11.0260908,42.5339187 L11.0282982,28 C11.0282982,18.719077 18.4646102,11.175204 27.7032772,11.0030079 L28.0262785,11 L93.3563454,11 Z"/><path fill="#FFF" d="M34.0000219,169 C35.5977028,169 36.9036828,170.246716 36.9949292,171.818744 L37.0000219,171.994706 L37.0000219,182.911995 C37.0000219,184.506856 35.7511019,185.810532 34.1762947,185.901617 L34.0000219,185.906701 L28.0000219,185.906701 C26.402341,185.906701 25.096361,184.659985 25.0051146,183.087957 L25.0000219,182.911995 L25.0000219,181.977059 C25.0000219,180.382198 26.2489419,179.078522 27.8237491,178.987437 L28.0000219,178.982353 L29.0000219,178.982353 C29.5128577,178.982353 29.935529,178.596994 29.9932942,178.100533 L30.0000219,177.984118 L30.0000219,176.922583 C30.0000219,176.410652 29.6139817,175.988727 29.116643,175.931063 L29.0000219,175.924347 L23.0000219,175.924347 C22.487186,175.924347 22.0645147,176.309706 22.0067496,176.806167 L22.0000219,176.922583 L22.0000219,187.966471 C22.0000219,188.478402 22.3860621,188.900328 22.8834008,188.957991 L23.0000219,188.964707 L41.0000219,188.964707 C41.5523066,188.964707 42.0000219,189.411632 42.0000219,189.962942 C42.0000219,190.474873 41.6139817,190.896798 41.116643,190.954461 L41.0000219,190.961177 L23.0000219,190.961177 C21.402341,190.961177 20.096361,189.714461 20.0051146,188.142433 L20.0000219,187.966471 L20.0000219,176.922583 C20.0000219,175.327721 21.2489419,174.024046 22.8237491,173.932961 L23.0000219,173.927877 L29.0000219,173.927877 C30.5977028,173.927877 31.9036828,175.174593 31.9949292,176.746621 L32.0000219,176.922583 L32.0000219,177.984118 C32.0000219,179.578979 30.7511019,180.882655 29.1762947,180.97374 L29.0000219,180.978824 L28.0000219,180.978824 C27.487186,180.978824 27.0645147,181.364183 27.0067496,181.860644 L27.0000219,181.977059 L27.0000219,182.911995 C27.0000219,183.423926 27.3860621,183.845851 27.8834008,183.903514 L28.0000219,183.91023 L34.0000219,183.91023 C34.5128577,183.91023 34.935529,183.524871 34.9932942,183.02841 L35.0000219,182.911995 L35.0000219,171.994706 C35.0000219,171.482775 34.6139817,171.06085 34.116643,171.003187 L34.0000219,170.996471 L16.0000219,170.996471 C14.402341,170.996471 13.096361,172.243187 13.0051146,173.815215 L13.0000219,173.991177 L13.0000219,394.001765 C13.0000219,394.553075 12.5523066,395 12.0000219,395 C11.487186,395 11.0645147,394.614641 11.0067496,394.11818 L11.0000219,394.001765 L11.0000219,173.991177 C11.0000219,171.307167 13.1223286,169.117973 15.7831323,169.004611 L16.0000219,169 L34.0000219,169 Z" transform="matrix(1 0 0 -1 0 564)"/><path fill="#FFF" d="M74.6755374,398.28686 C75.1883733,398.28686 75.6110446,398.6729 75.6688097,399.170239 L75.6755374,399.28686 L75.6755374,423.581332 C75.6755374,426.270087 73.5532307,428.46315 70.8924271,428.576712 L70.6755374,428.581332 L50.6755374,428.581332 C49.0778565,428.581332 47.7718766,427.332412 47.6806301,425.757605 L47.6755374,425.581332 L47.6755374,414.51792 C47.6755374,412.920239 48.9244574,411.614259 50.4992646,411.523013 L50.6755374,411.51792 L56.6755374,411.51792 C58.2732183,411.51792 59.5791983,412.76684 59.6704447,414.341648 L59.6755374,414.51792 L59.6755374,415.581332 C59.6755374,417.179013 58.4266175,418.484993 56.8518102,418.576239 L56.6755374,418.581332 L55.6755374,418.581332 C55.1627016,418.581332 54.7400303,418.967372 54.6822652,419.464711 L54.6755374,419.581332 L54.6755374,420.51792 C54.6755374,421.030756 55.0615776,421.453427 55.5589163,421.511193 L55.6755374,421.51792 L61.6755374,421.51792 C62.1883733,421.51792 62.6110446,421.13188 62.6688097,420.634541 L62.6755374,420.51792 L62.6755374,409.581332 C62.6755374,409.068496 62.2894972,408.645825 61.7921586,408.58806 L61.6755374,408.581332 L43.6755374,408.581332 C43.1232527,408.581332 42.6755374,408.133617 42.6755374,407.581332 C42.6755374,407.068496 43.0615776,406.645825 43.5589163,406.58806 L43.6755374,406.581332 L61.6755374,406.581332 C63.2732183,406.581332 64.5791983,407.830252 64.6704447,409.405059 L64.6755374,409.581332 L64.6755374,420.51792 C64.6755374,422.115601 63.4266175,423.421581 61.8518102,423.512828 L61.6755374,423.51792 L55.6755374,423.51792 C54.0778565,423.51792 52.7718766,422.269 52.6806301,420.694193 L52.6755374,420.51792 L52.6755374,419.581332 C52.6755374,417.983651 53.9244574,416.677671 55.4992646,416.586425 L55.6755374,416.581332 L56.6755374,416.581332 C57.1883733,416.581332 57.6110446,416.195292 57.6688097,415.697953 L57.6755374,415.581332 L57.6755374,414.51792 C57.6755374,414.005084 57.2894972,413.582413 56.7921586,413.524648 L56.6755374,413.51792 L50.6755374,413.51792 C50.1627016,413.51792 49.7400303,413.90396 49.6822652,414.401299 L49.6755374,414.51792 L49.6755374,425.581332 C49.6755374,426.094168 50.0615776,426.516839 50.5589163,426.574604 L50.6755374,426.581332 L70.6755374,426.581332 C72.2732183,426.581332 73.5791983,425.332412 73.6704447,423.757605 L73.6755374,423.581332 L73.6755374,399.28686 C73.6755374,398.734576 74.1232527,398.28686 74.6755374,398.28686 Z" transform="rotate(90 59.176 413.434)"/><path fill="#FFF" d="M199.500022,3.5 C201.097703,3.5 202.403683,4.74891996 202.494929,6.32372721 L202.500022,6.5 L202.500022,17.4365883 C202.500022,19.0342692 201.251102,20.3402492 199.676295,20.4314956 L199.500022,20.4365883 L193.500022,20.4365883 C191.902341,20.4365883 190.596361,19.1876683 190.505115,17.6128611 L190.500022,17.4365883 L190.500022,16.5 C190.500022,14.9023191 191.748942,13.5963391 193.323749,13.5050927 L193.500022,13.5 L194.500022,13.5 C195.012858,13.5 195.435529,13.1139598 195.493294,12.6166211 L195.500022,12.5 L195.500022,11.4365883 C195.500022,10.9237524 195.113982,10.5010811 194.616643,10.443316 L194.500022,10.4365883 L188.500022,10.4365883 C187.987186,10.4365883 187.564515,10.8226285 187.50675,11.3199672 L187.500022,11.4365883 L187.500022,22.5 C187.500022,23.0128358 187.886062,23.4355072 188.383401,23.4932723 L188.500022,23.5 L206.500022,23.5 C207.052307,23.5 207.500022,23.9477153 207.500022,24.5 C207.500022,25.0128358 207.113982,25.4355072 206.616643,25.4932723 L206.500022,25.5 L188.500022,25.5 C186.902341,25.5 185.596361,24.25108 185.505115,22.6762728 L185.500022,22.5 L185.500022,11.4365883 C185.500022,9.8389074 186.748942,8.53292741 188.323749,8.44168098 L188.500022,8.43658829 L194.500022,8.43658829 C196.097703,8.43658829 197.403683,9.68550825 197.494929,11.2603155 L197.500022,11.4365883 L197.500022,12.5 C197.500022,14.0976809 196.251102,15.4036609 194.676295,15.4949073 L194.500022,15.5 L193.500022,15.5 C192.987186,15.5 192.564515,15.8860402 192.50675,16.3833789 L192.500022,16.5 L192.500022,17.4365883 C192.500022,17.9494241 192.886062,18.3720954 193.383401,18.4298606 L193.500022,18.4365883 L199.500022,18.4365883 C200.012858,18.4365883 200.435529,18.0505481 200.493294,17.5532094 L200.500022,17.4365883 L200.500022,6.5 C200.500022,5.98716416 200.113982,5.56449284 199.616643,5.50672773 L199.500022,5.5 L182.500022,5.5 C180.357826,5.5 178.608943,7.18396847 178.504917,9.30035966 L178.500022,9.5 L178.500022,48.5 C178.500022,49.0522847 178.052307,49.5 177.500022,49.5 C176.987186,49.5 176.564515,49.1139598 176.50675,48.6166211 L176.500022,48.5 L176.500022,9.5 C176.500022,6.26160306 179.065597,3.62242824 182.275084,3.50413847 L182.500022,3.5 L199.500022,3.5 Z" transform="rotate(90 192 26.5)"/><path fill="#FFF" d="M249.97161,43 C250.484446,43 250.907168,43.3857989 250.964999,43.8829782 L250.971742,43.9995629 L250.998743,253.997526 C251.000022,256.690126 248.877531,258.882515 246.216897,258.995433 L246.000022,259 L226.000022,259 C224.402341,259 223.096361,257.751461 223.005115,256.177134 L223.000022,256.000915 L223.000022,244.940878 C223.000022,243.343684 224.248942,242.038103 225.823749,241.946884 L226.000022,241.941793 L232.000022,241.941793 C233.597703,241.941793 234.903683,243.190332 234.994929,244.764659 L235.000022,244.940878 L235.000022,246.003965 C235.000022,247.601159 233.751102,248.90674 232.176295,248.997959 L232.000022,249.00305 L231.000022,249.00305 C230.487186,249.00305 230.064515,249.388973 230.00675,249.88616 L230.000022,250.002745 L230.000022,250.939048 C230.000022,251.451727 230.386062,251.87427 230.883401,251.932017 L231.000022,251.938743 L237.000022,251.938743 C237.512858,251.938743 237.935529,251.55282 237.993294,251.055633 L238.000022,250.939048 L238.000022,240.005795 C238.000022,239.493116 237.613982,239.070574 237.116643,239.012826 L237.000022,239.0061 L219.000022,239.0061 C218.447737,239.0061 218.000022,238.558522 218.000022,238.006405 C218.000022,237.493726 218.386062,237.071184 218.883401,237.013436 L219.000022,237.00671 L237.000022,237.00671 C238.597703,237.00671 239.903683,238.255249 239.994929,239.829576 L240.000022,240.005795 L240.000022,250.939048 C240.000022,252.536241 238.751102,253.841823 237.176295,253.933042 L237.000022,253.938133 L231.000022,253.938133 C229.402341,253.938133 228.096361,252.689594 228.005115,251.115267 L228.000022,250.939048 L228.000022,250.002745 C228.000022,248.405552 229.248942,247.09997 230.823749,247.008751 L231.000022,247.00366 L232.000022,247.00366 C232.512858,247.00366 232.935529,246.617738 232.993294,246.120551 L233.000022,246.003965 L233.000022,244.940878 C233.000022,244.428198 232.613982,244.005656 232.116643,243.947909 L232.000022,243.941183 L226.000022,243.941183 C225.487186,243.941183 225.064515,244.327105 225.00675,244.824292 L225.000022,244.940878 L225.000022,256.000915 C225.000022,256.513594 225.386062,256.936137 225.883401,256.993884 L226.000022,257.00061 L246.000261,257.00061 C247.597741,257.000992 248.903685,255.752609 248.994929,254.178274 L248.999493,254.001657 L248.971742,43.999827 C248.971669,43.4477108 249.419325,43 249.97161,43 Z" transform="matrix(1 0 0 -1 0 302)"/><g fill="#FFF" transform="rotate(180 130.5 170.5)"><path d="M-0.656672284,20.0932665 C-0.240152355,19.7305964 0.391505959,19.7742503 0.754176048,20.1907703 C2.77714272,22.5141103 6.34922817,23.7448001 11.5250511,23.8151838 L12,23.818384 C22.4814136,23.818384 28,27.8186399 28,35.7384729 C28,42.4811004 25.5149174,46.073864 21.2646783,47.2431034 C20.0374969,47.5807006 18.9690847,47.68211 17.4229759,47.6777562 L16,47.6585619 C11.2524652,47.6585619 7,44.5117727 7,38.716679 C7,35.3909196 9.31099467,32.9363257 12.3262567,32.4043534 C15.3898975,31.8638457 18,33.5613935 18,36.7312083 C18,37.283493 17.5522847,37.7312083 17,37.7312083 C16.4477153,37.7312083 16,37.283493 16,36.7312083 C16,34.9342947 14.6124866,34.0318895 12.6737433,34.3739353 C10.5703877,34.7450231 9,36.4129907 9,38.716679 C9,43.1598295 12.1149886,45.557461 15.7662381,45.6554339 L16.7129495,45.6688898 C18.5019795,45.7044979 19.5562864,45.6387817 20.7341866,45.3147418 C24.0778732,44.3948947 26,41.6160143 26,35.7384729 C26,29.1867733 21.6236771,25.916723 12.4216013,25.8205691 L12,25.818384 C6.04293619,25.818384 1.77163217,24.4049591 -0.754176048,21.5041148 C-1.11684614,21.0875949 -1.07319221,20.4559366 -0.656672284,20.0932665 Z"/><path d="M11.9780904,10.9130644 C23.8160735,10.6536363 32.1861228,15.8469137 36.8761622,26.3218384 C40.2302208,32.4185188 44.7910054,35.5160736 50.633194,35.7220959 L51,35.7312083 L84,35.7312083 C84.5522847,35.7312083 85,36.1789235 85,36.7312083 C85,37.2440441 84.6139598,37.6667154 84.1166211,37.7244806 L84,37.7312083 L50.9855017,37.7312083 C44.1981497,37.6326876 38.8796146,34.1127557 35.0874269,27.2127683 C30.7562399,17.5468509 23.2830738,12.8089142 12.47882,12.90543 L12,12.9128243 L0,12.9128243 C-0.55228475,12.9128243 -1,12.4651091 -1,11.9128243 C-1,11.3999885 -0.61395981,10.9773171 -0.116621125,10.919552 L0,10.9128243 L11.9780904,10.9130644 Z"/><path d="M12-1C27.1684919-1 37.8285984 3.77926788 43.8397895 13.3553829L44.8208651 14.8628874 45.7211623 16.2231454 46.3474393 17.1510077 46.9349302 18.003079 47.4864857 18.7823745 48.0049566 19.4919093 48.3336313 19.9276655 48.6497133 20.3346504 48.9540473 20.7137573 49.247478 21.0658795C49.2955214 21.1223675 49.3431457 21.1777683 49.3903686 21.2321006L49.669028 21.545421 49.9388958 21.8339903C50.0274803 21.9261541 50.1147403 22.0143416 50.2008166 22.0987017L50.4556351 22.3404487 50.7041958 22.5601245 50.9473436 22.7586227C51.1479459 22.9154619 51.3437895 23.0511716 51.5370741 23.1680783L51.7679279 23.2994897C52.0744707 23.4630679 52.3767147 23.5808927 52.6836696 23.6624932L52.9149098 23.7170504C52.953644 23.7250609 52.992487 23.7325426 53.0314564 23.7395142L53.2669302 23.7753703 53.5062824 23.7998758C53.5465445 23.8030638 53.5870034 23.805816 53.6276767 23.8081512L53.87443 23.8173057 65 23.8184081C65.5522847 23.8184081 66 24.2661233 66 24.8184081 66 25.3312439 65.6139598 25.7539153 65.1166211 25.8116804L65 25.8184081 54 25.8184081C53.8898956 25.8184081 53.7813538 25.81678 53.6742277 25.8133881L53.3569496 25.7977852C52.2603133 25.7237042 51.3035672 25.4401924 50.3166999 24.7900843L50.0337713 24.5942279C49.560368 24.2507225 49.076463 23.8206944 48.5636985 23.2871732L48.2524298 22.9545054C48.1999255 22.8969457 48.1470959 22.8383171 48.0939227 22.7786026L47.7706123 22.40715C47.7159909 22.3430242 47.6609892 22.2777787 47.6055887 22.2113965L47.2682541 21.7993261 46.9204684 21.3591589 46.5613506 20.8900804 46.1900195 20.3912759 45.8055939 19.8619309 45.4071926 19.3012308 44.9939344 18.708361 44.5649382 18.0825069 43.8900075 17.0800982 43.4178111 16.3682194 42.6739497 15.2329554 42.1530458 14.4299608C36.6178164 5.61222973 26.8131851 1.12725782 12.6113429 1.00266978L12 1 5.68434189e-14 1C-.55228475 1-1 .55228475-1 0-1-.512835839-.61395981-.935507161-.116621125-.993272269L5.68434189e-14-1 12-1ZM35.285395 49.6658491C38.5170936 46.4416691 43.8261608 45.4267991 51.1471192 46.5157014 51.6933944 46.5969531 52.0703705 47.1056642 51.9891188 47.6519394 51.9078671 48.1982146 51.399156 48.5751906 50.8528808 48.4939389 44.0957644 47.4889012 39.3992835 48.3866705 36.6979606 51.0817087L35.40035 52.3684179 34.9611102 52.7948113C29.1748507 58.373017 24.0148146 61 16.008877 61 8.82010046 61 3.20113428 58.6503853-.76429065 53.9506348-1.12044358 53.5285287-1.066978 52.8976251-.644871927 52.5414722-.222765857 52.1853193.408137719 52.2387849.76429065 52.6608909 4.32990226 56.8867899 9.38352073 59 16.008877 59 23.2653046 59 27.9254693 56.7061036 33.2263674 51.6862025L33.976537 50.963401 34.7581031 50.1913094 35.285395 49.6658491Z"/></g></g></svg>