<svg xmlns="http://www.w3.org/2000/svg" xmlns:xlink="http://www.w3.org/1999/xlink" width="32" height="32" viewBox="0 0 32 32"><defs><polygon id="a" points="0 0 32 0 32 32 0 32"/></defs><g fill="none" fill-rule="evenodd"><mask id="b" fill="#fff"><use xlink:href="#a"/></mask><path fill="#FFF" d="M16.999876,0.999907695 C16.999876,8.62742224 23.0997709,14.830235 30.6873198,14.9964857 L30.9999625,14.9999077 L30.9999625,16.9999077 C23.3725215,16.9999077 17.169553,23.0996459 17.0032981,30.6872621 L16.999876,30.9999077 L14.999876,30.9999077 C14.999876,23.3723029 8.9003131,17.169578 1.31286097,17.0033297 L1.00022211,16.9999077 L1.00022211,14.9999077 C8.62757293,14.9999077 14.8302081,8.90025848 14.996454,1.3125569 L14.999876,0.999907695 L16.999876,0.999907695 Z M15.999,6.578 L15.9639489,6.67584644 C14.3431987,10.9466177 10.9466879,14.3431881 6.6760163,15.9639646 L6.579,15.999 L6.6760163,16.0358508 C10.9466879,17.6566273 14.3431987,21.0531977 15.9639489,25.3239689 L15.999,25.42 L16.0358507,25.3239989 C17.6566717,21.0532376 21.0533175,17.656648 25.324082,16.0358595 L25.421,15.999 L25.324082,15.9639558 C21.0533175,14.3431673 17.6566717,10.9465778 16.0358507,6.67581653 L15.999,6.578 Z" mask="url(#b)"/></g></svg>