<svg xmlns="http://www.w3.org/2000/svg" width="32" height="32" viewBox="0 0 32 32"><path fill="#FFF" fill-rule="evenodd" d="M16,1 C16.5128358,1 16.9355072,1.38604019 16.9932723,1.88337887 L17,2 L17,13.583 L23.292956,7.29283043 C23.683515,6.90234082 24.31668,6.90239704 24.7071696,7.29295601 C25.0976592,7.68351498 25.097603,8.31667996 24.707044,8.70716957 L18.413,15 L30,15 C30.5522847,15 31,15.4477153 31,16 C31,16.5128358 30.6139598,16.9355072 30.1166211,16.9932723 L30,17 L18.414,17 L24.707044,23.2928304 L24.790241,23.3870304 C25.0953007,23.7792945 25.0676215,24.346528 24.7071696,24.707044 C24.31668,25.097603 23.683515,25.0976592 23.292956,24.7071696 L23.292956,24.7071696 L17,18.416 L17,30 C17,30.5522847 16.5522847,31 16,31 C15.4871642,31 15.0644928,30.6139598 15.0067277,30.1166211 L15,30 L15,18.412 L8.70420204,24.7071696 C8.31364307,25.0976592 7.68047809,25.097603 7.28998848,24.707044 C6.92953653,24.346528 6.90185737,23.7792945 7.20691709,23.3870304 L7.29011407,23.2928304 L13.583,17 L2,17 C1.44771525,17 1,16.5522847 1,16 C1,15.4871642 1.38604019,15.0644928 1.88337887,15.0067277 L2,15 L13.584,15 L7.29011407,8.70716957 C6.92959809,8.34671762 6.90181819,7.77948903 7.20680824,7.38717074 L7.28998848,7.29295601 C7.68047809,6.90239704 8.31364307,6.90234082 8.70420204,7.29283043 L8.70420204,7.29283043 L15,13.587 L15,2 C15,1.44771525 15.4477153,1 16,1 Z"/></svg>