<svg xmlns="http://www.w3.org/2000/svg" width="83" height="87" viewBox="0 0 93 97"><g fill="#FFF"><path d="M91.5697285,90.0518597 L63.6116561,62 L59.5031222,63.1059873 L58,67.3288479 L86.1584887,95.5817961 C87.8620272,97.2910492 90.5676471,97.4921378 92.0707693,95.9839733 C93.4736833,94.3752645 93.273267,91.7611127 91.5697285,90.0518597 Z"/><path d="M60.5018732 25.1771723 59.6184698 41.0054245C59.6184698 41.7066762 59.9129376 42.3077491 60.4037173 42.7084643L72.6732097 52.3256303C73.949237 53.3274184 73.5566132 55.4311734 71.9861182 55.8318887L56.9682594 59.8390411C56.3793238 60.0393988 55.8885441 60.440114 55.5940763 61.0411869L50.2936555 75.867651C49.7047199 77.3703332 47.6434452 77.6708696 46.7600417 76.2683663L38.4167868 63.0447631C38.0241631 62.5438691 37.4352274 62.1431538 36.8462918 62.1431538L21.3376533 61.6422598C19.6690024 61.5420809 18.8837549 59.6386835 19.8653143 58.4365378L29.6809082 46.2147227C30.073532 45.7138287 30.2698438 45.012577 30.073532 44.4115041L25.7546706 29.2845036C25.2638909 27.6816426 26.834386 26.2791392 28.3067251 26.8802121L42.7356482 32.5904043C43.3245838 32.790762 44.0116754 32.790762 44.5024551 32.3900467L57.3608832 23.5743113C58.7350663 22.5725232 60.6000292 23.5743113 60.5018732 25.1771723ZM17.6 21.4122495 1.6 5.48238218C.8 4.68588881.8 3.39158709 1.6 2.59509372L1.6 2.59509372C2.4 1.79860036 3.6 1.79860036 4.4 2.59509372L20.4 18.5249611C21.2 19.3214544 21.2 20.5161945 20.4 21.3126878L20.4 21.3126878C19.6 22.2087429 18.4 22.2087429 17.6 21.4122495ZM41 19 41 19C39.9 19 39 18.1 39 17L39 2C39 .9 39.9 0 41 0L41 0C42.1 0 43 .9 43 2L43 17C43 18.1 42.1 19 41 19ZM19 41.9977237 19 41.9977237C19 43.0964717 18.1 43.9954474 17 43.9954474L2 43.9954474C.9 43.9954474 0 43.0964717 0 41.9977237L0 41.9977237C0 40.8989757.9 40 2 40L17 40C18.1 40 19 40.8989757 19 41.9977237Z"/></g></svg>