<svg xmlns="http://www.w3.org/2000/svg" width="11" height="18" viewBox="0 0 11 18"><path d="M4.44,12.408 C4.28,12.408 4.2,12.328 4.2,12.168 L4.2,11.448 C4.2,10.808 4.308,10.24 4.524,9.744 C4.74,9.248 5,8.836 5.304,8.508 C5.608,8.18 6.016,7.784 6.528,7.32 C7.12,6.808 7.56,6.36 7.848,5.976 C8.136,5.592 8.28,5.136 8.28,4.608 C8.28,3.776 8.008,3.12 7.464,2.64 C6.92,2.16 6.184,1.92 5.256,1.92 C4.392,1.92 3.656,2.164 3.048,2.652 C2.44,3.14 2.08,3.84 1.968,4.752 C1.952,4.832 1.928,4.892 1.896,4.932 C1.864,4.972 1.808,4.992 1.728,4.992 L0.24,4.992 C0.08,4.992 0,4.912 0,4.752 C0.032,3.888 0.264,3.096 0.696,2.376 C1.128,1.656 1.736,1.08 2.52,0.648 C3.304,0.216 4.216,0 5.256,0 C6.264,0 7.152,0.192 7.92,0.576 C8.688,0.96 9.276,1.5 9.684,2.196 C10.092,2.892 10.296,3.688 10.296,4.584 C10.296,5.384 10.112,6.044 9.744,6.564 C9.376,7.084 8.832,7.648 8.112,8.256 C7.472,8.816 6.996,9.304 6.684,9.72 C6.372,10.136 6.216,10.656 6.216,11.28 L6.216,12.168 C6.216,12.328 6.136,12.408 5.976,12.408 L4.44,12.408 Z M4.248,17.04 C4.088,17.04 4.008,16.96 4.008,16.8 L4.008,14.88 C4.008,14.72 4.088,14.64 4.248,14.64 L6.168,14.64 C6.328,14.64 6.408,14.72 6.408,14.88 L6.408,16.8 C6.408,16.96 6.328,17.04 6.168,17.04 L4.248,17.04 Z" transform="translate(.648 .96)"/></svg>