<svg xmlns="http://www.w3.org/2000/svg" width="32" height="32" viewBox="0 0 32 32"><g fill="none" fill-rule="evenodd"><path fill="#000" d="M26,1.9992684 L26,19.5 L26,19.5 C26,21.9852814 23.9852814,24 21.5,24 C19.0147186,24 17,21.9852814 17,19.5 C17,17.0147186 19.0147186,15 21.5,15 C22.4252961,15 23.2853652,15.2792703 24.0005166,15.7581204 L24,4.602 L13,7.537 L13,25.5 L13,25.5 C13,27.9852814 10.9852814,30 8.5,30 C6.01471863,30 4,27.9852814 4,25.5 C4,23.0147186 6.01471863,21 8.5,21 C9.42529612,21 10.2853652,21.2792703 11.0005166,21.7581204 L11,6.00068905 L26,1.9992684 Z M8.5,23 C7.11928813,23 6,24.1192881 6,25.5 C6,26.8807119 7.11928813,28 8.5,28 C9.88071187,28 11,26.8807119 11,25.5 C11,24.1192881 9.88071187,23 8.5,23 Z M21.5,17 C20.1192881,17 19,18.1192881 19,19.5 C19,20.8807119 20.1192881,22 21.5,22 C22.8807119,22 24,20.8807119 24,19.5 C24,18.1192881 22.8807119,17 21.5,17 Z"/><path fill="#000" d="M28.2928932,2.29289322 C28.6834175,1.90236893 29.3165825,1.90236893 29.7071068,2.29289322 C30.0976311,2.68341751 30.0976311,3.31658249 29.7071068,3.70710678 L3.70710678,29.7071068 C3.31658249,30.0976311 2.68341751,30.0976311 2.29289322,29.7071068 C1.90236893,29.3165825 1.90236893,28.6834175 2.29289322,28.2928932 L28.2928932,2.29289322 Z" transform="matrix(-1 0 0 1 32 0)"/></g></svg>