<?xml version="1.0" encoding="utf-8"?>
<!-- Generator: Adobe Illustrator 26.0.2, SVG Export Plug-In . SVG Version: 6.00 Build 0)  -->
<svg version="1.1" id="Layer_1" xmlns="http://www.w3.org/2000/svg" xmlns:xlink="http://www.w3.org/1999/xlink" x="0px" y="0px"
	 viewBox="0 0 137 137" style="enable-background:new 0 0 137 137;" xml:space="preserve">
<style type="text/css">
	.st0{fill-rule:evenodd;clip-rule:evenodd;fill:#FFFFFF;}
	.st1{enable-background:new    ;}
</style>
<g>
	<path class="st0" d="M52.5,19.7c1.1-0.7,2.4-1.1,3.7-0.8c1.1,0.2,2.1,0.7,2.8,1.6l0,0L76.8,40c0.7,0.7,1.6,1.1,2.6,1l0,0l26.1-3.5
		c1.4-0.2,2.7,0.2,3.7,1c1,0.8,1.7,1.9,1.9,3.3c0.1,1.1-0.1,2.2-0.6,3.2l0,0L97.4,67.7c-0.5,0.9-0.5,1.9-0.1,2.8l0,0l11.4,23.7
		c0.6,1.2,0.6,2.6,0.2,3.8s-1.3,2.3-2.5,2.9c-1,0.5-2.1,0.6-3.2,0.4l0,0l-25.8-5.4c-1-0.2-2,0.1-2.7,0.8l0,0l-19,18.2
		c-1,1-2.3,1.4-3.6,1.4c-1.3,0-2.5-0.5-3.5-1.5c-0.8-0.8-1.2-1.8-1.4-2.9l0,0l-2.9-26.2c-0.1-1-0.7-1.8-1.6-2.3l0,0L19.7,70.8
		c-1.2-0.7-2.1-1.7-2.4-3c-0.4-1.2-0.3-2.6,0.4-3.8c0.5-1,1.3-1.7,2.3-2.2l0,0l24-10.8c0.9-0.4,1.5-1.2,1.7-2.2l0,0L50.4,23
		C50.7,21.6,51.5,20.5,52.5,19.7z"/>
	<path d="M52.3,117.2c0,0-0.1,0-0.1,0c-1.6,0-3.1-0.7-4.2-1.9c-0.9-0.9-1.5-2.2-1.6-3.5l-2.9-26.2c-0.1-0.7-0.5-1.2-1-1.5L19.3,71.7
		c-1.4-0.8-2.4-2-2.9-3.6c-0.5-1.5-0.3-3.2,0.5-4.6c0.6-1.2,1.6-2.1,2.8-2.6l24-10.8c0.6-0.3,1-0.8,1.1-1.5l4.7-25.9
		c0.3-1.6,1.2-2.9,2.5-3.9c1.3-0.9,2.9-1.3,4.5-1c1.3,0.2,2.5,0.9,3.4,1.9l17.7,19.5c0.4,0.5,1.1,0.7,1.7,0.6l26.1-3.5
		c1.6-0.2,3.2,0.2,4.4,1.2c1.3,1,2.1,2.4,2.3,4c0.2,1.3-0.1,2.6-0.7,3.8L98.3,68.2c-0.3,0.6-0.4,1.3-0.1,1.9l11.4,23.7
		c0.7,1.4,0.8,3.1,0.3,4.6c-0.5,1.5-1.6,2.7-3.1,3.4c-1.2,0.6-2.5,0.7-3.8,0.5l-25.8-5.4c-0.6-0.1-1.3,0.1-1.8,0.5l-19,18.2
		C55.3,116.6,53.9,117.2,52.3,117.2z M55.4,19.8c-0.8,0-1.6,0.2-2.3,0.7c-0.9,0.6-1.5,1.5-1.7,2.6L46.7,49c-0.2,1.3-1.1,2.4-2.3,2.9
		l-24,10.8c-0.8,0.4-1.5,1-1.9,1.8c-0.5,0.9-0.6,2-0.3,3c0.3,1,1,1.9,1.9,2.4l23.2,12.5c1.2,0.6,1.9,1.8,2.1,3.1l2.9,26.2
		c0.1,0.9,0.5,1.7,1.1,2.3c0.7,0.8,1.7,1.2,2.8,1.2c1.1,0,2.1-0.4,2.9-1.1l19-18.2c1-0.9,2.3-1.3,3.6-1l25.8,5.4
		c0.9,0.2,1.8,0.1,2.6-0.3c1-0.5,1.7-1.3,2-2.3c0.4-1,0.3-2.1-0.2-3.1L96.4,70.9c-0.6-1.2-0.5-2.6,0.1-3.7l13.1-22.9
		c0.4-0.8,0.6-1.7,0.5-2.5c-0.1-1.1-0.7-2-1.5-2.6c-0.9-0.6-1.9-0.9-3-0.8l-26.1,3.5c-1.3,0.2-2.6-0.3-3.5-1.3L58.3,21.2
		c-0.6-0.6-1.4-1.1-2.2-1.2C55.8,19.9,55.6,19.8,55.4,19.8z"/>
</g>
<g>
	<path class="st0" d="M56.1,29.1c0.5-0.3,1.1-0.5,1.8-0.4c0.5,0.1,1,0.3,1.3,0.7l0,0l14.8,16.3c1,1.1,2.4,1.6,3.8,1.4l0,0l21.8-3
		c0.6-0.1,1.3,0.1,1.7,0.5c0.5,0.4,0.8,0.9,0.9,1.6c0.1,0.5,0,1-0.3,1.5l0,0L91,66.8c-0.7,1.2-0.8,2.8-0.1,4l0,0l9.5,19.8
		c0.3,0.6,0.3,1.2,0.1,1.8c-0.2,0.6-0.6,1.1-1.2,1.3c-0.5,0.2-1,0.3-1.5,0.2l0,0l-21.5-4.5c-1.4-0.3-2.9,0.1-3.9,1.1l0,0l-15.9,15.2
		c-0.5,0.4-1.1,0.7-1.7,0.7c-0.6,0-1.2-0.3-1.6-0.7c-0.4-0.4-0.6-0.9-0.6-1.4l0,0l-2.4-21.9c-0.2-1.4-1-2.7-2.3-3.4l0,0L28.5,68.7
		c-0.6-0.3-1-0.8-1.1-1.4c-0.2-0.6-0.1-1.2,0.2-1.8c0.2-0.5,0.6-0.8,1.1-1l0,0l20.1-9c1.3-0.6,2.2-1.8,2.5-3.2l0,0l3.9-21.6
		C55.2,30,55.6,29.5,56.1,29.1z"/>
	<path d="M54.9,107.5C54.8,107.5,54.8,107.5,54.9,107.5c-1,0-1.8-0.4-2.4-1c-0.5-0.5-0.8-1.2-0.9-2l-2.4-21.9
		c-0.1-1.1-0.8-2.1-1.7-2.6L28,69.6c-0.8-0.4-1.4-1.1-1.6-2c-0.3-0.9-0.2-1.8,0.3-2.6c0.3-0.6,0.9-1.2,1.6-1.5l20.1-9
		c1-0.5,1.7-1.4,1.9-2.5l3.9-21.6c0.2-0.9,0.7-1.6,1.4-2.2c0.7-0.5,1.6-0.7,2.5-0.5c0.7,0.1,1.4,0.5,1.9,1l14.8,16.3
		c0.7,0.8,1.8,1.2,2.9,1.1l21.8-3c0.9-0.1,1.8,0.1,2.5,0.7c0.7,0.5,1.2,1.3,1.3,2.2c0.1,0.7,0,1.5-0.4,2.1L91.9,67.3
		c-0.5,1-0.6,2.1-0.1,3.1l9.5,19.8c0.4,0.8,0.4,1.7,0.1,2.6c-0.3,0.8-0.9,1.5-1.7,1.9c-0.7,0.3-1.4,0.4-2.1,0.3l-21.5-4.5
		c-1.1-0.2-2.2,0.1-3,0.9l-15.9,15.2C56.5,107.1,55.7,107.5,54.9,107.5z M57.4,29.7c-0.3,0-0.5,0.1-0.8,0.2
		c-0.3,0.2-0.5,0.5-0.6,0.9l-3.9,21.6c-0.3,1.7-1.5,3.2-3.1,3.9l-20.1,9c-0.3,0.1-0.5,0.3-0.6,0.6c-0.2,0.3-0.2,0.7-0.1,1
		c0.1,0.3,0.3,0.6,0.7,0.8l19.4,10.4c1.6,0.8,2.6,2.4,2.8,4.1l2.4,21.9c0,0.3,0.2,0.6,0.4,0.8c0.2,0.3,0.6,0.4,0.9,0.4
		c0.3,0,0.7-0.1,1-0.4l15.9-15.2c1.3-1.2,3.1-1.7,4.8-1.4L98,93c0.3,0.1,0.6,0,0.9-0.1c0.3-0.2,0.6-0.4,0.7-0.8
		c0.1-0.3,0.1-0.7-0.1-1L90,71.3c-0.8-1.6-0.7-3.4,0.2-5L101,47.2c0.1-0.3,0.2-0.6,0.2-0.9c0-0.4-0.2-0.7-0.5-0.9
		c-0.3-0.2-0.6-0.3-1-0.3l-21.8,3c-1.7,0.2-3.5-0.4-4.7-1.7L58.4,30.2c-0.2-0.2-0.5-0.4-0.8-0.4C57.6,29.7,57.5,29.7,57.4,29.7z"/>
</g>
<g class="st1">
	<path d="M51,71.1c-0.8-0.2-1.5-0.6-2.2-1.2c-0.6-0.6-1.1-1.4-1.4-2.5c-0.3-1-0.3-2-0.1-2.8c0.2-0.9,0.6-1.6,1.2-2.1
		c0.6-0.6,1.3-1,2.1-1.2c0.8-0.2,1.6-0.3,2.4-0.1c0.8,0.2,1.5,0.6,2.2,1.2c0.6,0.6,1.1,1.4,1.4,2.5c0.3,1,0.3,2,0.1,2.8
		c-0.2,0.9-0.6,1.6-1.2,2.1c-0.6,0.6-1.3,1-2.1,1.2C52.6,71.2,51.8,71.2,51,71.1z M54.5,68.8c0.4-0.4,0.7-0.9,0.8-1.5
		c0.1-0.6,0.1-1.3-0.1-2.1c-0.2-0.8-0.5-1.4-1-1.8c-0.4-0.5-0.9-0.7-1.5-0.9s-1.1-0.1-1.7,0s-1,0.4-1.4,0.8
		c-0.4,0.4-0.7,0.9-0.8,1.5s-0.1,1.3,0.1,2.1c0.2,0.8,0.5,1.4,1,1.8c0.4,0.5,0.9,0.7,1.5,0.9s1.1,0.1,1.7,0
		C53.6,69.5,54.1,69.2,54.5,68.8z"/>
	<path d="M59.6,68.9L57,59.8c0-0.1,0-0.1,0.1-0.2l3.4-1c1-0.3,1.8-0.3,2.5,0c0.7,0.3,1.1,0.9,1.4,1.7c0.2,0.8,0.2,1.6-0.3,2.2
		c-0.4,0.6-1.1,1.1-2.1,1.4l-2.1,0.6l1.1,4c0,0.1,0,0.1-0.1,0.2L59.8,69C59.7,69.1,59.6,69,59.6,68.9z M61.7,62.6
		c0.5-0.1,0.9-0.4,1.1-0.7c0.2-0.3,0.2-0.7,0.1-1.1c-0.1-0.4-0.4-0.7-0.7-0.9c-0.3-0.2-0.8-0.2-1.3,0l-2.2,0.6l0.8,2.7L61.7,62.6z"
		/>
	<path d="M67.7,66.6L65,57.5c0-0.1,0-0.1,0.1-0.2l5.6-1.6c0.1,0,0.1,0,0.2,0.1l0.3,1c0,0.1,0,0.1-0.1,0.2l-4.3,1.2l0.7,2.5l3.9-1.1
		c0.1,0,0.1,0,0.2,0.1l0.3,1c0,0.1,0,0.1-0.1,0.2l-3.9,1.1l0.9,3l4.5-1.3c0.1,0,0.1,0,0.2,0.1l0.3,1c0,0.1,0,0.1-0.1,0.2l-5.8,1.7
		C67.7,66.7,67.7,66.7,67.7,66.6z"/>
	<path d="M75.5,64.4l-2.6-9.2c0-0.1,0-0.1,0.1-0.2l1.2-0.3c0.1,0,0.2,0,0.2,0l6.4,5.8l-2-7c0-0.1,0-0.1,0.1-0.2L80,53
		c0.1,0,0.1,0,0.2,0.1l2.6,9.2c0,0.1,0,0.1-0.1,0.2l-1.2,0.3c-0.1,0-0.2,0-0.2,0L74.8,57l2,7c0,0.1,0,0.1-0.1,0.2l-1.1,0.3
		C75.5,64.5,75.5,64.5,75.5,64.4z"/>
</g>
<g>
</g>
<g class="st1">
	<path d="M62.2,84.8l-2.6-9.2c0-0.1,0-0.1,0.1-0.2l1.4-0.4c0.1,0,0.2,0,0.3,0.1l4.3,5.1l0.9-6.6c0-0.1,0.1-0.2,0.2-0.2l1.4-0.4
		c0.1,0,0.1,0,0.2,0.1l2.6,9.2c0,0.1,0,0.1-0.1,0.2l-1.1,0.3c-0.1,0-0.1,0-0.2-0.1l-2-7l-0.8,6.1c0,0.1-0.1,0.2-0.1,0.2l-0.8,0.2
		c-0.1,0-0.2,0-0.2-0.1l-3.9-4.7l2,7c0,0.1,0,0.1-0.1,0.2l-1.1,0.3C62.3,85,62.2,84.9,62.2,84.8z"/>
	<path d="M73,81.7l-2.6-9.2c0-0.1,0-0.1,0.1-0.2l5.6-1.6c0.1,0,0.1,0,0.2,0.1l0.3,1c0,0.1,0,0.1-0.1,0.2l-4.3,1.2l0.7,2.5l3.9-1.1
		c0.1,0,0.1,0,0.2,0.1l0.3,1c0,0.1,0,0.1-0.1,0.2l-3.9,1.1l0.9,3l4.5-1.3c0.1,0,0.1,0,0.2,0.1l0.3,1c0,0.1,0,0.1-0.1,0.2l-5.8,1.7
		C73.1,81.8,73.1,81.8,73,81.7z"/>
</g>
</svg>
