<svg xmlns="http://www.w3.org/2000/svg" width="137" height="137" viewBox="0 0 137 137"><g fill="none" fill-rule="evenodd"><path fill="#FFF" stroke="#000" stroke-width="2" d="M66.4237131,17.3325068 C67.6355429,16.9215635 69.0041423,16.9729176 70.2422764,17.5839733 C71.2283394,18.0706245 72.026477,18.8687621 72.5131282,19.8548251 L72.5131282,19.8548251 L84.1595961,43.4531466 C84.5965821,44.338577 85.4412789,44.9522851 86.4184094,45.0942705 L86.4184094,45.0942705 L112.460703,48.8784373 C113.827065,49.0769813 114.983598,49.8105569 115.748905,50.836087 C116.514211,51.8616171 116.888291,53.1791018 116.689747,54.5454639 C116.531624,55.6336491 116.019188,56.6393612 115.23177,57.4069042 L115.23177,57.4069042 L96.3873893,75.7756357 C95.680331,76.4648472 95.3576855,77.4578478 95.5245994,78.43103 L95.5245994,78.43103 L99.9731542,104.368095 C100.206557,105.728936 99.8662732,107.055552 99.1274288,108.100308 C98.3885844,109.145063 97.251179,109.90796 95.8903379,110.141362 C94.8065498,110.327246 93.6917094,110.150673 92.718407,109.638978 L92.718407,109.638978 L69.4254712,97.3931565 C68.5514992,96.9336822 67.5073965,96.9336822 66.6334245,97.3931565 L66.6334245,97.3931565 L43.3404887,109.638978 C42.1183772,110.28148 40.7515376,110.367797 39.5296003,109.987962 C38.3076629,109.608126 37.230628,108.762138 36.588126,107.540026 C36.0764306,106.566724 35.8998572,105.451883 36.0857415,104.368095 L36.0857415,104.368095 L40.5342963,78.43103 C40.7012101,77.4578478 40.3785647,76.4648472 39.6715064,75.7756357 L39.6715064,75.7756357 L20.8271256,57.4069042 C19.8384166,56.4431511 19.3339468,55.1698831 19.3175924,53.890376 C19.301238,52.6108689 19.7729992,51.3251229 20.7367522,50.3364139 C21.5042952,49.5489957 22.5100073,49.0365598 23.5981924,48.8784373 L23.5981924,48.8784373 L49.6404863,45.0942705 C50.6176168,44.9522851 51.4623136,44.338577 51.8992996,43.4531466 L51.8992996,43.4531466 L63.5457675,19.8548251 C64.1568232,18.616691 65.2118834,17.7434502 66.4237131,17.3325068 Z" transform="rotate(-16 68.03 68.03)"/><path fill="#FFF" stroke="#000" stroke-width="2" d="M67.2448262,27.3459337 C67.8147473,27.1526679 68.4583968,27.1768197 69.0406888,27.4641979 C69.5044322,27.693069 69.8797947,28.0684315 70.1086657,28.5321749 L70.1086657,28.5321749 L79.8425317,48.2551416 C80.4763785,49.5394554 81.7016082,50.429637 83.1189327,50.6355863 L83.1189327,50.6355863 L104.884519,53.798311 C105.527116,53.8916859 106.071031,54.236685 106.430953,54.7189897 C106.790875,55.2012944 106.966804,55.8209048 106.873429,56.4635021 C106.799064,56.9752734 106.558067,57.4482577 106.187746,57.8092316 L106.187746,57.8092316 L90.4380198,73.1614202 C89.4124342,74.161119 88.9444381,75.601463 89.186546,77.0130605 L89.186546,77.0130605 L92.9045519,98.6906986 C93.0143207,99.3306994 92.854286,99.954604 92.506809,100.44595 C92.159332,100.937297 91.6244126,101.296086 90.9844118,101.405854 C90.4747084,101.493275 89.9504012,101.410233 89.4926591,101.169584 L89.4926591,101.169584 L70.0249272,90.9347915 C68.7572336,90.2683256 67.2427664,90.2683256 65.9750728,90.9347915 L65.9750728,90.9347915 L46.5073409,101.169584 C45.9325844,101.471751 45.2897624,101.512346 44.7150878,101.33371 C44.1404132,101.155075 43.6338859,100.757208 43.3317185,100.182451 C43.0910692,99.7247091 43.0080271,99.200402 43.0954481,98.6906986 L43.0954481,98.6906986 L46.813454,77.0130605 C47.0555619,75.601463 46.5875658,74.161119 45.5619802,73.1614202 L45.5619802,73.1614202 L29.8122542,57.8092316 C29.3472664,57.3559805 29.1100153,56.7571651 29.1023239,56.1554156 C29.0946324,55.553666 29.3165007,54.9489823 29.7697518,54.4839945 C30.1307257,54.1136733 30.60371,53.8726757 31.1154813,53.798311 L31.1154813,53.798311 L52.8810673,50.6355863 C54.2983918,50.429637 55.5236215,49.5394554 56.1574683,48.2551416 L56.1574683,48.2551416 L65.8913343,28.5321749 C66.1787125,27.9498829 66.6749052,27.5391996 67.2448262,27.3459337 Z" transform="rotate(-16 68 68)"/><text fill="#000" font-family="RelativePro-Medium, Relative Pro" font-size="14" font-weight="400" transform="rotate(-16 67.03 69.03)">
                <tspan x="48.029" y="67.029">OPEN</tspan>
                <tspan x="56.891" y="83.029">ME</tspan>
            </text></g></svg>