<svg xmlns="http://www.w3.org/2000/svg" width="83" height="67" viewBox="0 0 83 67"><path fill="#FFF" fill-rule="evenodd" d="M93.0043916,11 C93.5542509,11 94,11.4472753 94,11.9990173 C94,12.5113492 93.6156551,12.9336052 93.1205006,12.9913135 L93.0043916,12.9980347 L27.9534986,12.9980347 C19.8100121,12.9980347 13.1888943,19.5383877 13.0225759,27.6697748 L13.0193723,27.9832946 L13.0091941,55.0458857 L12.9920891,72.2181909 L12.9912168,77.0009827 C12.9912168,77.5527247 12.5454678,78 11.9956084,78 C11.4850247,78 11.0642096,77.6143392 11.0066982,77.1174892 L11,77.0009827 L11.0038809,67.5810773 L11.0259575,42.5029311 L11.0281555,27.9832946 C11.0281555,18.7114916 18.4326901,11.1750319 27.6318775,11.0030049 L27.9534986,11 L93.0043916,11 Z" transform="translate(-11 -11)"/></svg>