<svg xmlns="http://www.w3.org/2000/svg" width="31" height="260" viewBox="0 0 31 260"><path fill="#FFF" fill-rule="evenodd" d="M39.0000768,172 C40.5977577,172 41.9037377,173.24892 41.9949841,174.823727 L42.0000768,175 L42.0000768,190.497851 C42.0000768,192.095532 40.7511568,193.401512 39.1763496,193.492758 L39.0000768,193.497851 L28.0000768,193.497851 C26.4023959,193.497851 25.0964159,192.248931 25.0051695,190.674124 L25.0000768,190.497851 L25.0000768,188.822082 C25.0000768,187.224401 26.2489967,185.918421 27.823804,185.827175 L28.0000768,185.822082 L33.0010533,185.822082 C33.5138892,185.822082 33.9365605,185.436042 33.9943256,184.938703 L34.0010533,184.822082 L34.0010533,183.0005 C34.0010533,182.487664 33.6150131,182.064993 33.1176745,182.007228 L33.0010533,182.0005 L23.0000768,182.0005 C22.4872409,182.0005 22.0645696,182.38654 22.0068045,182.883879 L22.0000768,183.0005 L22.0000768,196.319433 C22.0000768,196.832269 22.386117,197.25494 22.8834556,197.312705 L23.0000768,197.319433 L41.0000768,197.319433 C41.5523615,197.319433 42.0000768,197.767148 42.0000768,198.319433 C42.0000768,198.832269 41.6140366,199.25494 41.1166979,199.312705 L41.0000768,199.319433 L23.0000768,199.319433 C21.4023959,199.319433 20.0964159,198.070513 20.0051695,196.495706 L20.0000768,196.319433 L20.0000768,183.0005 C20.0000768,181.402819 21.2489967,180.096839 22.823804,180.005593 L23.0000768,180.0005 L33.0010533,180.0005 C34.5987342,180.0005 35.9047142,181.24942 35.9959606,182.824227 L36.0010533,183.0005 L36.0010533,184.822082 C36.0010533,186.419763 34.7521334,187.725743 33.1773261,187.816989 L33.0010533,187.822082 L28.0000768,187.822082 C27.4872409,187.822082 27.0645696,188.208122 27.0068045,188.705461 L27.0000768,188.822082 L27.0000768,190.497851 C27.0000768,191.010687 27.386117,191.433358 27.8834556,191.491123 L28.0000768,191.497851 L39.0000768,191.497851 C39.5129126,191.497851 39.9355839,191.111811 39.993349,190.614472 L40.0000768,190.497851 L40.0000768,175 C40.0000768,174.487164 39.6140366,174.064493 39.1166979,174.006728 L39.0000768,174 L24,174 C18.0212984,174 13.1566348,178.769764 13.0037074,184.711593 L13,185 L13,431 C13,431.552285 12.5522847,432 12,432 C11.4871642,432 11.0644928,431.61396 11.0067277,431.116621 L11,431 L11,185 C11,177.922865 16.6551918,172.166572 23.6931438,172.00355 L24,172 L39.0000768,172 Z" transform="matrix(1 0 0 -1 -11 432)"/></svg>