<svg xmlns="http://www.w3.org/2000/svg" width="81" height="248" viewBox="0 0 81 248"><g fill="#FFF" fill-rule="evenodd"><path d="M30.5,-7.5 C32.0976809,-7.5 33.4036609,-6.25108004 33.4949073,-4.67627279 L33.5,-4.5 L33.5,6.43658829 C33.5,8.03426917 32.25108,9.34024917 30.6762728,9.43149559 L30.5,9.43658829 L24.5,9.43658829 C22.9023191,9.43658829 21.5963391,8.18766832 21.5050927,6.61286108 L21.5,6.43658829 L21.5,5.5 C21.5,3.90231912 22.74892,2.59633912 24.3237272,2.50509269 L24.5,2.5 L25.5,2.5 C26.0128358,2.5 26.4355072,2.11395981 26.4932723,1.61662113 L26.5,1.5 L26.5,0.436588287 C26.5,-0.0762475518 26.1139598,-0.498918873 25.6166211,-0.556683981 L25.5,-0.563411713 L19.5,-0.563411713 C18.9871642,-0.563411713 18.5644928,-0.177371522 18.5067277,0.319967162 L18.5,0.436588287 L18.5,11.5 C18.5,12.0128358 18.8860402,12.4355072 19.3833789,12.4932723 L19.5,12.5 L37.5,12.5 C38.0522847,12.5 38.5,12.9477153 38.5,13.5 C38.5,14.0128358 38.1139598,14.4355072 37.6166211,14.4932723 L37.5,14.5 L19.5,14.5 C17.9023191,14.5 16.5963391,13.25108 16.5050927,11.6762728 L16.5,11.5 L16.5,0.436588287 C16.5,-1.1610926 17.74892,-2.46707259 19.3237272,-2.55831902 L19.5,-2.56341171 L25.5,-2.56341171 C27.0976809,-2.56341171 28.4036609,-1.31449175 28.4949073,0.260315499 L28.5,0.436588287 L28.5,1.5 C28.5,3.09768088 27.25108,4.40366088 25.6762728,4.49490731 L25.5,4.5 L24.5,4.5 C23.9871642,4.5 23.5644928,4.88604019 23.5067277,5.38337887 L23.5,5.5 L23.5,6.43658829 C23.5,6.94942413 23.8860402,7.37209545 24.3833789,7.42986056 L24.5,7.43658829 L30.5,7.43658829 C31.0128358,7.43658829 31.4355072,7.0505481 31.4932723,6.55320941 L31.5,6.43658829 L31.5,-4.5 C31.5,-5.01283584 31.1139598,-5.43550716 30.6166211,-5.49327227 L30.5,-5.5 L13.5,-5.5 C11.3578046,-5.5 9.60892112,-3.81603153 9.50489531,-1.69964034 L9.5,-1.5 L9.5,37.5 C9.5,38.0522847 9.05228475,38.5 8.5,38.5 C7.98716416,38.5 7.56449284,38.1139598 7.50672773,37.6166211 L7.5,37.5 L7.5,-1.5 C7.5,-4.73839694 10.0655749,-7.37757176 13.2750617,-7.49586153 L13.5,-7.5 L30.5,-7.5 Z" transform="rotate(90 23 15.5)"/><path d="M79.9715882,32 C80.484424,32 80.9071463,32.3859166 80.9649772,32.8832476 L80.9717203,32.9998679 L80.9990004,242.996 C81,245.689422 78.877509,247.882479 76.2168751,247.995431 L76,248 L56,248 C54.4023191,248 53.0963391,246.75108 53.0050927,245.176273 L53,245 L53,233.941226 C53,232.343545 54.24892,231.037565 55.8237272,230.946318 L56,230.941226 L62,230.941226 C63.5976809,230.941226 64.9036609,232.190146 64.9949073,233.764953 L65,233.941226 L65,235.003079 C65,236.600759 63.75108,237.906739 62.1762728,237.997986 L62,238.003079 L61,238.003079 C60.4871642,238.003079 60.0644928,238.389119 60.0067277,238.886457 L60,239.003079 L60,239.938147 C60,240.450983 60.3860402,240.873654 60.8833789,240.931419 L61,240.938147 L67,240.938147 C67.5128358,240.938147 67.9355072,240.552107 67.9932723,240.054768 L68,239.938147 L68,229.006157 C68,228.493321 67.6139598,228.07065 67.1166211,228.012885 L67,228.006157 L49,228.006157 C48.4477153,228.006157 48,227.558442 48,227.006157 C48,226.493321 48.3860402,226.07065 48.8833789,226.012885 L49,226.006157 L67,226.006157 C68.5976809,226.006157 69.9036609,227.255077 69.9949073,228.829884 L70,229.006157 L70,239.938147 C70,241.535828 68.75108,242.841808 67.1762728,242.933054 L67,242.938147 L61,242.938147 C59.4023191,242.938147 58.0963391,241.689227 58.0050927,240.11442 L58,239.938147 L58,239.003079 C58,237.405398 59.24892,236.099418 60.8237272,236.008171 L61,236.003079 L62,236.003079 C62.5128358,236.003079 62.9355072,235.617038 62.9932723,235.1197 L63,235.003079 L63,233.941226 C63,233.42839 62.6139598,233.005719 62.1166211,232.947953 L62,232.941226 L56,232.941226 C55.4871642,232.941226 55.0644928,233.327266 55.0067277,233.824605 L55,233.941226 L55,245 C55,245.512836 55.3860402,245.935507 55.8833789,245.993272 L56,246 L76.0002393,246 C77.5977193,246.000382 78.9036633,244.751619 78.9949074,243.176803 L78.9994714,243.000132 L78.9717203,33.0001321 C78.9716474,32.4478474 79.4193034,32 79.9715882,32 Z" transform="matrix(1 0 0 -1 0 280)"/></g></svg>