<svg xmlns="http://www.w3.org/2000/svg" width="197" height="71" viewBox="0 0 197 71"><path fill="#FFF" fill-rule="evenodd" d="M249.000144,361 C249.512906,361 249.935516,361.38604 249.993273,361.883379 L250,362 L250,414.934096 C250,424.215019 242.563872,431.758892 233.325433,431.931088 L233.00244,431.934096 L143.616452,431.957999 L63.230323,431.999082 L53.9998565,432 C53.447651,432 53,431.552285 53,431 C53,430.447715 53.447651,430 53.9998565,430 L201.240476,429.936969 L233.00244,429.934096 C241.180673,429.934096 247.830042,423.38731 247.99707,415.247924 L248.000287,414.934096 L248.000287,362 C248.000287,361.447715 248.447938,361 249.000144,361 Z" transform="translate(-53 -361)"/></svg>