<svg xmlns="http://www.w3.org/2000/svg" width="32" height="32" viewBox="0 0 32 32"><g fill="none" fill-rule="evenodd"><path fill="#FFF" d="M21,2 C23.209139,2 25,3.790861 25,6 L25,26 C25,28.209139 23.209139,30 21,30 L11,30 C8.790861,30 7,28.209139 7,26 L7,6 C7,3.790861 8.790861,2 11,2 L21,2 Z M21,4 L11,4 C9.9456382,4 9.08183488,4.81587779 9.00548574,5.85073766 L9,6 L9,26 C9,27.0543618 9.81587779,27.9181651 10.8507377,27.9945143 L11,28 L21,28 C22.0543618,28 22.9181651,27.1841222 22.9945143,26.1492623 L23,26 L23,6 C23,4.9456382 22.1841222,4.08183488 21.1492623,4.00548574 L21,4 Z"/><path fill="#FFF" d="M16,20 C17.6568542,20 19,21.3431458 19,23 C19,24.6568542 17.6568542,26 16,26 C14.3431458,26 13,24.6568542 13,23 C13,21.3431458 14.3431458,20 16,20 Z M16,22 C15.4477153,22 15,22.4477153 15,23 C15,23.5522847 15.4477153,24 16,24 C16.5522847,24 17,23.5522847 17,23 C17,22.4477153 16.5522847,22 16,22 Z"/></g></svg>