<svg xmlns="http://www.w3.org/2000/svg" width="32" height="32" viewBox="0 0 32 32"><path fill="#FFF" fill-rule="evenodd" d="M24.8479399,1.46990764 C25.1197903,1.90476161 25.0165062,2.46779845 24.6254138,2.78041523 L24.5300924,2.84793991 L21.8385725,4.53085968 C23.1791264,5.96138566 24,7.88483018 24,10 L26,10 C27.1045695,10 28,10.8954305 28,12 L28,15 C28,16.1045695 27.1045695,17 26,17 L24.912,16.9998662 L23.9906961,27.1360928 C23.7142205,29.1487149 22.02018,30.8808742 20.1897851,30.9941153 L20,31 L12,31 C10.1291525,31 8.38810788,29.3764434 8.03473951,27.2993603 L8.00407484,27.0901836 L7.089,16.9998662 L6,17 C4.8954305,17 4,16.1045695 4,15 L4,12 C4,10.8954305 4.8954305,10 6,10 L8,10 L8,10 C8,5.581722 11.581722,2 16,2 C17.5426501,2 18.9833182,2.43663715 20.2051588,3.193066 L23.4699076,1.15206009 C23.9382119,0.859298165 24.555178,1.00160336 24.8479399,1.46990764 Z M22.905,16.9998662 L15.984,16.9998662 L14.9518432,27.1062178 C14.8996911,27.616395 14.4726693,27.9976173 13.9720345,28.0045068 L13.8553338,27.99934 C13.3451567,27.9471879 12.9639344,27.520166 12.9570449,27.0195313 L12.9622117,26.9028306 L13.974,16.9998662 L9.098,16.9998662 L9.99246683,26.8774863 C10.1308587,27.9985804 11.0250998,28.9094397 11.873227,28.993646 L12,29 L20,29 C20.8028839,29 21.7523016,28.1013866 21.9750947,27.0728349 L22.0041068,26.9094643 L22.905,16.9998662 Z M14.485,11.9998662 L6,12 L6,15 L14.178,14.9998662 L14.485,11.9998662 Z M26,12 L16.495,11.9998662 L16.188,14.9998662 L26,15 L26,12 Z M16,4 C12.6862915,4 10,6.6862915 10,10 L14.689,9.99986625 L15.0569109,6.4114721 L18.2291618,4.42774838 C17.5400016,4.15180204 16.7877285,4 16,4 Z M20.0981566,5.61760753 L16.946,7.588 L16.699,9.99986625 L22,10 L22,10 C22,8.27084666 21.2685384,6.71253533 20.0981566,5.61760753 Z"/></svg>