<svg xmlns="http://www.w3.org/2000/svg" width="32" height="32" viewBox="0 0 32 32"><g fill="none" fill-rule="evenodd"><path fill="#FFF" d="M19.8660177,1.49998659 C20.9007586,3.29214638 20.9007586,5.04491297 19.8163295,6.57758647 C19.4018229,7.16342773 18.9250522,7.62791823 18.2550738,8.14799858 L17.6686828,8.58506605 L17.3069136,8.84906635 C16.4497488,9.48123623 16.1015879,9.86355944 15.9646258,10.364719 C15.7527569,11.1399715 15.9253347,12.0073875 16.5358715,13.0004525 L23.199769,13 L23.1997319,13.002833 L23.2768597,13.004059 C27.0314266,13.1309013 30.0362099,16.2145483 30.0362099,20 C30.0362099,23.8659932 26.9022032,27 23.0362099,27 C20.4641047,27 18.1009474,25.4009983 16.8759463,23.0887346 L16.83,23 L15.216,23 L15.1773703,23.0805847 C14.0178978,25.3347474 11.7492559,26.8933381 9.2283771,26.9947395 L8.96673189,27 C5.10073864,27 1.96673189,23.8659932 1.96673189,20 C1.96673189,16.2145483 4.97151527,13.1309013 8.72608214,13.004059 L8.76673189,13.002833 L8.76712324,13 L14.2944843,13.0005226 C13.8495981,11.9220843 13.7551887,10.8627038 14.0353742,9.83747331 C14.3047132,8.85193145 14.8482997,8.20902215 15.8890966,7.41265095 L16.1645336,7.20670715 L16.7995158,6.74224499 C17.4559481,6.25311238 17.8629476,5.87570594 18.1836705,5.42241353 C18.7948743,4.55857104 18.7948743,3.64467097 18.1339823,2.50001341 C17.8578326,2.02172507 18.0216982,1.41013212 18.4999866,1.13398234 C18.9782749,0.857832558 19.5898679,1.02169824 19.8660177,1.49998659 Z M23.0362099,15 L8.96673189,15 C6.20530814,15 3.96673189,17.2385763 3.96673189,20 C3.96673189,22.7614237 6.20530814,25 8.96673189,25 C10.9250856,25 12.7402169,23.710076 13.548732,21.849512 L13.6343807,21.6404709 L13.8811491,21 L18.1452874,21 L18.3979387,21.6254566 C19.1932146,23.5942202 21.0652378,25 23.0362099,25 C25.7976337,25 28.0362099,22.7614237 28.0362099,20 C28.0362099,17.3112453 25.9139032,15.1181819 23.2530996,15.0046195 L23.0362099,15 Z"/><circle cx="21.5" cy="18.5" r="1.5" fill="#FFF"/><path fill="#FFF" d="M9,17 C9.55228475,17 10,17.4477153 10,18 L10,19 L11,19 C11.5522847,19 12,19.4477153 12,20 C12,20.5522847 11.5522847,21 11,21 L10,21 L10,22 C10,22.5522847 9.55228475,23 9,23 C8.44771525,23 8,22.5522847 8,22 L8,21 L7,21 C6.44771525,21 6,20.5522847 6,20 C6,19.4477153 6.44771525,19 7,19 L8,19 L8,18 C8,17.4477153 8.44771525,17 9,17 Z"/><circle cx="24.5" cy="21.5" r="1.5" fill="#FFF"/></g></svg>