<svg xmlns="http://www.w3.org/2000/svg" width="32" height="32" viewBox="0 0 32 32"><path fill="#FFF" fill-rule="evenodd" d="M16,1 C24.2842712,1 31,7.71572875 31,16 C31,24.2842712 24.2842712,31 16,31 L16,31 C7.71572875,31 1,24.2842712 1,16 C1,7.71572875 7.71572875,1 16,1 Z M16,3 L15.989,3 L15.7705418,3.00415082 C12.5647661,3.1227924 10,5.76975096 10,9.01200294 C10,12.2487404 12.5593831,14.8780357 15.7701747,14.9958773 L15.9952164,15 L15.9952164,17 C11.5758773,17 8,13.4292223 8,9.01200294 C8,7.54778144 8.3926739,6.1745577 9.07835432,4.99268301 C5.42684356,7.29457957 3,11.3638799 3,16 C3,23.0771346 8.65519183,28.8334283 15.6931438,28.9964496 L16,29 C19.3099641,29 21.9952164,26.3081512 21.9952164,22.9940037 C21.9952164,19.7579322 19.43332,17.1222645 16.2248703,17.0041329 L16,17 L16,15 C20.4173851,15 23.9952164,18.5781444 23.9952164,22.9940037 C23.9952164,24.4571907 23.6025214,25.8294063 22.9168197,27.0103952 C26.5713958,24.7083721 29,20.6378015 29,16 C29,8.82029825 23.1797017,3 16,3 Z M16,21 C17.6568542,21 19,22.3431458 19,24 C19,25.6568542 17.6568542,27 16,27 C14.3431458,27 13,25.6568542 13,24 C13,22.3431458 14.3431458,21 16,21 Z M16,23 C15.4477153,23 15,23.4477153 15,24 C15,24.5522847 15.4477153,25 16,25 C16.5522847,25 17,24.5522847 17,24 C17,23.4477153 16.5522847,23 16,23 Z M16,6 C17.6568542,6 19,7.34314575 19,9 C19,10.6568542 17.6568542,12 16,12 C14.3431458,12 13,10.6568542 13,9 C13,7.34314575 14.3431458,6 16,6 Z M16,8 C15.4477153,8 15,8.44771525 15,9 C15,9.55228475 15.4477153,10 16,10 C16.5522847,10 17,9.55228475 17,9 C17,8.44771525 16.5522847,8 16,8 Z"/></svg>