<svg xmlns="http://www.w3.org/2000/svg" width="32" height="32" viewBox="0 0 32 32"><path fill="#FFF" fill-rule="evenodd" d="M25.9230769,5.07692308 L25.9230769,22.5 C25.9230769,26.1752523 23.8905531,28.8014935 20.6804089,28.9189697 L20.4545455,28.9230769 L7.4,28.9230769 C3.84471766,28.9230769 1.07692308,25.9885041 1.07692308,22.5 C1.07692308,19.087333 3.7256868,16.204775 7.16927058,16.0810592 L7.4,16.0769231 L14.0769231,16.0769231 L14.0769231,5.07692308 L25.9230769,5.07692308 Z M8,17.9230769 L7.4,17.9230769 C4.8892539,17.9230769 2.92307692,20.0077293 2.92307692,22.5 C2.92307692,24.921063 4.77850598,26.9574673 7.18615999,27.0718569 L7.4,27.0769231 L8,27.0769231 C8.99615897,27.0769231 10.0769231,25.0955222 10.0769231,22.5 C10.0769231,19.9882043 9.06476106,18.0515483 8.09662748,17.9292165 L8,17.9230769 Z M24.0769231,21.9229231 L23,21.9230769 C20.8120129,21.9230769 19.0338142,23.59565 18.9280537,25.6878163 L18.9230769,25.885148 L18.9229231,27.0769231 L20.4545455,27.0769231 C22.6057553,27.0769231 23.9910877,25.425406 24.0730719,22.7534648 L24.0769231,22.5 L24.0769231,21.9229231 Z M24.0759231,10.9999231 L15.9229231,10.9999231 L15.9230769,17.9166667 L14.9999231,17.9159231 L15,17.9230769 L10.7941948,17.9227426 C11.5075713,19.0984513 11.9230769,20.7298495 11.9230769,22.5 C11.9230769,24.2707095 11.5073088,25.902579 10.7935189,27.0783711 L17.0769231,27.0769231 L17.0769231,25.885148 C17.0769231,22.7455062 19.6141323,20.1952222 22.7782542,20.0809219 L23,20.0769231 L24.0769231,20.0769231 L24.0759231,10.9999231 Z M24.076,6.924 L15.923,6.924 L15.9229231,8.99992308 L24.0759231,8.99992308 L24.076,6.924 Z" transform="rotate(-30 13.5 17)"/></svg>