<svg xmlns="http://www.w3.org/2000/svg" width="32" height="32" viewBox="0 0 32 32"><path fill="#FFF" fill-rule="evenodd" d="M16,1 C19.3676665,1 22.2493209,3.08086526 23.4293463,6.02697886 C23.6450559,6.00883508 23.8629297,6 24.0820978,6 C27.8689168,6 31,8.64543343 31,12 C31,14.766302 28.8707779,17.0503741 26.0004495,17.7663853 L26,26.4 C26,28.3099044 24.5671505,29.891327 22.7362369,29.994633 L22.5454545,30 L9.45454545,30 C7.59740959,30 6.10265559,28.4822409 6.00506881,26.5963574 L6,26.4 L6.00084115,17.7708097 C3.13071329,17.059697 1,14.7712942 1,12 C1,8.64643668 4.12013064,6 7.8949656,6 C8.12190878,6 8.34745665,6.00953798 8.57100802,6.02843718 C9.7493762,3.08180619 12.6315722,1 16,1 Z M16,3 C12.6862915,3 10,5.6862915 10,9 C10,9.55228475 9.55228475,10 9,10 C8.44771525,10 8,9.55228475 8,9 C8,8.66274007 8.02086966,8.33035452 8.061388,8.00406429 C8.00716174,8.00077576 7.95113531,8 7.8949656,8 C5.15840135,8 3,9.83071582 3,12 C3,14.1073046 5.03682609,15.8951113 7.66185571,15.9955514 L7.8949656,16 L8,16 L8,26.4 C8,27.2463332 8.59272156,27.9211975 9.32412674,27.9935703 L9.45454545,28 L22.5454545,28 C23.2916044,28 23.9257787,27.3721542 23.9939396,26.5474852 L24,26.4 L24,24 L16,24 C15.4477153,24 15,23.5522847 15,23 C15,22.4871642 15.3860402,22.0644928 15.8833789,22.0067277 L16,22 L24,22 L24,16 L24.0820978,16 C26.8320131,16 29,14.1682809 29,12 C29,9.83171907 26.8320131,8 24.0820978,8 L23.9384873,8.00306034 C23.9790875,8.3296727 24,8.66239417 24,9 C24,9.55228475 23.5522847,10 23,10 C22.4477153,10 22,9.55228475 22,9 C22,5.6862915 19.3137085,3 16,3 Z"/></svg>