<svg xmlns="http://www.w3.org/2000/svg" width="32" height="32" viewBox="0 0 32 32"><path fill="#FFF" fill-rule="evenodd" d="M26.6226154,1.21898653 C27.0207771,1.53736468 27.1111071,2.09804328 26.8513672,2.52167966 L26.7791147,2.62451418 L24.08,5.99996303 L26,6 C27.6568542,6 29,7.34314575 29,9 L29,22 C29,23.6568542 27.6568542,25 26,25 L23.618,24.999963 L25.8944898,29.5550116 L25.9406118,29.6623359 C26.1112959,30.1330264 25.9058148,30.6673068 25.4470884,30.8965898 C24.9530753,31.1435099 24.3524303,30.9432015 24.1055102,30.4491884 L24.1055102,30.4491884 L21.381,24.999963 L10.617,24.999963 L7.89431403,30.4436471 C7.64719982,30.9375631 7.04647615,31.1376355 6.55256015,30.8905213 C6.09392386,30.6610581 5.88865274,30.1266969 6.05952174,29.6560735 L6.10568597,29.5487674 L8.381,24.999963 L6,25 C4.34314575,25 3,23.6568542 3,22 L3,9 C3,7.34314575 4.34314575,6 6,6 L18.919,5.99996303 L16.2175013,2.62486301 C15.8989453,2.22684359 15.9339036,1.66001212 16.2803076,1.30373011 L16.3733727,1.21926559 C16.8045604,0.87416328 17.4338678,0.943949279 17.7789701,1.37513699 L17.7789701,1.37513699 L21.48,5.99996303 L21.518,5.99996303 L25.2170878,1.37548582 C25.5619974,0.944143991 26.1912736,0.874076874 26.6226154,1.21898653 Z M26,8 L6,8 C5.48716416,8 5.06449284,8.38604019 5.00672773,8.88337887 L5,9 L5,22 C5,22.5128358 5.38604019,22.9355072 5.88337887,22.9932723 L6,23 L9.99053444,22.9998338 C10.0018942,22.999717 10.0132686,22.9997943 10.0246526,23.0000674 L21.9757403,23.0000577 C21.9870699,22.9997905 21.9983899,22.999717 22.0096953,22.9998359 L26,23 C26.5128358,23 26.9355072,22.6139598 26.9932723,22.1166211 L27,22 L27,9 C27,8.48716416 26.6139598,8.06449284 26.1166211,8.00672773 L26,8 Z"/></svg>