<svg xmlns="http://www.w3.org/2000/svg" xmlns:xlink="http://www.w3.org/1999/xlink" width="188" height="332" viewBox="0 0 188 332"><defs><polygon id="a" points="0 0 56.041 0 56.041 25.496 0 25.496"/><polygon id="c" points="0 0 33.85 0 33.85 24.167 0 24.167"/><polygon id="e" points="0 0 33.85 0 33.85 24.167 0 24.167"/></defs><g fill="none" fill-rule="evenodd" transform="translate(.453 .099)"><path fill="#000" d="M93.6115033,0.59277311 C102.41045,0.59277311 109.663678,7.20880486 110.665079,15.7361661 L168.919744,15.7358961 C178.36686,15.7358961 186.025262,23.4215695 186.025262,32.9023281 L186.025262,313.287385 C186.025262,322.768144 178.36686,330.453817 168.919744,330.453817 L17.8209999,330.453817 C8.37388311,330.453817 0.715481776,322.768144 0.715481776,313.287385 L0.715481776,32.9023281 C0.715481776,23.4215695 8.37388311,15.7358961 17.8209999,15.7358961 L76.5579275,15.7361661 C77.5593283,7.20880486 84.8125564,0.59277311 93.6115033,0.59277311 Z"/><path fill="#FFF" d="M94.4435944,112.297076 C124.47497,112.297076 148.820209,136.635042 148.820209,166.657445 C148.820209,196.679847 124.47497,221.017813 94.4435944,221.017813 C64.4122192,221.017813 40.0669795,196.679847 40.0669795,166.657445 C40.0669795,136.635042 64.4122192,112.297076 94.4435944,112.297076 Z M94.4435944,113.727612 C65.2025186,113.727612 41.497943,137.425105 41.497943,166.657445 C41.497943,195.889784 65.2025186,219.587277 94.4435944,219.587277 C123.68467,219.587277 147.389246,195.889784 147.389246,166.657445 C147.389246,137.425105 123.68467,113.727612 94.4435944,113.727612 Z"/><ellipse cx="94.444" cy="166.657" fill="#FFD600" rx="48.653" ry="48.638"/><path fill="#FFF" d="M94.4435944,118.01922 C121.313772,118.01922 143.096355,139.795295 143.096355,166.657445 C143.096355,193.519594 121.313772,215.295669 94.4435944,215.295669 C67.5734166,215.295669 45.7908337,193.519594 45.7908337,166.657445 C45.7908337,139.795295 67.5734166,118.01922 94.4435944,118.01922 Z M94.4435944,119.449756 C68.363716,119.449756 47.2217972,140.585358 47.2217972,166.657445 C47.2217972,192.729531 68.363716,213.865133 94.4435944,213.865133 C120.523473,213.865133 141.665392,192.729531 141.665392,166.657445 C141.665392,140.585358 120.523473,119.449756 94.4435944,119.449756 Z"/><g transform="translate(42.07 114.944)"><g transform="translate(47.734 61.803)"><mask id="b" fill="#fff"><use xlink:href="#a"/></mask><path fill="#FFF" d="M17.9719886,19.2050379 C23.4071019,15.9392362 29.7355093,16.0355355 32.9845941,19.5450162 C47.8020184,35.5449324 61.182365,14.9393985 54.0814035,8.3391295 C44.8733938,-0.212246625 18.0627706,-4.76510914 3.57216115,7.58045865 C-2.77984951,12.9916408 -2.16888722,31.31865 17.9719886,19.2050379" mask="url(#b)"/></g><path fill="#FFF" d="M51.7528859,13.9705679 C48.0135788,16.1703784 44.5502487,16.9014156 43.4980863,17.3695138 C38.1110874,19.7485247 42.1236481,28.5904735 48.4910916,24.744364 C51.1355689,23.1533324 54.0442214,23.0009283 55.6138408,24.7560873 C58.7231214,28.2329101 67.3710067,24.7745098 66.3832995,19.0258615 C65.6988038,15.0390712 60.1320567,9.03836996 51.7492546,13.9705679"/><g transform="translate(7.572 67.65)"><mask id="d" fill="#fff"><use xlink:href="#c"/></mask><path fill="#000" d="M30.8574781,9.82001448 C30.9872963,13.8394627 33.0044705,19.2431084 33.8442032,23.5070731 C34.0575407,24.5956737 28.2375121,24.130925 27.258883,23.5790882 C26.2802539,23.0272515 27.3315085,17.2819527 25.4895435,17.006453 C23.6475784,16.7309533 22.8831947,23.5581536 21.9672051,23.7231185 C21.0512156,23.8880833 0.1223527,24.644242 0.056081901,22.6018599 C-0.0101888976,20.5594777 -0.125481931,19.0011042 0.452798873,18.3362204 C1.03107968,17.6713367 12.7265139,13.7306027 14.7100988,13.1720668 C16.6936836,12.613531 15.7713394,3.16196595 15.7713394,3.16196595 L30.6196295,0 C30.6196295,0 30.7585259,6.78616844 30.8574781,9.82001448" mask="url(#d)"/></g><g transform="translate(65.101 67.65)"><mask id="f" fill="#fff"><use xlink:href="#e"/></mask><path fill="#000" d="M2.99153644,9.82001448 C2.86262612,13.8394627 0.845451952,19.2431084 0.00571922976,23.5070731 C-0.207618273,24.5956737 5.61241036,24.130925 6.59103941,23.5790882 C7.56966846,23.0272515 6.51841388,17.2819527 8.35947113,17.006453 C10.2005284,16.7309533 10.9667278,23.5581536 11.8827173,23.7231185 C12.7987068,23.8880833 33.7275697,24.644242 33.7938405,22.6018599 C33.8601113,20.5594777 33.9754043,19.0011042 33.3971235,18.3362204 C32.8188427,17.6713367 21.1225007,13.7306027 19.1443627,13.1720668 C17.1662248,12.613531 18.0758596,3.16196595 18.0758596,3.16196595 L3.23029288,0 C3.23029288,0 3.08958091,6.78616844 2.99153644,9.82001448" mask="url(#f)"/></g><path fill="#C577FF" d="M46.3731495,38.5754528 C46.1062507,40.4176999 16.4015,57.1319055 12.0569631,78.6861967 C11.9150577,79.3912749 36.2963569,80.5284438 44.4794388,80.5242569 C45.7186119,80.5242569 48.6781024,54.0813118 52.3239041,51.1320416 C58.1784299,46.3916049 54.924806,79.2363587 58.7893922,80.5242569 C63.7823976,82.1931653 96.79161,79.922177 96.645935,78.0179634 C95.5560681,63.8125634 62.751115,36.4702668 60.6340807,36.1369876 C58.5170464,35.8037083 46.6654673,36.5581922 46.3731495,38.5754528"/><path fill="#000" d="M52.4673396,22.1476329 C62.2418284,23.1993885 78.5862046,28.8559245 79.0737035,35.2451725 C79.7999588,44.7402816 62.5731824,49.297331 61.8251395,48.2799082 C59.5301726,45.1506002 71.3572406,31.9031687 57.0808765,27.6098956 C47.3091111,24.6698367 52.4673396,22.1476329 52.4673396,22.1476329"/><path fill="#FFF" d="M.232274051 30.2166123C5.30425969 32.6450289 27.5830497 33.9505122 31.2061559 32.7145319 34.8292622 31.4785515 40.6211484 29.5056724 34.1039147 25.7299032 27.5866809 21.954134 5.85167464 20.1051878 2.40196184 23.1180992-1.04775096 26.1310106.232274051 30.2166123.232274051 30.2166123M25.8827633 72.3362975C29.4995148 76.4185496 46.6591126 76.149749 50.281311 74.9137687 53.9035095 73.6777883 59.7008426 71.7049092 53.1799776 67.92914 46.6591126 64.1533708 31.4976248 62.2215235 28.0560824 65.2361097 24.6145399 68.2506958 24.6172634 70.908556 25.8827633 72.3362975M38.1655565.1712913C33.6355389-1.09232274 30.6851267 4.95024778 35.5183559 7.96483396 36.9890229 8.88595751 43.4000418 10.626881 46.5774089 10.4686153 50.3938806 10.2793662 44.3387268 1.89379235 38.1655565.1712913M31.1925976 11.704604C32.8729708 12.1040366 34.0249933 9.39425861 31.8162693 9.10871031 30.899372 8.9914764 30.2729768 8.56775957 30.2729768 8.00084989 30.2729768 7.29325952 29.4105486 6.79752757 28.4310117 6.7983639 27.555874 6.7983639 26.9358335 7.12829467 26.5291306 7.5294021 26.1224276 7.93050954 25.4597196 7.83588503 25.0076256 7.85933181 24.5555317 7.8827786 23.7148912 8.07370239 23.4425454 8.54515017 23.1701997 9.01659795 23.5178944 9.56508516 23.4425454 9.77108188 23.4089561 9.86486901 23.1048367 10.1060359 23.0794178 10.7257008 23.0313033 11.9876401 24.5110486 11.6401253 25.1065779 11.554712 25.7021073 11.4692988 26.2930976 11.1008493 26.5309462 11.2122216 26.9766854 11.4207304 27.7764741 11.9876401 28.4328273 11.9876401 29.4423222 11.9876401 29.6211626 11.3177321 29.9761199 11.2122216 30.3310772 11.106711 30.863967 11.6267272 31.1925976 11.704604"/><path fill="#FF6963" d="M51.235429,20.3841 C51.235429,20.4226197 51.2880825,20.4745376 51.285359,20.5356667 C51.285359,20.5817229 51.2209039,20.6353155 51.2245351,20.6855586 C51.2390602,20.9066283 51.2363368,21.0741053 51.6040035,21.0983894 C51.6829838,21.1042511 51.5540735,21.3445807 51.8137098,21.3646779 C52.2403848,21.3990107 52.1014884,21.1025764 52.1604967,21.0121388 C52.6325627,20.2811016 51.9743938,19.6631115 51.3434594,20.1052508 C51.2690183,20.1571687 51.2526775,20.2149482 51.2363368,20.3841"/><path fill="#000" d="M51.9326341,19.6823713 C51.3879426,19.6304535 51.1519096,19.892555 51.1755129,20.238395 C51.8545616,20.2509558 52.098765,20.1647051 52.1604967,21.0138136 C52.7959701,20.5775359 52.4746021,19.7334518 51.9326341,19.6823713"/><path fill="#000" d="M52.1795609 19.8624007C52.4137782 19.5550804 52.495482 18.986496 52.7151742 19.1623468 52.9348664 19.3381977 52.2612646 19.9628869 52.2612646 19.9628869L52.1795609 19.8624007ZM46.3731495 38.5754528C47.1293629 39.5141615 59.1833857 40.0526 60.5950445 38.8919844 68.1154184 32.7070584 51.8463913 23.4087348 52.3892671 21.5581138 52.4582614 21.3211339 52.0597288 21.3253208 51.531378 21.2482814 51.4605681 21.2382328 51.4451352 21.3102479 51.3970208 21.3596536 48.8923477 23.9187023 43.5580023 35.0776955 46.3731495 38.5754528"/><path fill="#000" d="M50.7324972,22.1476329 C47.6204931,24.3306957 14.1110723,23.5670006 9.4920884,36.6812878 C6.38553124,45.5039767 14.0811142,49.4237761 19.2211863,51.8279086 C22.7698514,53.4876058 44.4258775,48.2271529 45.7104416,42.4290988 C46.6745455,38.0788835 34.2937078,33.9078686 36.6885348,32.2967397 C41.2040273,29.2520077 50.7324972,23.7495505 50.7324972,23.7495505 L50.7324972,22.1476329 Z"/><path fill="#FF6963" d="M23.4053248,50.7275763 C23.4053248,46.7165019 37.82694,41.1085342 41.8876151,41.6779561 C55.6964523,43.6156651 41.3719738,45.1112348 42.4976696,50.1263338 C43.6233653,55.1414329 70.7544487,52.4651503 77.7582735,51.1311959 C84.7620983,49.7972415 78.0024769,62.5908103 58.4371584,62.3781145 C33.0863083,62.1026148 23.404417,55.2327079 23.4053248,50.7275763"/><path fill="#FFF" d="M42.023788,40.5893639 L79.4259373,40.3172137 C79.4259373,40.3172137 83.1116831,55.8699663 79.4613423,59.2370915 C72.8433406,65.3407912 48.6445131,65.3407912 42.0274192,59.2370915 C38.3734471,55.8699663 42.023788,40.5893639 42.023788,40.5893639"/><path fill="#FFF" d="M79.4549875,40.5893639 C79.4549875,42.8821241 72.3939701,44.7402816 60.5569161,44.7402816 C48.7198621,44.7402816 42.0210645,42.8821241 42.0210645,40.5893639 C42.0210645,38.2966036 48.7189543,36.4384462 60.5569161,36.4384462 C72.3948779,36.4384462 79.4549875,38.2966036 79.4549875,40.5893639"/><path fill="#C577FF" d="M75.7701496,42.2247769 C75.7701496,44.067024 70.1008189,45.5584067 60.5950445,45.5584067 C51.0892701,45.5584067 45.7068103,44.0653492 45.7068103,42.2247769 C45.7068103,40.3842045 51.0856388,38.8919844 60.5950445,38.8919844 C70.1044502,38.8919844 75.7701496,40.3842045 75.7701496,42.2247769"/><path fill="#FFF" d="M58.9101321 41.2106952C60.9027952 40.1606143 61.9885469 39.8080752 63.0143826 40.1019974 64.0710841 40.403456 60.4842906 41.0231209 60.9018874 41.1738503 61.2486743 41.3002954 62.8291874 41.0942987 63.9231095 40.9402198 65.1159839 40.7727428 65.7314853 41.1596147 63.765149 41.4510247 62.7193413 41.6067783 63.5109596 41.8881397 66.3760369 41.5263894 68.0455163 41.3153683 67.9356702 41.6519971 66.335185 42.1393552 65.6407034 42.3503763 65.9784121 42.589031 68.6301519 41.656184 69.6850377 41.2852225 70.0935564 41.2106952 69.2937677 42.0464055 68.1263122 43.2648007 66.6974049 44.0954867 60.3789835 44.4404893 59.2478409 44.5024558 53.2516953 44.144055 53.7646131 43.911262 55.1753641 43.269825 58.564253 44.2395169 64.3860973 43.3744982 66.1699619 43.1098845 66.3360929 42.8134502 64.5104685 43.0052114 56.3882105 43.8551572 54.0859811 43.2899223 58.7421856 42.8879775 65.4028548 42.3126939 61.8133378 42.3579127 59.3231899 42.530414 57.0681671 42.6861677 55.0564398 42.1117215 58.534295 41.9132613 61.6054472 41.7407599 60.5442066 41.514666 57.1653037 41.7533207 51.4033755 42.1602898 53.4913596 40.7484587 58.9101321 41.2106952M84.5306044 51.6621064C82.389059 51.6621064 80.8993278 50.2921444 80.8993278 48.3167531 80.8993278 46.3413618 81.5484185 44.7402816 83.6899639 44.7402816 85.8315093 44.7402816 88.6548269 46.3413618 88.6548269 48.3167531 88.6548269 50.2921444 86.6703342 51.6621064 84.5287888 51.6621064L84.5306044 51.6621064ZM83.8043491 41.7474674C77.2680512 41.9534641 76.8913062 44.6029504 76.8913062 48.1241545 76.8913062 51.6453587 77.4450759 54.5016791 83.8043491 54.5016791 87.6226365 54.5016791 91.5525856 50.9143215 91.5525856 47.39228 91.5525856 43.8702385 87.62536 41.6277213 83.8043491 41.7474674L83.8043491 41.7474674Z"/><path fill="#FF6963" d="M61.737081,47.9290438 C47.8274758,49.3157535 42.9769981,47.268347 39.8168796,46.4887415 C39.8168796,46.4887415 40.9298659,42.7397687 41.0206478,42.27502 C41.1114297,41.8102713 36.4452392,45.0593253 34.6559277,45.9184823 C33.5892402,46.430962 37.2078073,48.0546516 38.2944669,50.5969526 C38.1466739,50.6363097 38.0031477,50.6884788 37.8659762,50.7527062 C36.8537578,51.2383895 35.3077418,54.1357418 36.6150014,56.5038667 C36.403298,56.549253 36.1980401,56.6169975 36.0031313,56.7056765 C34.7476174,57.3085938 32.6723428,61.6152651 36.2309939,64.0277714 C35.2932167,65.451326 35.0562759,67.8387108 39.1360152,69.3527029 C41.0487902,70.0628055 43.1758105,70.5978945 48.0771261,71.2167221 C52.9058162,71.8263384 51.7610563,68.2255827 49.9699291,67.8856043 C48.4929073,67.604243 44.7808347,66.5390892 42.5503231,65.6665339 C45.1875377,65.8482465 48.4466085,65.7502725 54.3519721,65.1096729 C61.5083106,64.3300674 58.4217254,59.5678586 55.7209634,59.6934664 C54.7223624,59.7395226 53.007492,59.7135636 51.1028874,59.627313 C52.5626606,59.5243146 54.2394026,59.3710731 56.2157249,59.1558652 C62.133798,58.5110787 61.0453228,55.1422786 58.9646013,54.0679136 C59.3722121,54.0260444 59.7889011,53.9841751 60.2201152,53.9347694 C68.152639,53.070588 64.7174513,47.6326095 61.737081,47.9290438"/></g><path fill="#FFF" d="M71.8876537,15.020628 C72.2828034,15.020628 72.6031355,15.3408644 72.6031355,15.7358961 C72.6031355,16.1027111 72.3269308,16.4050344 71.971094,16.4463519 L71.8876537,16.4511641 L17.8870444,16.4511641 C8.88948633,16.4511641 1.5784884,23.6700289 1.4331682,32.630278 L1.43096355,32.9023281 L1.43096355,313.287385 C1.43096355,322.282255 8.6519859,329.591068 17.614913,329.736345 L17.8870444,329.738549 L169.569181,329.738549 C178.566739,329.738549 185.877737,322.519684 186.023057,313.559435 L186.025262,313.287385 L186.025262,32.9023281 C186.025262,23.9074584 178.804239,16.5986448 169.841312,16.453368 L169.569181,16.4511641 L115.718085,16.4511641 C115.322936,16.4511641 115.002603,16.1309277 115.002603,15.7358961 C115.002603,15.369081 115.278808,15.0667577 115.634645,15.0254402 L115.718085,15.020628 L169.569181,15.020628 C179.349135,15.020628 187.295872,22.8672203 187.453829,32.6066215 L187.456225,32.9023281 L187.456225,313.287385 C187.456225,323.064417 179.607288,331.00878 169.864976,331.169085 L169.569181,331.169085 L17.8870444,331.169085 C8.10708998,331.169085 0.160353095,323.322493 0.0023963529,313.583092 L0,313.287385 L0,32.9023281 C0,23.1252958 7.84893734,15.1809332 17.5912494,15.020628 L17.8870444,15.020628 L71.8876537,15.020628 Z"/><g fill="#FFF" transform="matrix(1 0 0 -1 0 124.457)"><path d="M0.245660384,15.0873386 C0.543672803,14.8279323 0.995612816,14.8591565 1.25509665,15.1570799 C2.70249244,16.8188907 5.25825448,17.6991637 8.96146147,17.7495069 L9.30127875,17.7517959 C16.8005392,17.7517959 20.7489872,20.613051 20.7489872,26.2778541 C20.7489872,31.1006398 18.9709559,33.6704287 15.9299872,34.5067482 C15.0519613,34.7482207 14.2875318,34.8207556 13.1813192,34.8176414 L12.1632059,34.8039123 C8.76643124,34.8039123 5.72386987,32.5531147 5.72386987,28.4080696 C5.72386987,26.0292604 7.37734444,24.2735679 9.53470948,23.8930651 C11.7266886,23.5064573 13.5941694,24.7206589 13.5941694,26.987926 C13.5941694,27.3829576 13.2738373,27.703194 12.8786876,27.703194 C12.483538,27.703194 12.1632059,27.3829576 12.1632059,26.987926 C12.1632059,25.7026512 11.1704653,25.0571896 9.78332979,25.301844 C8.27841723,25.5672713 7.15483342,26.7603151 7.15483342,28.4080696 C7.15483342,31.586113 9.38355101,33.3010621 11.9959535,33.371139 L12.6733083,33.3807636 C13.9533266,33.4062329 14.707664,33.3592283 15.5504301,33.1274528 C17.9427769,32.4695156 19.3180236,30.4818714 19.3180236,26.2778541 C19.3180236,21.5916331 16.1868443,19.2526707 9.60292677,19.1838949 L9.30127875,19.1823319 C5.03910816,19.1823319 1.98306797,18.1713544 0.175898219,16.0964733 C-0.0835856203,15.7985499 -0.0523520349,15.3467449 0.245660384,15.0873386 Z"/><path d="M9.28560281,8.52103374 C17.755464,8.33547316 23.7440817,12.0500583 27.0997195,19.5424368 C29.4994873,23.9031972 32.7626455,26.1187791 36.942625,26.2661402 L37.205068,26.272658 L60.8159666,26.272658 C61.2111163,26.272658 61.5314484,26.5928944 61.5314484,26.987926 C61.5314484,27.354741 61.2552437,27.6570643 60.8994069,27.6983818 L60.8159666,27.703194 L37.1946947,27.703194 C32.3384681,27.6327253 28.5331531,25.1150306 25.8199119,20.1796904 C22.7210266,13.265969 17.3741124,9.8770745 9.64386575,9.94610915 L9.30127875,9.95139805 L0.715497437,9.95139805 C0.320347763,9.95139805 1.56605399e-05,9.63116166 1.56605399e-05,9.23613005 C1.56605399e-05,8.86931498 0.276220381,8.56699171 0.632057147,8.52567418 L0.715497437,8.52086204 L9.28560281,8.52103374 Z"/><path d="M9.30127875 0C20.1540583 0 27.7811702 3.41845739 32.0820679 10.267946L32.7840096 11.3462158 33.4281558 12.3191648 33.8762456 12.982835 34.2965847 13.5922944 34.6912126 14.1496995 35.062169 14.657207 35.2973298 14.9688895 35.5234807 15.2599928 35.7412261 15.5311558 35.9511705 15.7830176C35.9855447 15.8234216 36.019619 15.863048 36.053406 15.9019102L36.2527818 16.1260183 36.4458673 16.3324226C36.5092479 16.3983444 36.5716809 16.4614221 36.6332669 16.5217622L36.8155848 16.6946761 36.9934255 16.8518032 37.1673933 16.9937826C37.3109206 17.1059647 37.4510432 17.2030335 37.5893347 17.2866531L37.7545065 17.3806474C37.9738322 17.4976497 38.1900823 17.581926 38.4097029 17.6402923L38.5751511 17.6793153C38.6028647 17.6850449 38.6306561 17.6903964 38.658538 17.6953829L38.8270153 17.7210296 38.9982674 17.7385576C39.0270742 17.7408379 39.0560218 17.7428065 39.0851228 17.7444767L39.2616703 17.7510246 47.2218129 17.7518132C47.6169625 17.7518132 47.9372947 18.0720496 47.9372947 18.4670812 47.9372947 18.8338962 47.6610899 19.1362195 47.3052532 19.1775371L47.2218129 19.1823492 39.3515133 19.1823492C39.2727357 19.1823492 39.195076 19.1811847 39.1184292 19.1787586L38.8914225 19.1675983C38.1067992 19.1146105 37.4222648 18.9118236 36.7161792 18.4468221L36.513749 18.3067323C36.1750376 18.0610338 35.8288124 17.7534485 35.4619387 17.3718378L35.2392316 17.1338912C35.2016657 17.0927206 35.1638671 17.0507854 35.1258226 17.0080736L34.8945 16.7423854C34.8554194 16.6965183 34.8160666 16.6498503 34.7764286 16.6023692L34.5350718 16.3076284 34.2862375 15.9927909 34.0292953 15.6572741 33.7636146 15.3004952 33.4885651 14.9218717 33.2035162 14.5208208 32.9078375 14.09676 32.6008986 13.6491066 32.117998 12.9321157 31.7801501 12.4229316 31.2479307 11.6109136 30.8752335 11.0365572C26.9148778 4.72951635 19.8998427 1.52155945 9.73868347 1.43244562L9.30127875 1.430536.715497437 1.430536C.320347763 1.430536.0000156605399 1.11029961.0000156605399.715268002.0000156605399.348452936.276220381.0461296643.632057147.00481213095L.715497437 0 9.30127875 0ZM25.9615545 36.2396607C28.273776 33.9335078 32.0723168 33.2076039 37.3103291 33.9864608 37.7011791 34.0445776 37.9708986 34.4084423 37.9127645 34.7991755 37.8546304 35.1899087 37.4906569 35.4595476 37.0998069 35.4014308 32.2652133 34.6825595 28.9049668 35.3247051 26.9722195 37.2523798L26.0438028 38.1727217 25.7295347 38.4777072C21.5895714 42.4676192 17.8976596 44.3466161 12.1695572 44.3466161 7.02611858 44.3466161 3.00585068 42.666012.168661405 39.3044308-.0861595266 39.0025118-.0479058762 38.5512467.254103325 38.2965019.556112525 38.0417571 1.00751254 38.0799993 1.26233347 38.3819183 3.81346359 41.4045686 7.42923552 42.9160801 12.1695572 42.9160801 17.3613989 42.9160801 20.6956618 41.2753295 24.4883578 37.6847548L25.0250905 37.167758 25.5842868 36.6155056 25.9615545 36.2396607Z"/></g><path fill="#FFF" d="M178.175196 271.801841C178.542121 271.801841 178.844534 272.077963 178.885864 272.433694L178.890678 272.517109 178.890678 310.379174C178.890678 317.017521 173.5695 322.413412 166.958616 322.536579L166.727487 322.53873 52.4610924 322.53873C52.0659427 322.53873 51.7456106 322.218494 51.7456106 321.823462 51.7456106 321.456647 52.0218153 321.154324 52.3776521 321.113006L52.4610924 321.108194 166.727487 321.108194C172.579704 321.108194 177.337889 316.425487 177.457412 310.603645L177.459714 310.379174 177.459714 272.517109C177.459714 272.122077 177.780046 271.801841 178.175196 271.801841ZM67.5172314 23.5567052C67.9123811 23.5567052 68.2327132 23.8769415 68.2327132 24.2719732 68.2327132 24.6387882 67.9565085 24.9411115 67.6006717 24.982429L67.5172314 24.9872412 20.7692051 24.9872412C14.9169884 24.9872412 10.1588034 29.669948 10.0392807 35.49179L10.0369785 35.7162612 10.029664 55.092307 10.0173717 67.3871893 10.0167449 70.8115322C10.0167449 71.2065638 9.69641276 71.5268002 9.30126309 71.5268002 8.93433839 71.5268002 8.63192476 71.250678 8.59059488 70.8949476L8.58578131 70.8115322 8.58857025 64.0671478 8.60443537 46.1119082 8.6060149 35.7162612C8.6060149 29.0779139 13.9271928 23.682023 20.5380761 23.5588566L20.7692051 23.5567052 67.5172314 23.5567052ZM93.7281127 0C103.606854 0 111.615157 8.00590982 111.615157 17.8817001 111.615157 27.7574903 103.606854 35.7634001 93.7281127 35.7634001 83.8493708 35.7634001 75.8410683 27.7574903 75.8410683 17.8817001 75.8410683 8.00590982 83.8493708 0 93.7281127 0ZM93.7281127 1.430536C84.6396702 1.430536 77.2720318 8.79597304 77.2720318 17.8817001 77.2720318 26.9674271 84.6396702 34.3328641 93.7281127 34.3328641 102.816555 34.3328641 110.184194 26.9674271 110.184194 17.8817001 110.184194 8.79597304 102.816555 1.430536 93.7281127 1.430536Z"/><path fill="#FFF" d="M17.7782482,1.0513779 C17.9727522,1.36241503 17.8988543,1.76513727 17.6190348,1.98874204 L17.550834,2.03704029 L15.6243821,3.24001254 C16.5839492,4.26330137 17.1715626,5.63938896 17.1715626,7.15268002 L18.6025262,7.15268002 C19.3928255,7.15268002 20.0334897,7.79315281 20.0334897,8.58321603 L20.0334897,10.72902 C20.0334897,11.5190833 19.3928255,12.159556 18.6025262,12.159556 L17.8249271,12.1591723 L17.1649059,19.4095789 C16.9670926,20.849143 15.7550375,22.0881012 14.4454233,22.1690989 L14.3096355,22.1733081 L8.58578131,22.1733081 C7.24722401,22.1733081 6.00153833,21.01203 5.74870969,19.5263589 L5.72676968,19.3767415 L5.0729271,12.1591723 L4.29289066,12.159556 C3.50259131,12.159556 2.8619271,11.5190833 2.8619271,10.72902 L2.8619271,8.58321603 C2.8619271,7.79315281 3.50259131,7.15268002 4.29289066,7.15268002 L5.72385421,7.15268002 L5.72385421,7.15268002 C5.72385421,3.99242715 8.28651103,1.430536 11.4477084,1.430536 C12.5513065,1.430536 13.5819568,1.74276939 14.4560903,2.28369214 L16.7922912,0.824031722 C17.1273544,0.614628482 17.5687823,0.716414832 17.7782482,1.0513779 Z M16.3879271,12.1591723 L11.4359271,12.1591723 L10.6977713,19.3882103 C10.6604574,19.7531237 10.3549311,20.0257998 9.99673609,20.0307276 L9.91323887,20.027032 C9.54821639,19.9897292 9.2754588,19.6842942 9.2705295,19.3262062 L9.27422622,19.2427339 L9.9979271,12.1591723 L6.5099271,12.1591723 L7.14942791,19.224606 C7.24844477,20.0264887 7.888258,20.6779972 8.49507756,20.7382273 L8.58578131,20.7427721 L14.3096355,20.7427721 C14.8840843,20.7427721 15.5633754,20.1000227 15.7227798,19.3643325 L15.7435374,19.2474787 L16.3879271,12.1591723 Z M10.3639271,8.58317234 L4.29289066,8.58321603 L4.29289066,10.72902 L10.1449271,10.7281723 L10.3639271,8.58317234 Z M18.6025262,8.58321603 L11.8009271,8.58317234 L11.5819271,10.7281723 L18.6025262,10.72902 L18.6025262,8.58321603 Z M11.4477084,2.86107201 C9.07681037,2.86107201 7.15481776,4.78249037 7.15481776,7.15268002 L10.5099271,7.15217234 L10.7729454,4.58592084 L13.0427169,3.16706028 C12.5496125,2.96966345 12.0113457,2.86107201 11.4477084,2.86107201 Z M14.3797177,4.01795734 L12.1245542,5.4274536 L11.9479271,7.15217234 L15.7405991,7.15268002 L15.7405991,7.15268002 C15.7405991,5.91579954 15.2171903,4.80113119 14.3797177,4.01795734 Z" transform="translate(82.29 6.033)"/><path fill="#FFF" d="M25.0620957,136.283285 C26.2052073,136.283285 27.1396122,137.176598 27.2048973,138.303007 L27.2085411,138.429089 L27.2085411,146.251681 C27.2085411,147.394451 26.3149616,148.328576 25.1882157,148.393842 L25.0620957,148.397485 L20.7692051,148.397485 C19.6260935,148.397485 18.6916887,147.504172 18.6264035,146.377763 L18.6227598,146.251681 L18.6227598,145.581769 C18.6227598,144.438999 19.5163392,143.504873 20.6430851,143.439608 L20.7692051,143.435965 L21.4846869,143.435965 C21.8516116,143.435965 22.1540252,143.159843 22.1953551,142.804112 L22.2001686,142.720697 L22.2001686,141.960073 C22.2001686,141.593258 21.9239639,141.290934 21.5681272,141.249617 L21.4846869,141.244805 L17.1917962,141.244805 C16.8248715,141.244805 16.5224579,141.520927 16.481128,141.876657 L16.4763144,141.960073 L16.4763144,149.873377 C16.4763144,150.240192 16.7525192,150.542515 17.1083559,150.583833 L17.1917962,150.588645 L30.0704682,150.588645 C30.4656179,150.588645 30.78595,150.908881 30.78595,151.303913 C30.78595,151.670728 30.5097452,151.973051 30.1539085,152.014369 L30.0704682,152.019181 L17.1917962,152.019181 C16.0486847,152.019181 15.1142798,151.125869 15.0489946,149.999459 L15.0453509,149.873377 L15.0453509,141.960073 C15.0453509,140.817303 15.9389304,139.883177 17.0656762,139.817911 L17.1917962,139.814269 L21.4846869,139.814269 C22.6277984,139.814269 23.5622033,140.707581 23.6274885,141.83399 L23.6311322,141.960073 L23.6311322,142.720697 C23.6311322,143.863467 22.7375527,144.797593 21.6108068,144.862858 L21.4846869,144.866501 L20.7692051,144.866501 C20.4022804,144.866501 20.0998668,145.142623 20.0585369,145.498354 L20.0537233,145.581769 L20.0537233,146.251681 C20.0537233,146.618496 20.329928,146.920819 20.6857648,146.962137 L20.7692051,146.966949 L25.0620957,146.966949 C25.4290204,146.966949 25.7314341,146.690826 25.772764,146.335096 L25.7775775,146.251681 L25.7775775,138.429089 C25.7775775,138.062274 25.5013728,137.759951 25.145536,137.718633 L25.0620957,137.713821 L12.1834238,137.713821 C11.0403122,137.713821 10.1059073,138.607134 10.0406222,139.733543 L10.0369785,139.859625 L10.0369785,297.50435 C10.0369785,297.899382 9.71664635,298.219618 9.32149668,298.219618 C8.95457198,298.219618 8.65215835,297.943496 8.61082847,297.587765 L8.6060149,297.50435 L8.6060149,139.859625 C8.6060149,137.936445 10.1244867,136.367817 12.0282432,136.286589 L12.1834238,136.283285 L25.0620957,136.283285 Z" transform="matrix(1 0 0 -1 0 434.503)"/><path fill="#FFF" d="M53.4289705,299.902475 C53.7958952,299.902475 54.0983088,300.178597 54.1396387,300.534328 L54.1444523,300.617743 L54.1444523,317.994801 C54.1444523,319.917981 52.6259805,321.48661 50.722224,321.567837 L50.5670434,321.571141 L36.2574079,321.571141 C35.1142963,321.571141 34.1798914,320.677829 34.1146063,319.55142 L34.1109625,319.425337 L34.1109625,311.512033 C34.1109625,310.369263 35.004542,309.435137 36.1312879,309.369871 L36.2574079,309.366229 L40.5502985,309.366229 C41.6934101,309.366229 42.627815,310.259541 42.6931001,311.385951 L42.6967438,311.512033 L42.6967438,312.272657 C42.6967438,313.415427 41.8031644,314.349553 40.6764185,314.414819 L40.5502985,314.418461 L39.8348167,314.418461 C39.467892,314.418461 39.1654784,314.694583 39.1241485,315.050314 L39.119335,315.133729 L39.119335,315.803641 C39.119335,316.170456 39.3955397,316.472779 39.7513764,316.514097 L39.8348167,316.518909 L44.1277074,316.518909 C44.4946321,316.518909 44.7970457,316.242787 44.8383756,315.887056 L44.8431892,315.803641 L44.8431892,307.981049 C44.8431892,307.614234 44.5669845,307.311911 44.2111477,307.270593 L44.1277074,307.265781 L31.2490354,307.265781 C30.8538858,307.265781 30.5335537,306.945545 30.5335537,306.550513 C30.5335537,306.183698 30.8097584,305.881375 31.1655951,305.840057 L31.2490354,305.835245 L44.1277074,305.835245 C45.270819,305.835245 46.2052238,306.728558 46.270509,307.854967 L46.2741527,307.981049 L46.2741527,315.803641 C46.2741527,316.946411 45.3805732,317.880537 44.2538274,317.945802 L44.1277074,317.949445 L39.8348167,317.949445 C38.6917052,317.949445 37.7573003,317.056132 37.6920151,315.929723 L37.6883714,315.803641 L37.6883714,315.133729 C37.6883714,313.990959 38.5819509,313.056833 39.7086968,312.991568 L39.8348167,312.987925 L40.5502985,312.987925 C40.9172232,312.987925 41.2196368,312.711803 41.2609667,312.356073 L41.2657803,312.272657 L41.2657803,311.512033 C41.2657803,311.145218 40.9895756,310.842894 40.6337388,310.801577 L40.5502985,310.796765 L36.2574079,310.796765 C35.8904832,310.796765 35.5880695,311.072887 35.5467397,311.428617 L35.5419261,311.512033 L35.5419261,319.425337 C35.5419261,319.792152 35.8181308,320.094476 36.1739676,320.135793 L36.2574079,320.140605 L50.5670434,320.140605 C51.7101549,320.140605 52.6445598,319.247293 52.709845,318.120884 L52.7134887,317.994801 L52.7134887,300.617743 C52.7134887,300.222711 53.0338208,299.902475 53.4289705,299.902475 Z" transform="rotate(90 42.339 310.737)"/><path fill="#FFF" d="M142.758848,18.1921951 C143.901959,18.1921951 144.836364,19.0855076 144.901649,20.2119169 L144.905293,20.3379991 L144.905293,28.1605908 C144.905293,29.3033608 144.011714,30.2374865 142.884968,30.3027522 L142.758848,30.3063948 L138.465957,30.3063948 C137.322846,30.3063948 136.388441,29.4130823 136.323156,28.2866731 L136.319512,28.1605908 L136.319512,27.4906792 C136.319512,26.3479092 137.213091,25.4137834 138.339837,25.3485178 L138.465957,25.3448752 L139.181439,25.3448752 C139.548364,25.3448752 139.850777,25.068753 139.892107,24.7130225 L139.896921,24.6296072 L139.896921,23.8689828 C139.896921,23.5021677 139.620716,23.1998444 139.264879,23.1585269 L139.181439,23.1537148 L134.888548,23.1537148 C134.521624,23.1537148 134.21921,23.429837 134.17788,23.7855674 L134.173067,23.8689828 L134.173067,31.7822872 C134.173067,32.1491022 134.449271,32.4514255 134.805108,32.4927431 L134.888548,32.4975552 L147.76722,32.4975552 C148.16237,32.4975552 148.482702,32.8177916 148.482702,33.2128232 C148.482702,33.5796383 148.206497,33.8819615 147.850661,33.9232791 L147.76722,33.9280912 L134.888548,33.9280912 C133.745437,33.9280912 132.811032,33.0347787 132.745747,31.9083695 L132.742103,31.7822872 L132.742103,23.8689828 C132.742103,22.7262128 133.635683,21.7920871 134.762428,21.7268214 L134.888548,21.7231788 L139.181439,21.7231788 C140.324551,21.7231788 141.258955,22.6164913 141.324241,23.7429005 L141.327884,23.8689828 L141.327884,24.6296072 C141.327884,25.7723772 140.434305,26.7065029 139.307559,26.7717685 L139.181439,26.7754112 L138.465957,26.7754112 C138.099033,26.7754112 137.796619,27.0515334 137.755289,27.4072638 L137.750475,27.4906792 L137.750475,28.1605908 C137.750475,28.5274059 138.02668,28.8297291 138.382517,28.8710467 L138.465957,28.8758588 L142.758848,28.8758588 C143.125773,28.8758588 143.428186,28.5997366 143.469516,28.2440062 L143.47433,28.1605908 L143.47433,20.3379991 C143.47433,19.9711841 143.198125,19.6688608 142.842288,19.6275433 L142.758848,19.6227311 L130.595658,19.6227311 C129.062956,19.6227311 127.811662,20.8272199 127.737233,22.3410068 L127.733731,22.4838032 L127.733731,50.3792552 C127.733731,50.7742869 127.413399,51.0945232 127.018249,51.0945232 C126.651324,51.0945232 126.348911,50.818401 126.307581,50.4626706 L126.302767,50.3792552 L126.302767,22.4838032 C126.302767,20.1674814 128.138389,18.2797641 130.434718,18.1951553 L130.595658,18.1921951 L142.758848,18.1921951 Z" transform="rotate(90 137.393 34.643)"/><path fill="#FFF" d="M178.154868,46.4452812 C178.521792,46.4452812 178.824243,46.7213149 178.865619,47.0770399 L178.870444,47.1604547 L178.889762,197.411108 C178.890678,199.337626 177.372074,200.90625 175.468439,200.987041 L175.313269,200.990309 L161.003633,200.990309 C159.860522,200.990309 158.926117,200.096996 158.860832,198.970587 L158.857188,198.844505 L158.857188,190.9312 C158.857188,189.78843 159.750767,188.854304 160.877513,188.789039 L161.003633,188.785396 L165.296524,188.785396 C166.439635,188.785396 167.37404,189.678709 167.439325,190.805118 L167.442969,190.9312 L167.442969,191.691825 C167.442969,192.834595 166.54939,193.76872 165.422644,193.833986 L165.296524,193.837629 L164.581042,193.837629 C164.214117,193.837629 163.911704,194.113751 163.870374,194.469481 L163.86556,194.552897 L163.86556,195.222808 C163.86556,195.589623 164.141765,195.891947 164.497602,195.933264 L164.581042,195.938076 L168.873933,195.938076 C169.240857,195.938076 169.543271,195.661954 169.584601,195.306224 L169.589414,195.222808 L169.589414,187.400217 C169.589414,187.033401 169.31321,186.731078 168.957373,186.689761 L168.873933,186.684949 L155.995261,186.684949 C155.600111,186.684949 155.279779,186.364712 155.279779,185.969681 C155.279779,185.602865 155.555984,185.300542 155.91182,185.259225 L155.995261,185.254413 L168.873933,185.254413 C170.017044,185.254413 170.951449,186.147725 171.016734,187.274134 L171.020378,187.400217 L171.020378,195.222808 C171.020378,196.365578 170.126799,197.299704 169.000053,197.36497 L168.873933,197.368612 L164.581042,197.368612 C163.437931,197.368612 162.503526,196.4753 162.43824,195.34889 L162.434597,195.222808 L162.434597,194.552897 C162.434597,193.410127 163.328176,192.476001 164.454922,192.410735 L164.581042,192.407093 L165.296524,192.407093 C165.663449,192.407093 165.965862,192.13097 166.007192,191.77524 L166.012006,191.691825 L166.012006,190.9312 C166.012006,190.564385 165.735801,190.262062 165.379964,190.220744 L165.296524,190.215932 L161.003633,190.215932 C160.636708,190.215932 160.334295,190.492054 160.292965,190.847785 L160.288151,190.9312 L160.288151,198.844505 C160.288151,199.21132 160.564356,199.513643 160.920193,199.55496 L161.003633,199.559773 L175.31344,199.559773 C176.456408,199.560046 177.390787,198.666845 177.45607,197.54043 L177.459336,197.414063 L177.43948,47.1606436 C177.439428,46.765612 177.759718,46.4452812 178.154868,46.4452812 Z" transform="matrix(1 0 0 -1 0 247.436)"/><g fill="#FFF" transform="rotate(180 93.728 129.821)"><path d="M0.245660384,15.0873386 C0.543672803,14.8279323 0.995612816,14.8591565 1.25509665,15.1570799 C2.70249244,16.8188907 5.25825448,17.6991637 8.96146147,17.7495069 L9.30127875,17.7517959 C16.8005392,17.7517959 20.7489872,20.613051 20.7489872,26.2778541 C20.7489872,31.1006398 18.9709559,33.6704287 15.9299872,34.5067482 C15.0519613,34.7482207 14.2875318,34.8207556 13.1813192,34.8176414 L12.1632059,34.8039123 C8.76643124,34.8039123 5.72386987,32.5531147 5.72386987,28.4080696 C5.72386987,26.0292604 7.37734444,24.2735679 9.53470948,23.8930651 C11.7266886,23.5064573 13.5941694,24.7206589 13.5941694,26.987926 C13.5941694,27.3829576 13.2738373,27.703194 12.8786876,27.703194 C12.483538,27.703194 12.1632059,27.3829576 12.1632059,26.987926 C12.1632059,25.7026512 11.1704653,25.0571896 9.78332979,25.301844 C8.27841723,25.5672713 7.15483342,26.7603151 7.15483342,28.4080696 C7.15483342,31.586113 9.38355101,33.3010621 11.9959535,33.371139 L12.6733083,33.3807636 C13.9533266,33.4062329 14.707664,33.3592283 15.5504301,33.1274528 C17.9427769,32.4695156 19.3180236,30.4818714 19.3180236,26.2778541 C19.3180236,21.5916331 16.1868443,19.2526707 9.60292677,19.1838949 L9.30127875,19.1823319 C5.03910816,19.1823319 1.98306797,18.1713544 0.175898219,16.0964733 C-0.0835856203,15.7985499 -0.0523520349,15.3467449 0.245660384,15.0873386 Z"/><path d="M9.28560281,8.52103374 C17.755464,8.33547316 23.7440817,12.0500583 27.0997195,19.5424368 C29.4994873,23.9031972 32.7626455,26.1187791 36.942625,26.2661402 L37.205068,26.272658 L60.8159666,26.272658 C61.2111163,26.272658 61.5314484,26.5928944 61.5314484,26.987926 C61.5314484,27.354741 61.2552437,27.6570643 60.8994069,27.6983818 L60.8159666,27.703194 L37.1946947,27.703194 C32.3384681,27.6327253 28.5331531,25.1150306 25.8199119,20.1796904 C22.7210266,13.265969 17.3741124,9.8770745 9.64386575,9.94610915 L9.30127875,9.95139805 L0.715497437,9.95139805 C0.320347763,9.95139805 1.566054e-05,9.63116166 1.566054e-05,9.23613005 C1.566054e-05,8.86931498 0.276220381,8.56699171 0.632057147,8.52567418 L0.715497437,8.52086204 L9.28560281,8.52103374 Z"/><path d="M9.30127875-5.68252066e-14C20.1540583-5.68252066e-14 27.7811702 3.41845739 32.0820679 10.267946L32.7840096 11.3462158 33.4281558 12.3191648 33.8762456 12.982835 34.2965847 13.5922944 34.6912126 14.1496995 35.062169 14.657207 35.2973298 14.9688895 35.5234807 15.2599928 35.7412261 15.5311558 35.9511705 15.7830176C35.9855447 15.8234216 36.019619 15.863048 36.053406 15.9019102L36.2527818 16.1260183 36.4458673 16.3324226C36.5092479 16.3983444 36.5716809 16.4614221 36.6332669 16.5217622L36.8155848 16.6946761 36.9934255 16.8518032 37.1673933 16.9937826C37.3109206 17.1059647 37.4510432 17.2030335 37.5893347 17.2866531L37.7545065 17.3806474C37.9738322 17.4976497 38.1900823 17.581926 38.4097029 17.6402923L38.5751511 17.6793153C38.6028647 17.6850449 38.6306561 17.6903964 38.658538 17.6953829L38.8270153 17.7210296 38.9982674 17.7385576C39.0270742 17.7408379 39.0560218 17.7428065 39.0851228 17.7444767L39.2616703 17.7510246 47.2218129 17.7518132C47.6169625 17.7518132 47.9372947 18.0720496 47.9372947 18.4670812 47.9372947 18.8338962 47.6610899 19.1362195 47.3052532 19.1775371L47.2218129 19.1823492 39.3515133 19.1823492C39.2727357 19.1823492 39.195076 19.1811847 39.1184292 19.1787586L38.8914225 19.1675983C38.1067992 19.1146105 37.4222648 18.9118236 36.7161792 18.4468221L36.513749 18.3067323C36.1750376 18.0610338 35.8288124 17.7534485 35.4619387 17.3718378L35.2392316 17.1338912C35.2016657 17.0927206 35.1638671 17.0507854 35.1258226 17.0080736L34.8945 16.7423854C34.8554194 16.6965183 34.8160666 16.6498503 34.7764286 16.6023692L34.5350718 16.3076284 34.2862375 15.9927909 34.0292953 15.6572741 33.7636146 15.3004952 33.4885651 14.9218717 33.2035162 14.5208208 32.9078375 14.09676 32.6008986 13.6491066 32.117998 12.9321157 31.7801501 12.4229316 31.2479307 11.6109136 30.8752335 11.0365572C26.9148778 4.72951635 19.8998427 1.52155945 9.73868347 1.43244562L9.30127875 1.430536.715497437 1.430536C.320347763 1.430536.00001566054 1.11029961.00001566054.715268002.00001566054.348452936.276220381.0461296643.632057147.00481213095L.715497437-5.68252066e-14 9.30127875-5.68252066e-14ZM25.9615545 36.2396607C28.273776 33.9335078 32.0723168 33.2076039 37.3103291 33.9864608 37.7011791 34.0445776 37.9708986 34.4084423 37.9127645 34.7991755 37.8546304 35.1899087 37.4906569 35.4595476 37.0998069 35.4014308 32.2652133 34.6825595 28.9049668 35.3247051 26.9722195 37.2523798L26.0438028 38.1727217 25.7295347 38.4777072C21.5895714 42.4676192 17.8976596 44.3466161 12.1695572 44.3466161 7.02611858 44.3466161 3.00585068 42.666012.168661405 39.3044308-.0861595266 39.0025118-.0479058762 38.5512467.254103325 38.2965019.556112525 38.0417571 1.00751254 38.0799993 1.26233347 38.3819183 3.81346359 41.4045686 7.42923552 42.9160801 12.1695572 42.9160801 17.3613989 42.9160801 20.6956618 41.2753295 24.4883578 37.6847548L25.0250905 37.167758 25.5842868 36.6155056 25.9615545 36.2396607Z"/></g></g></svg>