<svg xmlns="http://www.w3.org/2000/svg" xmlns:xlink="http://www.w3.org/1999/xlink" width="188" height="332" viewBox="0 0 188 332"><defs><polygon id="a" points="0 0 37.052 0 37.052 13.759 0 13.759"/><polygon id="c" points="0 0 32.354 0 32.354 9.262 0 9.262"/></defs><g fill="none" fill-rule="evenodd" transform="translate(.453 .099)"><path fill="#000" d="M93.6115033,0.59277311 C102.41045,0.59277311 109.663678,7.20880486 110.665079,15.7361661 L168.919744,15.7358961 C178.36686,15.7358961 186.025262,23.4215695 186.025262,32.9023281 L186.025262,313.287385 C186.025262,322.768144 178.36686,330.453817 168.919744,330.453817 L17.8209999,330.453817 C8.37388311,330.453817 0.715481776,322.768144 0.715481776,313.287385 L0.715481776,32.9023281 C0.715481776,23.4215695 8.37388311,15.7358961 17.8209999,15.7358961 L76.5579275,15.7361661 C77.5593283,7.20880486 84.8125564,0.59277311 93.6115033,0.59277311 Z"/><path fill="#FFF" d="M94.4435944,112.297076 C124.47497,112.297076 148.820209,136.635042 148.820209,166.657445 C148.820209,196.679847 124.47497,221.017813 94.4435944,221.017813 C64.4122192,221.017813 40.0669795,196.679847 40.0669795,166.657445 C40.0669795,136.635042 64.4122192,112.297076 94.4435944,112.297076 Z M94.4435944,113.727612 C65.2025186,113.727612 41.497943,137.425105 41.497943,166.657445 C41.497943,195.889784 65.2025186,219.587277 94.4435944,219.587277 C123.68467,219.587277 147.389246,195.889784 147.389246,166.657445 C147.389246,137.425105 123.68467,113.727612 94.4435944,113.727612 Z"/><ellipse cx="94.444" cy="166.657" fill="#00E5A6" rx="48.653" ry="48.638"/><path fill="#FFF" d="M94.4435944,118.01922 C121.313772,118.01922 143.096355,139.795295 143.096355,166.657445 C143.096355,193.519594 121.313772,215.295669 94.4435944,215.295669 C67.5734166,215.295669 45.7908337,193.519594 45.7908337,166.657445 C45.7908337,139.795295 67.5734166,118.01922 94.4435944,118.01922 Z M94.4435944,119.449756 C68.363716,119.449756 47.2217972,140.585358 47.2217972,166.657445 C47.2217972,192.729531 68.363716,213.865133 94.4435944,213.865133 C120.523473,213.865133 141.665392,192.729531 141.665392,166.657445 C141.665392,140.585358 120.523473,119.449756 94.4435944,119.449756 Z"/><g transform="translate(42.887 114.944)"><path fill="#FFF" d="M4.97421409 42.797222C1.35274649 40.8487607-2.62641805 46.4902083 2.30346731 48.3872903 4.34952805 49.1777412 5.5903428 50.6795978 5.10514144 52.2099106 3.58621304 57.0103185 11.6292598 59.3042069 13.4656657 55.4041224 14.3042853 53.6232367 18.0866309 46.5890147 10.3670517 45.8799803 7.27014925 45.5962084 5.68105063 43.1774289 4.97421409 42.797222M82.2918446 48.6649032C78.4196469 46.5804843 73.5205679 53.9048018 78.792747 55.9370509 80.9808596 56.778881 82.2156843 58.3613636 81.7878171 60.0244722 81.2564061 62.0994056 83.0269204 64.0225725 85.4589173 64.5521746 87.6316267 65.0264451 89.4192557 64.3940844 90.7293849 63.4408007 92.0395141 62.487517 93.6157767 63.1246204 94.7564706 63.2985196 95.8971644 63.4724187 98.1357654 63.3775646 99.164358 62.1436709 100.192951 60.9097771 99.7436901 59.1115015 100.085984 58.5471196 100.240872 58.291804 101.175334 57.7566687 101.70161 55.9449554 102.768711 52.2685686 98.8340445 52.4835712 97.2902999 52.4116402 95.7465552 52.3397091 94.0034244 53.0993324 93.4959739 52.6432423 92.5478203 51.7903458 90.9878167 49.6924893 89.3576428 49.335996 86.851197 48.7882135 85.9030434 50.6560489 84.9463324 50.7746165 83.9896215 50.8931841 83.047458 49.0727758 82.2918446 48.6649032M84.76168 76.8272131C83.9915191 79.2673348 88.0767947 80.4332498 89.0104009 78.4507991 89.438268 77.5457329 89.5691954 76.6896746 92.2365192 76.5924492 94.1935836 76.5213086 94.4614284 73.7855583 92.1286967 73.2093196 91.419293 73.0338395 89.9979183 73.8250808 88.5020947 73.7531498 85.8612986 73.6250967 85.0081315 76.0478286 84.76168 76.8272131M88.3292364 69.3961768C89.2500065 69.3629779 89.3757994 68.0769144 88.278748 67.8057898 87.9450117 67.7267447 86.2703396 67.4524582 86.072665 67.9947075 85.67646 69.0823679 87.0755856 69.442023 88.3292364 69.3961768"/><g transform="translate(10.048)"><mask id="b" fill="#fff"><use xlink:href="#a"/></mask><path fill="#FFF" d="M6.84212031,12.7746104 C11.4305677,14.2930664 16.3801349,11.5628492 18.3628713,11.9327802 C19.2613923,12.1003558 21.6754188,14.0013901 27.5389103,13.7334272 C36.5241206,13.3231832 39.2624704,5.86053689 35.2507879,3.141386 C28.1995372,-1.63926066 5.11439274,-1.09780184 0.370201722,5.69138041 C-1.39774536,8.22082309 3.5646579,11.6909023 6.84212031,12.7746104" mask="url(#b)"/></g><path fill="#FF6963" d="M38.1019025,36.0826263 C37.7596088,46.0043652 23.1924436,81.4323718 23.1924436,81.4323718 L60.1267922,81.4323718 C60.1267922,81.4323718 68.6336469,54.2068736 69.2463527,43.4804557 C69.8590585,32.7540378 38.1019025,36.0826263 38.1019025,36.0826263"/><path fill="#FF6963" d="M37.3942188,44.2179463 C45.1959485,36.6794167 27.4497304,13.7966554 23.1890292,23.2931318 C17.5685663,35.8304725 30.8136219,49.1930439 32.2187377,57.7227989 C44.5866656,65.3506495 34.0337501,36.2770772 34.0337501,36.2770772 L37.3942188,44.2179463 Z"/><g transform="translate(5.635 29.294)"><mask id="d" fill="#fff"><use xlink:href="#c"/></mask><path fill="#FFF" d="M5.91591378,5.17872932 C7.68386086,5.19928104 9.64092523,4.26180635 10.2416507,4.76374263 C11.3626627,5.70042687 13.2452781,8.03699955 15.1278936,8.38005521 C18.0177084,8.90728592 19.0154946,6.73512702 20.1031329,6.56201829 C21.1907712,6.38890955 22.3528584,8.42985361 23.2359762,8.86460158 C27.758532,11.0936729 36.3406914,3.3172176 30.2358829,1.16956267 C30.2298927,1.16956267 5.16286758,-2.09104703 0.55987273,2.27619384 C-1.86955698,4.58351984 4.29600873,5.1565967 5.91762524,5.17556752" mask="url(#d)"/></g><path fill="#FFF" d="M37.1802852,39.0491883 C35.4508461,38.6476393 34.4547714,40.9747265 36.3373869,42.0339307 C36.9081617,42.3548537 39.3555618,42.9034266 40.5484554,42.7943444 C41.9792432,42.6568059 39.5378332,39.5961803 37.1802852,39.0491883"/><path fill="#FFD600" d="M38.6102172,53.0409586 C36.7233231,42.9429491 29.9142452,19.2460235 28.7898103,12.1137856 C27.9015581,6.4873565 52.9891208,3.80298545 54.441302,9.44838533 C57.0615604,19.6380871 61.7629647,39.2823713 63.7029144,48.5709591 C64.3892133,51.860025 39.345293,56.9805655 38.6102172,53.041749 L38.6102172,53.0409586 Z M57.2515334,6.40435916 C55.5794286,0.0609911866 23.6725191,3.74053984 24.6317973,10.0744224 C25.8443728,18.103822 33.770184,44.7032831 35.8581757,56.0660139 C36.6728347,60.4964909 68.5960032,54.0685447 67.8232751,50.3747679 C65.6420083,39.9250078 60.2697083,17.8500873 57.2515334,6.40435916 L57.2515334,6.40435916 Z"/><path fill="#000" d="M41.1063942,49.568508 C39.480499,41.0039732 33.9011113,20.8640763 32.9084595,14.8194988 C32.1246069,10.0514993 50.7077332,8.25480457 51.9117513,13.0496793 C54.083605,21.7043256 58.0088583,38.3820478 59.6544354,46.2636331 C60.2371904,49.0539245 41.7396376,52.9081628 41.1063942,49.568508 M28.7898103,12.1137856 C29.9142452,19.2460235 36.7233231,42.9413682 38.6102172,53.041749 C39.345293,56.9805655 64.3892133,51.8560728 63.7029144,48.5709591 C61.7629647,39.2823713 57.0615604,19.6404584 54.441302,9.44838533 C52.9891208,3.80298545 27.9015581,6.4873565 28.7898103,12.1137856"/><path fill="#FFD600" d="M32.908451,14.8195067 C33.9011028,20.8640842 39.4822019,41.0039811 41.1063856,49.5685159 C41.739629,52.9081707 60.2371819,49.0539325 59.6544268,46.263641 C58.0088497,38.3820557 54.0835965,21.7043335 51.9117428,13.0496873 C50.7085803,8.25481247 32.1245983,10.0515072 32.908451,14.8195067"/><path fill="#FFD600" d="M38.3911492,45.7885721 C42.3934186,36.2304406 49.7407534,12.668682 52.7452366,6.0194096 C55.1173321,0.77239694 78.1305949,10.3819078 76.2342876,15.9134827 C72.8113504,25.8984577 65.9107089,44.9807314 62.4047654,53.869351 C61.1639507,57.0161358 36.8328571,49.5163383 38.3911492,45.7885721 M80.3383894,14.6376951 C82.433227,8.40419978 53.0242059,-3.59168213 50.3158068,2.2955957 C46.8877352,9.75903251 38.8823407,36.3379419 34.3503718,47.0754261 C32.5832805,51.2648155 63.5420363,60.9083158 64.937739,57.3694674 C68.880107,47.3742165 76.5568995,25.8881819 80.3383894,14.6376951"/><path fill="#000" d="M42.4678675,43.9942487 C45.8411721,35.8771091 52.2626024,15.949053 54.7750383,10.2965391 C56.756919,5.8344441 73.6961797,13.1176581 72.0608714,17.8018698 C69.1060208,26.2565319 63.1911853,42.4291561 60.2166528,49.9676857 C59.1640996,52.6378286 41.1526039,47.1600043 42.4678675,43.9942487 M52.7478038,6.0194096 C49.7433206,12.6710534 42.3959858,36.2304406 38.3911492,45.7885721 C36.8302899,49.5163383 61.1613835,57.012974 62.4021982,53.869351 C65.9107089,44.9807314 72.8079274,25.8984577 76.2317204,15.9134827 C78.1305949,10.3819078 55.1173321,0.77239694 52.7478038,6.0194096"/><path fill="#FFD600" d="M54.7750383,10.296547 C52.2626024,15.9490609 45.8411721,35.877117 42.4678675,43.9942566 C41.1526039,47.1600122 59.1640996,52.6378365 60.2166528,49.9676936 C63.1911853,42.4260022 69.1060208,26.2541685 72.0600157,17.8018777 C73.6961797,13.117666 56.756919,5.8312902 54.7750383,10.296547"/><path fill="#FFD600" d="M45.9130453,44.7214635 C52.4662586,36.4517668 66.1845353,15.4629258 70.9552541,9.75982296 C74.7204851,5.26136725 94.2414962,20.0617687 90.8544998,24.9483358 C84.7419896,33.7697672 72.7129324,50.541553 66.829759,58.2848094 C64.7477574,61.0292547 43.3586784,47.9496647 45.9130453,44.7214635 M95.1768138,24.7040865 C98.9523135,19.1899015 73.9212292,0.547118452 69.654538,5.58387119 C64.2454414,11.9691331 49.0424656,35.7150667 41.6472097,44.9981213 C38.7633851,48.6175957 65.9500641,65.358554 68.2913532,62.2757957 C74.9087466,53.5689797 88.3660244,34.6613957 95.1768138,24.7040865"/><path fill="#000" d="M50.3526034,43.9697448 C55.8926273,36.9402655 67.6949149,19.2389094 71.7108761,14.3792177 C74.877093,10.5463215 89.1901051,21.6434609 86.2925887,25.7735665 C81.0631963,33.2298892 70.8037977,47.4255958 65.8131552,53.9926614 C64.0460638,56.3213295 48.19273,46.7110283 50.3526034,43.9697448 M70.9552627,9.76298477 C66.1845439,15.4660876 52.4662672,36.4549286 45.9130538,44.7214635 C43.3586869,47.9496647 64.747766,61.0292547 66.8297676,58.2879712 C72.7137967,50.541553 84.7419981,33.772929 90.8545083,24.9514976 C94.2415047,20.0649305 74.7196379,5.26452905 70.9552627,9.76298477"/><path fill="#FFD600" d="M71.7108675,14.3792256 C67.6949064,19.2389173 55.8926188,36.9402734 50.3525949,43.9697527 C48.1927215,46.7110362 64.0443438,56.3213375 65.8131466,53.9950406 C70.8063563,47.4256037 81.0631878,33.2298971 86.2925801,25.7759457 C89.1900965,21.640307 74.8787959,10.5463295 71.7108675,14.3792256"/><path fill="#FF6963" d="M85.0705916,33.2204038 C92.9844225,30.757359 98.5680888,27.5291578 87.6181126,16.59248 C80.2408271,9.22310684 75.6729174,17.5449733 80.6755401,22.532718 C84.0651037,25.9134763 85.8244935,26.9537096 85.8244935,26.9537096 L85.0705916,33.2204038 Z"/><path fill="#FF6963" d="M83.2983744,39.6957771 C93.8427325,37.6753847 95.3334217,31.6790247 82.281762,22.9287339 C73.489092,17.0319707 70.7687126,26.0170253 76.7280463,30.0072212 C80.7671123,32.710563 82.7181865,33.4132738 82.7181865,33.4132738 L83.2983744,39.6957771 Z"/><path fill="#FF6963" d="M80.1004867 46.1490177C91.207918 47.6034473 92.1346783 38.1338462 79.0838743 29.3819746 70.2903486 23.4852113 67.5716806 32.4694755 73.5301586 36.4604618 77.5692246 39.1645941 78.4626112 38.5670133 79.5151644 39.8673049 80.5369112 41.1296549 80.1004867 46.1490177 80.1004867 46.1490177M30.5817094 29.2934441C38.0265979 13.8085122 31.1011401 10.0451757 23.1924436 23.2931318 16.0984062 35.1759792 23.1924436 40.9043764 28.5399273 48.3828318 38.1104598 37.7702388 29.0071582 32.566701 30.5817094 29.2934441"/><path fill="#000" d="M66.738204,76.9030885 C66.3907759,74.6028765 62.4886274,73.5207493 62.4886274,73.5207493 L61.4959756,76.7347224 C52.7264104,77.0975394 33.8711606,76.718123 25.5260396,74.8083937 L25.5209052,74.8083937 L26.6675892,71.7627867 C26.6675892,71.7627867 20.0707334,70.9857735 19.3348019,73.2346061 C18.0845741,77.0501123 12.9852533,91.6260258 40.2575058,94.8194471 C67.9379435,98.061086 67.775354,83.7808012 66.738204,76.9030885"/><path fill="#FFF" d="M18.5602187,78.0708065 C22.8756868,76.5547218 26.5750263,76.4812099 27.7533724,76.2124566 C33.7897222,74.8354912 31.7239796,65.0291581 24.3501171,67.7087865 C21.2900112,68.8209508 18.2906624,68.4051737 17.0926344,66.3073171 C14.7205389,62.1511266 5.11235404,63.9928771 4.80257822,70.0540541 C4.58693318,74.2568812 8.88614235,81.4689546 18.5602187,78.0708065"/></g><path fill="#FFF" d="M71.8876537,15.020628 C72.2828034,15.020628 72.6031355,15.3408644 72.6031355,15.7358961 C72.6031355,16.1027111 72.3269308,16.4050344 71.971094,16.4463519 L71.8876537,16.4511641 L17.8870444,16.4511641 C8.88948633,16.4511641 1.5784884,23.6700289 1.4331682,32.630278 L1.43096355,32.9023281 L1.43096355,313.287385 C1.43096355,322.282255 8.6519859,329.591068 17.614913,329.736345 L17.8870444,329.738549 L169.569181,329.738549 C178.566739,329.738549 185.877737,322.519684 186.023057,313.559435 L186.025262,313.287385 L186.025262,32.9023281 C186.025262,23.9074584 178.804239,16.5986448 169.841312,16.453368 L169.569181,16.4511641 L115.718085,16.4511641 C115.322936,16.4511641 115.002603,16.1309277 115.002603,15.7358961 C115.002603,15.369081 115.278808,15.0667577 115.634645,15.0254402 L115.718085,15.020628 L169.569181,15.020628 C179.349135,15.020628 187.295872,22.8672203 187.453829,32.6066215 L187.456225,32.9023281 L187.456225,313.287385 C187.456225,323.064417 179.607288,331.00878 169.864976,331.169085 L169.569181,331.169085 L17.8870444,331.169085 C8.10708998,331.169085 0.160353095,323.322493 0.0023963529,313.583092 L0,313.287385 L0,32.9023281 C0,23.1252958 7.84893734,15.1809332 17.5912494,15.020628 L17.8870444,15.020628 L71.8876537,15.020628 Z"/><g fill="#FFF" transform="matrix(1 0 0 -1 0 124.457)"><path d="M0.245660384,15.0873386 C0.543672803,14.8279323 0.995612816,14.8591565 1.25509665,15.1570799 C2.70249244,16.8188907 5.25825448,17.6991637 8.96146147,17.7495069 L9.30127875,17.7517959 C16.8005392,17.7517959 20.7489872,20.613051 20.7489872,26.2778541 C20.7489872,31.1006398 18.9709559,33.6704287 15.9299872,34.5067482 C15.0519613,34.7482207 14.2875318,34.8207556 13.1813192,34.8176414 L12.1632059,34.8039123 C8.76643124,34.8039123 5.72386987,32.5531147 5.72386987,28.4080696 C5.72386987,26.0292604 7.37734444,24.2735679 9.53470948,23.8930651 C11.7266886,23.5064573 13.5941694,24.7206589 13.5941694,26.987926 C13.5941694,27.3829576 13.2738373,27.703194 12.8786876,27.703194 C12.483538,27.703194 12.1632059,27.3829576 12.1632059,26.987926 C12.1632059,25.7026512 11.1704653,25.0571896 9.78332979,25.301844 C8.27841723,25.5672713 7.15483342,26.7603151 7.15483342,28.4080696 C7.15483342,31.586113 9.38355101,33.3010621 11.9959535,33.371139 L12.6733083,33.3807636 C13.9533266,33.4062329 14.707664,33.3592283 15.5504301,33.1274528 C17.9427769,32.4695156 19.3180236,30.4818714 19.3180236,26.2778541 C19.3180236,21.5916331 16.1868443,19.2526707 9.60292677,19.1838949 L9.30127875,19.1823319 C5.03910816,19.1823319 1.98306797,18.1713544 0.175898219,16.0964733 C-0.0835856203,15.7985499 -0.0523520349,15.3467449 0.245660384,15.0873386 Z"/><path d="M9.28560281,8.52103374 C17.755464,8.33547316 23.7440817,12.0500583 27.0997195,19.5424368 C29.4994873,23.9031972 32.7626455,26.1187791 36.942625,26.2661402 L37.205068,26.272658 L60.8159666,26.272658 C61.2111163,26.272658 61.5314484,26.5928944 61.5314484,26.987926 C61.5314484,27.354741 61.2552437,27.6570643 60.8994069,27.6983818 L60.8159666,27.703194 L37.1946947,27.703194 C32.3384681,27.6327253 28.5331531,25.1150306 25.8199119,20.1796904 C22.7210266,13.265969 17.3741124,9.8770745 9.64386575,9.94610915 L9.30127875,9.95139805 L0.715497437,9.95139805 C0.320347763,9.95139805 1.56605399e-05,9.63116166 1.56605399e-05,9.23613005 C1.56605399e-05,8.86931498 0.276220381,8.56699171 0.632057147,8.52567418 L0.715497437,8.52086204 L9.28560281,8.52103374 Z"/><path d="M9.30127875 0C20.1540583 0 27.7811702 3.41845739 32.0820679 10.267946L32.7840096 11.3462158 33.4281558 12.3191648 33.8762456 12.982835 34.2965847 13.5922944 34.6912126 14.1496995 35.062169 14.657207 35.2973298 14.9688895 35.5234807 15.2599928 35.7412261 15.5311558 35.9511705 15.7830176C35.9855447 15.8234216 36.019619 15.863048 36.053406 15.9019102L36.2527818 16.1260183 36.4458673 16.3324226C36.5092479 16.3983444 36.5716809 16.4614221 36.6332669 16.5217622L36.8155848 16.6946761 36.9934255 16.8518032 37.1673933 16.9937826C37.3109206 17.1059647 37.4510432 17.2030335 37.5893347 17.2866531L37.7545065 17.3806474C37.9738322 17.4976497 38.1900823 17.581926 38.4097029 17.6402923L38.5751511 17.6793153C38.6028647 17.6850449 38.6306561 17.6903964 38.658538 17.6953829L38.8270153 17.7210296 38.9982674 17.7385576C39.0270742 17.7408379 39.0560218 17.7428065 39.0851228 17.7444767L39.2616703 17.7510246 47.2218129 17.7518132C47.6169625 17.7518132 47.9372947 18.0720496 47.9372947 18.4670812 47.9372947 18.8338962 47.6610899 19.1362195 47.3052532 19.1775371L47.2218129 19.1823492 39.3515133 19.1823492C39.2727357 19.1823492 39.195076 19.1811847 39.1184292 19.1787586L38.8914225 19.1675983C38.1067992 19.1146105 37.4222648 18.9118236 36.7161792 18.4468221L36.513749 18.3067323C36.1750376 18.0610338 35.8288124 17.7534485 35.4619387 17.3718378L35.2392316 17.1338912C35.2016657 17.0927206 35.1638671 17.0507854 35.1258226 17.0080736L34.8945 16.7423854C34.8554194 16.6965183 34.8160666 16.6498503 34.7764286 16.6023692L34.5350718 16.3076284 34.2862375 15.9927909 34.0292953 15.6572741 33.7636146 15.3004952 33.4885651 14.9218717 33.2035162 14.5208208 32.9078375 14.09676 32.6008986 13.6491066 32.117998 12.9321157 31.7801501 12.4229316 31.2479307 11.6109136 30.8752335 11.0365572C26.9148778 4.72951635 19.8998427 1.52155945 9.73868347 1.43244562L9.30127875 1.430536.715497437 1.430536C.320347763 1.430536.0000156605399 1.11029961.0000156605399.715268002.0000156605399.348452936.276220381.0461296643.632057147.00481213095L.715497437 0 9.30127875 0ZM25.9615545 36.2396607C28.273776 33.9335078 32.0723168 33.2076039 37.3103291 33.9864608 37.7011791 34.0445776 37.9708986 34.4084423 37.9127645 34.7991755 37.8546304 35.1899087 37.4906569 35.4595476 37.0998069 35.4014308 32.2652133 34.6825595 28.9049668 35.3247051 26.9722195 37.2523798L26.0438028 38.1727217 25.7295347 38.4777072C21.5895714 42.4676192 17.8976596 44.3466161 12.1695572 44.3466161 7.02611858 44.3466161 3.00585068 42.666012.168661405 39.3044308-.0861595266 39.0025118-.0479058762 38.5512467.254103325 38.2965019.556112525 38.0417571 1.00751254 38.0799993 1.26233347 38.3819183 3.81346359 41.4045686 7.42923552 42.9160801 12.1695572 42.9160801 17.3613989 42.9160801 20.6956618 41.2753295 24.4883578 37.6847548L25.0250905 37.167758 25.5842868 36.6155056 25.9615545 36.2396607Z"/></g><path fill="#FFF" d="M178.175196 271.801841C178.542121 271.801841 178.844534 272.077963 178.885864 272.433694L178.890678 272.517109 178.890678 310.379174C178.890678 317.017521 173.5695 322.413412 166.958616 322.536579L166.727487 322.53873 52.4610924 322.53873C52.0659427 322.53873 51.7456106 322.218494 51.7456106 321.823462 51.7456106 321.456647 52.0218153 321.154324 52.3776521 321.113006L52.4610924 321.108194 166.727487 321.108194C172.579704 321.108194 177.337889 316.425487 177.457412 310.603645L177.459714 310.379174 177.459714 272.517109C177.459714 272.122077 177.780046 271.801841 178.175196 271.801841ZM67.5172314 23.5567052C67.9123811 23.5567052 68.2327132 23.8769415 68.2327132 24.2719732 68.2327132 24.6387882 67.9565085 24.9411115 67.6006717 24.982429L67.5172314 24.9872412 20.7692051 24.9872412C14.9169884 24.9872412 10.1588034 29.669948 10.0392807 35.49179L10.0369785 35.7162612 10.029664 55.092307 10.0173717 67.3871893 10.0167449 70.8115322C10.0167449 71.2065638 9.69641276 71.5268002 9.30126309 71.5268002 8.93433839 71.5268002 8.63192476 71.250678 8.59059488 70.8949476L8.58578131 70.8115322 8.58857025 64.0671478 8.60443537 46.1119082 8.6060149 35.7162612C8.6060149 29.0779139 13.9271928 23.682023 20.5380761 23.5588566L20.7692051 23.5567052 67.5172314 23.5567052ZM93.7281127 0C103.606854 0 111.615157 8.00590982 111.615157 17.8817001 111.615157 27.7574903 103.606854 35.7634001 93.7281127 35.7634001 83.8493708 35.7634001 75.8410683 27.7574903 75.8410683 17.8817001 75.8410683 8.00590982 83.8493708 0 93.7281127 0ZM93.7281127 1.430536C84.6396702 1.430536 77.2720318 8.79597304 77.2720318 17.8817001 77.2720318 26.9674271 84.6396702 34.3328641 93.7281127 34.3328641 102.816555 34.3328641 110.184194 26.9674271 110.184194 17.8817001 110.184194 8.79597304 102.816555 1.430536 93.7281127 1.430536Z"/><g fill="#FFF" transform="translate(82.29 6.033)"><path d="M14.2137736,1.07289241 C14.9541119,2.35476696 14.9541119,3.60846482 14.1782226,4.70473713 C13.8816507,5.12377064 13.54053,5.45600584 13.0611726,5.82800266 L12.6416205,6.14062304 L12.3827813,6.32945401 C11.7694955,6.7816249 11.5203927,7.05508846 11.4223988,7.41355185 C11.2708562,7.96789771 11.3942122,8.58812538 11.8307191,9.29816424 L16.5990119,9.29848403 L16.5981608,9.30014858 L16.6992412,9.3031099 C19.3645004,9.41682844 21.4903608,11.6129078 21.4903608,14.30536 C21.4903608,17.0705813 19.2480361,19.3122361 16.4819884,19.3122361 C14.641694,19.3122361 12.950898,18.1685213 12.074432,16.5146331 L12.0415583,16.4511641 L10.8867707,16.4511641 L10.8591319,16.5088037 C10.0295504,18.1211341 8.40637851,19.2359442 6.60273564,19.3084734 L6.41553326,19.3122361 C3.64948554,19.3122361 1.40716083,17.0705813 1.40716083,14.30536 C1.40716083,11.5977476 3.55702858,9.39211355 6.24335275,9.30138732 L6.27216083,9.30014858 L6.2727169,9.29848403 L10.227333,9.29859128 C9.90911952,8.52731084 9.8416099,7.76965998 10.0420544,7.03642988 C10.2347616,6.33150333 10.6236878,5.87165087 11.368359,5.30203204 L11.5654292,5.15472702 L12.0197474,4.82251211 C12.4894128,4.4726512 12.7806135,4.20270445 13.0100849,3.87847889 C13.4473901,3.2606 13.4473901,2.60691653 12.9745339,1.7881796 C12.7769538,1.44607525 12.8941967,1.00862239 13.2364033,0.811101283 C13.5786099,0.61358018 14.0161935,0.73078806 14.2137736,1.07289241 Z M16.4819884,10.72902 L6.41553326,10.72902 C4.43978489,10.72902 2.83812438,12.330202 2.83812438,14.30536 C2.83812438,16.2805181 4.43978489,17.8817001 6.41553326,17.8817001 C7.81669963,17.8817001 9.11539302,16.9590587 9.69387085,15.6282568 L9.75515093,15.4787364 L9.9317092,15.020628 L12.9826225,15.020628 L13.1633898,15.4679972 C13.7323953,16.8761908 15.0717938,17.8817001 16.4819884,17.8817001 C18.4577368,17.8817001 20.0593973,16.2805181 20.0593973,14.30536 C20.0593973,12.3821798 18.5409255,10.8135518 16.637169,10.7323242 L16.4819884,10.72902 Z"/><circle cx="15.383" cy="13.232" r="1.073"/><path d="M6.43933598,12.159556 C6.83448566,12.159556 7.15481776,12.4798881 7.15481776,12.8750378 L7.15389066,13.589556 L7.87051331,13.590092 C8.26554492,13.590092 8.58578131,13.9103284 8.58578131,14.30536 C8.58578131,14.7003917 8.26554492,15.020628 7.87051331,15.020628 L7.15389066,15.020556 L7.15481776,15.7356823 C7.15481776,16.130832 6.83448566,16.4511641 6.43933598,16.4511641 C6.04418631,16.4511641 5.72385421,16.130832 5.72385421,15.7356823 L5.72289066,15.020556 L5.00815866,15.020628 C4.61312705,15.020628 4.29289066,14.7003917 4.29289066,14.30536 C4.29289066,13.9103284 4.61312705,13.590092 5.00815866,13.590092 L5.72289066,13.589556 L5.72385421,12.8750378 C5.72385421,12.4798881 6.04418631,12.159556 6.43933598,12.159556 Z"/><circle cx="17.529" cy="15.378" r="1.073"/></g><path fill="#FFF" d="M25.0620957,136.283285 C26.2052073,136.283285 27.1396122,137.176598 27.2048973,138.303007 L27.2085411,138.429089 L27.2085411,146.251681 C27.2085411,147.394451 26.3149616,148.328576 25.1882157,148.393842 L25.0620957,148.397485 L20.7692051,148.397485 C19.6260935,148.397485 18.6916887,147.504172 18.6264035,146.377763 L18.6227598,146.251681 L18.6227598,145.581769 C18.6227598,144.438999 19.5163392,143.504873 20.6430851,143.439608 L20.7692051,143.435965 L21.4846869,143.435965 C21.8516116,143.435965 22.1540252,143.159843 22.1953551,142.804112 L22.2001686,142.720697 L22.2001686,141.960073 C22.2001686,141.593258 21.9239639,141.290934 21.5681272,141.249617 L21.4846869,141.244805 L17.1917962,141.244805 C16.8248715,141.244805 16.5224579,141.520927 16.481128,141.876657 L16.4763144,141.960073 L16.4763144,149.873377 C16.4763144,150.240192 16.7525192,150.542515 17.1083559,150.583833 L17.1917962,150.588645 L30.0704682,150.588645 C30.4656179,150.588645 30.78595,150.908881 30.78595,151.303913 C30.78595,151.670728 30.5097452,151.973051 30.1539085,152.014369 L30.0704682,152.019181 L17.1917962,152.019181 C16.0486847,152.019181 15.1142798,151.125869 15.0489946,149.999459 L15.0453509,149.873377 L15.0453509,141.960073 C15.0453509,140.817303 15.9389304,139.883177 17.0656762,139.817911 L17.1917962,139.814269 L21.4846869,139.814269 C22.6277984,139.814269 23.5622033,140.707581 23.6274885,141.83399 L23.6311322,141.960073 L23.6311322,142.720697 C23.6311322,143.863467 22.7375527,144.797593 21.6108068,144.862858 L21.4846869,144.866501 L20.7692051,144.866501 C20.4022804,144.866501 20.0998668,145.142623 20.0585369,145.498354 L20.0537233,145.581769 L20.0537233,146.251681 C20.0537233,146.618496 20.329928,146.920819 20.6857648,146.962137 L20.7692051,146.966949 L25.0620957,146.966949 C25.4290204,146.966949 25.7314341,146.690826 25.772764,146.335096 L25.7775775,146.251681 L25.7775775,138.429089 C25.7775775,138.062274 25.5013728,137.759951 25.145536,137.718633 L25.0620957,137.713821 L12.1834238,137.713821 C11.0403122,137.713821 10.1059073,138.607134 10.0406222,139.733543 L10.0369785,139.859625 L10.0369785,297.50435 C10.0369785,297.899382 9.71664635,298.219618 9.32149668,298.219618 C8.95457198,298.219618 8.65215835,297.943496 8.61082847,297.587765 L8.6060149,297.50435 L8.6060149,139.859625 C8.6060149,137.936445 10.1244867,136.367817 12.0282432,136.286589 L12.1834238,136.283285 L25.0620957,136.283285 Z" transform="matrix(1 0 0 -1 0 434.503)"/><path fill="#FFF" d="M53.4289705,299.902475 C53.7958952,299.902475 54.0983088,300.178597 54.1396387,300.534328 L54.1444523,300.617743 L54.1444523,317.994801 C54.1444523,319.917981 52.6259805,321.48661 50.722224,321.567837 L50.5670434,321.571141 L36.2574079,321.571141 C35.1142963,321.571141 34.1798914,320.677829 34.1146063,319.55142 L34.1109625,319.425337 L34.1109625,311.512033 C34.1109625,310.369263 35.004542,309.435137 36.1312879,309.369871 L36.2574079,309.366229 L40.5502985,309.366229 C41.6934101,309.366229 42.627815,310.259541 42.6931001,311.385951 L42.6967438,311.512033 L42.6967438,312.272657 C42.6967438,313.415427 41.8031644,314.349553 40.6764185,314.414819 L40.5502985,314.418461 L39.8348167,314.418461 C39.467892,314.418461 39.1654784,314.694583 39.1241485,315.050314 L39.119335,315.133729 L39.119335,315.803641 C39.119335,316.170456 39.3955397,316.472779 39.7513764,316.514097 L39.8348167,316.518909 L44.1277074,316.518909 C44.4946321,316.518909 44.7970457,316.242787 44.8383756,315.887056 L44.8431892,315.803641 L44.8431892,307.981049 C44.8431892,307.614234 44.5669845,307.311911 44.2111477,307.270593 L44.1277074,307.265781 L31.2490354,307.265781 C30.8538858,307.265781 30.5335537,306.945545 30.5335537,306.550513 C30.5335537,306.183698 30.8097584,305.881375 31.1655951,305.840057 L31.2490354,305.835245 L44.1277074,305.835245 C45.270819,305.835245 46.2052238,306.728558 46.270509,307.854967 L46.2741527,307.981049 L46.2741527,315.803641 C46.2741527,316.946411 45.3805732,317.880537 44.2538274,317.945802 L44.1277074,317.949445 L39.8348167,317.949445 C38.6917052,317.949445 37.7573003,317.056132 37.6920151,315.929723 L37.6883714,315.803641 L37.6883714,315.133729 C37.6883714,313.990959 38.5819509,313.056833 39.7086968,312.991568 L39.8348167,312.987925 L40.5502985,312.987925 C40.9172232,312.987925 41.2196368,312.711803 41.2609667,312.356073 L41.2657803,312.272657 L41.2657803,311.512033 C41.2657803,311.145218 40.9895756,310.842894 40.6337388,310.801577 L40.5502985,310.796765 L36.2574079,310.796765 C35.8904832,310.796765 35.5880695,311.072887 35.5467397,311.428617 L35.5419261,311.512033 L35.5419261,319.425337 C35.5419261,319.792152 35.8181308,320.094476 36.1739676,320.135793 L36.2574079,320.140605 L50.5670434,320.140605 C51.7101549,320.140605 52.6445598,319.247293 52.709845,318.120884 L52.7134887,317.994801 L52.7134887,300.617743 C52.7134887,300.222711 53.0338208,299.902475 53.4289705,299.902475 Z" transform="rotate(90 42.339 310.737)"/><path fill="#FFF" d="M142.758848,18.1921951 C143.901959,18.1921951 144.836364,19.0855076 144.901649,20.2119169 L144.905293,20.3379991 L144.905293,28.1605908 C144.905293,29.3033608 144.011714,30.2374865 142.884968,30.3027522 L142.758848,30.3063948 L138.465957,30.3063948 C137.322846,30.3063948 136.388441,29.4130823 136.323156,28.2866731 L136.319512,28.1605908 L136.319512,27.4906792 C136.319512,26.3479092 137.213091,25.4137834 138.339837,25.3485178 L138.465957,25.3448752 L139.181439,25.3448752 C139.548364,25.3448752 139.850777,25.068753 139.892107,24.7130225 L139.896921,24.6296072 L139.896921,23.8689828 C139.896921,23.5021677 139.620716,23.1998444 139.264879,23.1585269 L139.181439,23.1537148 L134.888548,23.1537148 C134.521624,23.1537148 134.21921,23.429837 134.17788,23.7855674 L134.173067,23.8689828 L134.173067,31.7822872 C134.173067,32.1491022 134.449271,32.4514255 134.805108,32.4927431 L134.888548,32.4975552 L147.76722,32.4975552 C148.16237,32.4975552 148.482702,32.8177916 148.482702,33.2128232 C148.482702,33.5796383 148.206497,33.8819615 147.850661,33.9232791 L147.76722,33.9280912 L134.888548,33.9280912 C133.745437,33.9280912 132.811032,33.0347787 132.745747,31.9083695 L132.742103,31.7822872 L132.742103,23.8689828 C132.742103,22.7262128 133.635683,21.7920871 134.762428,21.7268214 L134.888548,21.7231788 L139.181439,21.7231788 C140.324551,21.7231788 141.258955,22.6164913 141.324241,23.7429005 L141.327884,23.8689828 L141.327884,24.6296072 C141.327884,25.7723772 140.434305,26.7065029 139.307559,26.7717685 L139.181439,26.7754112 L138.465957,26.7754112 C138.099033,26.7754112 137.796619,27.0515334 137.755289,27.4072638 L137.750475,27.4906792 L137.750475,28.1605908 C137.750475,28.5274059 138.02668,28.8297291 138.382517,28.8710467 L138.465957,28.8758588 L142.758848,28.8758588 C143.125773,28.8758588 143.428186,28.5997366 143.469516,28.2440062 L143.47433,28.1605908 L143.47433,20.3379991 C143.47433,19.9711841 143.198125,19.6688608 142.842288,19.6275433 L142.758848,19.6227311 L130.595658,19.6227311 C129.062956,19.6227311 127.811662,20.8272199 127.737233,22.3410068 L127.733731,22.4838032 L127.733731,50.3792552 C127.733731,50.7742869 127.413399,51.0945232 127.018249,51.0945232 C126.651324,51.0945232 126.348911,50.818401 126.307581,50.4626706 L126.302767,50.3792552 L126.302767,22.4838032 C126.302767,20.1674814 128.138389,18.2797641 130.434718,18.1951553 L130.595658,18.1921951 L142.758848,18.1921951 Z" transform="rotate(90 137.393 34.643)"/><path fill="#FFF" d="M178.154868,46.4452812 C178.521792,46.4452812 178.824243,46.7213149 178.865619,47.0770399 L178.870444,47.1604547 L178.889762,197.411108 C178.890678,199.337626 177.372074,200.90625 175.468439,200.987041 L175.313269,200.990309 L161.003633,200.990309 C159.860522,200.990309 158.926117,200.096996 158.860832,198.970587 L158.857188,198.844505 L158.857188,190.9312 C158.857188,189.78843 159.750767,188.854304 160.877513,188.789039 L161.003633,188.785396 L165.296524,188.785396 C166.439635,188.785396 167.37404,189.678709 167.439325,190.805118 L167.442969,190.9312 L167.442969,191.691825 C167.442969,192.834595 166.54939,193.76872 165.422644,193.833986 L165.296524,193.837629 L164.581042,193.837629 C164.214117,193.837629 163.911704,194.113751 163.870374,194.469481 L163.86556,194.552897 L163.86556,195.222808 C163.86556,195.589623 164.141765,195.891947 164.497602,195.933264 L164.581042,195.938076 L168.873933,195.938076 C169.240857,195.938076 169.543271,195.661954 169.584601,195.306224 L169.589414,195.222808 L169.589414,187.400217 C169.589414,187.033401 169.31321,186.731078 168.957373,186.689761 L168.873933,186.684949 L155.995261,186.684949 C155.600111,186.684949 155.279779,186.364712 155.279779,185.969681 C155.279779,185.602865 155.555984,185.300542 155.91182,185.259225 L155.995261,185.254413 L168.873933,185.254413 C170.017044,185.254413 170.951449,186.147725 171.016734,187.274134 L171.020378,187.400217 L171.020378,195.222808 C171.020378,196.365578 170.126799,197.299704 169.000053,197.36497 L168.873933,197.368612 L164.581042,197.368612 C163.437931,197.368612 162.503526,196.4753 162.43824,195.34889 L162.434597,195.222808 L162.434597,194.552897 C162.434597,193.410127 163.328176,192.476001 164.454922,192.410735 L164.581042,192.407093 L165.296524,192.407093 C165.663449,192.407093 165.965862,192.13097 166.007192,191.77524 L166.012006,191.691825 L166.012006,190.9312 C166.012006,190.564385 165.735801,190.262062 165.379964,190.220744 L165.296524,190.215932 L161.003633,190.215932 C160.636708,190.215932 160.334295,190.492054 160.292965,190.847785 L160.288151,190.9312 L160.288151,198.844505 C160.288151,199.21132 160.564356,199.513643 160.920193,199.55496 L161.003633,199.559773 L175.31344,199.559773 C176.456408,199.560046 177.390787,198.666845 177.45607,197.54043 L177.459336,197.414063 L177.43948,47.1606436 C177.439428,46.765612 177.759718,46.4452812 178.154868,46.4452812 Z" transform="matrix(1 0 0 -1 0 247.436)"/><g fill="#FFF" transform="rotate(180 93.728 129.821)"><path d="M0.245660384,15.0873386 C0.543672803,14.8279323 0.995612816,14.8591565 1.25509665,15.1570799 C2.70249244,16.8188907 5.25825448,17.6991637 8.96146147,17.7495069 L9.30127875,17.7517959 C16.8005392,17.7517959 20.7489872,20.613051 20.7489872,26.2778541 C20.7489872,31.1006398 18.9709559,33.6704287 15.9299872,34.5067482 C15.0519613,34.7482207 14.2875318,34.8207556 13.1813192,34.8176414 L12.1632059,34.8039123 C8.76643124,34.8039123 5.72386987,32.5531147 5.72386987,28.4080696 C5.72386987,26.0292604 7.37734444,24.2735679 9.53470948,23.8930651 C11.7266886,23.5064573 13.5941694,24.7206589 13.5941694,26.987926 C13.5941694,27.3829576 13.2738373,27.703194 12.8786876,27.703194 C12.483538,27.703194 12.1632059,27.3829576 12.1632059,26.987926 C12.1632059,25.7026512 11.1704653,25.0571896 9.78332979,25.301844 C8.27841723,25.5672713 7.15483342,26.7603151 7.15483342,28.4080696 C7.15483342,31.586113 9.38355101,33.3010621 11.9959535,33.371139 L12.6733083,33.3807636 C13.9533266,33.4062329 14.707664,33.3592283 15.5504301,33.1274528 C17.9427769,32.4695156 19.3180236,30.4818714 19.3180236,26.2778541 C19.3180236,21.5916331 16.1868443,19.2526707 9.60292677,19.1838949 L9.30127875,19.1823319 C5.03910816,19.1823319 1.98306797,18.1713544 0.175898219,16.0964733 C-0.0835856203,15.7985499 -0.0523520349,15.3467449 0.245660384,15.0873386 Z"/><path d="M9.28560281,8.52103374 C17.755464,8.33547316 23.7440817,12.0500583 27.0997195,19.5424368 C29.4994873,23.9031972 32.7626455,26.1187791 36.942625,26.2661402 L37.205068,26.272658 L60.8159666,26.272658 C61.2111163,26.272658 61.5314484,26.5928944 61.5314484,26.987926 C61.5314484,27.354741 61.2552437,27.6570643 60.8994069,27.6983818 L60.8159666,27.703194 L37.1946947,27.703194 C32.3384681,27.6327253 28.5331531,25.1150306 25.8199119,20.1796904 C22.7210266,13.265969 17.3741124,9.8770745 9.64386575,9.94610915 L9.30127875,9.95139805 L0.715497437,9.95139805 C0.320347763,9.95139805 1.566054e-05,9.63116166 1.566054e-05,9.23613005 C1.566054e-05,8.86931498 0.276220381,8.56699171 0.632057147,8.52567418 L0.715497437,8.52086204 L9.28560281,8.52103374 Z"/><path d="M9.30127875-5.68252066e-14C20.1540583-5.68252066e-14 27.7811702 3.41845739 32.0820679 10.267946L32.7840096 11.3462158 33.4281558 12.3191648 33.8762456 12.982835 34.2965847 13.5922944 34.6912126 14.1496995 35.062169 14.657207 35.2973298 14.9688895 35.5234807 15.2599928 35.7412261 15.5311558 35.9511705 15.7830176C35.9855447 15.8234216 36.019619 15.863048 36.053406 15.9019102L36.2527818 16.1260183 36.4458673 16.3324226C36.5092479 16.3983444 36.5716809 16.4614221 36.6332669 16.5217622L36.8155848 16.6946761 36.9934255 16.8518032 37.1673933 16.9937826C37.3109206 17.1059647 37.4510432 17.2030335 37.5893347 17.2866531L37.7545065 17.3806474C37.9738322 17.4976497 38.1900823 17.581926 38.4097029 17.6402923L38.5751511 17.6793153C38.6028647 17.6850449 38.6306561 17.6903964 38.658538 17.6953829L38.8270153 17.7210296 38.9982674 17.7385576C39.0270742 17.7408379 39.0560218 17.7428065 39.0851228 17.7444767L39.2616703 17.7510246 47.2218129 17.7518132C47.6169625 17.7518132 47.9372947 18.0720496 47.9372947 18.4670812 47.9372947 18.8338962 47.6610899 19.1362195 47.3052532 19.1775371L47.2218129 19.1823492 39.3515133 19.1823492C39.2727357 19.1823492 39.195076 19.1811847 39.1184292 19.1787586L38.8914225 19.1675983C38.1067992 19.1146105 37.4222648 18.9118236 36.7161792 18.4468221L36.513749 18.3067323C36.1750376 18.0610338 35.8288124 17.7534485 35.4619387 17.3718378L35.2392316 17.1338912C35.2016657 17.0927206 35.1638671 17.0507854 35.1258226 17.0080736L34.8945 16.7423854C34.8554194 16.6965183 34.8160666 16.6498503 34.7764286 16.6023692L34.5350718 16.3076284 34.2862375 15.9927909 34.0292953 15.6572741 33.7636146 15.3004952 33.4885651 14.9218717 33.2035162 14.5208208 32.9078375 14.09676 32.6008986 13.6491066 32.117998 12.9321157 31.7801501 12.4229316 31.2479307 11.6109136 30.8752335 11.0365572C26.9148778 4.72951635 19.8998427 1.52155945 9.73868347 1.43244562L9.30127875 1.430536.715497437 1.430536C.320347763 1.430536.00001566054 1.11029961.00001566054.715268002.00001566054.348452936.276220381.0461296643.632057147.00481213095L.715497437-5.68252066e-14 9.30127875-5.68252066e-14ZM25.9615545 36.2396607C28.273776 33.9335078 32.0723168 33.2076039 37.3103291 33.9864608 37.7011791 34.0445776 37.9708986 34.4084423 37.9127645 34.7991755 37.8546304 35.1899087 37.4906569 35.4595476 37.0998069 35.4014308 32.2652133 34.6825595 28.9049668 35.3247051 26.9722195 37.2523798L26.0438028 38.1727217 25.7295347 38.4777072C21.5895714 42.4676192 17.8976596 44.3466161 12.1695572 44.3466161 7.02611858 44.3466161 3.00585068 42.666012.168661405 39.3044308-.0861595266 39.0025118-.0479058762 38.5512467.254103325 38.2965019.556112525 38.0417571 1.00751254 38.0799993 1.26233347 38.3819183 3.81346359 41.4045686 7.42923552 42.9160801 12.1695572 42.9160801 17.3613989 42.9160801 20.6956618 41.2753295 24.4883578 37.6847548L25.0250905 37.167758 25.5842868 36.6155056 25.9615545 36.2396607Z"/></g></g></svg>