<svg xmlns="http://www.w3.org/2000/svg" width="188" height="332" viewBox="0 0 188 332"><g fill="none" fill-rule="evenodd" transform="translate(.453 .099)"><path fill="#000" d="M93.6115033,0.59277311 C102.41045,0.59277311 109.663678,7.20880486 110.665079,15.7361661 L168.919744,15.7358961 C178.36686,15.7358961 186.025262,23.4215695 186.025262,32.9023281 L186.025262,313.287385 C186.025262,322.768144 178.36686,330.453817 168.919744,330.453817 L17.8209999,330.453817 C8.37388311,330.453817 0.715481776,322.768144 0.715481776,313.287385 L0.715481776,32.9023281 C0.715481776,23.4215695 8.37388311,15.7358961 17.8209999,15.7358961 L76.5579275,15.7361661 C77.5593283,7.20880486 84.8125564,0.59277311 93.6115033,0.59277311 Z"/><path fill="#FFF" d="M94.4435944,112.297076 C124.47497,112.297076 148.820209,136.635042 148.820209,166.657445 C148.820209,196.679847 124.47497,221.017813 94.4435944,221.017813 C64.4122192,221.017813 40.0669795,196.679847 40.0669795,166.657445 C40.0669795,136.635042 64.4122192,112.297076 94.4435944,112.297076 Z M94.4435944,113.727612 C65.2025186,113.727612 41.497943,137.425105 41.497943,166.657445 C41.497943,195.889784 65.2025186,219.587277 94.4435944,219.587277 C123.68467,219.587277 147.389246,195.889784 147.389246,166.657445 C147.389246,137.425105 123.68467,113.727612 94.4435944,113.727612 Z"/><ellipse cx="94.444" cy="166.657" fill="#FF6963" rx="48.653" ry="48.638"/><path fill="#FFF" d="M94.4435944,118.01922 C121.313772,118.01922 143.096355,139.795295 143.096355,166.657445 C143.096355,193.519594 121.313772,215.295669 94.4435944,215.295669 C67.5734166,215.295669 45.7908337,193.519594 45.7908337,166.657445 C45.7908337,139.795295 67.5734166,118.01922 94.4435944,118.01922 Z M94.4435944,119.449756 C68.363716,119.449756 47.2217972,140.585358 47.2217972,166.657445 C47.2217972,192.729531 68.363716,213.865133 94.4435944,213.865133 C120.523473,213.865133 141.665392,192.729531 141.665392,166.657445 C141.665392,140.585358 120.523473,119.449756 94.4435944,119.449756 Z"/><g transform="translate(43.087 118.418)"><path fill="#FFF" d="M67.5076831 40.4615474C71.0754914 44.4769367 94.4883381 44.1342901 98.0624151 42.9185538 101.636492 41.7028175 107.353583 39.7622519 100.92096 36.0483257 94.4883381 32.3343995 73.0465622 30.5124423 69.651592 33.4776529 66.2566218 36.4428634 66.2593084 39.0571907 67.5076831 40.4615474M5.06029078 29.762903C.591575017 28.5199856-2.3189112 34.4660564 2.45159959 37.4312669 3.90236503 38.3373035 10.2266277 40.0505363 13.3609975 39.8948627 17.1231367 39.704595 11.1499235 31.4563677 5.06029078 29.762903M27.7764118 20.1786836C33.1379752 16.9663722 39.3798487 17.0610942 42.5858612 20.5130934 57.2018752 36.2509484 73.7504521 13.167608 66.7428968 6.67544423 57.6639709-1.73586968 27.8767117-3.40132961 13.5750301 8.74203125 7.30897721 14.0670552 7.91435834 32.093888 27.7764118 20.1786836M46.1474008 40.3289366C42.4586954 42.4935403 39.0413368 43.2158985 38.0043082 43.6730351 32.6893126 46.0130805 36.6484693 54.7102077 42.9297464 50.9270933 45.5384376 49.3580027 48.4077292 49.2113895 49.9561079 50.9386246 53.0233126 54.3585008 61.5541716 50.9567454 60.5798303 45.3022536 59.9045975 41.3807627 54.4131817 35.4775227 46.1447142 40.3289366"/><path fill="#000" d="M89.4265077 74.4239158C91.0635443 76.5498071 93.1823782 78.3964743 93.8844771 81.1252917 94.0635839 81.8204688 90.6077173 83.2380042 89.9530818 82.911831 89.2984463 82.5856579 87.4178245 79.3560494 86.2133309 79.237441 85.0088374 79.1188325 84.4742035 81.9555506 84.1795727 83.6852568 84.1365871 83.9405943 84.055989 88.0927128 80.8472899 88.244268 77.1290318 88.4205333 73.1994276 88.423828 73.1358447 87.7146484 73.0158431 86.3967771 72.8850951 85.3951948 73.2343535 84.9454713 73.4555504 84.6621289 76.5021578 83.3945014 79.0365197 82.3920955 80.5141511 81.8072901 78.6183052 77.2499262 79.0848785 77.0942527 80.3493728 76.6733575 79.4010021 70.5872629 79.4010021 70.5872629L83.1040361 66.2086353 89.4265077 74.4239158ZM25.5838731 77.7433043C25.8176075 80.3395109 27.306881 84.2815936 28.0089798 87.0112346 28.1880866 87.7055881 24.3981858 87.5878033 23.7435503 87.2649248 23.0889148 86.9420464 23.5751899 82.6762615 22.3715919 82.5568294 21.1679939 82.4373973 20.9253041 86.8728581 20.3369381 87.0046452 19.7485721 87.1364324 6.21346792 88.2903935 6.09794401 86.9700511 5.98242009 85.6497088 5.84808996 84.6497739 6.1973483 84.2008739 6.54660665 83.751974 13.9813318 80.8361836 15.2422439 80.4119938 16.5031561 79.987804 15.5583675 73.9091223 15.5583675 73.9091223L24.6820702 66.4096107C24.6820702 66.4096107 25.4083484 75.7854417 25.5838731 77.7433043"/><path fill="#FFF" d="M59.8505945,83.5963005 C67.5906968,85.4306126 72.8994237,72.9841414 62.7243639,71.6843908 C58.50192,71.1457108 55.6218819,69.2002033 55.6218819,66.5949363 C55.6218819,63.3463834 51.6466055,61.0697607 47.1357997,61.0722297 C43.1058957,61.0722297 40.248246,62.5886074 38.377475,64.429509 C36.506704,66.2704105 33.4520368,65.8371603 31.3663376,65.945061 C29.2806384,66.0529617 25.3931243,66.9202858 24.1429586,69.0857132 C22.8927928,71.2511405 24.4904258,73.7690985 24.1429586,74.7171422 C23.9862401,75.1462741 22.584729,76.2392836 22.4763694,79.0990645 C22.256068,84.8960511 29.0719789,83.2997794 31.8167913,82.9077127 C34.5616037,82.5156459 37.27955,80.8221813 38.377475,81.3336801 C40.4264573,82.2907841 44.108894,84.8960511 47.1357997,84.8960511 C51.7854133,84.8960511 52.6110959,81.8188215 54.2382816,81.3336801 C55.8654673,80.8485387 58.3389328,83.2380042 59.8505945,83.5963005"/><path fill="#FF6963" d="M56.0490518,41.841194 C56.0087527,41.8321336 55.9460653,41.8757881 55.8815869,41.8650804 C55.833228,41.8568437 55.7857647,41.7934211 55.7311371,41.7893028 C55.4956116,41.7728294 55.3182958,41.7472956 55.2412799,42.0742925 C55.2251603,42.1443044 54.9878437,41.9960438 54.9305295,42.2258477 C54.8364984,42.6047357 55.1687416,42.5207214 55.256504,42.5857913 C55.9666626,43.1104688 56.7108516,42.603912 56.331145,41.9754521 C56.2863683,41.9013218 56.2272631,41.8815538 56.0508428,41.841194"/><path fill="#000" d="M56.6983141,42.5635522 C56.827271,42.0817055 56.5827902,41.8337809 56.2129345,41.8065998 C56.1072615,42.4152917 56.1645757,42.6475665 55.256504,42.5857913 C55.6326284,43.2150748 56.5693572,43.0437516 56.6983141,42.5635522"/><path fill="#000" d="M56.4717439,42.7604092 C56.7645836,43.0132758 57.3556362,43.1640073 57.1389169,43.3369779 C56.9221976,43.5099486 56.3544289,42.8213608 56.3544289,42.8213608 L56.4717439,42.7604092 Z"/><path fill="#FFD600" d="M36.520137,45.4043886 C38.0712023,45.6226611 43.1990312,43.4275816 51.0448065,46.3268986 C61.5547962,50.2137954 82.9258248,55.816396 93.4465608,65.5842937 C95.5224091,67.5125043 80.5938537,80.1195911 78.5180054,78.4409525 C60.2329876,63.6511412 43.7659044,55.4877518 34.1174187,56.0461998 C34.099508,55.1796994 32.3308279,52.0052768 32.2365753,47.7197239 C32.2009755,46.1267469 36.520137,45.4043886 36.520137,45.4043886"/><path fill="#FFD600" d="M43.2044044,44.1227587 C44.8056196,44.4168088 53.9669347,66.9639403 27.2325516,58.0658377 C18.9488601,55.3048972 31.2937993,77.7243599 28.5713753,78.8256062 C26.522393,79.6550414 7.79498135,81.3509771 9.04872926,75.9485283 C15.5628452,47.8004435 21.0300816,44.5518906 31.2624556,43.7570494 C33.980402,43.54619 41.6121446,43.830356 43.2044044,44.1227587"/><path fill="#000" d="M32.2359013,39.6222281 C31.2311119,40.3083448 30.0955745,45.4043886 32.2359013,47.7172529 C38.677479,54.6789083 52.7624412,41.9754521 54.6520184,42.7175784 C54.8929171,42.8123004 54.943067,42.4531805 55.0997855,41.9894545 C55.1203828,41.9268556 55.0460534,41.9070875 55.0012767,41.8527253 C52.6272155,39.2515767 35.9765477,37.0680286 32.2359013,39.6222281"/><path fill="#FF6963" d="M22.8498071,17.3460838 C22.1638279,16.4021585 21.4088926,15.059577 20.2133544,14.0258717 C19.7324525,13.6140369 17.9745188,13.0267605 18.0586991,12.6750536 C18.1178043,12.417245 19.4628967,11.9024515 20.1963392,12.1808518 C22.256068,12.9682799 23.2581707,16.1031664 23.7560878,17.016616 C24.4778884,18.3443714 22.8498071,17.3460838 22.8498071,17.3460838"/><path fill="#FF6963" d="M23.5662345,17.5742403 C23.8895224,14.4179384 22.8757776,11.6775897 22.4915935,10.9766469 C21.7751661,9.67195422 20.2473847,10.0969677 20.0181279,10.3737207 C19.7888712,10.6504737 21.2718758,11.6462902 21.2718758,12.4230107 C21.2718758,13.7697105 20.8536614,13.651102 21.4948639,14.9104929 C22.1011405,16.1097558 23.5662345,17.5742403 23.5662345,17.5742403"/><path fill="#FF6963" d="M24.090122,14.4945397 C24.1098238,11.8439709 23.2339913,10.1999264 22.5453255,10.3819574 C21.5602379,10.6414133 22.9035392,11.8044348 22.7244323,13.0177001 C22.5453255,14.2309654 23.0477202,15.6748582 23.2850368,16.0776327 C23.5223533,16.4804071 24.090122,14.4945397 24.090122,14.4945397"/><path fill="#FF6963" d="M25.1799872,14.9673261 C25.5498428,13.4937811 25.4584983,11.574631 24.4268429,11.8505603 C23.5313087,12.0910718 24.1107193,12.8974444 23.6566835,13.8800822 C23.2026476,14.86272 25.1799872,14.9673261 25.1799872,14.9673261"/><path fill="#FF6963" d="M34.2589131 21.3054636C29.3191463 20.8277352 27.1000126 21.6489338 22.9062258 17.4226851 20.4820147 14.9796811 22.8345831 13.3867041 25.7029792 13.8652561 26.8850843 14.0637605 28.1406233 15.6773292 28.2024152 14.8445993 28.2588338 14.0967073 28.6860037 14.0925889 26.4561234 12.1989725 25.2364058 11.1636199 26.470452 10.0508422 28.4316719 11.4387255 28.7898856 11.6932394 29.7221367 12.5984523 30.1188584 12.9452172 30.6508057 13.4097668 31.3538001 13.5308463 31.8203734 14.1477748 32.8385958 15.4952983 33.5218884 17.1862919 33.0741213 19.1375652 32.9120296 19.8418027 34.2589131 21.3054636 34.2589131 21.3054636M58.0971385 7.97437118C58.3729631 7.09551572 58.6971465 6.18206614 59.1073011 4.8963179 59.286408 4.3411646 59.4789478 2.63781587 59.8237285 2.61640046 60.0771647 2.60075074 60.9350865 3.48042987 60.8500107 4.12453949 60.6126942 5.9366126 59.4046185 7.93401137 58.6756536 8.54517421 57.6171322 9.4314427 58.0971385 7.97437118 58.0971385 7.97437118"/><path fill="#FF6963" d="M58.1150492,8.52952449 C61.1258353,8.02626237 62.2927164,6.15900339 62.7270505,5.10717732 C63.2321318,3.89308834 62.8112307,2.55380157 62.4986892,2.44095884 C62.1861478,2.3281161 61.7974859,3.70364433 61.2046423,4.51084053 C60.4774685,5.49924405 60.0404478,6.30973493 59.6231288,6.67791524 C59.0273299,7.22606736 58.5194725,7.84950287 58.1150492,8.52952449"/><path fill="#FF6963" d="M61.1025514,8.20170399 C63.5706437,7.57983345 65.2802185,4.65992473 64.9461843,4.15995728 C64.467969,3.44665941 63.5903454,5.0915276 62.2927164,5.94402563 C61.3335992,6.57495654 59.7583545,7.66796609 59.4413354,7.95048477 C59.1243163,8.23300344 61.1025514,8.20170399 61.1025514,8.20170399"/><path fill="#FF6963" d="M61.6989772,10.7534324 C62.964367,8.62177549 66.3199337,6.63508442 65.8327631,5.87813206 C65.2443971,4.96632982 62.5918248,7.83352368 61.5691247,7.71244425 C60.5464246,7.59136482 61.6989772,10.7534324 61.6989772,10.7534324"/><path fill="#FF6963" d="M57.2159329,17.8328726 C56.4726395,13.8339567 55.1768014,12.2862815 58.0971385,7.97437118 C59.7852205,5.48112332 61.8315162,6.9472552 62.0751015,9.31859996 C62.1745058,10.2954721 60.9762811,11.6701767 61.7652467,11.5186215 C62.4736143,11.382716 62.5801828,11.7179495 63.8043781,9.51051498 C64.4742377,8.30219168 65.804106,9.00560552 64.9855878,10.8802775 C64.835138,11.2245714 64.2181149,12.1742625 63.9915448,12.5688002 C63.6870631,13.0992434 63.7434818,13.6807541 63.2813861,14.1955476 C62.2739101,15.3198566 60.8634437,16.261311 58.9452094,16.3790957 C58.2493793,16.4219266 57.2159329,17.8328726 57.2159329,17.8328726"/><path fill="#000" d="M51.0448065,37.9493551 C50.4582316,44.1705316 41.255722,43.8558898 35.3881818,41.2259128 C23.7175798,35.9890215 19.8255881,25.6157266 23.2474243,21.2651038 C26.6692606,16.914481 33.5621875,14.5036001 34.883996,14.9137875 C36.7476027,15.4903562 38.6452397,29.1435035 40.3225753,30.6607029 C42.0617028,32.2314408 49.8053872,37.904877 49.8053872,37.904877 L51.0448065,37.9493551 Z"/><path fill="#000" d="M53.9123071,42.5907333 C48.0420803,45.7280908 43.3620185,38.7145442 43.7927704,32.7223479 C44.6551699,20.7354842 48.9994064,12.1857938 54.8382895,12.2549821 C60.6771726,12.3241703 63.7551237,15.4030473 64.1518454,16.632786 C64.7106588,18.3624921 55.3612815,26.5028187 53.9830543,33.5913193 C53.5531979,35.7987538 53.2343877,41.6319819 53.2343877,41.6319819 L53.9123071,42.5907333 Z"/></g><path fill="#FFF" d="M71.8876537,15.020628 C72.2828034,15.020628 72.6031355,15.3408644 72.6031355,15.7358961 C72.6031355,16.1027111 72.3269308,16.4050344 71.971094,16.4463519 L71.8876537,16.4511641 L17.8870444,16.4511641 C8.88948633,16.4511641 1.5784884,23.6700289 1.4331682,32.630278 L1.43096355,32.9023281 L1.43096355,313.287385 C1.43096355,322.282255 8.6519859,329.591068 17.614913,329.736345 L17.8870444,329.738549 L169.569181,329.738549 C178.566739,329.738549 185.877737,322.519684 186.023057,313.559435 L186.025262,313.287385 L186.025262,32.9023281 C186.025262,23.9074584 178.804239,16.5986448 169.841312,16.453368 L169.569181,16.4511641 L115.718085,16.4511641 C115.322936,16.4511641 115.002603,16.1309277 115.002603,15.7358961 C115.002603,15.369081 115.278808,15.0667577 115.634645,15.0254402 L115.718085,15.020628 L169.569181,15.020628 C179.349135,15.020628 187.295872,22.8672203 187.453829,32.6066215 L187.456225,32.9023281 L187.456225,313.287385 C187.456225,323.064417 179.607288,331.00878 169.864976,331.169085 L169.569181,331.169085 L17.8870444,331.169085 C8.10708998,331.169085 0.160353095,323.322493 0.0023963529,313.583092 L0,313.287385 L0,32.9023281 C0,23.1252958 7.84893734,15.1809332 17.5912494,15.020628 L17.8870444,15.020628 L71.8876537,15.020628 Z"/><g fill="#FFF" transform="matrix(1 0 0 -1 0 124.457)"><path d="M0.245660384,15.0873386 C0.543672803,14.8279323 0.995612816,14.8591565 1.25509665,15.1570799 C2.70249244,16.8188907 5.25825448,17.6991637 8.96146147,17.7495069 L9.30127875,17.7517959 C16.8005392,17.7517959 20.7489872,20.613051 20.7489872,26.2778541 C20.7489872,31.1006398 18.9709559,33.6704287 15.9299872,34.5067482 C15.0519613,34.7482207 14.2875318,34.8207556 13.1813192,34.8176414 L12.1632059,34.8039123 C8.76643124,34.8039123 5.72386987,32.5531147 5.72386987,28.4080696 C5.72386987,26.0292604 7.37734444,24.2735679 9.53470948,23.8930651 C11.7266886,23.5064573 13.5941694,24.7206589 13.5941694,26.987926 C13.5941694,27.3829576 13.2738373,27.703194 12.8786876,27.703194 C12.483538,27.703194 12.1632059,27.3829576 12.1632059,26.987926 C12.1632059,25.7026512 11.1704653,25.0571896 9.78332979,25.301844 C8.27841723,25.5672713 7.15483342,26.7603151 7.15483342,28.4080696 C7.15483342,31.586113 9.38355101,33.3010621 11.9959535,33.371139 L12.6733083,33.3807636 C13.9533266,33.4062329 14.707664,33.3592283 15.5504301,33.1274528 C17.9427769,32.4695156 19.3180236,30.4818714 19.3180236,26.2778541 C19.3180236,21.5916331 16.1868443,19.2526707 9.60292677,19.1838949 L9.30127875,19.1823319 C5.03910816,19.1823319 1.98306797,18.1713544 0.175898219,16.0964733 C-0.0835856203,15.7985499 -0.0523520349,15.3467449 0.245660384,15.0873386 Z"/><path d="M9.28560281,8.52103374 C17.755464,8.33547316 23.7440817,12.0500583 27.0997195,19.5424368 C29.4994873,23.9031972 32.7626455,26.1187791 36.942625,26.2661402 L37.205068,26.272658 L60.8159666,26.272658 C61.2111163,26.272658 61.5314484,26.5928944 61.5314484,26.987926 C61.5314484,27.354741 61.2552437,27.6570643 60.8994069,27.6983818 L60.8159666,27.703194 L37.1946947,27.703194 C32.3384681,27.6327253 28.5331531,25.1150306 25.8199119,20.1796904 C22.7210266,13.265969 17.3741124,9.8770745 9.64386575,9.94610915 L9.30127875,9.95139805 L0.715497437,9.95139805 C0.320347763,9.95139805 1.56605399e-05,9.63116166 1.56605399e-05,9.23613005 C1.56605399e-05,8.86931498 0.276220381,8.56699171 0.632057147,8.52567418 L0.715497437,8.52086204 L9.28560281,8.52103374 Z"/><path d="M9.30127875 0C20.1540583 0 27.7811702 3.41845739 32.0820679 10.267946L32.7840096 11.3462158 33.4281558 12.3191648 33.8762456 12.982835 34.2965847 13.5922944 34.6912126 14.1496995 35.062169 14.657207 35.2973298 14.9688895 35.5234807 15.2599928 35.7412261 15.5311558 35.9511705 15.7830176C35.9855447 15.8234216 36.019619 15.863048 36.053406 15.9019102L36.2527818 16.1260183 36.4458673 16.3324226C36.5092479 16.3983444 36.5716809 16.4614221 36.6332669 16.5217622L36.8155848 16.6946761 36.9934255 16.8518032 37.1673933 16.9937826C37.3109206 17.1059647 37.4510432 17.2030335 37.5893347 17.2866531L37.7545065 17.3806474C37.9738322 17.4976497 38.1900823 17.581926 38.4097029 17.6402923L38.5751511 17.6793153C38.6028647 17.6850449 38.6306561 17.6903964 38.658538 17.6953829L38.8270153 17.7210296 38.9982674 17.7385576C39.0270742 17.7408379 39.0560218 17.7428065 39.0851228 17.7444767L39.2616703 17.7510246 47.2218129 17.7518132C47.6169625 17.7518132 47.9372947 18.0720496 47.9372947 18.4670812 47.9372947 18.8338962 47.6610899 19.1362195 47.3052532 19.1775371L47.2218129 19.1823492 39.3515133 19.1823492C39.2727357 19.1823492 39.195076 19.1811847 39.1184292 19.1787586L38.8914225 19.1675983C38.1067992 19.1146105 37.4222648 18.9118236 36.7161792 18.4468221L36.513749 18.3067323C36.1750376 18.0610338 35.8288124 17.7534485 35.4619387 17.3718378L35.2392316 17.1338912C35.2016657 17.0927206 35.1638671 17.0507854 35.1258226 17.0080736L34.8945 16.7423854C34.8554194 16.6965183 34.8160666 16.6498503 34.7764286 16.6023692L34.5350718 16.3076284 34.2862375 15.9927909 34.0292953 15.6572741 33.7636146 15.3004952 33.4885651 14.9218717 33.2035162 14.5208208 32.9078375 14.09676 32.6008986 13.6491066 32.117998 12.9321157 31.7801501 12.4229316 31.2479307 11.6109136 30.8752335 11.0365572C26.9148778 4.72951635 19.8998427 1.52155945 9.73868347 1.43244562L9.30127875 1.430536.715497437 1.430536C.320347763 1.430536.0000156605399 1.11029961.0000156605399.715268002.0000156605399.348452936.276220381.0461296643.632057147.00481213095L.715497437 0 9.30127875 0ZM25.9615545 36.2396607C28.273776 33.9335078 32.0723168 33.2076039 37.3103291 33.9864608 37.7011791 34.0445776 37.9708986 34.4084423 37.9127645 34.7991755 37.8546304 35.1899087 37.4906569 35.4595476 37.0998069 35.4014308 32.2652133 34.6825595 28.9049668 35.3247051 26.9722195 37.2523798L26.0438028 38.1727217 25.7295347 38.4777072C21.5895714 42.4676192 17.8976596 44.3466161 12.1695572 44.3466161 7.02611858 44.3466161 3.00585068 42.666012.168661405 39.3044308-.0861595266 39.0025118-.0479058762 38.5512467.254103325 38.2965019.556112525 38.0417571 1.00751254 38.0799993 1.26233347 38.3819183 3.81346359 41.4045686 7.42923552 42.9160801 12.1695572 42.9160801 17.3613989 42.9160801 20.6956618 41.2753295 24.4883578 37.6847548L25.0250905 37.167758 25.5842868 36.6155056 25.9615545 36.2396607Z"/></g><path fill="#FFF" d="M178.175196 271.801841C178.542121 271.801841 178.844534 272.077963 178.885864 272.433694L178.890678 272.517109 178.890678 310.379174C178.890678 317.017521 173.5695 322.413412 166.958616 322.536579L166.727487 322.53873 52.4610924 322.53873C52.0659427 322.53873 51.7456106 322.218494 51.7456106 321.823462 51.7456106 321.456647 52.0218153 321.154324 52.3776521 321.113006L52.4610924 321.108194 166.727487 321.108194C172.579704 321.108194 177.337889 316.425487 177.457412 310.603645L177.459714 310.379174 177.459714 272.517109C177.459714 272.122077 177.780046 271.801841 178.175196 271.801841ZM67.5172314 23.5567052C67.9123811 23.5567052 68.2327132 23.8769415 68.2327132 24.2719732 68.2327132 24.6387882 67.9565085 24.9411115 67.6006717 24.982429L67.5172314 24.9872412 20.7692051 24.9872412C14.9169884 24.9872412 10.1588034 29.669948 10.0392807 35.49179L10.0369785 35.7162612 10.029664 55.092307 10.0173717 67.3871893 10.0167449 70.8115322C10.0167449 71.2065638 9.69641276 71.5268002 9.30126309 71.5268002 8.93433839 71.5268002 8.63192476 71.250678 8.59059488 70.8949476L8.58578131 70.8115322 8.58857025 64.0671478 8.60443537 46.1119082 8.6060149 35.7162612C8.6060149 29.0779139 13.9271928 23.682023 20.5380761 23.5588566L20.7692051 23.5567052 67.5172314 23.5567052ZM93.7281127 0C103.606854 0 111.615157 8.00590982 111.615157 17.8817001 111.615157 27.7574903 103.606854 35.7634001 93.7281127 35.7634001 83.8493708 35.7634001 75.8410683 27.7574903 75.8410683 17.8817001 75.8410683 8.00590982 83.8493708 0 93.7281127 0ZM93.7281127 1.430536C84.6396702 1.430536 77.2720318 8.79597304 77.2720318 17.8817001 77.2720318 26.9674271 84.6396702 34.3328641 93.7281127 34.3328641 102.816555 34.3328641 110.184194 26.9674271 110.184194 17.8817001 110.184194 8.79597304 102.816555 1.430536 93.7281127 1.430536Z"/><path fill="#FFF" d="M11.4477084,0.715268002 C17.3749535,0.715268002 22.1799351,5.51881389 22.1799351,11.444288 C22.1799351,17.3697622 17.3749535,22.1733081 11.4477084,22.1733081 C5.52046331,22.1733081 0.715481776,17.3697622 0.715481776,11.444288 C0.715481776,5.538864 5.48800097,0.74778849 11.3875788,0.715432855 L11.4442858,0.715268002 L11.4477084,0.715268002 Z M11.4477084,2.14580401 L11.4374818,2.145268 L11.2365342,2.15076766 C8.96484384,2.25955333 7.15481776,4.14278062 7.15481776,6.44599734 C7.15481776,8.76113209 8.9860097,10.6417829 11.2832726,10.7260712 L11.4442858,10.72902 L11.4442858,12.159556 C8.28232924,12.159556 5.72385421,9.60549303 5.72385421,6.44599734 C5.72385421,5.39974483 6.00423773,4.41844863 6.49391053,3.57366945 C3.88149371,5.2197824 2.14644533,8.12947463 2.14644533,11.444288 C2.14644533,16.579699 6.31076266,20.7427721 11.4477084,20.7427721 C13.8159274,20.7427721 15.7371765,18.8173788 15.7371765,16.4468751 C15.7371765,14.1322167 13.9041863,12.2470079 11.608599,12.1625122 L11.4477084,12.159556 L11.4477084,10.72902 C14.608267,10.72902 17.16814,13.2883522 17.16814,16.4468751 C17.16814,17.4927971 16.8875221,18.4737309 16.397479,19.3181003 C19.0121431,17.6717779 20.7489715,14.7608013 20.7489715,11.444288 C20.7489715,6.30887711 16.5846542,2.14580401 11.4477084,2.14580401 Z M11.4477084,15.020628 C12.6331574,15.020628 13.5941537,15.9813372 13.5941537,17.1664321 C13.5941537,18.3515269 12.6331574,19.3122361 11.4477084,19.3122361 C10.2622594,19.3122361 9.30126309,18.3515269 9.30126309,17.1664321 C9.30126309,15.9813372 10.2622594,15.020628 11.4477084,15.020628 Z M11.4477084,16.4511641 C11.0525587,16.4511641 10.7322266,16.7714004 10.7322266,17.1664321 C10.7322266,17.5614637 11.0525587,17.8817001 11.4477084,17.8817001 C11.8428581,17.8817001 12.1631902,17.5614637 12.1631902,17.1664321 C12.1631902,16.7714004 11.8428581,16.4511641 11.4477084,16.4511641 Z M11.4477084,4.29160801 C12.6331574,4.29160801 13.5941537,5.25231719 13.5941537,6.43741202 C13.5941537,7.62250685 12.6331574,8.58321603 11.4477084,8.58321603 C10.2622594,8.58321603 9.30126309,7.62250685 9.30126309,6.43741202 C9.30126309,5.25231719 10.2622594,4.29160801 11.4477084,4.29160801 Z M11.4477084,5.72214402 C11.0525587,5.72214402 10.7322266,6.04238041 10.7322266,6.43741202 C10.7322266,6.83244363 11.0525587,7.15268002 11.4477084,7.15268002 C11.8428581,7.15268002 12.1631902,6.83244363 12.1631902,6.43741202 C12.1631902,6.04238041 11.8428581,5.72214402 11.4477084,5.72214402 Z" transform="translate(82.29 6.033)"/><path fill="#FFF" d="M25.0620957,136.283285 C26.2052073,136.283285 27.1396122,137.176598 27.2048973,138.303007 L27.2085411,138.429089 L27.2085411,146.251681 C27.2085411,147.394451 26.3149616,148.328576 25.1882157,148.393842 L25.0620957,148.397485 L20.7692051,148.397485 C19.6260935,148.397485 18.6916887,147.504172 18.6264035,146.377763 L18.6227598,146.251681 L18.6227598,145.581769 C18.6227598,144.438999 19.5163392,143.504873 20.6430851,143.439608 L20.7692051,143.435965 L21.4846869,143.435965 C21.8516116,143.435965 22.1540252,143.159843 22.1953551,142.804112 L22.2001686,142.720697 L22.2001686,141.960073 C22.2001686,141.593258 21.9239639,141.290934 21.5681272,141.249617 L21.4846869,141.244805 L17.1917962,141.244805 C16.8248715,141.244805 16.5224579,141.520927 16.481128,141.876657 L16.4763144,141.960073 L16.4763144,149.873377 C16.4763144,150.240192 16.7525192,150.542515 17.1083559,150.583833 L17.1917962,150.588645 L30.0704682,150.588645 C30.4656179,150.588645 30.78595,150.908881 30.78595,151.303913 C30.78595,151.670728 30.5097452,151.973051 30.1539085,152.014369 L30.0704682,152.019181 L17.1917962,152.019181 C16.0486847,152.019181 15.1142798,151.125869 15.0489946,149.999459 L15.0453509,149.873377 L15.0453509,141.960073 C15.0453509,140.817303 15.9389304,139.883177 17.0656762,139.817911 L17.1917962,139.814269 L21.4846869,139.814269 C22.6277984,139.814269 23.5622033,140.707581 23.6274885,141.83399 L23.6311322,141.960073 L23.6311322,142.720697 C23.6311322,143.863467 22.7375527,144.797593 21.6108068,144.862858 L21.4846869,144.866501 L20.7692051,144.866501 C20.4022804,144.866501 20.0998668,145.142623 20.0585369,145.498354 L20.0537233,145.581769 L20.0537233,146.251681 C20.0537233,146.618496 20.329928,146.920819 20.6857648,146.962137 L20.7692051,146.966949 L25.0620957,146.966949 C25.4290204,146.966949 25.7314341,146.690826 25.772764,146.335096 L25.7775775,146.251681 L25.7775775,138.429089 C25.7775775,138.062274 25.5013728,137.759951 25.145536,137.718633 L25.0620957,137.713821 L12.1834238,137.713821 C11.0403122,137.713821 10.1059073,138.607134 10.0406222,139.733543 L10.0369785,139.859625 L10.0369785,297.50435 C10.0369785,297.899382 9.71664635,298.219618 9.32149668,298.219618 C8.95457198,298.219618 8.65215835,297.943496 8.61082847,297.587765 L8.6060149,297.50435 L8.6060149,139.859625 C8.6060149,137.936445 10.1244867,136.367817 12.0282432,136.286589 L12.1834238,136.283285 L25.0620957,136.283285 Z" transform="matrix(1 0 0 -1 0 434.503)"/><path fill="#FFF" d="M53.4289705,299.902475 C53.7958952,299.902475 54.0983088,300.178597 54.1396387,300.534328 L54.1444523,300.617743 L54.1444523,317.994801 C54.1444523,319.917981 52.6259805,321.48661 50.722224,321.567837 L50.5670434,321.571141 L36.2574079,321.571141 C35.1142963,321.571141 34.1798914,320.677829 34.1146063,319.55142 L34.1109625,319.425337 L34.1109625,311.512033 C34.1109625,310.369263 35.004542,309.435137 36.1312879,309.369871 L36.2574079,309.366229 L40.5502985,309.366229 C41.6934101,309.366229 42.627815,310.259541 42.6931001,311.385951 L42.6967438,311.512033 L42.6967438,312.272657 C42.6967438,313.415427 41.8031644,314.349553 40.6764185,314.414819 L40.5502985,314.418461 L39.8348167,314.418461 C39.467892,314.418461 39.1654784,314.694583 39.1241485,315.050314 L39.119335,315.133729 L39.119335,315.803641 C39.119335,316.170456 39.3955397,316.472779 39.7513764,316.514097 L39.8348167,316.518909 L44.1277074,316.518909 C44.4946321,316.518909 44.7970457,316.242787 44.8383756,315.887056 L44.8431892,315.803641 L44.8431892,307.981049 C44.8431892,307.614234 44.5669845,307.311911 44.2111477,307.270593 L44.1277074,307.265781 L31.2490354,307.265781 C30.8538858,307.265781 30.5335537,306.945545 30.5335537,306.550513 C30.5335537,306.183698 30.8097584,305.881375 31.1655951,305.840057 L31.2490354,305.835245 L44.1277074,305.835245 C45.270819,305.835245 46.2052238,306.728558 46.270509,307.854967 L46.2741527,307.981049 L46.2741527,315.803641 C46.2741527,316.946411 45.3805732,317.880537 44.2538274,317.945802 L44.1277074,317.949445 L39.8348167,317.949445 C38.6917052,317.949445 37.7573003,317.056132 37.6920151,315.929723 L37.6883714,315.803641 L37.6883714,315.133729 C37.6883714,313.990959 38.5819509,313.056833 39.7086968,312.991568 L39.8348167,312.987925 L40.5502985,312.987925 C40.9172232,312.987925 41.2196368,312.711803 41.2609667,312.356073 L41.2657803,312.272657 L41.2657803,311.512033 C41.2657803,311.145218 40.9895756,310.842894 40.6337388,310.801577 L40.5502985,310.796765 L36.2574079,310.796765 C35.8904832,310.796765 35.5880695,311.072887 35.5467397,311.428617 L35.5419261,311.512033 L35.5419261,319.425337 C35.5419261,319.792152 35.8181308,320.094476 36.1739676,320.135793 L36.2574079,320.140605 L50.5670434,320.140605 C51.7101549,320.140605 52.6445598,319.247293 52.709845,318.120884 L52.7134887,317.994801 L52.7134887,300.617743 C52.7134887,300.222711 53.0338208,299.902475 53.4289705,299.902475 Z" transform="rotate(90 42.339 310.737)"/><path fill="#FFF" d="M142.758848,18.1921951 C143.901959,18.1921951 144.836364,19.0855076 144.901649,20.2119169 L144.905293,20.3379991 L144.905293,28.1605908 C144.905293,29.3033608 144.011714,30.2374865 142.884968,30.3027522 L142.758848,30.3063948 L138.465957,30.3063948 C137.322846,30.3063948 136.388441,29.4130823 136.323156,28.2866731 L136.319512,28.1605908 L136.319512,27.4906792 C136.319512,26.3479092 137.213091,25.4137834 138.339837,25.3485178 L138.465957,25.3448752 L139.181439,25.3448752 C139.548364,25.3448752 139.850777,25.068753 139.892107,24.7130225 L139.896921,24.6296072 L139.896921,23.8689828 C139.896921,23.5021677 139.620716,23.1998444 139.264879,23.1585269 L139.181439,23.1537148 L134.888548,23.1537148 C134.521624,23.1537148 134.21921,23.429837 134.17788,23.7855674 L134.173067,23.8689828 L134.173067,31.7822872 C134.173067,32.1491022 134.449271,32.4514255 134.805108,32.4927431 L134.888548,32.4975552 L147.76722,32.4975552 C148.16237,32.4975552 148.482702,32.8177916 148.482702,33.2128232 C148.482702,33.5796383 148.206497,33.8819615 147.850661,33.9232791 L147.76722,33.9280912 L134.888548,33.9280912 C133.745437,33.9280912 132.811032,33.0347787 132.745747,31.9083695 L132.742103,31.7822872 L132.742103,23.8689828 C132.742103,22.7262128 133.635683,21.7920871 134.762428,21.7268214 L134.888548,21.7231788 L139.181439,21.7231788 C140.324551,21.7231788 141.258955,22.6164913 141.324241,23.7429005 L141.327884,23.8689828 L141.327884,24.6296072 C141.327884,25.7723772 140.434305,26.7065029 139.307559,26.7717685 L139.181439,26.7754112 L138.465957,26.7754112 C138.099033,26.7754112 137.796619,27.0515334 137.755289,27.4072638 L137.750475,27.4906792 L137.750475,28.1605908 C137.750475,28.5274059 138.02668,28.8297291 138.382517,28.8710467 L138.465957,28.8758588 L142.758848,28.8758588 C143.125773,28.8758588 143.428186,28.5997366 143.469516,28.2440062 L143.47433,28.1605908 L143.47433,20.3379991 C143.47433,19.9711841 143.198125,19.6688608 142.842288,19.6275433 L142.758848,19.6227311 L130.595658,19.6227311 C129.062956,19.6227311 127.811662,20.8272199 127.737233,22.3410068 L127.733731,22.4838032 L127.733731,50.3792552 C127.733731,50.7742869 127.413399,51.0945232 127.018249,51.0945232 C126.651324,51.0945232 126.348911,50.818401 126.307581,50.4626706 L126.302767,50.3792552 L126.302767,22.4838032 C126.302767,20.1674814 128.138389,18.2797641 130.434718,18.1951553 L130.595658,18.1921951 L142.758848,18.1921951 Z" transform="rotate(90 137.393 34.643)"/><path fill="#FFF" d="M178.154868,46.4452812 C178.521792,46.4452812 178.824243,46.7213149 178.865619,47.0770399 L178.870444,47.1604547 L178.889762,197.411108 C178.890678,199.337626 177.372074,200.90625 175.468439,200.987041 L175.313269,200.990309 L161.003633,200.990309 C159.860522,200.990309 158.926117,200.096996 158.860832,198.970587 L158.857188,198.844505 L158.857188,190.9312 C158.857188,189.78843 159.750767,188.854304 160.877513,188.789039 L161.003633,188.785396 L165.296524,188.785396 C166.439635,188.785396 167.37404,189.678709 167.439325,190.805118 L167.442969,190.9312 L167.442969,191.691825 C167.442969,192.834595 166.54939,193.76872 165.422644,193.833986 L165.296524,193.837629 L164.581042,193.837629 C164.214117,193.837629 163.911704,194.113751 163.870374,194.469481 L163.86556,194.552897 L163.86556,195.222808 C163.86556,195.589623 164.141765,195.891947 164.497602,195.933264 L164.581042,195.938076 L168.873933,195.938076 C169.240857,195.938076 169.543271,195.661954 169.584601,195.306224 L169.589414,195.222808 L169.589414,187.400217 C169.589414,187.033401 169.31321,186.731078 168.957373,186.689761 L168.873933,186.684949 L155.995261,186.684949 C155.600111,186.684949 155.279779,186.364712 155.279779,185.969681 C155.279779,185.602865 155.555984,185.300542 155.91182,185.259225 L155.995261,185.254413 L168.873933,185.254413 C170.017044,185.254413 170.951449,186.147725 171.016734,187.274134 L171.020378,187.400217 L171.020378,195.222808 C171.020378,196.365578 170.126799,197.299704 169.000053,197.36497 L168.873933,197.368612 L164.581042,197.368612 C163.437931,197.368612 162.503526,196.4753 162.43824,195.34889 L162.434597,195.222808 L162.434597,194.552897 C162.434597,193.410127 163.328176,192.476001 164.454922,192.410735 L164.581042,192.407093 L165.296524,192.407093 C165.663449,192.407093 165.965862,192.13097 166.007192,191.77524 L166.012006,191.691825 L166.012006,190.9312 C166.012006,190.564385 165.735801,190.262062 165.379964,190.220744 L165.296524,190.215932 L161.003633,190.215932 C160.636708,190.215932 160.334295,190.492054 160.292965,190.847785 L160.288151,190.9312 L160.288151,198.844505 C160.288151,199.21132 160.564356,199.513643 160.920193,199.55496 L161.003633,199.559773 L175.31344,199.559773 C176.456408,199.560046 177.390787,198.666845 177.45607,197.54043 L177.459336,197.414063 L177.43948,47.1606436 C177.439428,46.765612 177.759718,46.4452812 178.154868,46.4452812 Z" transform="matrix(1 0 0 -1 0 247.436)"/><g fill="#FFF" transform="rotate(180 93.728 129.821)"><path d="M0.245660384,15.0873386 C0.543672803,14.8279323 0.995612816,14.8591565 1.25509665,15.1570799 C2.70249244,16.8188907 5.25825448,17.6991637 8.96146147,17.7495069 L9.30127875,17.7517959 C16.8005392,17.7517959 20.7489872,20.613051 20.7489872,26.2778541 C20.7489872,31.1006398 18.9709559,33.6704287 15.9299872,34.5067482 C15.0519613,34.7482207 14.2875318,34.8207556 13.1813192,34.8176414 L12.1632059,34.8039123 C8.76643124,34.8039123 5.72386987,32.5531147 5.72386987,28.4080696 C5.72386987,26.0292604 7.37734444,24.2735679 9.53470948,23.8930651 C11.7266886,23.5064573 13.5941694,24.7206589 13.5941694,26.987926 C13.5941694,27.3829576 13.2738373,27.703194 12.8786876,27.703194 C12.483538,27.703194 12.1632059,27.3829576 12.1632059,26.987926 C12.1632059,25.7026512 11.1704653,25.0571896 9.78332979,25.301844 C8.27841723,25.5672713 7.15483342,26.7603151 7.15483342,28.4080696 C7.15483342,31.586113 9.38355101,33.3010621 11.9959535,33.371139 L12.6733083,33.3807636 C13.9533266,33.4062329 14.707664,33.3592283 15.5504301,33.1274528 C17.9427769,32.4695156 19.3180236,30.4818714 19.3180236,26.2778541 C19.3180236,21.5916331 16.1868443,19.2526707 9.60292677,19.1838949 L9.30127875,19.1823319 C5.03910816,19.1823319 1.98306797,18.1713544 0.175898219,16.0964733 C-0.0835856203,15.7985499 -0.0523520349,15.3467449 0.245660384,15.0873386 Z"/><path d="M9.28560281,8.52103374 C17.755464,8.33547316 23.7440817,12.0500583 27.0997195,19.5424368 C29.4994873,23.9031972 32.7626455,26.1187791 36.942625,26.2661402 L37.205068,26.272658 L60.8159666,26.272658 C61.2111163,26.272658 61.5314484,26.5928944 61.5314484,26.987926 C61.5314484,27.354741 61.2552437,27.6570643 60.8994069,27.6983818 L60.8159666,27.703194 L37.1946947,27.703194 C32.3384681,27.6327253 28.5331531,25.1150306 25.8199119,20.1796904 C22.7210266,13.265969 17.3741124,9.8770745 9.64386575,9.94610915 L9.30127875,9.95139805 L0.715497437,9.95139805 C0.320347763,9.95139805 1.566054e-05,9.63116166 1.566054e-05,9.23613005 C1.566054e-05,8.86931498 0.276220381,8.56699171 0.632057147,8.52567418 L0.715497437,8.52086204 L9.28560281,8.52103374 Z"/><path d="M9.30127875-5.68252066e-14C20.1540583-5.68252066e-14 27.7811702 3.41845739 32.0820679 10.267946L32.7840096 11.3462158 33.4281558 12.3191648 33.8762456 12.982835 34.2965847 13.5922944 34.6912126 14.1496995 35.062169 14.657207 35.2973298 14.9688895 35.5234807 15.2599928 35.7412261 15.5311558 35.9511705 15.7830176C35.9855447 15.8234216 36.019619 15.863048 36.053406 15.9019102L36.2527818 16.1260183 36.4458673 16.3324226C36.5092479 16.3983444 36.5716809 16.4614221 36.6332669 16.5217622L36.8155848 16.6946761 36.9934255 16.8518032 37.1673933 16.9937826C37.3109206 17.1059647 37.4510432 17.2030335 37.5893347 17.2866531L37.7545065 17.3806474C37.9738322 17.4976497 38.1900823 17.581926 38.4097029 17.6402923L38.5751511 17.6793153C38.6028647 17.6850449 38.6306561 17.6903964 38.658538 17.6953829L38.8270153 17.7210296 38.9982674 17.7385576C39.0270742 17.7408379 39.0560218 17.7428065 39.0851228 17.7444767L39.2616703 17.7510246 47.2218129 17.7518132C47.6169625 17.7518132 47.9372947 18.0720496 47.9372947 18.4670812 47.9372947 18.8338962 47.6610899 19.1362195 47.3052532 19.1775371L47.2218129 19.1823492 39.3515133 19.1823492C39.2727357 19.1823492 39.195076 19.1811847 39.1184292 19.1787586L38.8914225 19.1675983C38.1067992 19.1146105 37.4222648 18.9118236 36.7161792 18.4468221L36.513749 18.3067323C36.1750376 18.0610338 35.8288124 17.7534485 35.4619387 17.3718378L35.2392316 17.1338912C35.2016657 17.0927206 35.1638671 17.0507854 35.1258226 17.0080736L34.8945 16.7423854C34.8554194 16.6965183 34.8160666 16.6498503 34.7764286 16.6023692L34.5350718 16.3076284 34.2862375 15.9927909 34.0292953 15.6572741 33.7636146 15.3004952 33.4885651 14.9218717 33.2035162 14.5208208 32.9078375 14.09676 32.6008986 13.6491066 32.117998 12.9321157 31.7801501 12.4229316 31.2479307 11.6109136 30.8752335 11.0365572C26.9148778 4.72951635 19.8998427 1.52155945 9.73868347 1.43244562L9.30127875 1.430536.715497437 1.430536C.320347763 1.430536.00001566054 1.11029961.00001566054.715268002.00001566054.348452936.276220381.0461296643.632057147.00481213095L.715497437-5.68252066e-14 9.30127875-5.68252066e-14ZM25.9615545 36.2396607C28.273776 33.9335078 32.0723168 33.2076039 37.3103291 33.9864608 37.7011791 34.0445776 37.9708986 34.4084423 37.9127645 34.7991755 37.8546304 35.1899087 37.4906569 35.4595476 37.0998069 35.4014308 32.2652133 34.6825595 28.9049668 35.3247051 26.9722195 37.2523798L26.0438028 38.1727217 25.7295347 38.4777072C21.5895714 42.4676192 17.8976596 44.3466161 12.1695572 44.3466161 7.02611858 44.3466161 3.00585068 42.666012.168661405 39.3044308-.0861595266 39.0025118-.0479058762 38.5512467.254103325 38.2965019.556112525 38.0417571 1.00751254 38.0799993 1.26233347 38.3819183 3.81346359 41.4045686 7.42923552 42.9160801 12.1695572 42.9160801 17.3613989 42.9160801 20.6956618 41.2753295 24.4883578 37.6847548L25.0250905 37.167758 25.5842868 36.6155056 25.9615545 36.2396607Z"/></g></g></svg>