<svg xmlns="http://www.w3.org/2000/svg" xmlns:xlink="http://www.w3.org/1999/xlink" width="188" height="332" viewBox="0 0 188 332"><defs><polygon id="a" points="0 0 32.836 0 32.836 22.866 0 22.866"/></defs><g fill="none" fill-rule="evenodd" transform="translate(.453 .099)"><path fill="#000" d="M93.6115033,0.59277311 C102.41045,0.59277311 109.663678,7.20880486 110.665079,15.7361661 L168.919744,15.7358961 C178.36686,15.7358961 186.025262,23.4215695 186.025262,32.9023281 L186.025262,313.287385 C186.025262,322.768144 178.36686,330.453817 168.919744,330.453817 L17.8209999,330.453817 C8.37388311,330.453817 0.715481776,322.768144 0.715481776,313.287385 L0.715481776,32.9023281 C0.715481776,23.4215695 8.37388311,15.7358961 17.8209999,15.7358961 L76.5579275,15.7361661 C77.5593283,7.20880486 84.8125564,0.59277311 93.6115033,0.59277311 Z"/><path fill="#FFF" d="M94.4435944,112.297076 C124.47497,112.297076 148.820209,136.635042 148.820209,166.657445 C148.820209,196.679847 124.47497,221.017813 94.4435944,221.017813 C64.4122192,221.017813 40.0669795,196.679847 40.0669795,166.657445 C40.0669795,136.635042 64.4122192,112.297076 94.4435944,112.297076 Z M94.4435944,113.727612 C65.2025186,113.727612 41.497943,137.425105 41.497943,166.657445 C41.497943,195.889784 65.2025186,219.587277 94.4435944,219.587277 C123.68467,219.587277 147.389246,195.889784 147.389246,166.657445 C147.389246,137.425105 123.68467,113.727612 94.4435944,113.727612 Z"/><ellipse cx="94.444" cy="166.657" fill="#C577FF" rx="48.653" ry="48.638"/><path fill="#FFF" d="M94.4435944,118.01922 C121.313772,118.01922 143.096355,139.795295 143.096355,166.657445 C143.096355,193.519594 121.313772,215.295669 94.4435944,215.295669 C67.5734166,215.295669 45.7908337,193.519594 45.7908337,166.657445 C45.7908337,139.795295 67.5734166,118.01922 94.4435944,118.01922 Z M94.4435944,119.449756 C68.363716,119.449756 47.2217972,140.585358 47.2217972,166.657445 C47.2217972,192.729531 68.363716,213.865133 94.4435944,213.865133 C120.523473,213.865133 141.665392,192.729531 141.665392,166.657445 C141.665392,140.585358 120.523473,119.449756 94.4435944,119.449756 Z"/><g transform="translate(40.995 115.44)"><path fill="#FF6963" d="M74.9033344,21.6957431 C78.3272281,18.0738816 81.5593142,14.1333155 83.6370839,13.0674969 C85.7148536,12.0016782 95.4736015,12.002479 89.4442506,18.9258959 C83.4148997,25.8493127 78.4426597,29.2213354 78.4426597,29.2213354 L74.9033344,21.6957431 Z"/><path fill="#FFF" d="M94.6404106 70.5816723C104.869564 73.4508144 111.159287 57.3041828 97.7136698 55.2718404 92.1295553 54.4286345 88.0989945 51.380121 88.328122 47.313034 89.0441454 34.586471 67.6181219 33.2588021 65.5386164 43.9257968 64.5891259 48.7952506 59.6698283 68.2930851 79.290605 65.8611608 87.1590511 64.8866294 92.6433563 70.0219374 94.6404106 70.5816723M27.1354613 68.4035827C32.7542921 69.9794888 36.6086677 59.2860689 29.2184384 58.1690013 26.1529904 57.7061589 24.0622021 56.034161 24.0622021 53.7968227 24.0622021 51.0053548 21.1764108 49.0490852 17.9000614 49.0514853 14.9743464 49.0514853 12.9000484 50.3543326 11.5417737 51.9342426 10.183499 53.5141525 7.9694679 53.1449997 6.45757366 53.2386893 4.94567943 53.3323788 2.11803797 54.0762898 1.21367873 55.9372684.309319487 57.7982469 1.4653718 59.961114 1.21367873 60.7754924 1.09911498 61.1438444.085399445 62.0831421.00381617394 64.5390893-.156746647 69.5198495 4.79205986 68.1505408 6.78390675 67.8118171 8.77575363 67.4730934 10.7511103 66.0197044 11.5469811 66.4601253 13.034574 67.2825112 15.7129354 69.5198495 17.9052688 69.5198495 21.2805597 69.5198495 21.8802835 66.877324 23.0606372 66.4601253 24.2409909 66.0429265 26.0384266 68.0960888 27.1354613 68.4035827M73.7116979 23.8506025C74.5657185 25.3216084 77.1329878 24.4239505 76.7103171 22.4044204 76.5809989 21.7894326 75.3598535 19.7194543 74.4537585 18.9699379 73.3680067 18.069077 72.5478344 21.8486892 73.7116979 23.8506025"/><g transform="translate(24.056)"><mask id="b" fill="#fff"><use xlink:href="#a"/></mask><path fill="#FFF" d="M23.108768,0.302497103 C18.2901476,1.32107057 15.6768792,6.14808385 13.7640119,6.83033589 C12.8961047,7.14023206 9.71088552,6.73584558 4.85928461,9.92128998 C-2.57434004,14.8019545 -0.498306163,22.5517612 4.5424985,22.8496459 C13.3951513,23.3733464 32.7980833,11.2697788 32.8362785,3.08435578 C32.8440824,0.0334399592 26.5508877,-0.425398562 23.108768,0.302497103" mask="url(#b)"/></g><path fill="#FF6963" d="M31.755331,41.8862395 C31.4081681,51.9374457 18.8486839,82.3152784 18.8486839,82.3152784 L54.0969965,87.8317506 C54.0969965,87.8317506 66.9047022,55.5032536 67.5261237,44.6384699 C68.1475452,33.7736862 31.755331,41.8862395 31.755331,41.8862395"/><path fill="#FF6963" d="M31.0384397,50.1277241 C38.9502811,42.4908253 20.9524908,19.3102712 16.6311811,28.9298649 C10.9333708,41.6316042 24.3668375,55.1685417 25.791941,63.8087993 C38.3358029,71.5361846 27.63364,42.0840366 27.63364,42.0840366 L31.0384397,50.1277241 Z"/><path fill="#0080FF" d="M47.0044594,27.9641339 C48.9468356,31.9287229 51.6217254,20.9133954 62.7040316,11.3634683 C63.7712103,20.0928511 71.4006348,26.8965536 80.8927616,27.5837704 C80.2094583,28.5957776 79.4218325,29.5446044 78.5407332,30.416878 C70.9300555,37.9921178 63.6622011,49.9395362 51.7180631,56.9262135 C50.8796648,51.2920288 46.7640491,44.8698911 40.9065438,41.9943428 C36.0024345,39.5798753 30.2246031,39.1771704 24.9830516,40.8844821 C20.9655094,29.0675885 18.716762,29.3134234 15.1600785,21.7461913 C23.3913099,18.6928732 34.3772784,13.2805004 40.4708545,8.96597696 C40.9091476,9.50409125 43.5909806,20.9982765 47.0044594,27.9641339"/><path fill="#000" d="M40.9065438 41.9943508C46.7640491 44.8698991 50.8796648 51.2920368 51.7180631 56.9262215 47.8992717 59.7008733 43.5493211 60.4231636 39.4849119 59.7777468 30.8596508 58.4076373 27.7811842 49.5767975 25.6921317 43.0281389 25.4612684 42.3074501 25.2234618 41.5915659 24.9830516 40.8844901 30.2246031 39.1771784 36.0024345 39.5799634 40.9065438 41.9943508M62.7075033 11.3634683 63.5519769 10.6355726C72.486213 2.92420272 89.207312 15.206341 80.8962332 27.5837704 71.4040196 26.8965536 63.7746819 20.0928511 62.7075033 11.3634683"/><path fill="#FFD600" d="M12.8826902,16.6981668 C12.660506,13.4334466 25.5063996,7.7071739 37.9652065,4.66426573 C40.8631485,3.9563892 38.4139145,6.43876165 40.475194,8.96597696 C34.3772784,13.2805004 23.3913099,18.6928732 15.1600785,21.7501951 C13.7853136,18.826601 13.0632149,19.3126655 12.8826902,16.6981668"/><path fill="#FF6963" d="M72.0296939,36.903077 C80.215794,38.9049903 86.8934715,39.0651433 84.2602413,24.1709086 C82.4862391,14.1357178 73.579776,18.8057811 74.7879027,25.6042785 C75.6072071,30.2102806 76.4655672,31.9983895 76.4655672,31.9983895 L72.0296939,36.903077 Z"/><path fill="#FF6963" d="M67.5261237,44.6384699 C75.9786713,45.1317413 82.561747,44.0779342 76.8266166,29.9484303 C72.962694,20.4257293 65.2166228,26.6116413 67.8403061,33.0594035 C69.6177799,37.4291798 70.8380573,39.0275074 70.8380573,39.0275074 L67.5261237,44.6384699 Z"/><path fill="#FF6963" d="M61.6052612 50.0164097C70.0569409 50.5096811 76.6400166 49.455874 70.9048862 35.3263701 67.0409636 25.8044698 59.2957603 31.9903818 61.9185757 38.4389449 63.6969174 42.8087212 64.8147818 42.7630775 64.9163269 44.4070487 65.0161363 46.0013724 61.6052612 50.0164097 61.6052612 50.0164097M24.5499659 37.0784446C32.100758 21.3906515 24.6558506 15.5090303 16.6346528 28.9298568 9.43970259 40.9685625 24.3668375 55.1685337 25.791941 63.8087913 25.8683168 54.9731469 22.9573563 40.3944137 24.5499659 37.0784446"/><path fill="#FFF" d="M21.8716045 22.7655735C22.1163543 18.4222225 14.8042366 17.9689893 14.0951565 21.6092684 13.7705592 23.2716572 13.9163676 24.7458661 9.51173889 25.8781483 6.2796527 26.7093427 7.00088353 31.3609883 11.1364611 31.4722947 12.3940585 31.5059268 14.4258291 29.6713735 16.9514389 29.2469679 21.4064062 28.4950493 21.7934928 24.1541006 21.8716045 22.7655735M16.4376379 31.4650798C14.9179325 31.8558533 15.2572841 34.0427433 17.2013961 34.0947931 17.7924409 34.1108084 20.7007977 33.9522569 20.7980033 32.9777255 20.9941503 31.0222566 18.5084643 30.9325709 16.4376379 31.4650798"/><path fill="#000" d="M64.0319296,75.6705278 C63.6795593,73.3403008 59.8850693,72.2872944 59.8850693,72.2872944 L58.7151304,75.4999648 C49.8208181,75.8675161 30.6973522,75.4831488 22.2335217,73.5484998 L22.2283143,73.5484998 L23.3913099,70.463151 C23.3913099,70.463151 16.7006137,69.6759987 15.9542136,71.954176 C14.6862012,75.8194702 9.51434261,90.5855825 37.1745431,93.8206743 C65.2487354,97.1046128 65.083833,82.6379868 64.0319296,75.6705278"/></g><path fill="#FFF" d="M71.8876537,15.020628 C72.2828034,15.020628 72.6031355,15.3408644 72.6031355,15.7358961 C72.6031355,16.1027111 72.3269308,16.4050344 71.971094,16.4463519 L71.8876537,16.4511641 L17.8870444,16.4511641 C8.88948633,16.4511641 1.5784884,23.6700289 1.4331682,32.630278 L1.43096355,32.9023281 L1.43096355,313.287385 C1.43096355,322.282255 8.6519859,329.591068 17.614913,329.736345 L17.8870444,329.738549 L169.569181,329.738549 C178.566739,329.738549 185.877737,322.519684 186.023057,313.559435 L186.025262,313.287385 L186.025262,32.9023281 C186.025262,23.9074584 178.804239,16.5986448 169.841312,16.453368 L169.569181,16.4511641 L115.718085,16.4511641 C115.322936,16.4511641 115.002603,16.1309277 115.002603,15.7358961 C115.002603,15.369081 115.278808,15.0667577 115.634645,15.0254402 L115.718085,15.020628 L169.569181,15.020628 C179.349135,15.020628 187.295872,22.8672203 187.453829,32.6066215 L187.456225,32.9023281 L187.456225,313.287385 C187.456225,323.064417 179.607288,331.00878 169.864976,331.169085 L169.569181,331.169085 L17.8870444,331.169085 C8.10708998,331.169085 0.160353095,323.322493 0.0023963529,313.583092 L0,313.287385 L0,32.9023281 C0,23.1252958 7.84893734,15.1809332 17.5912494,15.020628 L17.8870444,15.020628 L71.8876537,15.020628 Z"/><g fill="#FFF" transform="matrix(1 0 0 -1 0 124.457)"><path d="M0.245660384,15.0873386 C0.543672803,14.8279323 0.995612816,14.8591565 1.25509665,15.1570799 C2.70249244,16.8188907 5.25825448,17.6991637 8.96146147,17.7495069 L9.30127875,17.7517959 C16.8005392,17.7517959 20.7489872,20.613051 20.7489872,26.2778541 C20.7489872,31.1006398 18.9709559,33.6704287 15.9299872,34.5067482 C15.0519613,34.7482207 14.2875318,34.8207556 13.1813192,34.8176414 L12.1632059,34.8039123 C8.76643124,34.8039123 5.72386987,32.5531147 5.72386987,28.4080696 C5.72386987,26.0292604 7.37734444,24.2735679 9.53470948,23.8930651 C11.7266886,23.5064573 13.5941694,24.7206589 13.5941694,26.987926 C13.5941694,27.3829576 13.2738373,27.703194 12.8786876,27.703194 C12.483538,27.703194 12.1632059,27.3829576 12.1632059,26.987926 C12.1632059,25.7026512 11.1704653,25.0571896 9.78332979,25.301844 C8.27841723,25.5672713 7.15483342,26.7603151 7.15483342,28.4080696 C7.15483342,31.586113 9.38355101,33.3010621 11.9959535,33.371139 L12.6733083,33.3807636 C13.9533266,33.4062329 14.707664,33.3592283 15.5504301,33.1274528 C17.9427769,32.4695156 19.3180236,30.4818714 19.3180236,26.2778541 C19.3180236,21.5916331 16.1868443,19.2526707 9.60292677,19.1838949 L9.30127875,19.1823319 C5.03910816,19.1823319 1.98306797,18.1713544 0.175898219,16.0964733 C-0.0835856203,15.7985499 -0.0523520349,15.3467449 0.245660384,15.0873386 Z"/><path d="M9.28560281,8.52103374 C17.755464,8.33547316 23.7440817,12.0500583 27.0997195,19.5424368 C29.4994873,23.9031972 32.7626455,26.1187791 36.942625,26.2661402 L37.205068,26.272658 L60.8159666,26.272658 C61.2111163,26.272658 61.5314484,26.5928944 61.5314484,26.987926 C61.5314484,27.354741 61.2552437,27.6570643 60.8994069,27.6983818 L60.8159666,27.703194 L37.1946947,27.703194 C32.3384681,27.6327253 28.5331531,25.1150306 25.8199119,20.1796904 C22.7210266,13.265969 17.3741124,9.8770745 9.64386575,9.94610915 L9.30127875,9.95139805 L0.715497437,9.95139805 C0.320347763,9.95139805 1.56605399e-05,9.63116166 1.56605399e-05,9.23613005 C1.56605399e-05,8.86931498 0.276220381,8.56699171 0.632057147,8.52567418 L0.715497437,8.52086204 L9.28560281,8.52103374 Z"/><path d="M9.30127875 0C20.1540583 0 27.7811702 3.41845739 32.0820679 10.267946L32.7840096 11.3462158 33.4281558 12.3191648 33.8762456 12.982835 34.2965847 13.5922944 34.6912126 14.1496995 35.062169 14.657207 35.2973298 14.9688895 35.5234807 15.2599928 35.7412261 15.5311558 35.9511705 15.7830176C35.9855447 15.8234216 36.019619 15.863048 36.053406 15.9019102L36.2527818 16.1260183 36.4458673 16.3324226C36.5092479 16.3983444 36.5716809 16.4614221 36.6332669 16.5217622L36.8155848 16.6946761 36.9934255 16.8518032 37.1673933 16.9937826C37.3109206 17.1059647 37.4510432 17.2030335 37.5893347 17.2866531L37.7545065 17.3806474C37.9738322 17.4976497 38.1900823 17.581926 38.4097029 17.6402923L38.5751511 17.6793153C38.6028647 17.6850449 38.6306561 17.6903964 38.658538 17.6953829L38.8270153 17.7210296 38.9982674 17.7385576C39.0270742 17.7408379 39.0560218 17.7428065 39.0851228 17.7444767L39.2616703 17.7510246 47.2218129 17.7518132C47.6169625 17.7518132 47.9372947 18.0720496 47.9372947 18.4670812 47.9372947 18.8338962 47.6610899 19.1362195 47.3052532 19.1775371L47.2218129 19.1823492 39.3515133 19.1823492C39.2727357 19.1823492 39.195076 19.1811847 39.1184292 19.1787586L38.8914225 19.1675983C38.1067992 19.1146105 37.4222648 18.9118236 36.7161792 18.4468221L36.513749 18.3067323C36.1750376 18.0610338 35.8288124 17.7534485 35.4619387 17.3718378L35.2392316 17.1338912C35.2016657 17.0927206 35.1638671 17.0507854 35.1258226 17.0080736L34.8945 16.7423854C34.8554194 16.6965183 34.8160666 16.6498503 34.7764286 16.6023692L34.5350718 16.3076284 34.2862375 15.9927909 34.0292953 15.6572741 33.7636146 15.3004952 33.4885651 14.9218717 33.2035162 14.5208208 32.9078375 14.09676 32.6008986 13.6491066 32.117998 12.9321157 31.7801501 12.4229316 31.2479307 11.6109136 30.8752335 11.0365572C26.9148778 4.72951635 19.8998427 1.52155945 9.73868347 1.43244562L9.30127875 1.430536.715497437 1.430536C.320347763 1.430536.0000156605399 1.11029961.0000156605399.715268002.0000156605399.348452936.276220381.0461296643.632057147.00481213095L.715497437 0 9.30127875 0ZM25.9615545 36.2396607C28.273776 33.9335078 32.0723168 33.2076039 37.3103291 33.9864608 37.7011791 34.0445776 37.9708986 34.4084423 37.9127645 34.7991755 37.8546304 35.1899087 37.4906569 35.4595476 37.0998069 35.4014308 32.2652133 34.6825595 28.9049668 35.3247051 26.9722195 37.2523798L26.0438028 38.1727217 25.7295347 38.4777072C21.5895714 42.4676192 17.8976596 44.3466161 12.1695572 44.3466161 7.02611858 44.3466161 3.00585068 42.666012.168661405 39.3044308-.0861595266 39.0025118-.0479058762 38.5512467.254103325 38.2965019.556112525 38.0417571 1.00751254 38.0799993 1.26233347 38.3819183 3.81346359 41.4045686 7.42923552 42.9160801 12.1695572 42.9160801 17.3613989 42.9160801 20.6956618 41.2753295 24.4883578 37.6847548L25.0250905 37.167758 25.5842868 36.6155056 25.9615545 36.2396607Z"/></g><path fill="#FFF" d="M178.175196 271.801841C178.542121 271.801841 178.844534 272.077963 178.885864 272.433694L178.890678 272.517109 178.890678 310.379174C178.890678 317.017521 173.5695 322.413412 166.958616 322.536579L166.727487 322.53873 52.4610924 322.53873C52.0659427 322.53873 51.7456106 322.218494 51.7456106 321.823462 51.7456106 321.456647 52.0218153 321.154324 52.3776521 321.113006L52.4610924 321.108194 166.727487 321.108194C172.579704 321.108194 177.337889 316.425487 177.457412 310.603645L177.459714 310.379174 177.459714 272.517109C177.459714 272.122077 177.780046 271.801841 178.175196 271.801841ZM67.5172314 23.5567052C67.9123811 23.5567052 68.2327132 23.8769415 68.2327132 24.2719732 68.2327132 24.6387882 67.9565085 24.9411115 67.6006717 24.982429L67.5172314 24.9872412 20.7692051 24.9872412C14.9169884 24.9872412 10.1588034 29.669948 10.0392807 35.49179L10.0369785 35.7162612 10.029664 55.092307 10.0173717 67.3871893 10.0167449 70.8115322C10.0167449 71.2065638 9.69641276 71.5268002 9.30126309 71.5268002 8.93433839 71.5268002 8.63192476 71.250678 8.59059488 70.8949476L8.58578131 70.8115322 8.58857025 64.0671478 8.60443537 46.1119082 8.6060149 35.7162612C8.6060149 29.0779139 13.9271928 23.682023 20.5380761 23.5588566L20.7692051 23.5567052 67.5172314 23.5567052ZM93.7281127 0C103.606854 0 111.615157 8.00590982 111.615157 17.8817001 111.615157 27.7574903 103.606854 35.7634001 93.7281127 35.7634001 83.8493708 35.7634001 75.8410683 27.7574903 75.8410683 17.8817001 75.8410683 8.00590982 83.8493708 0 93.7281127 0ZM93.7281127 1.430536C84.6396702 1.430536 77.2720318 8.79597304 77.2720318 17.8817001 77.2720318 26.9674271 84.6396702 34.3328641 93.7281127 34.3328641 102.816555 34.3328641 110.184194 26.9674271 110.184194 17.8817001 110.184194 8.79597304 102.816555 1.430536 93.7281127 1.430536Z"/><path fill="#FFF" d="M18.5462229,3.62881179 L18.5462229,16.0947058 C18.5462229,18.7242818 17.0924237,20.6033096 14.7963103,20.6873617 L14.6347573,20.6903003 L14.6348545,20.6877515 L5.29456514,20.6877515 C2.75082542,20.6877515 0.770518836,18.5887454 0.770518836,16.0935301 C0.770518836,13.6525585 2.66566101,11.590757 5.12948245,11.5022671 L5.29456514,11.4993087 L10.0725188,11.4983606 L10.0730481,3.62881179 L18.5462229,3.62881179 Z M17.2255188,15.6803606 L16.4560808,15.6808754 C14.8906159,15.6808754 13.6183472,16.8772135 13.5426775,18.3736731 L13.5391167,18.5148181 L13.5385188,19.3663606 L14.6348545,19.3672567 L14.6347573,19.3694109 C16.1734489,19.3694109 17.1643329,18.1877805 17.2229735,16.2760552 L17.2257281,16.0947058 L17.2255188,15.6803606 Z M5.72385421,12.8198034 L5.29456514,12.8198034 C3.49817207,12.8198034 2.09140827,14.3108886 2.09140827,16.0935301 C2.09140827,17.8252389 3.41893394,19.2818138 5.14156651,19.363633 L5.29456514,19.3672567 L5.72385421,19.3672567 C6.43658779,19.3672567 7.20985482,17.950024 7.20985482,16.0935301 C7.20985482,14.296923 6.48567134,12.9116949 5.79298941,12.8241948 L5.72385421,12.8198034 Z M17.2245188,7.86736063 L11.3925188,7.86736063 L11.3935429,12.8154143 L10.7315188,12.8153606 L10.7322266,12.8198034 L7.7228638,12.8192581 C8.23338536,13.6602278 8.53074425,14.8272444 8.53074425,16.0935301 C8.53074425,17.3597096 8.23343519,18.5266367 7.72299212,19.3675906 L12.2175188,19.3663606 L12.2182273,18.5148181 C12.2182273,16.2691328 14.0335542,14.4449962 16.2974257,14.3632409 L16.4560808,14.3603807 L17.2255188,14.3603606 L17.2245188,7.86736063 Z M17.2250679,4.95036166 L11.3934879,4.95036166 L11.3925188,6.43736063 L17.2245188,6.43736063 L17.2250679,4.95036166 Z" transform="rotate(-30 62.061 -138.38)"/><path fill="#FFF" d="M25.0620957,136.283285 C26.2052073,136.283285 27.1396122,137.176598 27.2048973,138.303007 L27.2085411,138.429089 L27.2085411,146.251681 C27.2085411,147.394451 26.3149616,148.328576 25.1882157,148.393842 L25.0620957,148.397485 L20.7692051,148.397485 C19.6260935,148.397485 18.6916887,147.504172 18.6264035,146.377763 L18.6227598,146.251681 L18.6227598,145.581769 C18.6227598,144.438999 19.5163392,143.504873 20.6430851,143.439608 L20.7692051,143.435965 L21.4846869,143.435965 C21.8516116,143.435965 22.1540252,143.159843 22.1953551,142.804112 L22.2001686,142.720697 L22.2001686,141.960073 C22.2001686,141.593258 21.9239639,141.290934 21.5681272,141.249617 L21.4846869,141.244805 L17.1917962,141.244805 C16.8248715,141.244805 16.5224579,141.520927 16.481128,141.876657 L16.4763144,141.960073 L16.4763144,149.873377 C16.4763144,150.240192 16.7525192,150.542515 17.1083559,150.583833 L17.1917962,150.588645 L30.0704682,150.588645 C30.4656179,150.588645 30.78595,150.908881 30.78595,151.303913 C30.78595,151.670728 30.5097452,151.973051 30.1539085,152.014369 L30.0704682,152.019181 L17.1917962,152.019181 C16.0486847,152.019181 15.1142798,151.125869 15.0489946,149.999459 L15.0453509,149.873377 L15.0453509,141.960073 C15.0453509,140.817303 15.9389304,139.883177 17.0656762,139.817911 L17.1917962,139.814269 L21.4846869,139.814269 C22.6277984,139.814269 23.5622033,140.707581 23.6274885,141.83399 L23.6311322,141.960073 L23.6311322,142.720697 C23.6311322,143.863467 22.7375527,144.797593 21.6108068,144.862858 L21.4846869,144.866501 L20.7692051,144.866501 C20.4022804,144.866501 20.0998668,145.142623 20.0585369,145.498354 L20.0537233,145.581769 L20.0537233,146.251681 C20.0537233,146.618496 20.329928,146.920819 20.6857648,146.962137 L20.7692051,146.966949 L25.0620957,146.966949 C25.4290204,146.966949 25.7314341,146.690826 25.772764,146.335096 L25.7775775,146.251681 L25.7775775,138.429089 C25.7775775,138.062274 25.5013728,137.759951 25.145536,137.718633 L25.0620957,137.713821 L12.1834238,137.713821 C11.0403122,137.713821 10.1059073,138.607134 10.0406222,139.733543 L10.0369785,139.859625 L10.0369785,297.50435 C10.0369785,297.899382 9.71664635,298.219618 9.32149668,298.219618 C8.95457198,298.219618 8.65215835,297.943496 8.61082847,297.587765 L8.6060149,297.50435 L8.6060149,139.859625 C8.6060149,137.936445 10.1244867,136.367817 12.0282432,136.286589 L12.1834238,136.283285 L25.0620957,136.283285 Z" transform="matrix(1 0 0 -1 0 434.503)"/><path fill="#FFF" d="M53.4289705,299.902475 C53.7958952,299.902475 54.0983088,300.178597 54.1396387,300.534328 L54.1444523,300.617743 L54.1444523,317.994801 C54.1444523,319.917981 52.6259805,321.48661 50.722224,321.567837 L50.5670434,321.571141 L36.2574079,321.571141 C35.1142963,321.571141 34.1798914,320.677829 34.1146063,319.55142 L34.1109625,319.425337 L34.1109625,311.512033 C34.1109625,310.369263 35.004542,309.435137 36.1312879,309.369871 L36.2574079,309.366229 L40.5502985,309.366229 C41.6934101,309.366229 42.627815,310.259541 42.6931001,311.385951 L42.6967438,311.512033 L42.6967438,312.272657 C42.6967438,313.415427 41.8031644,314.349553 40.6764185,314.414819 L40.5502985,314.418461 L39.8348167,314.418461 C39.467892,314.418461 39.1654784,314.694583 39.1241485,315.050314 L39.119335,315.133729 L39.119335,315.803641 C39.119335,316.170456 39.3955397,316.472779 39.7513764,316.514097 L39.8348167,316.518909 L44.1277074,316.518909 C44.4946321,316.518909 44.7970457,316.242787 44.8383756,315.887056 L44.8431892,315.803641 L44.8431892,307.981049 C44.8431892,307.614234 44.5669845,307.311911 44.2111477,307.270593 L44.1277074,307.265781 L31.2490354,307.265781 C30.8538858,307.265781 30.5335537,306.945545 30.5335537,306.550513 C30.5335537,306.183698 30.8097584,305.881375 31.1655951,305.840057 L31.2490354,305.835245 L44.1277074,305.835245 C45.270819,305.835245 46.2052238,306.728558 46.270509,307.854967 L46.2741527,307.981049 L46.2741527,315.803641 C46.2741527,316.946411 45.3805732,317.880537 44.2538274,317.945802 L44.1277074,317.949445 L39.8348167,317.949445 C38.6917052,317.949445 37.7573003,317.056132 37.6920151,315.929723 L37.6883714,315.803641 L37.6883714,315.133729 C37.6883714,313.990959 38.5819509,313.056833 39.7086968,312.991568 L39.8348167,312.987925 L40.5502985,312.987925 C40.9172232,312.987925 41.2196368,312.711803 41.2609667,312.356073 L41.2657803,312.272657 L41.2657803,311.512033 C41.2657803,311.145218 40.9895756,310.842894 40.6337388,310.801577 L40.5502985,310.796765 L36.2574079,310.796765 C35.8904832,310.796765 35.5880695,311.072887 35.5467397,311.428617 L35.5419261,311.512033 L35.5419261,319.425337 C35.5419261,319.792152 35.8181308,320.094476 36.1739676,320.135793 L36.2574079,320.140605 L50.5670434,320.140605 C51.7101549,320.140605 52.6445598,319.247293 52.709845,318.120884 L52.7134887,317.994801 L52.7134887,300.617743 C52.7134887,300.222711 53.0338208,299.902475 53.4289705,299.902475 Z" transform="rotate(90 42.339 310.737)"/><path fill="#FFF" d="M142.758848,18.1921951 C143.901959,18.1921951 144.836364,19.0855076 144.901649,20.2119169 L144.905293,20.3379991 L144.905293,28.1605908 C144.905293,29.3033608 144.011714,30.2374865 142.884968,30.3027522 L142.758848,30.3063948 L138.465957,30.3063948 C137.322846,30.3063948 136.388441,29.4130823 136.323156,28.2866731 L136.319512,28.1605908 L136.319512,27.4906792 C136.319512,26.3479092 137.213091,25.4137834 138.339837,25.3485178 L138.465957,25.3448752 L139.181439,25.3448752 C139.548364,25.3448752 139.850777,25.068753 139.892107,24.7130225 L139.896921,24.6296072 L139.896921,23.8689828 C139.896921,23.5021677 139.620716,23.1998444 139.264879,23.1585269 L139.181439,23.1537148 L134.888548,23.1537148 C134.521624,23.1537148 134.21921,23.429837 134.17788,23.7855674 L134.173067,23.8689828 L134.173067,31.7822872 C134.173067,32.1491022 134.449271,32.4514255 134.805108,32.4927431 L134.888548,32.4975552 L147.76722,32.4975552 C148.16237,32.4975552 148.482702,32.8177916 148.482702,33.2128232 C148.482702,33.5796383 148.206497,33.8819615 147.850661,33.9232791 L147.76722,33.9280912 L134.888548,33.9280912 C133.745437,33.9280912 132.811032,33.0347787 132.745747,31.9083695 L132.742103,31.7822872 L132.742103,23.8689828 C132.742103,22.7262128 133.635683,21.7920871 134.762428,21.7268214 L134.888548,21.7231788 L139.181439,21.7231788 C140.324551,21.7231788 141.258955,22.6164913 141.324241,23.7429005 L141.327884,23.8689828 L141.327884,24.6296072 C141.327884,25.7723772 140.434305,26.7065029 139.307559,26.7717685 L139.181439,26.7754112 L138.465957,26.7754112 C138.099033,26.7754112 137.796619,27.0515334 137.755289,27.4072638 L137.750475,27.4906792 L137.750475,28.1605908 C137.750475,28.5274059 138.02668,28.8297291 138.382517,28.8710467 L138.465957,28.8758588 L142.758848,28.8758588 C143.125773,28.8758588 143.428186,28.5997366 143.469516,28.2440062 L143.47433,28.1605908 L143.47433,20.3379991 C143.47433,19.9711841 143.198125,19.6688608 142.842288,19.6275433 L142.758848,19.6227311 L130.595658,19.6227311 C129.062956,19.6227311 127.811662,20.8272199 127.737233,22.3410068 L127.733731,22.4838032 L127.733731,50.3792552 C127.733731,50.7742869 127.413399,51.0945232 127.018249,51.0945232 C126.651324,51.0945232 126.348911,50.818401 126.307581,50.4626706 L126.302767,50.3792552 L126.302767,22.4838032 C126.302767,20.1674814 128.138389,18.2797641 130.434718,18.1951553 L130.595658,18.1921951 L142.758848,18.1921951 Z" transform="rotate(90 137.393 34.643)"/><path fill="#FFF" d="M178.154868,46.4452812 C178.521792,46.4452812 178.824243,46.7213149 178.865619,47.0770399 L178.870444,47.1604547 L178.889762,197.411108 C178.890678,199.337626 177.372074,200.90625 175.468439,200.987041 L175.313269,200.990309 L161.003633,200.990309 C159.860522,200.990309 158.926117,200.096996 158.860832,198.970587 L158.857188,198.844505 L158.857188,190.9312 C158.857188,189.78843 159.750767,188.854304 160.877513,188.789039 L161.003633,188.785396 L165.296524,188.785396 C166.439635,188.785396 167.37404,189.678709 167.439325,190.805118 L167.442969,190.9312 L167.442969,191.691825 C167.442969,192.834595 166.54939,193.76872 165.422644,193.833986 L165.296524,193.837629 L164.581042,193.837629 C164.214117,193.837629 163.911704,194.113751 163.870374,194.469481 L163.86556,194.552897 L163.86556,195.222808 C163.86556,195.589623 164.141765,195.891947 164.497602,195.933264 L164.581042,195.938076 L168.873933,195.938076 C169.240857,195.938076 169.543271,195.661954 169.584601,195.306224 L169.589414,195.222808 L169.589414,187.400217 C169.589414,187.033401 169.31321,186.731078 168.957373,186.689761 L168.873933,186.684949 L155.995261,186.684949 C155.600111,186.684949 155.279779,186.364712 155.279779,185.969681 C155.279779,185.602865 155.555984,185.300542 155.91182,185.259225 L155.995261,185.254413 L168.873933,185.254413 C170.017044,185.254413 170.951449,186.147725 171.016734,187.274134 L171.020378,187.400217 L171.020378,195.222808 C171.020378,196.365578 170.126799,197.299704 169.000053,197.36497 L168.873933,197.368612 L164.581042,197.368612 C163.437931,197.368612 162.503526,196.4753 162.43824,195.34889 L162.434597,195.222808 L162.434597,194.552897 C162.434597,193.410127 163.328176,192.476001 164.454922,192.410735 L164.581042,192.407093 L165.296524,192.407093 C165.663449,192.407093 165.965862,192.13097 166.007192,191.77524 L166.012006,191.691825 L166.012006,190.9312 C166.012006,190.564385 165.735801,190.262062 165.379964,190.220744 L165.296524,190.215932 L161.003633,190.215932 C160.636708,190.215932 160.334295,190.492054 160.292965,190.847785 L160.288151,190.9312 L160.288151,198.844505 C160.288151,199.21132 160.564356,199.513643 160.920193,199.55496 L161.003633,199.559773 L175.31344,199.559773 C176.456408,199.560046 177.390787,198.666845 177.45607,197.54043 L177.459336,197.414063 L177.43948,47.1606436 C177.439428,46.765612 177.759718,46.4452812 178.154868,46.4452812 Z" transform="matrix(1 0 0 -1 0 247.436)"/><g fill="#FFF" transform="rotate(180 93.728 129.821)"><path d="M0.245660384,15.0873386 C0.543672803,14.8279323 0.995612816,14.8591565 1.25509665,15.1570799 C2.70249244,16.8188907 5.25825448,17.6991637 8.96146147,17.7495069 L9.30127875,17.7517959 C16.8005392,17.7517959 20.7489872,20.613051 20.7489872,26.2778541 C20.7489872,31.1006398 18.9709559,33.6704287 15.9299872,34.5067482 C15.0519613,34.7482207 14.2875318,34.8207556 13.1813192,34.8176414 L12.1632059,34.8039123 C8.76643124,34.8039123 5.72386987,32.5531147 5.72386987,28.4080696 C5.72386987,26.0292604 7.37734444,24.2735679 9.53470948,23.8930651 C11.7266886,23.5064573 13.5941694,24.7206589 13.5941694,26.987926 C13.5941694,27.3829576 13.2738373,27.703194 12.8786876,27.703194 C12.483538,27.703194 12.1632059,27.3829576 12.1632059,26.987926 C12.1632059,25.7026512 11.1704653,25.0571896 9.78332979,25.301844 C8.27841723,25.5672713 7.15483342,26.7603151 7.15483342,28.4080696 C7.15483342,31.586113 9.38355101,33.3010621 11.9959535,33.371139 L12.6733083,33.3807636 C13.9533266,33.4062329 14.707664,33.3592283 15.5504301,33.1274528 C17.9427769,32.4695156 19.3180236,30.4818714 19.3180236,26.2778541 C19.3180236,21.5916331 16.1868443,19.2526707 9.60292677,19.1838949 L9.30127875,19.1823319 C5.03910816,19.1823319 1.98306797,18.1713544 0.175898219,16.0964733 C-0.0835856203,15.7985499 -0.0523520349,15.3467449 0.245660384,15.0873386 Z"/><path d="M9.28560281,8.52103374 C17.755464,8.33547316 23.7440817,12.0500583 27.0997195,19.5424368 C29.4994873,23.9031972 32.7626455,26.1187791 36.942625,26.2661402 L37.205068,26.272658 L60.8159666,26.272658 C61.2111163,26.272658 61.5314484,26.5928944 61.5314484,26.987926 C61.5314484,27.354741 61.2552437,27.6570643 60.8994069,27.6983818 L60.8159666,27.703194 L37.1946947,27.703194 C32.3384681,27.6327253 28.5331531,25.1150306 25.8199119,20.1796904 C22.7210266,13.265969 17.3741124,9.8770745 9.64386575,9.94610915 L9.30127875,9.95139805 L0.715497437,9.95139805 C0.320347763,9.95139805 1.566054e-05,9.63116166 1.566054e-05,9.23613005 C1.566054e-05,8.86931498 0.276220381,8.56699171 0.632057147,8.52567418 L0.715497437,8.52086204 L9.28560281,8.52103374 Z"/><path d="M9.30127875-5.68252066e-14C20.1540583-5.68252066e-14 27.7811702 3.41845739 32.0820679 10.267946L32.7840096 11.3462158 33.4281558 12.3191648 33.8762456 12.982835 34.2965847 13.5922944 34.6912126 14.1496995 35.062169 14.657207 35.2973298 14.9688895 35.5234807 15.2599928 35.7412261 15.5311558 35.9511705 15.7830176C35.9855447 15.8234216 36.019619 15.863048 36.053406 15.9019102L36.2527818 16.1260183 36.4458673 16.3324226C36.5092479 16.3983444 36.5716809 16.4614221 36.6332669 16.5217622L36.8155848 16.6946761 36.9934255 16.8518032 37.1673933 16.9937826C37.3109206 17.1059647 37.4510432 17.2030335 37.5893347 17.2866531L37.7545065 17.3806474C37.9738322 17.4976497 38.1900823 17.581926 38.4097029 17.6402923L38.5751511 17.6793153C38.6028647 17.6850449 38.6306561 17.6903964 38.658538 17.6953829L38.8270153 17.7210296 38.9982674 17.7385576C39.0270742 17.7408379 39.0560218 17.7428065 39.0851228 17.7444767L39.2616703 17.7510246 47.2218129 17.7518132C47.6169625 17.7518132 47.9372947 18.0720496 47.9372947 18.4670812 47.9372947 18.8338962 47.6610899 19.1362195 47.3052532 19.1775371L47.2218129 19.1823492 39.3515133 19.1823492C39.2727357 19.1823492 39.195076 19.1811847 39.1184292 19.1787586L38.8914225 19.1675983C38.1067992 19.1146105 37.4222648 18.9118236 36.7161792 18.4468221L36.513749 18.3067323C36.1750376 18.0610338 35.8288124 17.7534485 35.4619387 17.3718378L35.2392316 17.1338912C35.2016657 17.0927206 35.1638671 17.0507854 35.1258226 17.0080736L34.8945 16.7423854C34.8554194 16.6965183 34.8160666 16.6498503 34.7764286 16.6023692L34.5350718 16.3076284 34.2862375 15.9927909 34.0292953 15.6572741 33.7636146 15.3004952 33.4885651 14.9218717 33.2035162 14.5208208 32.9078375 14.09676 32.6008986 13.6491066 32.117998 12.9321157 31.7801501 12.4229316 31.2479307 11.6109136 30.8752335 11.0365572C26.9148778 4.72951635 19.8998427 1.52155945 9.73868347 1.43244562L9.30127875 1.430536.715497437 1.430536C.320347763 1.430536.00001566054 1.11029961.00001566054.715268002.00001566054.348452936.276220381.0461296643.632057147.00481213095L.715497437-5.68252066e-14 9.30127875-5.68252066e-14ZM25.9615545 36.2396607C28.273776 33.9335078 32.0723168 33.2076039 37.3103291 33.9864608 37.7011791 34.0445776 37.9708986 34.4084423 37.9127645 34.7991755 37.8546304 35.1899087 37.4906569 35.4595476 37.0998069 35.4014308 32.2652133 34.6825595 28.9049668 35.3247051 26.9722195 37.2523798L26.0438028 38.1727217 25.7295347 38.4777072C21.5895714 42.4676192 17.8976596 44.3466161 12.1695572 44.3466161 7.02611858 44.3466161 3.00585068 42.666012.168661405 39.3044308-.0861595266 39.0025118-.0479058762 38.5512467.254103325 38.2965019.556112525 38.0417571 1.00751254 38.0799993 1.26233347 38.3819183 3.81346359 41.4045686 7.42923552 42.9160801 12.1695572 42.9160801 17.3613989 42.9160801 20.6956618 41.2753295 24.4883578 37.6847548L25.0250905 37.167758 25.5842868 36.6155056 25.9615545 36.2396607Z"/></g></g></svg>