<svg xmlns="http://www.w3.org/2000/svg" xmlns:xlink="http://www.w3.org/1999/xlink" width="188" height="332" viewBox="0 0 188 332"><defs><polygon id="a" points="0 0 33.924 0 33.924 19.012 0 19.012"/><polygon id="c" points="0 0 28.391 0 28.391 8.685 0 8.685"/></defs><g fill="none" fill-rule="evenodd" transform="translate(.453 .099)"><path fill="#000" d="M93.6115033,0.59277311 C102.41045,0.59277311 109.663678,7.20880486 110.665079,15.7361661 L168.919744,15.7358961 C178.36686,15.7358961 186.025262,23.4215695 186.025262,32.9023281 L186.025262,313.287385 C186.025262,322.768144 178.36686,330.453817 168.919744,330.453817 L17.8209999,330.453817 C8.37388311,330.453817 0.715481776,322.768144 0.715481776,313.287385 L0.715481776,32.9023281 C0.715481776,23.4215695 8.37388311,15.7358961 17.8209999,15.7358961 L76.5579275,15.7361661 C77.5593283,7.20880486 84.8125564,0.59277311 93.6115033,0.59277311 Z"/><path fill="#FFF" d="M94.4435944,112.297076 C124.47497,112.297076 148.820209,136.635042 148.820209,166.657445 C148.820209,196.679847 124.47497,221.017813 94.4435944,221.017813 C64.4122192,221.017813 40.0669795,196.679847 40.0669795,166.657445 C40.0669795,136.635042 64.4122192,112.297076 94.4435944,112.297076 Z M94.4435944,113.727612 C65.2025186,113.727612 41.497943,137.425105 41.497943,166.657445 C41.497943,195.889784 65.2025186,219.587277 94.4435944,219.587277 C123.68467,219.587277 147.389246,195.889784 147.389246,166.657445 C147.389246,137.425105 123.68467,113.727612 94.4435944,113.727612 Z"/><ellipse cx="94.444" cy="166.657" fill="#0080FF" rx="48.653" ry="48.638"/><path fill="#FFF" d="M94.4435944,118.01922 C121.313772,118.01922 143.096355,139.795295 143.096355,166.657445 C143.096355,193.519594 121.313772,215.295669 94.4435944,215.295669 C67.5734166,215.295669 45.7908337,193.519594 45.7908337,166.657445 C45.7908337,139.795295 67.5734166,118.01922 94.4435944,118.01922 Z M94.4435944,119.449756 C68.363716,119.449756 47.2217972,140.585358 47.2217972,166.657445 C47.2217972,192.729531 68.363716,213.865133 94.4435944,213.865133 C120.523473,213.865133 141.665392,192.729531 141.665392,166.657445 C141.665392,140.585358 120.523473,119.449756 94.4435944,119.449756 Z"/><g transform="translate(40.457 122.885)"><g transform="translate(70.39 5.657)"><mask id="b" fill="#fff"><use xlink:href="#a"/></mask><path fill="#FFF" d="M17.6267602,17.8844215 C23.153518,15.9486028 27.8893891,15.8554677 29.3984047,15.5116509 C37.1286843,13.7533984 34.4838912,1.23063614 25.0404962,4.65313569 C21.1219691,6.07279408 17.2818694,5.54183662 15.7473413,2.86267751 C12.7094671,-2.44689708 0.407730099,-0.0967575083 0.0099244865,7.64999886 C-0.266933101,13.01441 5.23998165,22.2243459 17.6267602,17.8844215" mask="url(#b)"/></g><path fill="#C577FF" d="M81.2704182,22.0542494 C71.0937758,17.5593899 65.4243371,19.7572056 60.0686074,14.2361184 C59.1095274,14.525969 57.073254,14.0106791 55.5122685,15.1648588 C54.8668974,15.6418501 54.3037332,17.58028 53.9304951,18.11646 C56.911675,21.2029766 57.3236542,22.3484521 58.5095118,23.0778657 C61.0399712,25.9763712 65.9827768,34.6666651 74.2478735,37.6139142 C84.9290959,41.4185291 94.7315554,28.0009729 81.2704182,22.0542494"/><path fill="#00E5A6" d="M55.0898954,12.8477952 C54.2621573,15.1239489 52.97236,18.1051445 54.7572883,20.0836139 C54.7858245,20.1155583 54.8370384,20.1200845 54.871622,20.0938848 C54.8925989,20.0780431 54.9035598,20.0535843 54.9009141,20.0287773 C54.7913049,18.7274963 55.0719421,16.5610158 55.5122685,16.0944695 C55.8902311,16.050078 56.0943309,18.7205329 56.9626999,19.685831 C57.0184494,19.7467605 57.0836479,19.6980169 57.1063257,19.6205493 C58.0039868,16.4739736 57.4275939,15.6845007 57.6798839,15.4033544 C59.5224515,14.75489 60.3643631,15.9525907 62.5631604,16.2798694 C62.3892976,15.235363 61.9650346,14.5886394 58.8591272,13.7556454 C57.2877477,13.3326203 56.8748236,12.6188742 56.2256729,12.2071646 C55.7069193,11.8790155 55.2807665,11.024261 54.9850107,9.77607577 C54.8423299,9.16678033 53.851123,9.11890712 53.5336344,9.35479149 C52.9950378,9.75518564 55.0898954,12.8477952 55.0898954,12.8477952"/><path fill="#FFF" d="M19.8178031 15.2852358C13.0976285 17.6397274 7.3384237 17.7537527 5.50247048 18.1715553-3.89745882 20.3093119-.680997284 35.5382163 10.8015058 31.3767284 15.5676139 29.6498111 20.2382865 30.2947938 22.1035318 33.5527836 25.798116 40.0069632 40.7578748 37.1467563 41.2426118 27.7340121 41.5780536 21.2058466 34.8824465 10.0069964 19.8178031 15.2869766M72.0471864 72.1191857C70.2074535 71.422848 68.6691458 67.9951259 67.2423371 67.6077881 64.3509234 66.8244082 65.9922259 71.981659 64.4813205 73.0775203 63.7253953 73.6293679 62.1001563 74.7147842 61.789282 75.8062935 61.4236032 77.0875548 62.0992113 78.5394188 62.7408028 78.8466778 65.2353558 80.0374152 72.0150596 80.2924488 73.8425086 78.3244245 75.2759317 76.7829071 75.6680679 73.4935821 72.0471864 72.1165744"/><g transform="translate(33.758)"><mask id="d" fill="#fff"><use xlink:href="#c"/></mask><path fill="#FFF" d="M5.76687607,5.77996808 C7.4573137,5.71033431 9.26964426,4.71805316 9.87343947,5.16457968 C11.0026027,6.00018486 12.9377711,8.13010765 14.7548262,8.3607695 C17.5460798,8.7159017 18.3690933,6.59642398 19.3971515,6.37620719 C20.4252097,6.15599041 21.6573677,8.04045418 22.5266817,8.40951313 C26.9800257,10.3026811 31.4947887,1.86568006 25.5192004,0.177931678 L25.5040819,0.172709146 C25.5040819,0.172709146 4.61031059,-1.10507044 0.477289806,3.28969056 C-1.70544408,5.6111062 4.21817441,5.84263847 5.76876589,5.77822724" mask="url(#d)"/></g><path fill="#FFF" d="M30.6886314,64.7136347 C24.9369859,66.3326198 20.1236324,66.1341635 18.5664266,66.3857155 C10.5914162,67.6913486 12.3527218,80.5622797 22.1891979,77.6803122 C26.2711938,76.4834819 30.126412,77.2625096 31.4889671,80.078325 C34.1819505,85.6551192 46.841807,84.0370045 47.8160056,76.2058172 C48.4916137,70.7761244 43.5818798,61.0839747 30.6886314,64.716246"/><path fill="#FF6963" d="M66.9541407,18.3096937 C66.9418569,18.3566965 67.0023309,18.4289415 66.9872124,18.5046682 C66.9758735,18.5612457 66.8927217,18.6169527 66.8832727,18.6787526 C66.8605949,18.9546764 66.8246885,19.1618369 67.2754088,19.2514904 C67.3698995,19.2706396 67.1676895,19.5474339 67.4842332,19.6144564 C68.0067664,19.7241295 67.8914878,19.3359213 67.980309,19.2340819 C68.7041074,18.4045697 68.0058215,17.535018 67.1393423,17.9806741 C67.0372924,18.0328995 67.010835,18.1025332 66.950361,18.3088233"/><path fill="#000" d="M67.9500626,17.5506856 C67.2886281,17.4001026 66.9437372,17.6856011 66.9106655,18.1173304 C67.7497424,18.2418008 68.0691208,18.1739078 67.9840792,19.2349523 C68.8515033,18.7997413 68.6162216,17.7012687 67.9538422,17.5506856"/><path fill="#000" d="M68.2212507 17.815294C68.5699212 17.4732181 68.7778006 16.7829734 69.016862 17.0362662 69.2559233 17.289559 68.3062923 17.9528206 68.3062923 17.9528206L68.2212507 17.815294ZM46.6566054 63.8997988C46.9041708 68.7367342 49.4554182 75.1943955 50.5562342 80.3072547 50.8397062 81.6128878 43.8171615 81.16375 42.6265794 80.5170264 41.4359973 79.8703028 42.5746095 72.9443545 40.3502998 72.6449293 38.12599 72.3455041 37.3558912 80.5744743 36.2550752 80.790339 35.1542592 81.0062036 9.96399836 82.3135776 9.8383258 79.8537648 9.71265325 77.3939521 9.54162518 75.5286376 10.2229027 74.7182746 10.9041803 73.9079117 24.904859 68.9430242 27.2803538 68.2379824 29.6558486 67.5329405 28.3377041 56.1765438 28.3377041 56.1765438L46.1482457 52.0916531C46.1482457 52.0916531 46.4723486 60.2518599 46.6566054 63.8997988"/><path fill="#FFF" d="M64.9830658,33.6108431 C63.0176604,33.8885078 36.0925513,30.9882615 32.4650555,40.2808874 C30.5752426,45.1186932 27.26807,56.3245069 25.0995098,62.2233572 C23.9013684,65.48744 54.8054785,64.4185617 54.6004338,63.2165088 C52.5736095,51.3561377 57.284913,47.4009399 57.9236698,46.4721996 C59.1662217,44.6660738 70.29344,41.9886555 70.4146567,36.549388 C70.4587986,34.5291384 64.9830658,33.6108431 64.9830658,33.6108431"/><path fill="#000" d="M84.1627768,47.6638074 C87.8242893,49.7710992 98.8135512,51.5241292 103.078859,53.2249339 C104.164556,53.660145 100.558793,57.8181511 99.5288454,58.2568439 C98.4988973,58.6955366 93.2801791,54.2581249 92.0234535,55.5036989 C90.7667279,56.7492729 96.4399462,61.0744001 96.0865512,61.8577799 C95.9089088,62.2503403 95.9126884,68.401613 92.5166947,72.1470392 C90.9396458,73.8878833 83.3737799,77.4566137 82.4421022,76.9213042 C80.5796916,75.850685 79.1349296,75.085584 78.8514577,74.2821845 C78.6983828,73.8400101 81.6238132,70.8004962 82.4827331,67.4058502 C83.1838537,64.6326855 83.2074764,62.8866188 82.685888,61.5740224 C81.9819327,59.8009726 74.3357498,55.2834821 74.3357498,55.2834821 L75.94965,45.3241128 C75.94965,45.3241128 81.4017602,46.0752871 84.1627768,47.6638074"/><path fill="#FFF" d="M69.9646126,30.0603915 C67.960466,30.5339011 63.3266448,38.5748602 63.5779899,44.4606542 C64.0164265,54.7446908 72.6443673,59.8819219 76.4050949,59.729598 C76.7632144,59.7182825 97.512415,49.2296966 94.1608319,46.8107937 C84.0607269,39.5323244 82.2238288,46.9692105 75.6623984,43.4161477 C73.0998122,42.0234724 71.7467061,34.472561 71.6484359,31.523571 C71.5426063,28.3395671 69.9646126,30.0603915 69.9646126,30.0603915"/><path fill="#FF6963" d="M58.9318755,23.4521559 C59.1463693,23.2780715 60.1120636,22.4590044 60.6761728,22.6592014 C61.2402819,22.8593985 61.7788786,23.1683983 61.441547,23.6723727 C61.1042154,24.1763471 60.491916,24.6968595 60.3076593,24.7682341 C60.1234025,24.8396087 58.1485481,24.0927866 58.9318755,23.4521559"/><path fill="#FF6963" d="M58.5095118,23.0743841 C58.4093517,23.1927615 58.6767602,23.9169526 58.8940887,24.0840737 C59.1114172,24.2511947 59.08307,23.5853218 59.08307,23.5853218 L58.5095118,23.0743841 Z"/><path fill="#FFD600" d="M32.0946522,24.722093 C32.0946522,30.6749095 76.848256,65.4508822 85.1785512,65.4508822 C91.6407664,65.4508822 66.7216937,32.6211733 58.8742457,26.6866356 C53.3295347,22.4938125 51.5190939,12.911336 45.0578237,12.911336 C38.5965534,12.911336 32.0946522,18.7692765 32.0946522,24.722093"/><path fill="#FF6963" d="M57.9236698,34.0338683 C51.649491,30.1944365 36.4015357,31.5383682 40.2595887,33.5290235 C41.8498663,34.348961 44.8603382,35.1732507 44.0571677,36.20296 C43.3362041,37.1282187 43.8313351,36.0245235 39.2381449,36.2551854 C36.7246937,36.3813966 38.3877291,38.5452658 40.7499952,38.9038797 C41.7478164,39.0562036 46.3636844,40.5463661 47.5533216,40.2391072 C50.1593735,39.5688822 52.7314089,38.1962266 54.2621573,35.5153266 C54.8120929,34.5474173 57.9236698,34.0338683 57.9236698,34.0338683"/><path fill="#FF6963" d="M52.7550221,33.5803784 C51.1382872,39.1223556 39.0189171,33.8014656 37.7584119,33.4141278 C34.7951853,32.5045367 34.3180076,29.2700483 34.5580138,28.8008908 C36.2815232,30.0142592 36.7889379,31.0509319 40.7943963,31.7934019 C42.9355543,32.1955369 52.7550221,33.5803784 52.7550221,33.5803784"/><path fill="#FF6963" d="M37.8481875,34.4917103 C34.7951948,33.9955697 34.3520337,32.2486326 35.6030898,32.010137 C37.8160607,31.5888527 38.1685108,33.3244743 40.2595887,33.5290235 C42.3506667,33.7335727 42.2542862,34.969572 42.7673704,35.4822506 C43.2804546,35.9949292 37.8481875,34.4917103 37.8481875,34.4917103"/><path fill="#FF6963" d="M44.7063185 36.7556781C42.1002665 37.1621652 35.9621542 36.5911683 36.7691043 34.9878508 37.4740045 33.5951755 41.7374224 34.65622 43.6565274 34.5569919 45.7173683 34.4508004 44.7063185 36.7556781 44.7063185 36.7556781M44.6732467 33.1677983C43.287069 31.4043232 40.5676282 29.0637583 39.2816106 28.4448882 38.3272551 27.9870462 37.1253341 28.2081334 37.4258143 28.9915132 37.7262946 29.7748931 40.8482654 33.1268885 40.8482654 33.1268885L44.6732467 33.1677983Z"/><path fill="#000" d="M73.8519577,22.3789168 C72.4402675,21.4858638 70.3888756,21.2021062 68.2770097,19.3324396 C68.2118111,19.2749918 68.1749598,19.1931721 68.0880284,19.2175439 C67.4483267,19.3968508 66.9541407,19.4560395 67.0845377,19.7397971 C67.7563662,21.1916611 62.4752841,26.4228977 62.365675,29.9054564 L63.2047519,30.8498644 C58.981965,30.2405689 52.810781,28.8426711 51.4397218,29.2160821 C49.9609432,29.619958 42.5661054,34.0094964 42.4827285,39.9570904 C42.3998018,45.9046844 65.3733122,50.5649241 75.1445897,41.0207462 C80.1044036,36.1768474 80.8934005,26.833737 73.8519577,22.3789168"/><path fill="#00E5A6" d="M40.5373912,16.8987395 C37.8453528,13.5658934 20.3428507,0.548731477 8.58254514,13.2873584 C-3.17776045,26.0259853 8.80081853,13.5885244 13.9184318,12.7859953 C19.0360451,11.9834661 34.2178569,14.8924167 38.3915087,18.0015643 C42.5651605,21.1107119 40.5373912,16.8987395 40.5373912,16.8987395"/><path fill="#00E5A6" d="M40.5373912,16.8987395 C38.8941989,15.262346 22.9980378,15.6496839 16.3222738,22.5947815 C9.64650979,29.5398791 16.5027509,22.6818237 19.9072489,21.5946666 C23.3117468,20.5075094 33.9466688,19.5178395 37.135728,20.0740392 C42.2278289,20.9592584 41.3594598,17.7169363 40.5373912,16.8987395"/><path fill="#00E5A6" d="M40.8265473,18.3027303 C38.1344941,14.9698842 8.58254514,13.2873584 8.58254514,18.9572877 C8.58254514,27.6179872 8.80081853,19.2584537 13.9184318,18.4559246 C19.0360451,17.6533954 32.9460129,16.3460215 37.368175,19.1461693 C40.8718881,21.3622639 40.8265473,18.3027303 40.8265473,18.3027303"/></g><path fill="#FFF" d="M71.8876537,15.020628 C72.2828034,15.020628 72.6031355,15.3408644 72.6031355,15.7358961 C72.6031355,16.1027111 72.3269308,16.4050344 71.971094,16.4463519 L71.8876537,16.4511641 L17.8870444,16.4511641 C8.88948633,16.4511641 1.5784884,23.6700289 1.4331682,32.630278 L1.43096355,32.9023281 L1.43096355,313.287385 C1.43096355,322.282255 8.6519859,329.591068 17.614913,329.736345 L17.8870444,329.738549 L169.569181,329.738549 C178.566739,329.738549 185.877737,322.519684 186.023057,313.559435 L186.025262,313.287385 L186.025262,32.9023281 C186.025262,23.9074584 178.804239,16.5986448 169.841312,16.453368 L169.569181,16.4511641 L115.718085,16.4511641 C115.322936,16.4511641 115.002603,16.1309277 115.002603,15.7358961 C115.002603,15.369081 115.278808,15.0667577 115.634645,15.0254402 L115.718085,15.020628 L169.569181,15.020628 C179.349135,15.020628 187.295872,22.8672203 187.453829,32.6066215 L187.456225,32.9023281 L187.456225,313.287385 C187.456225,323.064417 179.607288,331.00878 169.864976,331.169085 L169.569181,331.169085 L17.8870444,331.169085 C8.10708998,331.169085 0.160353095,323.322493 0.0023963529,313.583092 L0,313.287385 L0,32.9023281 C0,23.1252958 7.84893734,15.1809332 17.5912494,15.020628 L17.8870444,15.020628 L71.8876537,15.020628 Z"/><g fill="#FFF" transform="matrix(1 0 0 -1 0 124.457)"><path d="M0.245660384,15.0873386 C0.543672803,14.8279323 0.995612816,14.8591565 1.25509665,15.1570799 C2.70249244,16.8188907 5.25825448,17.6991637 8.96146147,17.7495069 L9.30127875,17.7517959 C16.8005392,17.7517959 20.7489872,20.613051 20.7489872,26.2778541 C20.7489872,31.1006398 18.9709559,33.6704287 15.9299872,34.5067482 C15.0519613,34.7482207 14.2875318,34.8207556 13.1813192,34.8176414 L12.1632059,34.8039123 C8.76643124,34.8039123 5.72386987,32.5531147 5.72386987,28.4080696 C5.72386987,26.0292604 7.37734444,24.2735679 9.53470948,23.8930651 C11.7266886,23.5064573 13.5941694,24.7206589 13.5941694,26.987926 C13.5941694,27.3829576 13.2738373,27.703194 12.8786876,27.703194 C12.483538,27.703194 12.1632059,27.3829576 12.1632059,26.987926 C12.1632059,25.7026512 11.1704653,25.0571896 9.78332979,25.301844 C8.27841723,25.5672713 7.15483342,26.7603151 7.15483342,28.4080696 C7.15483342,31.586113 9.38355101,33.3010621 11.9959535,33.371139 L12.6733083,33.3807636 C13.9533266,33.4062329 14.707664,33.3592283 15.5504301,33.1274528 C17.9427769,32.4695156 19.3180236,30.4818714 19.3180236,26.2778541 C19.3180236,21.5916331 16.1868443,19.2526707 9.60292677,19.1838949 L9.30127875,19.1823319 C5.03910816,19.1823319 1.98306797,18.1713544 0.175898219,16.0964733 C-0.0835856203,15.7985499 -0.0523520349,15.3467449 0.245660384,15.0873386 Z"/><path d="M9.28560281,8.52103374 C17.755464,8.33547316 23.7440817,12.0500583 27.0997195,19.5424368 C29.4994873,23.9031972 32.7626455,26.1187791 36.942625,26.2661402 L37.205068,26.272658 L60.8159666,26.272658 C61.2111163,26.272658 61.5314484,26.5928944 61.5314484,26.987926 C61.5314484,27.354741 61.2552437,27.6570643 60.8994069,27.6983818 L60.8159666,27.703194 L37.1946947,27.703194 C32.3384681,27.6327253 28.5331531,25.1150306 25.8199119,20.1796904 C22.7210266,13.265969 17.3741124,9.8770745 9.64386575,9.94610915 L9.30127875,9.95139805 L0.715497437,9.95139805 C0.320347763,9.95139805 1.56605399e-05,9.63116166 1.56605399e-05,9.23613005 C1.56605399e-05,8.86931498 0.276220381,8.56699171 0.632057147,8.52567418 L0.715497437,8.52086204 L9.28560281,8.52103374 Z"/><path d="M9.30127875 0C20.1540583 0 27.7811702 3.41845739 32.0820679 10.267946L32.7840096 11.3462158 33.4281558 12.3191648 33.8762456 12.982835 34.2965847 13.5922944 34.6912126 14.1496995 35.062169 14.657207 35.2973298 14.9688895 35.5234807 15.2599928 35.7412261 15.5311558 35.9511705 15.7830176C35.9855447 15.8234216 36.019619 15.863048 36.053406 15.9019102L36.2527818 16.1260183 36.4458673 16.3324226C36.5092479 16.3983444 36.5716809 16.4614221 36.6332669 16.5217622L36.8155848 16.6946761 36.9934255 16.8518032 37.1673933 16.9937826C37.3109206 17.1059647 37.4510432 17.2030335 37.5893347 17.2866531L37.7545065 17.3806474C37.9738322 17.4976497 38.1900823 17.581926 38.4097029 17.6402923L38.5751511 17.6793153C38.6028647 17.6850449 38.6306561 17.6903964 38.658538 17.6953829L38.8270153 17.7210296 38.9982674 17.7385576C39.0270742 17.7408379 39.0560218 17.7428065 39.0851228 17.7444767L39.2616703 17.7510246 47.2218129 17.7518132C47.6169625 17.7518132 47.9372947 18.0720496 47.9372947 18.4670812 47.9372947 18.8338962 47.6610899 19.1362195 47.3052532 19.1775371L47.2218129 19.1823492 39.3515133 19.1823492C39.2727357 19.1823492 39.195076 19.1811847 39.1184292 19.1787586L38.8914225 19.1675983C38.1067992 19.1146105 37.4222648 18.9118236 36.7161792 18.4468221L36.513749 18.3067323C36.1750376 18.0610338 35.8288124 17.7534485 35.4619387 17.3718378L35.2392316 17.1338912C35.2016657 17.0927206 35.1638671 17.0507854 35.1258226 17.0080736L34.8945 16.7423854C34.8554194 16.6965183 34.8160666 16.6498503 34.7764286 16.6023692L34.5350718 16.3076284 34.2862375 15.9927909 34.0292953 15.6572741 33.7636146 15.3004952 33.4885651 14.9218717 33.2035162 14.5208208 32.9078375 14.09676 32.6008986 13.6491066 32.117998 12.9321157 31.7801501 12.4229316 31.2479307 11.6109136 30.8752335 11.0365572C26.9148778 4.72951635 19.8998427 1.52155945 9.73868347 1.43244562L9.30127875 1.430536.715497437 1.430536C.320347763 1.430536.0000156605399 1.11029961.0000156605399.715268002.0000156605399.348452936.276220381.0461296643.632057147.00481213095L.715497437 0 9.30127875 0ZM25.9615545 36.2396607C28.273776 33.9335078 32.0723168 33.2076039 37.3103291 33.9864608 37.7011791 34.0445776 37.9708986 34.4084423 37.9127645 34.7991755 37.8546304 35.1899087 37.4906569 35.4595476 37.0998069 35.4014308 32.2652133 34.6825595 28.9049668 35.3247051 26.9722195 37.2523798L26.0438028 38.1727217 25.7295347 38.4777072C21.5895714 42.4676192 17.8976596 44.3466161 12.1695572 44.3466161 7.02611858 44.3466161 3.00585068 42.666012.168661405 39.3044308-.0861595266 39.0025118-.0479058762 38.5512467.254103325 38.2965019.556112525 38.0417571 1.00751254 38.0799993 1.26233347 38.3819183 3.81346359 41.4045686 7.42923552 42.9160801 12.1695572 42.9160801 17.3613989 42.9160801 20.6956618 41.2753295 24.4883578 37.6847548L25.0250905 37.167758 25.5842868 36.6155056 25.9615545 36.2396607Z"/></g><path fill="#FFF" d="M178.175196 271.801841C178.542121 271.801841 178.844534 272.077963 178.885864 272.433694L178.890678 272.517109 178.890678 310.379174C178.890678 317.017521 173.5695 322.413412 166.958616 322.536579L166.727487 322.53873 52.4610924 322.53873C52.0659427 322.53873 51.7456106 322.218494 51.7456106 321.823462 51.7456106 321.456647 52.0218153 321.154324 52.3776521 321.113006L52.4610924 321.108194 166.727487 321.108194C172.579704 321.108194 177.337889 316.425487 177.457412 310.603645L177.459714 310.379174 177.459714 272.517109C177.459714 272.122077 177.780046 271.801841 178.175196 271.801841ZM67.5172314 23.5567052C67.9123811 23.5567052 68.2327132 23.8769415 68.2327132 24.2719732 68.2327132 24.6387882 67.9565085 24.9411115 67.6006717 24.982429L67.5172314 24.9872412 20.7692051 24.9872412C14.9169884 24.9872412 10.1588034 29.669948 10.0392807 35.49179L10.0369785 35.7162612 10.029664 55.092307 10.0173717 67.3871893 10.0167449 70.8115322C10.0167449 71.2065638 9.69641276 71.5268002 9.30126309 71.5268002 8.93433839 71.5268002 8.63192476 71.250678 8.59059488 70.8949476L8.58578131 70.8115322 8.58857025 64.0671478 8.60443537 46.1119082 8.6060149 35.7162612C8.6060149 29.0779139 13.9271928 23.682023 20.5380761 23.5588566L20.7692051 23.5567052 67.5172314 23.5567052ZM93.7281127 0C103.606854 0 111.615157 8.00590982 111.615157 17.8817001 111.615157 27.7574903 103.606854 35.7634001 93.7281127 35.7634001 83.8493708 35.7634001 75.8410683 27.7574903 75.8410683 17.8817001 75.8410683 8.00590982 83.8493708 0 93.7281127 0ZM93.7281127 1.430536C84.6396702 1.430536 77.2720318 8.79597304 77.2720318 17.8817001 77.2720318 26.9674271 84.6396702 34.3328641 93.7281127 34.3328641 102.816555 34.3328641 110.184194 26.9674271 110.184194 17.8817001 110.184194 8.79597304 102.816555 1.430536 93.7281127 1.430536Z"/><path fill="#FFF" d="M11.4477084,0.715268002 C13.8572791,0.715268002 15.9190976,2.20372663 16.7633403,4.31107988 C16.9166459,4.29796647 17.0730081,4.29160801 17.2303021,4.29160801 C19.9397021,4.29160801 22.1799351,6.1838019 22.1799351,8.58321603 C22.1799351,10.5617754 20.6566509,12.1954418 18.6031217,12.7076586 L18.6025262,18.8830753 C18.6025262,20.2491688 17.5773485,21.3803097 16.2673632,21.4542012 L16.1308619,21.4580401 L6.76455497,21.4580401 C5.43580811,21.4580401 4.36633886,20.3724356 4.29651729,19.0235234 L4.29289066,18.8830753 L4.29236051,12.710611 C2.23940809,12.2016538 0.715481776,10.5650698 0.715481776,8.58321603 C0.715481776,6.18451949 2.94787839,4.29160801 5.64870401,4.29160801 C5.81114323,4.29160801 5.97258332,4.29843573 6.13259363,4.31196459 C6.97500867,2.20467288 9.03737199,0.715268002 11.4477084,0.715268002 Z M11.4477084,2.14580401 C9.07681037,2.14580401 7.15481776,4.06722236 7.15481776,6.43741202 C7.15481776,6.83244363 6.83448566,7.15268002 6.43933598,7.15268002 C6.04418631,7.15268002 5.72385421,6.83244363 5.72385421,6.43741202 C5.72385421,6.19622666 5.73878039,5.95852644 5.76775967,5.72518421 C5.72915053,5.72270129 5.68897875,5.72214402 5.64870401,5.72214402 C3.69074216,5.72214402 2.14644533,7.03159646 2.14644533,8.58321603 C2.14644533,10.0905036 3.60375728,11.3692645 5.48191813,11.4411061 L5.64870401,11.444288 L5.72385421,11.444288 L5.72385421,18.8830753 C5.72385421,19.4884303 6.14793568,19.9711392 6.67124276,20.0229051 L6.76455497,20.0275041 L16.1308619,20.0275041 C16.6647185,20.0275041 17.1184586,19.5784261 17.1672265,18.9885667 L17.1715626,18.8830753 L17.1714818,17.166268 L11.4477084,17.1664321 C11.0525587,17.1664321 10.7322266,16.8461957 10.7322266,16.4511641 C10.7322266,16.084349 11.0084314,15.7820257 11.3642681,15.7407082 L11.4477084,15.7358961 L17.1714818,15.735268 L17.1715626,11.444288 L17.2303021,11.444288 C19.1978164,11.444288 20.7489715,10.134118 20.7489715,8.58321603 C20.7489715,7.03231406 19.1978164,5.72214402 17.2303021,5.72214402 L17.1275327,5.72418277 C17.1565937,5.95784634 17.1715626,6.19588161 17.1715626,6.43741202 C17.1715626,6.83244363 16.8512305,7.15268002 16.4560808,7.15268002 C16.0609312,7.15268002 15.7405991,6.83244363 15.7405991,6.43741202 C15.7405991,4.06722236 13.8186065,2.14580401 11.4477084,2.14580401 Z" transform="translate(82.29 6.033)"/><path fill="#FFF" d="M25.0620957,136.283285 C26.2052073,136.283285 27.1396122,137.176598 27.2048973,138.303007 L27.2085411,138.429089 L27.2085411,146.251681 C27.2085411,147.394451 26.3149616,148.328576 25.1882157,148.393842 L25.0620957,148.397485 L20.7692051,148.397485 C19.6260935,148.397485 18.6916887,147.504172 18.6264035,146.377763 L18.6227598,146.251681 L18.6227598,145.581769 C18.6227598,144.438999 19.5163392,143.504873 20.6430851,143.439608 L20.7692051,143.435965 L21.4846869,143.435965 C21.8516116,143.435965 22.1540252,143.159843 22.1953551,142.804112 L22.2001686,142.720697 L22.2001686,141.960073 C22.2001686,141.593258 21.9239639,141.290934 21.5681272,141.249617 L21.4846869,141.244805 L17.1917962,141.244805 C16.8248715,141.244805 16.5224579,141.520927 16.481128,141.876657 L16.4763144,141.960073 L16.4763144,149.873377 C16.4763144,150.240192 16.7525192,150.542515 17.1083559,150.583833 L17.1917962,150.588645 L30.0704682,150.588645 C30.4656179,150.588645 30.78595,150.908881 30.78595,151.303913 C30.78595,151.670728 30.5097452,151.973051 30.1539085,152.014369 L30.0704682,152.019181 L17.1917962,152.019181 C16.0486847,152.019181 15.1142798,151.125869 15.0489946,149.999459 L15.0453509,149.873377 L15.0453509,141.960073 C15.0453509,140.817303 15.9389304,139.883177 17.0656762,139.817911 L17.1917962,139.814269 L21.4846869,139.814269 C22.6277984,139.814269 23.5622033,140.707581 23.6274885,141.83399 L23.6311322,141.960073 L23.6311322,142.720697 C23.6311322,143.863467 22.7375527,144.797593 21.6108068,144.862858 L21.4846869,144.866501 L20.7692051,144.866501 C20.4022804,144.866501 20.0998668,145.142623 20.0585369,145.498354 L20.0537233,145.581769 L20.0537233,146.251681 C20.0537233,146.618496 20.329928,146.920819 20.6857648,146.962137 L20.7692051,146.966949 L25.0620957,146.966949 C25.4290204,146.966949 25.7314341,146.690826 25.772764,146.335096 L25.7775775,146.251681 L25.7775775,138.429089 C25.7775775,138.062274 25.5013728,137.759951 25.145536,137.718633 L25.0620957,137.713821 L12.1834238,137.713821 C11.0403122,137.713821 10.1059073,138.607134 10.0406222,139.733543 L10.0369785,139.859625 L10.0369785,297.50435 C10.0369785,297.899382 9.71664635,298.219618 9.32149668,298.219618 C8.95457198,298.219618 8.65215835,297.943496 8.61082847,297.587765 L8.6060149,297.50435 L8.6060149,139.859625 C8.6060149,137.936445 10.1244867,136.367817 12.0282432,136.286589 L12.1834238,136.283285 L25.0620957,136.283285 Z" transform="matrix(1 0 0 -1 0 434.503)"/><path fill="#FFF" d="M53.4289705,299.902475 C53.7958952,299.902475 54.0983088,300.178597 54.1396387,300.534328 L54.1444523,300.617743 L54.1444523,317.994801 C54.1444523,319.917981 52.6259805,321.48661 50.722224,321.567837 L50.5670434,321.571141 L36.2574079,321.571141 C35.1142963,321.571141 34.1798914,320.677829 34.1146063,319.55142 L34.1109625,319.425337 L34.1109625,311.512033 C34.1109625,310.369263 35.004542,309.435137 36.1312879,309.369871 L36.2574079,309.366229 L40.5502985,309.366229 C41.6934101,309.366229 42.627815,310.259541 42.6931001,311.385951 L42.6967438,311.512033 L42.6967438,312.272657 C42.6967438,313.415427 41.8031644,314.349553 40.6764185,314.414819 L40.5502985,314.418461 L39.8348167,314.418461 C39.467892,314.418461 39.1654784,314.694583 39.1241485,315.050314 L39.119335,315.133729 L39.119335,315.803641 C39.119335,316.170456 39.3955397,316.472779 39.7513764,316.514097 L39.8348167,316.518909 L44.1277074,316.518909 C44.4946321,316.518909 44.7970457,316.242787 44.8383756,315.887056 L44.8431892,315.803641 L44.8431892,307.981049 C44.8431892,307.614234 44.5669845,307.311911 44.2111477,307.270593 L44.1277074,307.265781 L31.2490354,307.265781 C30.8538858,307.265781 30.5335537,306.945545 30.5335537,306.550513 C30.5335537,306.183698 30.8097584,305.881375 31.1655951,305.840057 L31.2490354,305.835245 L44.1277074,305.835245 C45.270819,305.835245 46.2052238,306.728558 46.270509,307.854967 L46.2741527,307.981049 L46.2741527,315.803641 C46.2741527,316.946411 45.3805732,317.880537 44.2538274,317.945802 L44.1277074,317.949445 L39.8348167,317.949445 C38.6917052,317.949445 37.7573003,317.056132 37.6920151,315.929723 L37.6883714,315.803641 L37.6883714,315.133729 C37.6883714,313.990959 38.5819509,313.056833 39.7086968,312.991568 L39.8348167,312.987925 L40.5502985,312.987925 C40.9172232,312.987925 41.2196368,312.711803 41.2609667,312.356073 L41.2657803,312.272657 L41.2657803,311.512033 C41.2657803,311.145218 40.9895756,310.842894 40.6337388,310.801577 L40.5502985,310.796765 L36.2574079,310.796765 C35.8904832,310.796765 35.5880695,311.072887 35.5467397,311.428617 L35.5419261,311.512033 L35.5419261,319.425337 C35.5419261,319.792152 35.8181308,320.094476 36.1739676,320.135793 L36.2574079,320.140605 L50.5670434,320.140605 C51.7101549,320.140605 52.6445598,319.247293 52.709845,318.120884 L52.7134887,317.994801 L52.7134887,300.617743 C52.7134887,300.222711 53.0338208,299.902475 53.4289705,299.902475 Z" transform="rotate(90 42.339 310.737)"/><path fill="#FFF" d="M142.758848,18.1921951 C143.901959,18.1921951 144.836364,19.0855076 144.901649,20.2119169 L144.905293,20.3379991 L144.905293,28.1605908 C144.905293,29.3033608 144.011714,30.2374865 142.884968,30.3027522 L142.758848,30.3063948 L138.465957,30.3063948 C137.322846,30.3063948 136.388441,29.4130823 136.323156,28.2866731 L136.319512,28.1605908 L136.319512,27.4906792 C136.319512,26.3479092 137.213091,25.4137834 138.339837,25.3485178 L138.465957,25.3448752 L139.181439,25.3448752 C139.548364,25.3448752 139.850777,25.068753 139.892107,24.7130225 L139.896921,24.6296072 L139.896921,23.8689828 C139.896921,23.5021677 139.620716,23.1998444 139.264879,23.1585269 L139.181439,23.1537148 L134.888548,23.1537148 C134.521624,23.1537148 134.21921,23.429837 134.17788,23.7855674 L134.173067,23.8689828 L134.173067,31.7822872 C134.173067,32.1491022 134.449271,32.4514255 134.805108,32.4927431 L134.888548,32.4975552 L147.76722,32.4975552 C148.16237,32.4975552 148.482702,32.8177916 148.482702,33.2128232 C148.482702,33.5796383 148.206497,33.8819615 147.850661,33.9232791 L147.76722,33.9280912 L134.888548,33.9280912 C133.745437,33.9280912 132.811032,33.0347787 132.745747,31.9083695 L132.742103,31.7822872 L132.742103,23.8689828 C132.742103,22.7262128 133.635683,21.7920871 134.762428,21.7268214 L134.888548,21.7231788 L139.181439,21.7231788 C140.324551,21.7231788 141.258955,22.6164913 141.324241,23.7429005 L141.327884,23.8689828 L141.327884,24.6296072 C141.327884,25.7723772 140.434305,26.7065029 139.307559,26.7717685 L139.181439,26.7754112 L138.465957,26.7754112 C138.099033,26.7754112 137.796619,27.0515334 137.755289,27.4072638 L137.750475,27.4906792 L137.750475,28.1605908 C137.750475,28.5274059 138.02668,28.8297291 138.382517,28.8710467 L138.465957,28.8758588 L142.758848,28.8758588 C143.125773,28.8758588 143.428186,28.5997366 143.469516,28.2440062 L143.47433,28.1605908 L143.47433,20.3379991 C143.47433,19.9711841 143.198125,19.6688608 142.842288,19.6275433 L142.758848,19.6227311 L130.595658,19.6227311 C129.062956,19.6227311 127.811662,20.8272199 127.737233,22.3410068 L127.733731,22.4838032 L127.733731,50.3792552 C127.733731,50.7742869 127.413399,51.0945232 127.018249,51.0945232 C126.651324,51.0945232 126.348911,50.818401 126.307581,50.4626706 L126.302767,50.3792552 L126.302767,22.4838032 C126.302767,20.1674814 128.138389,18.2797641 130.434718,18.1951553 L130.595658,18.1921951 L142.758848,18.1921951 Z" transform="rotate(90 137.393 34.643)"/><path fill="#FFF" d="M178.154868,46.4452812 C178.521792,46.4452812 178.824243,46.7213149 178.865619,47.0770399 L178.870444,47.1604547 L178.889762,197.411108 C178.890678,199.337626 177.372074,200.90625 175.468439,200.987041 L175.313269,200.990309 L161.003633,200.990309 C159.860522,200.990309 158.926117,200.096996 158.860832,198.970587 L158.857188,198.844505 L158.857188,190.9312 C158.857188,189.78843 159.750767,188.854304 160.877513,188.789039 L161.003633,188.785396 L165.296524,188.785396 C166.439635,188.785396 167.37404,189.678709 167.439325,190.805118 L167.442969,190.9312 L167.442969,191.691825 C167.442969,192.834595 166.54939,193.76872 165.422644,193.833986 L165.296524,193.837629 L164.581042,193.837629 C164.214117,193.837629 163.911704,194.113751 163.870374,194.469481 L163.86556,194.552897 L163.86556,195.222808 C163.86556,195.589623 164.141765,195.891947 164.497602,195.933264 L164.581042,195.938076 L168.873933,195.938076 C169.240857,195.938076 169.543271,195.661954 169.584601,195.306224 L169.589414,195.222808 L169.589414,187.400217 C169.589414,187.033401 169.31321,186.731078 168.957373,186.689761 L168.873933,186.684949 L155.995261,186.684949 C155.600111,186.684949 155.279779,186.364712 155.279779,185.969681 C155.279779,185.602865 155.555984,185.300542 155.91182,185.259225 L155.995261,185.254413 L168.873933,185.254413 C170.017044,185.254413 170.951449,186.147725 171.016734,187.274134 L171.020378,187.400217 L171.020378,195.222808 C171.020378,196.365578 170.126799,197.299704 169.000053,197.36497 L168.873933,197.368612 L164.581042,197.368612 C163.437931,197.368612 162.503526,196.4753 162.43824,195.34889 L162.434597,195.222808 L162.434597,194.552897 C162.434597,193.410127 163.328176,192.476001 164.454922,192.410735 L164.581042,192.407093 L165.296524,192.407093 C165.663449,192.407093 165.965862,192.13097 166.007192,191.77524 L166.012006,191.691825 L166.012006,190.9312 C166.012006,190.564385 165.735801,190.262062 165.379964,190.220744 L165.296524,190.215932 L161.003633,190.215932 C160.636708,190.215932 160.334295,190.492054 160.292965,190.847785 L160.288151,190.9312 L160.288151,198.844505 C160.288151,199.21132 160.564356,199.513643 160.920193,199.55496 L161.003633,199.559773 L175.31344,199.559773 C176.456408,199.560046 177.390787,198.666845 177.45607,197.54043 L177.459336,197.414063 L177.43948,47.1606436 C177.439428,46.765612 177.759718,46.4452812 178.154868,46.4452812 Z" transform="matrix(1 0 0 -1 0 247.436)"/><g fill="#FFF" transform="rotate(180 93.728 129.821)"><path d="M0.245660384,15.0873386 C0.543672803,14.8279323 0.995612816,14.8591565 1.25509665,15.1570799 C2.70249244,16.8188907 5.25825448,17.6991637 8.96146147,17.7495069 L9.30127875,17.7517959 C16.8005392,17.7517959 20.7489872,20.613051 20.7489872,26.2778541 C20.7489872,31.1006398 18.9709559,33.6704287 15.9299872,34.5067482 C15.0519613,34.7482207 14.2875318,34.8207556 13.1813192,34.8176414 L12.1632059,34.8039123 C8.76643124,34.8039123 5.72386987,32.5531147 5.72386987,28.4080696 C5.72386987,26.0292604 7.37734444,24.2735679 9.53470948,23.8930651 C11.7266886,23.5064573 13.5941694,24.7206589 13.5941694,26.987926 C13.5941694,27.3829576 13.2738373,27.703194 12.8786876,27.703194 C12.483538,27.703194 12.1632059,27.3829576 12.1632059,26.987926 C12.1632059,25.7026512 11.1704653,25.0571896 9.78332979,25.301844 C8.27841723,25.5672713 7.15483342,26.7603151 7.15483342,28.4080696 C7.15483342,31.586113 9.38355101,33.3010621 11.9959535,33.371139 L12.6733083,33.3807636 C13.9533266,33.4062329 14.707664,33.3592283 15.5504301,33.1274528 C17.9427769,32.4695156 19.3180236,30.4818714 19.3180236,26.2778541 C19.3180236,21.5916331 16.1868443,19.2526707 9.60292677,19.1838949 L9.30127875,19.1823319 C5.03910816,19.1823319 1.98306797,18.1713544 0.175898219,16.0964733 C-0.0835856203,15.7985499 -0.0523520349,15.3467449 0.245660384,15.0873386 Z"/><path d="M9.28560281,8.52103374 C17.755464,8.33547316 23.7440817,12.0500583 27.0997195,19.5424368 C29.4994873,23.9031972 32.7626455,26.1187791 36.942625,26.2661402 L37.205068,26.272658 L60.8159666,26.272658 C61.2111163,26.272658 61.5314484,26.5928944 61.5314484,26.987926 C61.5314484,27.354741 61.2552437,27.6570643 60.8994069,27.6983818 L60.8159666,27.703194 L37.1946947,27.703194 C32.3384681,27.6327253 28.5331531,25.1150306 25.8199119,20.1796904 C22.7210266,13.265969 17.3741124,9.8770745 9.64386575,9.94610915 L9.30127875,9.95139805 L0.715497437,9.95139805 C0.320347763,9.95139805 1.566054e-05,9.63116166 1.566054e-05,9.23613005 C1.566054e-05,8.86931498 0.276220381,8.56699171 0.632057147,8.52567418 L0.715497437,8.52086204 L9.28560281,8.52103374 Z"/><path d="M9.30127875-5.68252066e-14C20.1540583-5.68252066e-14 27.7811702 3.41845739 32.0820679 10.267946L32.7840096 11.3462158 33.4281558 12.3191648 33.8762456 12.982835 34.2965847 13.5922944 34.6912126 14.1496995 35.062169 14.657207 35.2973298 14.9688895 35.5234807 15.2599928 35.7412261 15.5311558 35.9511705 15.7830176C35.9855447 15.8234216 36.019619 15.863048 36.053406 15.9019102L36.2527818 16.1260183 36.4458673 16.3324226C36.5092479 16.3983444 36.5716809 16.4614221 36.6332669 16.5217622L36.8155848 16.6946761 36.9934255 16.8518032 37.1673933 16.9937826C37.3109206 17.1059647 37.4510432 17.2030335 37.5893347 17.2866531L37.7545065 17.3806474C37.9738322 17.4976497 38.1900823 17.581926 38.4097029 17.6402923L38.5751511 17.6793153C38.6028647 17.6850449 38.6306561 17.6903964 38.658538 17.6953829L38.8270153 17.7210296 38.9982674 17.7385576C39.0270742 17.7408379 39.0560218 17.7428065 39.0851228 17.7444767L39.2616703 17.7510246 47.2218129 17.7518132C47.6169625 17.7518132 47.9372947 18.0720496 47.9372947 18.4670812 47.9372947 18.8338962 47.6610899 19.1362195 47.3052532 19.1775371L47.2218129 19.1823492 39.3515133 19.1823492C39.2727357 19.1823492 39.195076 19.1811847 39.1184292 19.1787586L38.8914225 19.1675983C38.1067992 19.1146105 37.4222648 18.9118236 36.7161792 18.4468221L36.513749 18.3067323C36.1750376 18.0610338 35.8288124 17.7534485 35.4619387 17.3718378L35.2392316 17.1338912C35.2016657 17.0927206 35.1638671 17.0507854 35.1258226 17.0080736L34.8945 16.7423854C34.8554194 16.6965183 34.8160666 16.6498503 34.7764286 16.6023692L34.5350718 16.3076284 34.2862375 15.9927909 34.0292953 15.6572741 33.7636146 15.3004952 33.4885651 14.9218717 33.2035162 14.5208208 32.9078375 14.09676 32.6008986 13.6491066 32.117998 12.9321157 31.7801501 12.4229316 31.2479307 11.6109136 30.8752335 11.0365572C26.9148778 4.72951635 19.8998427 1.52155945 9.73868347 1.43244562L9.30127875 1.430536.715497437 1.430536C.320347763 1.430536.00001566054 1.11029961.00001566054.715268002.00001566054.348452936.276220381.0461296643.632057147.00481213095L.715497437-5.68252066e-14 9.30127875-5.68252066e-14ZM25.9615545 36.2396607C28.273776 33.9335078 32.0723168 33.2076039 37.3103291 33.9864608 37.7011791 34.0445776 37.9708986 34.4084423 37.9127645 34.7991755 37.8546304 35.1899087 37.4906569 35.4595476 37.0998069 35.4014308 32.2652133 34.6825595 28.9049668 35.3247051 26.9722195 37.2523798L26.0438028 38.1727217 25.7295347 38.4777072C21.5895714 42.4676192 17.8976596 44.3466161 12.1695572 44.3466161 7.02611858 44.3466161 3.00585068 42.666012.168661405 39.3044308-.0861595266 39.0025118-.0479058762 38.5512467.254103325 38.2965019.556112525 38.0417571 1.00751254 38.0799993 1.26233347 38.3819183 3.81346359 41.4045686 7.42923552 42.9160801 12.1695572 42.9160801 17.3613989 42.9160801 20.6956618 41.2753295 24.4883578 37.6847548L25.0250905 37.167758 25.5842868 36.6155056 25.9615545 36.2396607Z"/></g></g></svg>