<svg xmlns="http://www.w3.org/2000/svg" xmlns:xlink="http://www.w3.org/1999/xlink" width="188" height="332" viewBox="0 0 188 332"><defs><polygon id="a" points="0 0 32.757 0 32.757 18.362 0 18.362"/></defs><g fill="none" fill-rule="evenodd" transform="translate(.453 .099)"><path fill="#000" d="M93.6115033,0.59277311 C102.41045,0.59277311 109.663678,7.20880486 110.665079,15.7361661 L168.919744,15.7358961 C178.36686,15.7358961 186.025262,23.4215695 186.025262,32.9023281 L186.025262,313.287385 C186.025262,322.768144 178.36686,330.453817 168.919744,330.453817 L17.8209999,330.453817 C8.37388311,330.453817 0.715481776,322.768144 0.715481776,313.287385 L0.715481776,32.9023281 C0.715481776,23.4215695 8.37388311,15.7358961 17.8209999,15.7358961 L76.5579275,15.7361661 C77.5593283,7.20880486 84.8125564,0.59277311 93.6115033,0.59277311 Z"/><path fill="#FFF" d="M94.4435944,112.297076 C124.47497,112.297076 148.820209,136.635042 148.820209,166.657445 C148.820209,196.679847 124.47497,221.017813 94.4435944,221.017813 C64.4122192,221.017813 40.0669795,196.679847 40.0669795,166.657445 C40.0669795,136.635042 64.4122192,112.297076 94.4435944,112.297076 Z M94.4435944,113.727612 C65.2025186,113.727612 41.497943,137.425105 41.497943,166.657445 C41.497943,195.889784 65.2025186,219.587277 94.4435944,219.587277 C123.68467,219.587277 147.389246,195.889784 147.389246,166.657445 C147.389246,137.425105 123.68467,113.727612 94.4435944,113.727612 Z"/><ellipse cx="94.444" cy="166.657" fill="#00E5A6" rx="48.653" ry="48.638"/><path fill="#FFF" d="M94.4435944,118.01922 C121.313772,118.01922 143.096355,139.795295 143.096355,166.657445 C143.096355,193.519594 121.313772,215.295669 94.4435944,215.295669 C67.5734166,215.295669 45.7908337,193.519594 45.7908337,166.657445 C45.7908337,139.795295 67.5734166,118.01922 94.4435944,118.01922 Z M94.4435944,119.449756 C68.363716,119.449756 47.2217972,140.585358 47.2217972,166.657445 C47.2217972,192.729531 68.363716,213.865133 94.4435944,213.865133 C120.523473,213.865133 141.665392,192.729531 141.665392,166.657445 C141.665392,140.585358 120.523473,119.449756 94.4435944,119.449756 Z"/><g transform="translate(40.995 114.944)"><path fill="#FF6963" d="M48.5380435,71.5494099 C48.5380435,71.5400682 48.4184174,71.4111525 48.3504941,71.4111525 C48.2825708,71.4111525 48.1305038,71.5979869 48.1305038,71.5979869 C47.6317238,71.6811282 47.6236136,72.6676141 48.0291257,72.7488871 C48.1223935,72.7675705 47.7533774,73.464463 48.1903168,73.4962248 C48.9334179,73.551341 48.6323251,72.9506682 48.7184964,72.851646 C49.3551505,72.1285967 48.9851207,71.6755232 48.5380435,71.5494099"/><g transform="translate(33.844)"><mask id="b" fill="#fff"><use xlink:href="#a"/></mask><path fill="#FFF" d="M17.0207709,17.2729842 C22.3573111,15.4046398 26.9304745,15.3112225 28.3882908,14.9814598 C35.8517422,13.2831347 33.2980293,1.18653882 24.1800882,4.49257426 C20.395646,5.86393905 16.688251,5.35107851 15.206104,2.76342151 C12.2722235,-2.36331555 0.393758322,-0.0914087502 0.00953554409,7.3847714 C-0.257088706,12.568493 5.0591758,21.4646149 17.0207709,17.2729842" mask="url(#b)"/></g><path fill="#FFF" d="M19.1372315 19.5853841C12.6490368 21.8591592 7.08743742 21.9693916 5.31433547 22.372954-3.76204061 24.4430796-.660886311 39.1488184 10.431899 35.1290754 15.0334483 33.4606438 19.5427436 34.0846709 21.3442314 37.231897 24.9117247 43.4656282 39.3570819 40.7032809 39.8244346 31.6119171 40.1488444 25.3071888 33.6839667 14.4885406 19.1372315 19.5853841M80.9062078 34.5884022C82.5373805 34.5211418 84.2881793 33.5608128 84.871103 33.9942687 85.9619307 34.8013935 87.8303281 36.8584407 89.5841682 37.077037 92.2798103 37.4198781 95.7104432 35.3721727 96.703948 35.1591814 97.6974529 34.9461902 98.8856035 36.7668918 99.7250137 37.120943 104.02547 38.949118 108.384726 30.7993997 102.615302 29.1692692L102.600095 29.1645984C102.600095 29.1645984 79.7900356 27.9305569 75.7977683 32.1773037 73.6911326 34.419317 79.4098679 34.6435184 80.9062078 34.5809288M86.7074468 77.425992C81.1539577 78.9907304 76.5047607 78.7964226 75.0013243 79.0411757 67.2965932 80.2985715 69.0017718 92.7352061 78.4998806 89.9504387 82.4414588 88.7948677 86.1671018 89.5478105 87.4799475 92.2671858 90.0802943 97.6536227 102.304459 96.0907526 103.245247 88.530497 103.897108 83.2860542 99.1566703 73.9237804 86.7074468 77.4297287"/><path fill="#000" d="M48.614077,71.6988682 C47.9713402,71.5531373 47.7107987,71.838994 47.6063793,72.2462931 C47.5212217,72.5825951 46.7355419,73.3439454 48.7286342,73.2692116 C49.6826016,73.2337131 49.2527587,71.8436648 48.614077,71.6988682"/><path fill="#000" d="M48.4234863 72.0174209C48.7610752 71.6867239 48.9618037 71.0206591 49.1919319 71.2700831 49.42206 71.5195071 48.5066163 72.1556784 48.5066163 72.1556784L48.4234863 72.0174209ZM69.4421957 49.3254439C66.8002839 45.3299893 61.3877103 40.9487217 57.8790163 37.087788 56.9848619 36.1050388 63.1557433 33.4818833 64.4898783 33.5211185 65.8240134 33.5603538 68.3422439 39.9173956 70.3809564 39.219569 72.4196688 38.5217423 68.9251677 31.2221207 69.7483574 30.5691344 70.5715471 29.916148 91.2475987 18.0418851 92.5928853 20.0727755 93.9381719 22.1036658 95.0259583 23.6104856 94.8546294 24.5894981 94.6833005 25.5685105 85.327121 35.7556584 83.6695901 37.3680397 82.0120591 38.9804209 88.8479804 48.0381546 88.8479804 48.0381546L75.8158332 59.1108977C75.8158332 59.1108977 71.435288 52.3344125 69.4421957 49.3254439"/><path fill="#FFF" d="M69.1715163,82.8155174 C70.6921869,81.7402852 98.7140914,71.3933938 97.1072495,61.9694646 C96.2708806,57.0641264 89.6792804,47.4524286 88.5438463,41.5297768 C87.9153024,38.2527007 62.279837,52.3661744 63.0594342,53.3003466 C70.7438897,62.4841935 68.7487699,67.846342 68.6747639,68.9066274 C68.5328347,70.9674113 60.4560461,77.9905179 63.0989716,82.6520372 C64.0722008,84.3783875 69.1715163,82.8155174 69.1715163,82.8155174"/><path fill="#000" d="M30.478549,48.5351342 C33.1214745,44.5424822 38.5320206,40.1602804 42.0417284,36.2974783 C42.9358828,35.3147292 36.7700703,32.6915736 35.4318801,32.7308088 C34.09369,32.7700441 31.5734319,39.1270859 29.5408021,38.4292593 C27.5081724,37.7314326 30.9965908,30.4308769 30.1734011,29.7778905 C29.3502114,29.1249041 8.67111845,17.2534438 7.32887318,19.2834 C5.98662791,21.3133562 4.89580018,22.8220443 5.06712907,23.8010567 C5.23845796,24.7800692 14.596665,34.9681513 16.2511546,36.5814667 C17.9056443,38.1947821 11.073778,47.2506474 11.073778,47.2506474 L24.1059253,58.3233905 C24.1059253,58.3233905 28.4854567,51.5469054 30.478549,48.5351342"/><path fill="#FFF" d="M30.7492385,82.0280102 C29.2285679,80.952778 1.20767716,70.6049525 2.81350534,61.1819575 C3.64987418,56.2756851 10.2414745,46.6649214 11.3779223,40.7422697 C12.0064662,37.4651936 37.6409178,51.5786672 36.8623344,52.5128394 C29.1778789,61.6966864 31.1729987,67.0588348 31.2459909,68.1191203 C31.388934,70.1799041 39.4657225,77.2030108 36.8278659,81.8645301 C35.8495678,83.5908803 30.7492385,82.0280102 30.7492385,82.0280102"/><path fill="#FF6963" d="M89.3822427,63.5248614 C89.8394577,61.6425044 90.6565647,59.5284727 91.2628054,58.6858494 C91.8386327,57.8880663 92.9659565,57.5583035 93.1088995,58.3504815 C93.1839193,58.7633856 92.9608876,60.1067253 92.7317732,61.293124 C94.6822867,59.5181968 94.708645,58.4906074 95.4385669,56.9604333 C95.742701,57.1575436 96.4067272,58.5877613 96.1542959,60.1263429 L96.1786266,60.1188695 C97.3150745,59.7937776 97.8280474,61.3332934 95.7812247,62.9923832 C96.1370616,62.9353987 96.4503198,62.9708973 96.6997098,63.1390482 C97.2927713,63.538874 96.8801627,64.2703308 96.0164218,65.0569038 C97.3343363,64.9690916 96.8872591,67.0186654 95.322996,68.1592897 C94.556578,68.719793 91.4087898,71.9613705 90.2449698,72.2154654 C87.7024086,72.7684953 83.3948556,73.4298892 80.7448336,71.8231131 C79.7878248,71.2420579 80.6647449,68.491855 80.6647449,68.491855 C83.4972474,66.7010469 86.8335987,64.7626395 89.3822427,63.5248614"/><path fill="#000" d="M83.2529263,63.6294887 C80.008829,66.2853402 74.6297101,79.8691382 70.142718,80.5912534 C59.3540668,82.325077 49.7971588,73.9931951 48.7266066,73.2692116 C47.7290467,72.5956735 48.4407206,93.522065 61.1038518,94.5683379 C77.6234037,95.9406368 88.0501352,83.4358077 92.6547259,77.936336 C98.4657152,70.998239 85.3352313,61.9236902 83.2529263,63.6294887"/><path fill="#000" d="M42.1258823,82.6753916 C34.0622729,84.8669595 23.8778348,88.3149891 23.5858661,90.7840063 C34.2498223,96.7627084 55.3354412,96.7757868 69.851763,93.9919536 C80.2328744,90.8680818 55.7227053,78.9816747 42.1258823,82.6753916"/><path fill="#C577FF" d="M79.3843402 21.1321267C62.1237149 19.0507911 33.5351071 19.8382982 19.2103898 21.1321267 17.2304766 21.3114878 17.2406145 14.0567065 19.2103898 13.8007433 31.647448 12.1855596 64.1462068 12.3060678 79.3843402 13.8007433 81.3591845 13.9950511 81.3591845 21.3703407 79.3843402 21.1321267M32.6561595 57.2266724C28.8453589 56.1056657 21.4518583 51.6113632 18.4520821 49.0797566 16.1731037 47.1581644 32.9461007 25.7843043 35.7157488 27.8609691 39.0633531 30.3689413 42.7813928 32.4251477 46.7578451 33.9676528 50.1347476 35.286704 35.2179826 57.978681 32.6561595 57.2266724"/><path fill="#FFD600" d="M31.564318 32.2945504C31.0087663 33.1483838 31.767074 33.5547487 32.6916418 34.0694776 33.6162095 34.5842065 34.3643795 35.0036498 34.9219587 34.1507506 35.4795379 33.2978514 35.4511521 32.341259 34.2508361 31.6779968 33.3257614 31.1642955 32.1240261 31.4388487 31.5664469 32.2911874 31.5657373 32.2923084 31.5650276 32.2934294 31.564318 32.2945504M40.0983215 36.0601986C40.6528594 35.2063652 39.8955654 34.8000003 38.9699839 34.2852714 38.0444024 33.7705425 37.29826 33.3510992 36.739667 34.2039984 36.181074 35.0568976 36.2114874 36.01349 37.4118034 36.6767522 38.7692554 37.4231558 39.5437836 36.9102953 40.0983215 36.0601986M41.240852 36.7739061C40.6853004 37.6277395 40.996531 38.6534606 41.9221125 39.165387 42.847694 39.6773133 43.5948502 40.0995592 44.1524294 39.24666 44.7100086 38.3937607 44.680609 37.4371684 43.4813068 36.7739061 41.8004588 35.8472073 41.7964037 35.9200727 41.240852 36.7739061M20.8364936 47.1945971C20.2809419 48.0484305 21.0392497 48.4547954 21.9638174 48.9695243 22.8883852 49.4842531 23.6355413 49.9036965 24.1941343 49.0507972 24.7527273 48.197898 24.7223139 47.2413057 23.5230117 46.5789776 22.5973288 46.0651829 21.3949852 46.3402032 20.837406 47.1931024 20.8371019 47.1936629 20.8367977 47.19413 20.8364936 47.1945971M29.3715109 50.9574427C29.9270626 50.1036093 29.1687548 49.6972444 28.2441871 49.1825155 27.3196194 48.6677866 26.5724632 48.2483433 26.0138702 49.1012425 25.4552772 49.9541418 25.4856906 50.9107341 26.6860066 51.5730622 28.0424448 52.3241366 28.8159593 51.8103419 29.3715109 50.9574427M30.5140415 51.6739528C29.9584898 52.5277862 30.2687066 53.5535073 31.1953019 54.0654336 32.1218972 54.57736 32.8670258 54.9996058 33.4256188 54.1467066 33.9842118 53.2938074 33.9537984 52.3372151 32.7534824 51.674887 31.0756758 50.7481881 31.0695931 50.8201194 30.5140415 51.6739528"/><path fill="#FF6963" d="M43.4437969,35.0746469 C43.1670348,35.5015636 43.5451749,35.7052131 44.0084726,35.9611763 C44.4717702,36.2171395 44.8438276,36.4282624 45.123631,36.0013457 C45.4034344,35.574429 45.3882277,35.097067 44.7880697,34.7654359 C44.3244679,34.5087254 43.7227893,34.6468894 43.4442024,35.073993 C43.444101,35.0741798 43.4438983,35.0744601 43.4437969,35.0746469"/><path fill="#FFD600" d="M29.0369634,40.1462678 C27.6176708,42.1080294 26.3808587,44.0053332 30.3102716,46.5388082 C32.4189349,47.8980287 35.9996073,47.210478 37.3225907,45.1767851 C38.6455742,43.1430922 37.6662623,40.5918679 35.4592623,39.3727732 C33.2522624,38.1536785 30.4674076,38.1723619 29.0369634,40.1462678"/><path fill="#FFD600" d="M34.6776376 36.8682575C34.1190446 37.0457502 29.3147392 37.6240028 28.189443 39.2718826 27.0641467 40.9197624 26.6789101 44.2416787 27.9096396 45.8279031 29.140369 47.4141275 26.6515381 47.7625738 25.9337815 46.1427192 25.216025 44.5228646 25.4755528 40.266776 26.9475619 38.4516794 28.4195711 36.6365828 32.3408738 35.6734513 33.849379 35.7808811 35.3578843 35.8883109 35.9560147 36.4646951 34.6776376 36.8682575M31.5288357 48.951775C32.0874287 48.7752164 36.8917341 48.1960297 38.0170303 46.5481499 39.1423266 44.9002701 39.5275631 41.579288 38.2968337 39.9921294 37.0661043 38.4049708 39.5549352 38.0574587 40.2726917 39.6782475 40.9904483 41.2990363 40.7309205 45.5541907 39.2589113 47.3683531 37.7869022 49.1825155 33.8655995 50.1475154 32.3570943 50.0400856 30.848589 49.9326558 30.2504585 49.3562715 31.5288357 48.951775"/><path fill="#FFF" d="M33.6547332,40.0668632 C33.0667405,39.7342978 30.0355371,43.8156962 30.423815,44.6928839 C30.8120929,45.5700716 34.9179036,44.1818917 35.1287699,43.857734 C35.373091,43.4821967 34.5225292,40.5591719 33.6547332,40.0668632"/><path fill="#FF6963" d="M26.5694117,54.6819966 C27.8041963,51.2442429 28.7044333,47.1152018 28.6091379,45.2160297 C28.5189115,43.4196165 27.0489299,41.8857058 25.9885155,43.0338034 C25.4349914,43.6326078 24.3867425,45.9941951 23.5128638,48.1082268 C22.2304315,43.5149021 23.2644876,41.8371288 23.6923029,38.7216645 C23.003946,38.7739782 20.4279299,40.4825791 19.2235588,43.1842051 L19.1921316,43.1505749 C17.7018744,41.61573 15.2657601,43.6344761 16.8208992,48.1325153 C16.3079263,47.7242821 15.76454,47.5019491 15.187699,47.550526 C13.8140265,47.6672975 13.7116347,49.2133525 14.2752966,51.2479796 C12.2477358,49.9354677 10.8132365,53.6375921 12.140275,56.8614204 C12.7951772,58.4420397 14.4648735,66.4684473 16.0717155,67.9154801 C19.5895335,71.0664429 31.3797998,63.6584573 31.3797998,63.6584573 C28.6922679,58.2486661 29.3765697,58.9352827 26.5694117,54.6819966"/><path fill="#000" d="M51.2934885,76.3809392 C50.3527003,75.1291485 50.7612538,75.0730982 48.7265965,73.2692116 C48.6797599,73.2156836 48.6159931,73.176822 48.544116,73.1580451 C47.7706016,72.9898941 47.810139,73.4579144 47.5759557,73.6606298 C42.0488249,78.4333156 38.2491759,80.1559291 35.8161029,79.8457839 C31.7285403,79.3226475 44.7312879,64.8990287 34.6553243,58.4681872 C33.4306776,57.6862851 9.65448545,59.8479596 9.57338302,65.5940528 C9.49228059,71.340146 19.0197889,96.9103076 33.4904906,92.1469635 C41.3898676,89.5480965 57.5110038,84.6623758 51.2934885,76.3809392"/><path fill="#FFF" d="M58.3189868 49.6056955C59.2171963 51.1498822 61.9168935 50.2073024 61.4718439 48.0867315 61.3359973 47.4412185 60.0525513 45.2673998 59.1006115 44.4808268 57.958081 43.5335762 57.0953539 47.4972689 58.3189868 49.6056955M49.9157711 62.4038547C50.0678381 59.7040971 45.5169778 59.4229112 45.0749696 61.6854763 44.8722135 62.7186708 44.9634537 63.6350937 42.2221915 64.3394595 40.2108511 64.8560568 40.6599559 67.7473197 43.2359719 67.8164485 44.0196242 67.8379344 45.2838083 66.6954418 46.855168 66.4329394 49.6278574 65.9705242 49.8671096 63.2698324 49.9157711 62.4038547"/></g><path fill="#FFF" d="M71.8876537,15.020628 C72.2828034,15.020628 72.6031355,15.3408644 72.6031355,15.7358961 C72.6031355,16.1027111 72.3269308,16.4050344 71.971094,16.4463519 L71.8876537,16.4511641 L17.8870444,16.4511641 C8.88948633,16.4511641 1.5784884,23.6700289 1.4331682,32.630278 L1.43096355,32.9023281 L1.43096355,313.287385 C1.43096355,322.282255 8.6519859,329.591068 17.614913,329.736345 L17.8870444,329.738549 L169.569181,329.738549 C178.566739,329.738549 185.877737,322.519684 186.023057,313.559435 L186.025262,313.287385 L186.025262,32.9023281 C186.025262,23.9074584 178.804239,16.5986448 169.841312,16.453368 L169.569181,16.4511641 L115.718085,16.4511641 C115.322936,16.4511641 115.002603,16.1309277 115.002603,15.7358961 C115.002603,15.369081 115.278808,15.0667577 115.634645,15.0254402 L115.718085,15.020628 L169.569181,15.020628 C179.349135,15.020628 187.295872,22.8672203 187.453829,32.6066215 L187.456225,32.9023281 L187.456225,313.287385 C187.456225,323.064417 179.607288,331.00878 169.864976,331.169085 L169.569181,331.169085 L17.8870444,331.169085 C8.10708998,331.169085 0.160353095,323.322493 0.0023963529,313.583092 L0,313.287385 L0,32.9023281 C0,23.1252958 7.84893734,15.1809332 17.5912494,15.020628 L17.8870444,15.020628 L71.8876537,15.020628 Z"/><g fill="#FFF" transform="matrix(1 0 0 -1 0 124.457)"><path d="M0.245660384,15.0873386 C0.543672803,14.8279323 0.995612816,14.8591565 1.25509665,15.1570799 C2.70249244,16.8188907 5.25825448,17.6991637 8.96146147,17.7495069 L9.30127875,17.7517959 C16.8005392,17.7517959 20.7489872,20.613051 20.7489872,26.2778541 C20.7489872,31.1006398 18.9709559,33.6704287 15.9299872,34.5067482 C15.0519613,34.7482207 14.2875318,34.8207556 13.1813192,34.8176414 L12.1632059,34.8039123 C8.76643124,34.8039123 5.72386987,32.5531147 5.72386987,28.4080696 C5.72386987,26.0292604 7.37734444,24.2735679 9.53470948,23.8930651 C11.7266886,23.5064573 13.5941694,24.7206589 13.5941694,26.987926 C13.5941694,27.3829576 13.2738373,27.703194 12.8786876,27.703194 C12.483538,27.703194 12.1632059,27.3829576 12.1632059,26.987926 C12.1632059,25.7026512 11.1704653,25.0571896 9.78332979,25.301844 C8.27841723,25.5672713 7.15483342,26.7603151 7.15483342,28.4080696 C7.15483342,31.586113 9.38355101,33.3010621 11.9959535,33.371139 L12.6733083,33.3807636 C13.9533266,33.4062329 14.707664,33.3592283 15.5504301,33.1274528 C17.9427769,32.4695156 19.3180236,30.4818714 19.3180236,26.2778541 C19.3180236,21.5916331 16.1868443,19.2526707 9.60292677,19.1838949 L9.30127875,19.1823319 C5.03910816,19.1823319 1.98306797,18.1713544 0.175898219,16.0964733 C-0.0835856203,15.7985499 -0.0523520349,15.3467449 0.245660384,15.0873386 Z"/><path d="M9.28560281,8.52103374 C17.755464,8.33547316 23.7440817,12.0500583 27.0997195,19.5424368 C29.4994873,23.9031972 32.7626455,26.1187791 36.942625,26.2661402 L37.205068,26.272658 L60.8159666,26.272658 C61.2111163,26.272658 61.5314484,26.5928944 61.5314484,26.987926 C61.5314484,27.354741 61.2552437,27.6570643 60.8994069,27.6983818 L60.8159666,27.703194 L37.1946947,27.703194 C32.3384681,27.6327253 28.5331531,25.1150306 25.8199119,20.1796904 C22.7210266,13.265969 17.3741124,9.8770745 9.64386575,9.94610915 L9.30127875,9.95139805 L0.715497437,9.95139805 C0.320347763,9.95139805 1.56605399e-05,9.63116166 1.56605399e-05,9.23613005 C1.56605399e-05,8.86931498 0.276220381,8.56699171 0.632057147,8.52567418 L0.715497437,8.52086204 L9.28560281,8.52103374 Z"/><path d="M9.30127875 0C20.1540583 0 27.7811702 3.41845739 32.0820679 10.267946L32.7840096 11.3462158 33.4281558 12.3191648 33.8762456 12.982835 34.2965847 13.5922944 34.6912126 14.1496995 35.062169 14.657207 35.2973298 14.9688895 35.5234807 15.2599928 35.7412261 15.5311558 35.9511705 15.7830176C35.9855447 15.8234216 36.019619 15.863048 36.053406 15.9019102L36.2527818 16.1260183 36.4458673 16.3324226C36.5092479 16.3983444 36.5716809 16.4614221 36.6332669 16.5217622L36.8155848 16.6946761 36.9934255 16.8518032 37.1673933 16.9937826C37.3109206 17.1059647 37.4510432 17.2030335 37.5893347 17.2866531L37.7545065 17.3806474C37.9738322 17.4976497 38.1900823 17.581926 38.4097029 17.6402923L38.5751511 17.6793153C38.6028647 17.6850449 38.6306561 17.6903964 38.658538 17.6953829L38.8270153 17.7210296 38.9982674 17.7385576C39.0270742 17.7408379 39.0560218 17.7428065 39.0851228 17.7444767L39.2616703 17.7510246 47.2218129 17.7518132C47.6169625 17.7518132 47.9372947 18.0720496 47.9372947 18.4670812 47.9372947 18.8338962 47.6610899 19.1362195 47.3052532 19.1775371L47.2218129 19.1823492 39.3515133 19.1823492C39.2727357 19.1823492 39.195076 19.1811847 39.1184292 19.1787586L38.8914225 19.1675983C38.1067992 19.1146105 37.4222648 18.9118236 36.7161792 18.4468221L36.513749 18.3067323C36.1750376 18.0610338 35.8288124 17.7534485 35.4619387 17.3718378L35.2392316 17.1338912C35.2016657 17.0927206 35.1638671 17.0507854 35.1258226 17.0080736L34.8945 16.7423854C34.8554194 16.6965183 34.8160666 16.6498503 34.7764286 16.6023692L34.5350718 16.3076284 34.2862375 15.9927909 34.0292953 15.6572741 33.7636146 15.3004952 33.4885651 14.9218717 33.2035162 14.5208208 32.9078375 14.09676 32.6008986 13.6491066 32.117998 12.9321157 31.7801501 12.4229316 31.2479307 11.6109136 30.8752335 11.0365572C26.9148778 4.72951635 19.8998427 1.52155945 9.73868347 1.43244562L9.30127875 1.430536.715497437 1.430536C.320347763 1.430536.0000156605399 1.11029961.0000156605399.715268002.0000156605399.348452936.276220381.0461296643.632057147.00481213095L.715497437 0 9.30127875 0ZM25.9615545 36.2396607C28.273776 33.9335078 32.0723168 33.2076039 37.3103291 33.9864608 37.7011791 34.0445776 37.9708986 34.4084423 37.9127645 34.7991755 37.8546304 35.1899087 37.4906569 35.4595476 37.0998069 35.4014308 32.2652133 34.6825595 28.9049668 35.3247051 26.9722195 37.2523798L26.0438028 38.1727217 25.7295347 38.4777072C21.5895714 42.4676192 17.8976596 44.3466161 12.1695572 44.3466161 7.02611858 44.3466161 3.00585068 42.666012.168661405 39.3044308-.0861595266 39.0025118-.0479058762 38.5512467.254103325 38.2965019.556112525 38.0417571 1.00751254 38.0799993 1.26233347 38.3819183 3.81346359 41.4045686 7.42923552 42.9160801 12.1695572 42.9160801 17.3613989 42.9160801 20.6956618 41.2753295 24.4883578 37.6847548L25.0250905 37.167758 25.5842868 36.6155056 25.9615545 36.2396607Z"/></g><path fill="#FFF" d="M178.175196 271.801841C178.542121 271.801841 178.844534 272.077963 178.885864 272.433694L178.890678 272.517109 178.890678 310.379174C178.890678 317.017521 173.5695 322.413412 166.958616 322.536579L166.727487 322.53873 52.4610924 322.53873C52.0659427 322.53873 51.7456106 322.218494 51.7456106 321.823462 51.7456106 321.456647 52.0218153 321.154324 52.3776521 321.113006L52.4610924 321.108194 166.727487 321.108194C172.579704 321.108194 177.337889 316.425487 177.457412 310.603645L177.459714 310.379174 177.459714 272.517109C177.459714 272.122077 177.780046 271.801841 178.175196 271.801841ZM67.5172314 23.5567052C67.9123811 23.5567052 68.2327132 23.8769415 68.2327132 24.2719732 68.2327132 24.6387882 67.9565085 24.9411115 67.6006717 24.982429L67.5172314 24.9872412 20.7692051 24.9872412C14.9169884 24.9872412 10.1588034 29.669948 10.0392807 35.49179L10.0369785 35.7162612 10.029664 55.092307 10.0173717 67.3871893 10.0167449 70.8115322C10.0167449 71.2065638 9.69641276 71.5268002 9.30126309 71.5268002 8.93433839 71.5268002 8.63192476 71.250678 8.59059488 70.8949476L8.58578131 70.8115322 8.58857025 64.0671478 8.60443537 46.1119082 8.6060149 35.7162612C8.6060149 29.0779139 13.9271928 23.682023 20.5380761 23.5588566L20.7692051 23.5567052 67.5172314 23.5567052ZM93.7281127 0C103.606854 0 111.615157 8.00590982 111.615157 17.8817001 111.615157 27.7574903 103.606854 35.7634001 93.7281127 35.7634001 83.8493708 35.7634001 75.8410683 27.7574903 75.8410683 17.8817001 75.8410683 8.00590982 83.8493708 0 93.7281127 0ZM93.7281127 1.430536C84.6396702 1.430536 77.2720318 8.79597304 77.2720318 17.8817001 77.2720318 26.9674271 84.6396702 34.3328641 93.7281127 34.3328641 102.816555 34.3328641 110.184194 26.9674271 110.184194 17.8817001 110.184194 8.79597304 102.816555 1.430536 93.7281127 1.430536Z"/><path fill="#FFF" d="M19.0479962,0.871902062 C19.3328736,1.09962776 19.397503,1.50066322 19.2116639,1.80367677 L19.1599685,1.87723102 L17.2274453,4.29124156 L18.6025262,4.29160801 C19.7879752,4.29160801 20.7489715,5.25231719 20.7489715,6.43741202 L20.7489715,15.7358961 C20.7489715,16.9209909 19.7879752,17.8817001 18.6025262,17.8817001 L16.8974453,17.8812416 L18.5270355,21.1397541 L18.560035,21.2165197 C18.6821564,21.5531896 18.5351384,21.9353433 18.206928,22.099342 C17.8534707,22.2759561 17.4237201,22.1326819 17.2470533,21.7793302 L17.2470533,21.7793302 L15.2984453,17.8812416 L7.59644533,17.8812416 L5.64823782,21.7753666 C5.47143211,22.1286489 5.04162527,22.2717543 4.68823737,22.0950014 C4.36009147,21.9308738 4.21322372,21.5486623 4.33547738,21.2120405 L4.36850704,21.1352878 L5.99644533,17.8812416 L4.29289066,17.8817001 C3.10744163,17.8817001 2.14644533,16.9209909 2.14644533,15.7358961 L2.14644533,6.43741202 C2.14644533,5.25231719 3.10744163,4.29160801 4.29289066,4.29160801 L13.5354453,4.29124156 L11.6033266,1.87748052 C11.378859,1.59710346 11.3997178,1.19961179 11.6371512,0.944202713 L11.7148498,0.872101666 C12.0233567,0.625261023 12.4736147,0.675176715 12.7205291,0.983591485 L12.7205291,0.983591485 L15.3684453,4.29124156 L15.3954453,4.29124156 L18.0423667,0.983840993 C18.2891433,0.675315986 18.7393789,0.625199219 19.0479962,0.871902062 Z M18.6025262,5.72214402 L4.29289066,5.72214402 C3.92596596,5.72214402 3.62355233,5.99826621 3.58222245,6.35399666 L3.57740888,6.43741202 L3.57740888,15.7358961 C3.57740888,16.1027111 3.8536136,16.4050344 4.20945037,16.4463519 L4.29289066,16.4511641 L18.6025262,16.4511641 C18.9694509,16.4511641 19.2718645,16.1750419 19.3131944,15.8193114 L19.318008,15.7358961 L19.318008,6.43741202 C19.318008,6.07059695 19.0418032,5.76827368 18.6859665,5.72695615 L18.6025262,5.72214402 Z" transform="translate(82.29 6.033)"/><path fill="#FFF" d="M25.0620957,136.283285 C26.2052073,136.283285 27.1396122,137.176598 27.2048973,138.303007 L27.2085411,138.429089 L27.2085411,146.251681 C27.2085411,147.394451 26.3149616,148.328576 25.1882157,148.393842 L25.0620957,148.397485 L20.7692051,148.397485 C19.6260935,148.397485 18.6916887,147.504172 18.6264035,146.377763 L18.6227598,146.251681 L18.6227598,145.581769 C18.6227598,144.438999 19.5163392,143.504873 20.6430851,143.439608 L20.7692051,143.435965 L21.4846869,143.435965 C21.8516116,143.435965 22.1540252,143.159843 22.1953551,142.804112 L22.2001686,142.720697 L22.2001686,141.960073 C22.2001686,141.593258 21.9239639,141.290934 21.5681272,141.249617 L21.4846869,141.244805 L17.1917962,141.244805 C16.8248715,141.244805 16.5224579,141.520927 16.481128,141.876657 L16.4763144,141.960073 L16.4763144,149.873377 C16.4763144,150.240192 16.7525192,150.542515 17.1083559,150.583833 L17.1917962,150.588645 L30.0704682,150.588645 C30.4656179,150.588645 30.78595,150.908881 30.78595,151.303913 C30.78595,151.670728 30.5097452,151.973051 30.1539085,152.014369 L30.0704682,152.019181 L17.1917962,152.019181 C16.0486847,152.019181 15.1142798,151.125869 15.0489946,149.999459 L15.0453509,149.873377 L15.0453509,141.960073 C15.0453509,140.817303 15.9389304,139.883177 17.0656762,139.817911 L17.1917962,139.814269 L21.4846869,139.814269 C22.6277984,139.814269 23.5622033,140.707581 23.6274885,141.83399 L23.6311322,141.960073 L23.6311322,142.720697 C23.6311322,143.863467 22.7375527,144.797593 21.6108068,144.862858 L21.4846869,144.866501 L20.7692051,144.866501 C20.4022804,144.866501 20.0998668,145.142623 20.0585369,145.498354 L20.0537233,145.581769 L20.0537233,146.251681 C20.0537233,146.618496 20.329928,146.920819 20.6857648,146.962137 L20.7692051,146.966949 L25.0620957,146.966949 C25.4290204,146.966949 25.7314341,146.690826 25.772764,146.335096 L25.7775775,146.251681 L25.7775775,138.429089 C25.7775775,138.062274 25.5013728,137.759951 25.145536,137.718633 L25.0620957,137.713821 L12.1834238,137.713821 C11.0403122,137.713821 10.1059073,138.607134 10.0406222,139.733543 L10.0369785,139.859625 L10.0369785,297.50435 C10.0369785,297.899382 9.71664635,298.219618 9.32149668,298.219618 C8.95457198,298.219618 8.65215835,297.943496 8.61082847,297.587765 L8.6060149,297.50435 L8.6060149,139.859625 C8.6060149,137.936445 10.1244867,136.367817 12.0282432,136.286589 L12.1834238,136.283285 L25.0620957,136.283285 Z" transform="matrix(1 0 0 -1 0 434.503)"/><path fill="#FFF" d="M53.4289705,299.902475 C53.7958952,299.902475 54.0983088,300.178597 54.1396387,300.534328 L54.1444523,300.617743 L54.1444523,317.994801 C54.1444523,319.917981 52.6259805,321.48661 50.722224,321.567837 L50.5670434,321.571141 L36.2574079,321.571141 C35.1142963,321.571141 34.1798914,320.677829 34.1146063,319.55142 L34.1109625,319.425337 L34.1109625,311.512033 C34.1109625,310.369263 35.004542,309.435137 36.1312879,309.369871 L36.2574079,309.366229 L40.5502985,309.366229 C41.6934101,309.366229 42.627815,310.259541 42.6931001,311.385951 L42.6967438,311.512033 L42.6967438,312.272657 C42.6967438,313.415427 41.8031644,314.349553 40.6764185,314.414819 L40.5502985,314.418461 L39.8348167,314.418461 C39.467892,314.418461 39.1654784,314.694583 39.1241485,315.050314 L39.119335,315.133729 L39.119335,315.803641 C39.119335,316.170456 39.3955397,316.472779 39.7513764,316.514097 L39.8348167,316.518909 L44.1277074,316.518909 C44.4946321,316.518909 44.7970457,316.242787 44.8383756,315.887056 L44.8431892,315.803641 L44.8431892,307.981049 C44.8431892,307.614234 44.5669845,307.311911 44.2111477,307.270593 L44.1277074,307.265781 L31.2490354,307.265781 C30.8538858,307.265781 30.5335537,306.945545 30.5335537,306.550513 C30.5335537,306.183698 30.8097584,305.881375 31.1655951,305.840057 L31.2490354,305.835245 L44.1277074,305.835245 C45.270819,305.835245 46.2052238,306.728558 46.270509,307.854967 L46.2741527,307.981049 L46.2741527,315.803641 C46.2741527,316.946411 45.3805732,317.880537 44.2538274,317.945802 L44.1277074,317.949445 L39.8348167,317.949445 C38.6917052,317.949445 37.7573003,317.056132 37.6920151,315.929723 L37.6883714,315.803641 L37.6883714,315.133729 C37.6883714,313.990959 38.5819509,313.056833 39.7086968,312.991568 L39.8348167,312.987925 L40.5502985,312.987925 C40.9172232,312.987925 41.2196368,312.711803 41.2609667,312.356073 L41.2657803,312.272657 L41.2657803,311.512033 C41.2657803,311.145218 40.9895756,310.842894 40.6337388,310.801577 L40.5502985,310.796765 L36.2574079,310.796765 C35.8904832,310.796765 35.5880695,311.072887 35.5467397,311.428617 L35.5419261,311.512033 L35.5419261,319.425337 C35.5419261,319.792152 35.8181308,320.094476 36.1739676,320.135793 L36.2574079,320.140605 L50.5670434,320.140605 C51.7101549,320.140605 52.6445598,319.247293 52.709845,318.120884 L52.7134887,317.994801 L52.7134887,300.617743 C52.7134887,300.222711 53.0338208,299.902475 53.4289705,299.902475 Z" transform="rotate(90 42.339 310.737)"/><path fill="#FFF" d="M142.758848,18.1921951 C143.901959,18.1921951 144.836364,19.0855076 144.901649,20.2119169 L144.905293,20.3379991 L144.905293,28.1605908 C144.905293,29.3033608 144.011714,30.2374865 142.884968,30.3027522 L142.758848,30.3063948 L138.465957,30.3063948 C137.322846,30.3063948 136.388441,29.4130823 136.323156,28.2866731 L136.319512,28.1605908 L136.319512,27.4906792 C136.319512,26.3479092 137.213091,25.4137834 138.339837,25.3485178 L138.465957,25.3448752 L139.181439,25.3448752 C139.548364,25.3448752 139.850777,25.068753 139.892107,24.7130225 L139.896921,24.6296072 L139.896921,23.8689828 C139.896921,23.5021677 139.620716,23.1998444 139.264879,23.1585269 L139.181439,23.1537148 L134.888548,23.1537148 C134.521624,23.1537148 134.21921,23.429837 134.17788,23.7855674 L134.173067,23.8689828 L134.173067,31.7822872 C134.173067,32.1491022 134.449271,32.4514255 134.805108,32.4927431 L134.888548,32.4975552 L147.76722,32.4975552 C148.16237,32.4975552 148.482702,32.8177916 148.482702,33.2128232 C148.482702,33.5796383 148.206497,33.8819615 147.850661,33.9232791 L147.76722,33.9280912 L134.888548,33.9280912 C133.745437,33.9280912 132.811032,33.0347787 132.745747,31.9083695 L132.742103,31.7822872 L132.742103,23.8689828 C132.742103,22.7262128 133.635683,21.7920871 134.762428,21.7268214 L134.888548,21.7231788 L139.181439,21.7231788 C140.324551,21.7231788 141.258955,22.6164913 141.324241,23.7429005 L141.327884,23.8689828 L141.327884,24.6296072 C141.327884,25.7723772 140.434305,26.7065029 139.307559,26.7717685 L139.181439,26.7754112 L138.465957,26.7754112 C138.099033,26.7754112 137.796619,27.0515334 137.755289,27.4072638 L137.750475,27.4906792 L137.750475,28.1605908 C137.750475,28.5274059 138.02668,28.8297291 138.382517,28.8710467 L138.465957,28.8758588 L142.758848,28.8758588 C143.125773,28.8758588 143.428186,28.5997366 143.469516,28.2440062 L143.47433,28.1605908 L143.47433,20.3379991 C143.47433,19.9711841 143.198125,19.6688608 142.842288,19.6275433 L142.758848,19.6227311 L130.595658,19.6227311 C129.062956,19.6227311 127.811662,20.8272199 127.737233,22.3410068 L127.733731,22.4838032 L127.733731,50.3792552 C127.733731,50.7742869 127.413399,51.0945232 127.018249,51.0945232 C126.651324,51.0945232 126.348911,50.818401 126.307581,50.4626706 L126.302767,50.3792552 L126.302767,22.4838032 C126.302767,20.1674814 128.138389,18.2797641 130.434718,18.1951553 L130.595658,18.1921951 L142.758848,18.1921951 Z" transform="rotate(90 137.393 34.643)"/><path fill="#FFF" d="M178.154868,46.4452812 C178.521792,46.4452812 178.824243,46.7213149 178.865619,47.0770399 L178.870444,47.1604547 L178.889762,197.411108 C178.890678,199.337626 177.372074,200.90625 175.468439,200.987041 L175.313269,200.990309 L161.003633,200.990309 C159.860522,200.990309 158.926117,200.096996 158.860832,198.970587 L158.857188,198.844505 L158.857188,190.9312 C158.857188,189.78843 159.750767,188.854304 160.877513,188.789039 L161.003633,188.785396 L165.296524,188.785396 C166.439635,188.785396 167.37404,189.678709 167.439325,190.805118 L167.442969,190.9312 L167.442969,191.691825 C167.442969,192.834595 166.54939,193.76872 165.422644,193.833986 L165.296524,193.837629 L164.581042,193.837629 C164.214117,193.837629 163.911704,194.113751 163.870374,194.469481 L163.86556,194.552897 L163.86556,195.222808 C163.86556,195.589623 164.141765,195.891947 164.497602,195.933264 L164.581042,195.938076 L168.873933,195.938076 C169.240857,195.938076 169.543271,195.661954 169.584601,195.306224 L169.589414,195.222808 L169.589414,187.400217 C169.589414,187.033401 169.31321,186.731078 168.957373,186.689761 L168.873933,186.684949 L155.995261,186.684949 C155.600111,186.684949 155.279779,186.364712 155.279779,185.969681 C155.279779,185.602865 155.555984,185.300542 155.91182,185.259225 L155.995261,185.254413 L168.873933,185.254413 C170.017044,185.254413 170.951449,186.147725 171.016734,187.274134 L171.020378,187.400217 L171.020378,195.222808 C171.020378,196.365578 170.126799,197.299704 169.000053,197.36497 L168.873933,197.368612 L164.581042,197.368612 C163.437931,197.368612 162.503526,196.4753 162.43824,195.34889 L162.434597,195.222808 L162.434597,194.552897 C162.434597,193.410127 163.328176,192.476001 164.454922,192.410735 L164.581042,192.407093 L165.296524,192.407093 C165.663449,192.407093 165.965862,192.13097 166.007192,191.77524 L166.012006,191.691825 L166.012006,190.9312 C166.012006,190.564385 165.735801,190.262062 165.379964,190.220744 L165.296524,190.215932 L161.003633,190.215932 C160.636708,190.215932 160.334295,190.492054 160.292965,190.847785 L160.288151,190.9312 L160.288151,198.844505 C160.288151,199.21132 160.564356,199.513643 160.920193,199.55496 L161.003633,199.559773 L175.31344,199.559773 C176.456408,199.560046 177.390787,198.666845 177.45607,197.54043 L177.459336,197.414063 L177.43948,47.1606436 C177.439428,46.765612 177.759718,46.4452812 178.154868,46.4452812 Z" transform="matrix(1 0 0 -1 0 247.436)"/><g fill="#FFF" transform="rotate(180 93.728 129.821)"><path d="M0.245660384,15.0873386 C0.543672803,14.8279323 0.995612816,14.8591565 1.25509665,15.1570799 C2.70249244,16.8188907 5.25825448,17.6991637 8.96146147,17.7495069 L9.30127875,17.7517959 C16.8005392,17.7517959 20.7489872,20.613051 20.7489872,26.2778541 C20.7489872,31.1006398 18.9709559,33.6704287 15.9299872,34.5067482 C15.0519613,34.7482207 14.2875318,34.8207556 13.1813192,34.8176414 L12.1632059,34.8039123 C8.76643124,34.8039123 5.72386987,32.5531147 5.72386987,28.4080696 C5.72386987,26.0292604 7.37734444,24.2735679 9.53470948,23.8930651 C11.7266886,23.5064573 13.5941694,24.7206589 13.5941694,26.987926 C13.5941694,27.3829576 13.2738373,27.703194 12.8786876,27.703194 C12.483538,27.703194 12.1632059,27.3829576 12.1632059,26.987926 C12.1632059,25.7026512 11.1704653,25.0571896 9.78332979,25.301844 C8.27841723,25.5672713 7.15483342,26.7603151 7.15483342,28.4080696 C7.15483342,31.586113 9.38355101,33.3010621 11.9959535,33.371139 L12.6733083,33.3807636 C13.9533266,33.4062329 14.707664,33.3592283 15.5504301,33.1274528 C17.9427769,32.4695156 19.3180236,30.4818714 19.3180236,26.2778541 C19.3180236,21.5916331 16.1868443,19.2526707 9.60292677,19.1838949 L9.30127875,19.1823319 C5.03910816,19.1823319 1.98306797,18.1713544 0.175898219,16.0964733 C-0.0835856203,15.7985499 -0.0523520349,15.3467449 0.245660384,15.0873386 Z"/><path d="M9.28560281,8.52103374 C17.755464,8.33547316 23.7440817,12.0500583 27.0997195,19.5424368 C29.4994873,23.9031972 32.7626455,26.1187791 36.942625,26.2661402 L37.205068,26.272658 L60.8159666,26.272658 C61.2111163,26.272658 61.5314484,26.5928944 61.5314484,26.987926 C61.5314484,27.354741 61.2552437,27.6570643 60.8994069,27.6983818 L60.8159666,27.703194 L37.1946947,27.703194 C32.3384681,27.6327253 28.5331531,25.1150306 25.8199119,20.1796904 C22.7210266,13.265969 17.3741124,9.8770745 9.64386575,9.94610915 L9.30127875,9.95139805 L0.715497437,9.95139805 C0.320347763,9.95139805 1.566054e-05,9.63116166 1.566054e-05,9.23613005 C1.566054e-05,8.86931498 0.276220381,8.56699171 0.632057147,8.52567418 L0.715497437,8.52086204 L9.28560281,8.52103374 Z"/><path d="M9.30127875-5.68252066e-14C20.1540583-5.68252066e-14 27.7811702 3.41845739 32.0820679 10.267946L32.7840096 11.3462158 33.4281558 12.3191648 33.8762456 12.982835 34.2965847 13.5922944 34.6912126 14.1496995 35.062169 14.657207 35.2973298 14.9688895 35.5234807 15.2599928 35.7412261 15.5311558 35.9511705 15.7830176C35.9855447 15.8234216 36.019619 15.863048 36.053406 15.9019102L36.2527818 16.1260183 36.4458673 16.3324226C36.5092479 16.3983444 36.5716809 16.4614221 36.6332669 16.5217622L36.8155848 16.6946761 36.9934255 16.8518032 37.1673933 16.9937826C37.3109206 17.1059647 37.4510432 17.2030335 37.5893347 17.2866531L37.7545065 17.3806474C37.9738322 17.4976497 38.1900823 17.581926 38.4097029 17.6402923L38.5751511 17.6793153C38.6028647 17.6850449 38.6306561 17.6903964 38.658538 17.6953829L38.8270153 17.7210296 38.9982674 17.7385576C39.0270742 17.7408379 39.0560218 17.7428065 39.0851228 17.7444767L39.2616703 17.7510246 47.2218129 17.7518132C47.6169625 17.7518132 47.9372947 18.0720496 47.9372947 18.4670812 47.9372947 18.8338962 47.6610899 19.1362195 47.3052532 19.1775371L47.2218129 19.1823492 39.3515133 19.1823492C39.2727357 19.1823492 39.195076 19.1811847 39.1184292 19.1787586L38.8914225 19.1675983C38.1067992 19.1146105 37.4222648 18.9118236 36.7161792 18.4468221L36.513749 18.3067323C36.1750376 18.0610338 35.8288124 17.7534485 35.4619387 17.3718378L35.2392316 17.1338912C35.2016657 17.0927206 35.1638671 17.0507854 35.1258226 17.0080736L34.8945 16.7423854C34.8554194 16.6965183 34.8160666 16.6498503 34.7764286 16.6023692L34.5350718 16.3076284 34.2862375 15.9927909 34.0292953 15.6572741 33.7636146 15.3004952 33.4885651 14.9218717 33.2035162 14.5208208 32.9078375 14.09676 32.6008986 13.6491066 32.117998 12.9321157 31.7801501 12.4229316 31.2479307 11.6109136 30.8752335 11.0365572C26.9148778 4.72951635 19.8998427 1.52155945 9.73868347 1.43244562L9.30127875 1.430536.715497437 1.430536C.320347763 1.430536.00001566054 1.11029961.00001566054.715268002.00001566054.348452936.276220381.0461296643.632057147.00481213095L.715497437-5.68252066e-14 9.30127875-5.68252066e-14ZM25.9615545 36.2396607C28.273776 33.9335078 32.0723168 33.2076039 37.3103291 33.9864608 37.7011791 34.0445776 37.9708986 34.4084423 37.9127645 34.7991755 37.8546304 35.1899087 37.4906569 35.4595476 37.0998069 35.4014308 32.2652133 34.6825595 28.9049668 35.3247051 26.9722195 37.2523798L26.0438028 38.1727217 25.7295347 38.4777072C21.5895714 42.4676192 17.8976596 44.3466161 12.1695572 44.3466161 7.02611858 44.3466161 3.00585068 42.666012.168661405 39.3044308-.0861595266 39.0025118-.0479058762 38.5512467.254103325 38.2965019.556112525 38.0417571 1.00751254 38.0799993 1.26233347 38.3819183 3.81346359 41.4045686 7.42923552 42.9160801 12.1695572 42.9160801 17.3613989 42.9160801 20.6956618 41.2753295 24.4883578 37.6847548L25.0250905 37.167758 25.5842868 36.6155056 25.9615545 36.2396607Z"/></g></g></svg>