<svg xmlns="http://www.w3.org/2000/svg" xmlns:xlink="http://www.w3.org/1999/xlink" width="188" height="332" viewBox="0 0 188 332"><defs><polygon id="a" points="0 0 27.748 0 27.748 15.284 0 15.284"/></defs><g fill="none" fill-rule="evenodd" transform="translate(.453 .099)"><path fill="#000" d="M93.6115033,0.59277311 C102.41045,0.59277311 109.663678,7.20880486 110.665079,15.7361661 L168.919744,15.7358961 C178.36686,15.7358961 186.025262,23.4215695 186.025262,32.9023281 L186.025262,313.287385 C186.025262,322.768144 178.36686,330.453817 168.919744,330.453817 L17.8209999,330.453817 C8.37388311,330.453817 0.715481776,322.768144 0.715481776,313.287385 L0.715481776,32.9023281 C0.715481776,23.4215695 8.37388311,15.7358961 17.8209999,15.7358961 L76.5579275,15.7361661 C77.5593283,7.20880486 84.8125564,0.59277311 93.6115033,0.59277311 Z"/><path fill="#FFF" d="M94.4435944,112.297076 C124.47497,112.297076 148.820209,136.635042 148.820209,166.657445 C148.820209,196.679847 124.47497,221.017813 94.4435944,221.017813 C64.4122192,221.017813 40.0669795,196.679847 40.0669795,166.657445 C40.0669795,136.635042 64.4122192,112.297076 94.4435944,112.297076 Z M94.4435944,113.727612 C65.2025186,113.727612 41.497943,137.425105 41.497943,166.657445 C41.497943,195.889784 65.2025186,219.587277 94.4435944,219.587277 C123.68467,219.587277 147.389246,195.889784 147.389246,166.657445 C147.389246,137.425105 123.68467,113.727612 94.4435944,113.727612 Z"/><ellipse cx="94.444" cy="166.657" fill="#C577FF" rx="48.653" ry="48.638"/><path fill="#FFF" d="M94.4435944,118.01922 C121.313772,118.01922 143.096355,139.795295 143.096355,166.657445 C143.096355,193.519594 121.313772,215.295669 94.4435944,215.295669 C67.5734166,215.295669 45.7908337,193.519594 45.7908337,166.657445 C45.7908337,139.795295 67.5734166,118.01922 94.4435944,118.01922 Z M94.4435944,119.449756 C68.363716,119.449756 47.2217972,140.585358 47.2217972,166.657445 C47.2217972,192.729531 68.363716,213.865133 94.4435944,213.865133 C120.523473,213.865133 141.665392,192.729531 141.665392,166.657445 C141.665392,140.585358 120.523473,119.449756 94.4435944,119.449756 Z"/><g transform="translate(41.076 119.41)"><path fill="#FFF" d="M45.5191679,42.0765404 C45.2284982,44.082434 35.8637939,52.551864 35.8637939,54.2942562 C35.8637939,56.0366483 69.1355839,59.8168461 72.4239081,59.0792243 C75.7122322,58.3416025 63.3538281,39.784351 61.0541762,39.4214666 C58.7545244,39.0585822 45.8375204,39.8800868 45.5191679,42.0765404"/><path fill="#000" d="M52.1561253,24.1894488 C62.8011603,25.33372 69.9522272,44.768094 69.9443244,51.7413097 C69.9344311,56.9994864 63.1620257,53.7472034 62.349337,52.6430501 C59.8499733,49.2357662 61.0502216,39.4223875 53.0904206,35.8537203 C50.2381009,34.575419 52.1561253,24.1894488 52.1561253,24.1894488"/><path fill="#0080FF" d="M32.1404539,16.2114628 C33.6817941,17.8800016 36.9078319,21.4577864 37.4525904,22.2182024 C37.9973488,22.9786185 31.5027603,23.3269146 35.0145244,25.8078403 C38.5262885,28.288766 44.3080443,25.4176028 42.9901441,23.3287381 C41.6722439,21.2398734 34.894895,15.8358136 33.6620206,15.2832811 C32.4973646,14.7608369 31.0974046,15.0799564 32.1404539,16.2114628"/><path fill="#0080FF" d="M39.7433442,12.9828766 C38.606371,12.8141992 37.803569,11.4976036 36.3245152,12.7704343 C34.8454614,14.043265 32.037632,14.7945633 31.914048,15.2221834 C31.7904639,15.6498034 34.0555122,16.0974824 35.3378202,15.2221834 C36.6201283,14.3468843 35.8637939,13.5591152 37.3428477,13.5591152 C38.8219015,13.5591152 38.9543836,13.801646 39.7433442,13.8326461 C40.5323047,13.8636463 40.2218616,13.0539947 39.7433442,12.9828766"/><path fill="#FFF" d="M.704605101 35.0963361C6.22831741 37.7404686 30.4913251 39.1619178 34.4371164 37.8161455 38.3829076 36.4703733 44.6945918 34.3222435 37.5929584 30.2110733 30.4913251 26.0999031 6.81954347 24.0830683 3.07148666 27.3636161-.676570146 30.644164.704605101 35.0963361.704605101 35.0963361M36.5805814.261863888C31.6471064-1.11399679 28.4339214 5.46533435 33.6976128 8.74770576 35.299262 9.74609373 42.281266 11.6462221 45.7416192 11.4738976 49.8979977 11.2669258 43.3035532 2.14102152 36.5805814.261863888"/><path fill="#FFF" d="M64.3851869 20.9131502C70.3043681 17.3517772 77.1973916 17.4602778 80.7348612 21.2778581 96.8709823 38.6990444 111.443024 16.263124 103.709629 9.07655414 93.6874574-.230792356 64.4909748-5.18808496 48.7078097 8.25413774 41.7890807 14.1459944 42.4554459 34.1009891 64.3851869 20.9131502M28.9865892 12.8187581C30.8166217 13.2536723 32.0712469 10.3031851 29.6658071 9.99227158 28.667248 9.86462381 27.9850641 9.40326827 27.9850641 8.78600009 27.9850641 8.01555458 27.0458254 7.47578684 25.979048 7.47669745 25.0259678 7.47669745 24.3507046 7.83593592 23.9028361 8.27267367 23.4549675 8.70941142 22.7381801 8.60638143 22.2458212 8.63191099 21.7534624 8.65744054 20.8330085 8.86258876 20.5373955 9.37591517 20.2417824 9.88924159 20.6194553 10.4864508 20.5373955 10.7107462 20.5008146 10.8128644 20.1696093 11.0754541 20.1419265 11.7501638 20.0895269 13.124201 21.7010628 12.7467283 22.3506205 12.652816 23.0001782 12.5589037 23.6418266 12.1586367 23.9008587 12.2799021 24.3862968 12.5069328 25.2573172 13.124201 25.9770706 13.124201 27.0764742 13.124201 27.2712427 12.3947851 27.6578136 12.2799021 28.0443845 12.1650191 28.6257238 12.7339635 28.9865892 12.8187581"/><path fill="#FFD600" d="M102.07518,78.5956576 C73.467946,84.575956 23.5637215,84.2349541 2.31814174,78.5956576 C-0.715104976,77.7905649 -0.829790966,66.7426497 2.31814174,66.9541804 C26.917298,68.5898954 80.7702799,69.4998417 102.07518,66.9541804 C105.205317,66.5803547 105.148962,77.9519481 102.07518,78.5956576"/><path fill="#FFD600" d="M24.6858646,53.308633 C20.0845835,54.1429024 1.37890302,67.2815057 1.37890302,67.2815057 C1.37890302,67.2815057 78.0890005,72.5798002 103.079671,67.3024764 C103.079671,67.3024764 86.0982351,53.6988705 79.3278069,53.308633 C63.5466192,52.3986867 38.0892953,50.8778546 24.6858646,53.308633"/><path fill="#000" d="M99.2564751,55.8816475 C101.938743,59.3627847 82.0436898,64.6765793 57.295244,66.1846466 C32.5467983,67.6927139 12.135658,64.9264042 9.63332831,61.3331193 C6.69598282,57.1134485 26.1441562,52.5801289 53.8942112,50.8942665 C78.642657,49.3861991 95.4837015,50.9836199 99.2564751,55.8816475"/><path fill="#FFF" d="M68.8646877,55.7229995 C69.7366967,56.8545059 63.2658362,58.5832215 55.2210095,59.0719301 C47.1761827,59.5606387 40.5332933,58.6634572 39.719616,57.4945683 C38.7645585,56.1223547 45.0881068,54.6480229 54.1146852,54.0991374 C62.1595119,53.6104288 67.6367566,54.1301376 68.8646877,55.7229995"/><path fill="#FFD600" d="M56.6535957,52.2774213 C56.6535957,51.1395325 55.6520706,50.4885289 54.4172189,50.4885289 C53.1823671,50.4885289 52.1818307,51.1395325 52.1818307,52.2774213 L52.1818307,52.3385099 C52.1818307,52.3385099 52.1363518,54.9671423 52.1818307,56.3411795 C52.9727686,57.0705953 55.8626578,57.0705953 56.6535957,56.3411795 C56.7396102,54.9671423 56.6535957,52.3385099 56.6535957,52.3385099 C56.652607,52.3184509 56.6535957,52.298392 56.6535957,52.2774213"/><path fill="#FF6963" d="M50.8144969,22.2692616 C50.8144969,22.311203 50.8718399,22.3677327 50.8688739,22.4342919 C50.8688739,22.4844392 50.7986782,22.5427925 50.8026328,22.5974987 C50.8184516,22.8382059 50.8154856,23.0205599 51.2158979,23.0470012 C51.3019124,23.0533836 51.1615209,23.3150616 51.4442812,23.3378558 C51.9089572,23.3743266 51.7576903,23.0515601 51.821954,22.9530889 C52.3360636,22.1571139 51.6242196,21.4842277 50.9321489,21.9656422 C50.8510778,22.0221719 50.8332817,22.085084 50.8154856,22.2692616"/><path fill="#000" d="M51.5737973,21.5033658 C50.9805939,21.446836 50.7235391,21.73222 50.7492445,22.1087809 C51.4887714,22.1224575 51.7547243,22.0285452 51.821954,22.9539916 C52.5140246,22.4780477 52.1640346,21.5589837 51.5737973,21.5033658"/><path fill="#000" d="M51.8427161 21.7012198C52.0977936 21.3666003 52.1867741 20.7475086 52.4260328 20.939892 52.6652915 21.1322754 51.9316966 21.8106322 51.9316966 21.8106322L51.8427161 21.7012198ZM45.5191679 42.0765404C46.342732 43.0986343 56.6832559 43.6575493 58.2206413 42.3938363 66.4108029 35.6595043 51.4798734 25.5625651 52.0710994 23.5429949 52.1462385 23.284964 51.7122114 23.2895229 51.1368041 23.2056401 51.0596877 23.1946988 51.0379369 23.273111 50.9904806 23.3269054 48.2627336 26.1205682 42.453295 38.2680778 45.5191679 42.0765404"/><path fill="#000" d="M50.2667724,24.1894488 C46.8776037,26.5664328 10.3837306,25.7348987 5.35336579,40.0159496 C1.97012907,49.6205331 10.3511044,53.8885277 15.9489672,56.5062189 C19.8136873,58.3133467 40.5669082,54.4647662 41.9648909,48.1507601 C43.0148609,43.409557 33.1736165,38.0401444 35.8637939,36.3889292 C41.1245194,33.1630876 50.2667724,25.9291057 50.2667724,25.9291057 L50.2667724,24.1894488 Z"/><path fill="#FF6963" d="M32.9936781 53.4791339C34.8810536 55.0984372 37.5999025 57.3149496 40.5718516 58.8923115 41.7671564 59.5305503 45.1543478 60.125936 45.1761782 60.8790579 45.1909287 61.4261198 43.1295469 62.4536844 41.4923055 62.2065948 36.8910245 61.512738 30.1650866 57.9522768 28.6761461 56.311091 26.5149084 53.9295482 32.9936781 53.4791339 32.9936781 53.4791339M32.1157371 52.0038903C38.606371 54.8823477 43.4854689 55.9974422 45.2235549 56.3566795 49.2771114 57.1909489 49.9859895 55.8369707 49.5628377 55.2224379 49.1248559 54.584199 44.3416592 53.8201359 42.6866217 53.2539268 39.8194719 52.2737742 38.844641 50.2077038 35.6986856 50.4520581 32.6990538 50.6845594 32.1157371 52.0038903 32.1157371 52.0038903"/><path fill="#FF6963" d="M37.4782958,56.4825038 C42.3158696,59.7876694 49.7091612,60.7359101 50.2163502,58.8366935 C50.7284824,56.9165062 47.1702507,57.630422 45.1592912,55.8661474 C43.1483317,54.1018727 39.4892554,54.2641678 38.4590588,54.1337847 C37.4288622,54.0034016 37.4782958,56.4825038 37.4782958,56.4825038"/><path fill="#FF6963" d="M39.140254,54.481169 C42.513604,55.07929 47.9760187,56.3439148 47.2701066,54.378139 C46.6541637,52.6658352 43.0435324,52.6393939 40.0824588,49.4345229 C38.5124471,47.7295133 39.140254,54.481169 39.140254,54.481169"/><path fill="#FF6963" d="M29.2327686,43.7605792 C32.2561286,44.1252872 34.3511253,45.6835018 38.7052382,48.424282 C44.9121231,52.3312157 40.9623771,56.6302105 34.8770989,56.917418 C32.3698259,57.0368598 28.9737365,54.3024621 29.2831909,56.0275306 C29.5610078,57.5775394 28.6899875,57.7744816 34.2166658,60.6465566 C37.2380485,62.2175361 35.3091487,65.0330813 30.5981251,63.0727762 C29.7340255,62.7135388 27.3671439,61.2811484 26.3794603,60.7495866 C25.0546393,60.0374944 23.5617441,60.10223 22.2913002,59.0509594 C19.5170856,56.755123 15.1412219,55.2215261 15.0293767,51.046532 C14.9889663,49.5393765 24.8015392,43.222635 29.2327686,43.7605792"/><path fill="#0080FF" d="M45.0248317 1.73254863C44.5581784 3.11479171 43.5299592 6.0379258 43.262029 6.58681124 42.9940988 7.13569669 40.4937465 3.91441385 40.2287823 6.59775248 39.9638181 9.28109111 43.7435124 11.2477786 44.5433483 9.83088832 45.3431842 8.413998 46.2240913 3.0181441 46.125224 2.18843355 46.0263568 1.40431149 45.3421956.794337473 45.0248317 1.73254863M84.9602732 18.9786751C83.9439181 16.217836 70.7471198 11.0572188 66.0489489 10.4080386 65.7053852 10.2885056 65.3304807 10.2684467 64.974262 10.3505971 64.6568982 10.3779502 64.4611411 10.4654801 64.4126962 10.6241281 64.0093178 10.9459828 63.7680818 11.5149272 63.8798018 12.3637849 64.4552091 16.7293389 65.5605447 26.0111558 65.5605447 27.8401661 65.5605447 29.6691764 54.2708954 23.6195836 57.1696827 31.3568624 60.0684699 39.0941412 73.1861744 40.1919121 73.4926628 35.3522378 73.7724571 30.9183011 68.6748626 17.4414311 67.7010203 13.2646135 71.5568424 15.4400964 77.8724813 18.2656711 81.4089622 19.8020033 82.0021656 24.4164704 82.9789739 32.7318113 82.9789739 34.452321 82.9789739 36.2813313 71.6903132 30.2317384 74.5881118 37.9690172 77.4859104 45.7062961 90.6046035 46.804067 90.9120806 41.9643927 91.2195577 37.1247184 86.3641879 21.1614521 84.9602732 18.9786751"/><g transform="translate(63.172 72.067)"><mask id="b" fill="#fff"><use xlink:href="#a"/></mask><path fill="#FFF" d="M11.7297723,2.02395253 C7.65743096,4.42008366 3.88564602,5.21514696 2.73977479,5.72573807 C-3.12700682,8.31607618 1.24292488,17.9434539 8.17747261,13.755695 C11.0564864,12.0233323 14.2241926,11.8564785 15.9345957,13.7684598 C19.3207985,17.5541282 28.7379024,13.7885187 27.6632156,7.52830704 C26.9177566,3.18828262 20.8552179,-3.3463718 11.7258176,2.02395253" mask="url(#b)"/></g></g><path fill="#FFF" d="M71.8876537,15.020628 C72.2828034,15.020628 72.6031355,15.3408644 72.6031355,15.7358961 C72.6031355,16.1027111 72.3269308,16.4050344 71.971094,16.4463519 L71.8876537,16.4511641 L17.8870444,16.4511641 C8.88948633,16.4511641 1.5784884,23.6700289 1.4331682,32.630278 L1.43096355,32.9023281 L1.43096355,313.287385 C1.43096355,322.282255 8.6519859,329.591068 17.614913,329.736345 L17.8870444,329.738549 L169.569181,329.738549 C178.566739,329.738549 185.877737,322.519684 186.023057,313.559435 L186.025262,313.287385 L186.025262,32.9023281 C186.025262,23.9074584 178.804239,16.5986448 169.841312,16.453368 L169.569181,16.4511641 L115.718085,16.4511641 C115.322936,16.4511641 115.002603,16.1309277 115.002603,15.7358961 C115.002603,15.369081 115.278808,15.0667577 115.634645,15.0254402 L115.718085,15.020628 L169.569181,15.020628 C179.349135,15.020628 187.295872,22.8672203 187.453829,32.6066215 L187.456225,32.9023281 L187.456225,313.287385 C187.456225,323.064417 179.607288,331.00878 169.864976,331.169085 L169.569181,331.169085 L17.8870444,331.169085 C8.10708998,331.169085 0.160353095,323.322493 0.0023963529,313.583092 L0,313.287385 L0,32.9023281 C0,23.1252958 7.84893734,15.1809332 17.5912494,15.020628 L17.8870444,15.020628 L71.8876537,15.020628 Z"/><g fill="#FFF" transform="matrix(1 0 0 -1 0 124.457)"><path d="M0.245660384,15.0873386 C0.543672803,14.8279323 0.995612816,14.8591565 1.25509665,15.1570799 C2.70249244,16.8188907 5.25825448,17.6991637 8.96146147,17.7495069 L9.30127875,17.7517959 C16.8005392,17.7517959 20.7489872,20.613051 20.7489872,26.2778541 C20.7489872,31.1006398 18.9709559,33.6704287 15.9299872,34.5067482 C15.0519613,34.7482207 14.2875318,34.8207556 13.1813192,34.8176414 L12.1632059,34.8039123 C8.76643124,34.8039123 5.72386987,32.5531147 5.72386987,28.4080696 C5.72386987,26.0292604 7.37734444,24.2735679 9.53470948,23.8930651 C11.7266886,23.5064573 13.5941694,24.7206589 13.5941694,26.987926 C13.5941694,27.3829576 13.2738373,27.703194 12.8786876,27.703194 C12.483538,27.703194 12.1632059,27.3829576 12.1632059,26.987926 C12.1632059,25.7026512 11.1704653,25.0571896 9.78332979,25.301844 C8.27841723,25.5672713 7.15483342,26.7603151 7.15483342,28.4080696 C7.15483342,31.586113 9.38355101,33.3010621 11.9959535,33.371139 L12.6733083,33.3807636 C13.9533266,33.4062329 14.707664,33.3592283 15.5504301,33.1274528 C17.9427769,32.4695156 19.3180236,30.4818714 19.3180236,26.2778541 C19.3180236,21.5916331 16.1868443,19.2526707 9.60292677,19.1838949 L9.30127875,19.1823319 C5.03910816,19.1823319 1.98306797,18.1713544 0.175898219,16.0964733 C-0.0835856203,15.7985499 -0.0523520349,15.3467449 0.245660384,15.0873386 Z"/><path d="M9.28560281,8.52103374 C17.755464,8.33547316 23.7440817,12.0500583 27.0997195,19.5424368 C29.4994873,23.9031972 32.7626455,26.1187791 36.942625,26.2661402 L37.205068,26.272658 L60.8159666,26.272658 C61.2111163,26.272658 61.5314484,26.5928944 61.5314484,26.987926 C61.5314484,27.354741 61.2552437,27.6570643 60.8994069,27.6983818 L60.8159666,27.703194 L37.1946947,27.703194 C32.3384681,27.6327253 28.5331531,25.1150306 25.8199119,20.1796904 C22.7210266,13.265969 17.3741124,9.8770745 9.64386575,9.94610915 L9.30127875,9.95139805 L0.715497437,9.95139805 C0.320347763,9.95139805 1.56605399e-05,9.63116166 1.56605399e-05,9.23613005 C1.56605399e-05,8.86931498 0.276220381,8.56699171 0.632057147,8.52567418 L0.715497437,8.52086204 L9.28560281,8.52103374 Z"/><path d="M9.30127875 0C20.1540583 0 27.7811702 3.41845739 32.0820679 10.267946L32.7840096 11.3462158 33.4281558 12.3191648 33.8762456 12.982835 34.2965847 13.5922944 34.6912126 14.1496995 35.062169 14.657207 35.2973298 14.9688895 35.5234807 15.2599928 35.7412261 15.5311558 35.9511705 15.7830176C35.9855447 15.8234216 36.019619 15.863048 36.053406 15.9019102L36.2527818 16.1260183 36.4458673 16.3324226C36.5092479 16.3983444 36.5716809 16.4614221 36.6332669 16.5217622L36.8155848 16.6946761 36.9934255 16.8518032 37.1673933 16.9937826C37.3109206 17.1059647 37.4510432 17.2030335 37.5893347 17.2866531L37.7545065 17.3806474C37.9738322 17.4976497 38.1900823 17.581926 38.4097029 17.6402923L38.5751511 17.6793153C38.6028647 17.6850449 38.6306561 17.6903964 38.658538 17.6953829L38.8270153 17.7210296 38.9982674 17.7385576C39.0270742 17.7408379 39.0560218 17.7428065 39.0851228 17.7444767L39.2616703 17.7510246 47.2218129 17.7518132C47.6169625 17.7518132 47.9372947 18.0720496 47.9372947 18.4670812 47.9372947 18.8338962 47.6610899 19.1362195 47.3052532 19.1775371L47.2218129 19.1823492 39.3515133 19.1823492C39.2727357 19.1823492 39.195076 19.1811847 39.1184292 19.1787586L38.8914225 19.1675983C38.1067992 19.1146105 37.4222648 18.9118236 36.7161792 18.4468221L36.513749 18.3067323C36.1750376 18.0610338 35.8288124 17.7534485 35.4619387 17.3718378L35.2392316 17.1338912C35.2016657 17.0927206 35.1638671 17.0507854 35.1258226 17.0080736L34.8945 16.7423854C34.8554194 16.6965183 34.8160666 16.6498503 34.7764286 16.6023692L34.5350718 16.3076284 34.2862375 15.9927909 34.0292953 15.6572741 33.7636146 15.3004952 33.4885651 14.9218717 33.2035162 14.5208208 32.9078375 14.09676 32.6008986 13.6491066 32.117998 12.9321157 31.7801501 12.4229316 31.2479307 11.6109136 30.8752335 11.0365572C26.9148778 4.72951635 19.8998427 1.52155945 9.73868347 1.43244562L9.30127875 1.430536.715497437 1.430536C.320347763 1.430536.0000156605399 1.11029961.0000156605399.715268002.0000156605399.348452936.276220381.0461296643.632057147.00481213095L.715497437 0 9.30127875 0ZM25.9615545 36.2396607C28.273776 33.9335078 32.0723168 33.2076039 37.3103291 33.9864608 37.7011791 34.0445776 37.9708986 34.4084423 37.9127645 34.7991755 37.8546304 35.1899087 37.4906569 35.4595476 37.0998069 35.4014308 32.2652133 34.6825595 28.9049668 35.3247051 26.9722195 37.2523798L26.0438028 38.1727217 25.7295347 38.4777072C21.5895714 42.4676192 17.8976596 44.3466161 12.1695572 44.3466161 7.02611858 44.3466161 3.00585068 42.666012.168661405 39.3044308-.0861595266 39.0025118-.0479058762 38.5512467.254103325 38.2965019.556112525 38.0417571 1.00751254 38.0799993 1.26233347 38.3819183 3.81346359 41.4045686 7.42923552 42.9160801 12.1695572 42.9160801 17.3613989 42.9160801 20.6956618 41.2753295 24.4883578 37.6847548L25.0250905 37.167758 25.5842868 36.6155056 25.9615545 36.2396607Z"/></g><path fill="#FFF" d="M178.175196 271.801841C178.542121 271.801841 178.844534 272.077963 178.885864 272.433694L178.890678 272.517109 178.890678 310.379174C178.890678 317.017521 173.5695 322.413412 166.958616 322.536579L166.727487 322.53873 52.4610924 322.53873C52.0659427 322.53873 51.7456106 322.218494 51.7456106 321.823462 51.7456106 321.456647 52.0218153 321.154324 52.3776521 321.113006L52.4610924 321.108194 166.727487 321.108194C172.579704 321.108194 177.337889 316.425487 177.457412 310.603645L177.459714 310.379174 177.459714 272.517109C177.459714 272.122077 177.780046 271.801841 178.175196 271.801841ZM67.5172314 23.5567052C67.9123811 23.5567052 68.2327132 23.8769415 68.2327132 24.2719732 68.2327132 24.6387882 67.9565085 24.9411115 67.6006717 24.982429L67.5172314 24.9872412 20.7692051 24.9872412C14.9169884 24.9872412 10.1588034 29.669948 10.0392807 35.49179L10.0369785 35.7162612 10.029664 55.092307 10.0173717 67.3871893 10.0167449 70.8115322C10.0167449 71.2065638 9.69641276 71.5268002 9.30126309 71.5268002 8.93433839 71.5268002 8.63192476 71.250678 8.59059488 70.8949476L8.58578131 70.8115322 8.58857025 64.0671478 8.60443537 46.1119082 8.6060149 35.7162612C8.6060149 29.0779139 13.9271928 23.682023 20.5380761 23.5588566L20.7692051 23.5567052 67.5172314 23.5567052ZM93.7281127 0C103.606854 0 111.615157 8.00590982 111.615157 17.8817001 111.615157 27.7574903 103.606854 35.7634001 93.7281127 35.7634001 83.8493708 35.7634001 75.8410683 27.7574903 75.8410683 17.8817001 75.8410683 8.00590982 83.8493708 0 93.7281127 0ZM93.7281127 1.430536C84.6396702 1.430536 77.2720318 8.79597304 77.2720318 17.8817001 77.2720318 26.9674271 84.6396702 34.3328641 93.7281127 34.3328641 102.816555 34.3328641 110.184194 26.9674271 110.184194 17.8817001 110.184194 8.79597304 102.816555 1.430536 93.7281127 1.430536Z"/><path fill="#FFF" d="M18.6025262,1.43001272 L18.6025262,13.947726 L18.6025262,13.947726 C18.6025262,15.7253683 17.1610317,17.1664321 15.3828582,17.1664321 C13.6046847,17.1664321 12.1631902,15.7253683 12.1631902,13.947726 C12.1631902,12.1700838 13.6046847,10.72902 15.3828582,10.72902 C16.044903,10.72902 16.6602773,10.9287806 17.1719608,11.2712984 L17.1715626,3.29166335 L9.30126309,5.39097493 L9.30126309,18.2393341 L9.30126309,18.2393341 C9.30126309,20.0169763 7.85976863,21.4580401 6.0815951,21.4580401 C4.30342156,21.4580401 2.8619271,20.0169763 2.8619271,18.2393341 C2.8619271,16.4616918 4.30342156,15.020628 6.0815951,15.020628 C6.74372628,15.020628 7.35917478,15.2204407 7.87089796,15.5630405 L7.87029954,4.29210087 L18.6025262,1.43001272 Z M6.0815951,16.4511641 C5.09372091,16.4511641 4.29289066,17.251755 4.29289066,18.2393341 C4.29289066,19.2269131 5.09372091,20.0275041 6.0815951,20.0275041 C7.06946928,20.0275041 7.87029954,19.2269131 7.87029954,18.2393341 C7.87029954,17.251755 7.06946928,16.4511641 6.0815951,16.4511641 Z M15.3828582,12.159556 C14.394984,12.159556 13.5941537,12.960147 13.5941537,13.947726 C13.5941537,14.9353051 14.394984,15.7358961 15.3828582,15.7358961 C16.3707324,15.7358961 17.1715626,14.9353051 17.1715626,13.947726 C17.1715626,12.960147 16.3707324,12.159556 15.3828582,12.159556 Z" transform="translate(82.29 6.033)"/><path fill="#FFF" d="M25.0620957,136.283285 C26.2052073,136.283285 27.1396122,137.176598 27.2048973,138.303007 L27.2085411,138.429089 L27.2085411,146.251681 C27.2085411,147.394451 26.3149616,148.328576 25.1882157,148.393842 L25.0620957,148.397485 L20.7692051,148.397485 C19.6260935,148.397485 18.6916887,147.504172 18.6264035,146.377763 L18.6227598,146.251681 L18.6227598,145.581769 C18.6227598,144.438999 19.5163392,143.504873 20.6430851,143.439608 L20.7692051,143.435965 L21.4846869,143.435965 C21.8516116,143.435965 22.1540252,143.159843 22.1953551,142.804112 L22.2001686,142.720697 L22.2001686,141.960073 C22.2001686,141.593258 21.9239639,141.290934 21.5681272,141.249617 L21.4846869,141.244805 L17.1917962,141.244805 C16.8248715,141.244805 16.5224579,141.520927 16.481128,141.876657 L16.4763144,141.960073 L16.4763144,149.873377 C16.4763144,150.240192 16.7525192,150.542515 17.1083559,150.583833 L17.1917962,150.588645 L30.0704682,150.588645 C30.4656179,150.588645 30.78595,150.908881 30.78595,151.303913 C30.78595,151.670728 30.5097452,151.973051 30.1539085,152.014369 L30.0704682,152.019181 L17.1917962,152.019181 C16.0486847,152.019181 15.1142798,151.125869 15.0489946,149.999459 L15.0453509,149.873377 L15.0453509,141.960073 C15.0453509,140.817303 15.9389304,139.883177 17.0656762,139.817911 L17.1917962,139.814269 L21.4846869,139.814269 C22.6277984,139.814269 23.5622033,140.707581 23.6274885,141.83399 L23.6311322,141.960073 L23.6311322,142.720697 C23.6311322,143.863467 22.7375527,144.797593 21.6108068,144.862858 L21.4846869,144.866501 L20.7692051,144.866501 C20.4022804,144.866501 20.0998668,145.142623 20.0585369,145.498354 L20.0537233,145.581769 L20.0537233,146.251681 C20.0537233,146.618496 20.329928,146.920819 20.6857648,146.962137 L20.7692051,146.966949 L25.0620957,146.966949 C25.4290204,146.966949 25.7314341,146.690826 25.772764,146.335096 L25.7775775,146.251681 L25.7775775,138.429089 C25.7775775,138.062274 25.5013728,137.759951 25.145536,137.718633 L25.0620957,137.713821 L12.1834238,137.713821 C11.0403122,137.713821 10.1059073,138.607134 10.0406222,139.733543 L10.0369785,139.859625 L10.0369785,297.50435 C10.0369785,297.899382 9.71664635,298.219618 9.32149668,298.219618 C8.95457198,298.219618 8.65215835,297.943496 8.61082847,297.587765 L8.6060149,297.50435 L8.6060149,139.859625 C8.6060149,137.936445 10.1244867,136.367817 12.0282432,136.286589 L12.1834238,136.283285 L25.0620957,136.283285 Z" transform="matrix(1 0 0 -1 0 434.503)"/><path fill="#FFF" d="M53.4289705,299.902475 C53.7958952,299.902475 54.0983088,300.178597 54.1396387,300.534328 L54.1444523,300.617743 L54.1444523,317.994801 C54.1444523,319.917981 52.6259805,321.48661 50.722224,321.567837 L50.5670434,321.571141 L36.2574079,321.571141 C35.1142963,321.571141 34.1798914,320.677829 34.1146063,319.55142 L34.1109625,319.425337 L34.1109625,311.512033 C34.1109625,310.369263 35.004542,309.435137 36.1312879,309.369871 L36.2574079,309.366229 L40.5502985,309.366229 C41.6934101,309.366229 42.627815,310.259541 42.6931001,311.385951 L42.6967438,311.512033 L42.6967438,312.272657 C42.6967438,313.415427 41.8031644,314.349553 40.6764185,314.414819 L40.5502985,314.418461 L39.8348167,314.418461 C39.467892,314.418461 39.1654784,314.694583 39.1241485,315.050314 L39.119335,315.133729 L39.119335,315.803641 C39.119335,316.170456 39.3955397,316.472779 39.7513764,316.514097 L39.8348167,316.518909 L44.1277074,316.518909 C44.4946321,316.518909 44.7970457,316.242787 44.8383756,315.887056 L44.8431892,315.803641 L44.8431892,307.981049 C44.8431892,307.614234 44.5669845,307.311911 44.2111477,307.270593 L44.1277074,307.265781 L31.2490354,307.265781 C30.8538858,307.265781 30.5335537,306.945545 30.5335537,306.550513 C30.5335537,306.183698 30.8097584,305.881375 31.1655951,305.840057 L31.2490354,305.835245 L44.1277074,305.835245 C45.270819,305.835245 46.2052238,306.728558 46.270509,307.854967 L46.2741527,307.981049 L46.2741527,315.803641 C46.2741527,316.946411 45.3805732,317.880537 44.2538274,317.945802 L44.1277074,317.949445 L39.8348167,317.949445 C38.6917052,317.949445 37.7573003,317.056132 37.6920151,315.929723 L37.6883714,315.803641 L37.6883714,315.133729 C37.6883714,313.990959 38.5819509,313.056833 39.7086968,312.991568 L39.8348167,312.987925 L40.5502985,312.987925 C40.9172232,312.987925 41.2196368,312.711803 41.2609667,312.356073 L41.2657803,312.272657 L41.2657803,311.512033 C41.2657803,311.145218 40.9895756,310.842894 40.6337388,310.801577 L40.5502985,310.796765 L36.2574079,310.796765 C35.8904832,310.796765 35.5880695,311.072887 35.5467397,311.428617 L35.5419261,311.512033 L35.5419261,319.425337 C35.5419261,319.792152 35.8181308,320.094476 36.1739676,320.135793 L36.2574079,320.140605 L50.5670434,320.140605 C51.7101549,320.140605 52.6445598,319.247293 52.709845,318.120884 L52.7134887,317.994801 L52.7134887,300.617743 C52.7134887,300.222711 53.0338208,299.902475 53.4289705,299.902475 Z" transform="rotate(90 42.339 310.737)"/><path fill="#FFF" d="M142.758848,18.1921951 C143.901959,18.1921951 144.836364,19.0855076 144.901649,20.2119169 L144.905293,20.3379991 L144.905293,28.1605908 C144.905293,29.3033608 144.011714,30.2374865 142.884968,30.3027522 L142.758848,30.3063948 L138.465957,30.3063948 C137.322846,30.3063948 136.388441,29.4130823 136.323156,28.2866731 L136.319512,28.1605908 L136.319512,27.4906792 C136.319512,26.3479092 137.213091,25.4137834 138.339837,25.3485178 L138.465957,25.3448752 L139.181439,25.3448752 C139.548364,25.3448752 139.850777,25.068753 139.892107,24.7130225 L139.896921,24.6296072 L139.896921,23.8689828 C139.896921,23.5021677 139.620716,23.1998444 139.264879,23.1585269 L139.181439,23.1537148 L134.888548,23.1537148 C134.521624,23.1537148 134.21921,23.429837 134.17788,23.7855674 L134.173067,23.8689828 L134.173067,31.7822872 C134.173067,32.1491022 134.449271,32.4514255 134.805108,32.4927431 L134.888548,32.4975552 L147.76722,32.4975552 C148.16237,32.4975552 148.482702,32.8177916 148.482702,33.2128232 C148.482702,33.5796383 148.206497,33.8819615 147.850661,33.9232791 L147.76722,33.9280912 L134.888548,33.9280912 C133.745437,33.9280912 132.811032,33.0347787 132.745747,31.9083695 L132.742103,31.7822872 L132.742103,23.8689828 C132.742103,22.7262128 133.635683,21.7920871 134.762428,21.7268214 L134.888548,21.7231788 L139.181439,21.7231788 C140.324551,21.7231788 141.258955,22.6164913 141.324241,23.7429005 L141.327884,23.8689828 L141.327884,24.6296072 C141.327884,25.7723772 140.434305,26.7065029 139.307559,26.7717685 L139.181439,26.7754112 L138.465957,26.7754112 C138.099033,26.7754112 137.796619,27.0515334 137.755289,27.4072638 L137.750475,27.4906792 L137.750475,28.1605908 C137.750475,28.5274059 138.02668,28.8297291 138.382517,28.8710467 L138.465957,28.8758588 L142.758848,28.8758588 C143.125773,28.8758588 143.428186,28.5997366 143.469516,28.2440062 L143.47433,28.1605908 L143.47433,20.3379991 C143.47433,19.9711841 143.198125,19.6688608 142.842288,19.6275433 L142.758848,19.6227311 L130.595658,19.6227311 C129.062956,19.6227311 127.811662,20.8272199 127.737233,22.3410068 L127.733731,22.4838032 L127.733731,50.3792552 C127.733731,50.7742869 127.413399,51.0945232 127.018249,51.0945232 C126.651324,51.0945232 126.348911,50.818401 126.307581,50.4626706 L126.302767,50.3792552 L126.302767,22.4838032 C126.302767,20.1674814 128.138389,18.2797641 130.434718,18.1951553 L130.595658,18.1921951 L142.758848,18.1921951 Z" transform="rotate(90 137.393 34.643)"/><path fill="#FFF" d="M178.154868,46.4452812 C178.521792,46.4452812 178.824243,46.7213149 178.865619,47.0770399 L178.870444,47.1604547 L178.889762,197.411108 C178.890678,199.337626 177.372074,200.90625 175.468439,200.987041 L175.313269,200.990309 L161.003633,200.990309 C159.860522,200.990309 158.926117,200.096996 158.860832,198.970587 L158.857188,198.844505 L158.857188,190.9312 C158.857188,189.78843 159.750767,188.854304 160.877513,188.789039 L161.003633,188.785396 L165.296524,188.785396 C166.439635,188.785396 167.37404,189.678709 167.439325,190.805118 L167.442969,190.9312 L167.442969,191.691825 C167.442969,192.834595 166.54939,193.76872 165.422644,193.833986 L165.296524,193.837629 L164.581042,193.837629 C164.214117,193.837629 163.911704,194.113751 163.870374,194.469481 L163.86556,194.552897 L163.86556,195.222808 C163.86556,195.589623 164.141765,195.891947 164.497602,195.933264 L164.581042,195.938076 L168.873933,195.938076 C169.240857,195.938076 169.543271,195.661954 169.584601,195.306224 L169.589414,195.222808 L169.589414,187.400217 C169.589414,187.033401 169.31321,186.731078 168.957373,186.689761 L168.873933,186.684949 L155.995261,186.684949 C155.600111,186.684949 155.279779,186.364712 155.279779,185.969681 C155.279779,185.602865 155.555984,185.300542 155.91182,185.259225 L155.995261,185.254413 L168.873933,185.254413 C170.017044,185.254413 170.951449,186.147725 171.016734,187.274134 L171.020378,187.400217 L171.020378,195.222808 C171.020378,196.365578 170.126799,197.299704 169.000053,197.36497 L168.873933,197.368612 L164.581042,197.368612 C163.437931,197.368612 162.503526,196.4753 162.43824,195.34889 L162.434597,195.222808 L162.434597,194.552897 C162.434597,193.410127 163.328176,192.476001 164.454922,192.410735 L164.581042,192.407093 L165.296524,192.407093 C165.663449,192.407093 165.965862,192.13097 166.007192,191.77524 L166.012006,191.691825 L166.012006,190.9312 C166.012006,190.564385 165.735801,190.262062 165.379964,190.220744 L165.296524,190.215932 L161.003633,190.215932 C160.636708,190.215932 160.334295,190.492054 160.292965,190.847785 L160.288151,190.9312 L160.288151,198.844505 C160.288151,199.21132 160.564356,199.513643 160.920193,199.55496 L161.003633,199.559773 L175.31344,199.559773 C176.456408,199.560046 177.390787,198.666845 177.45607,197.54043 L177.459336,197.414063 L177.43948,47.1606436 C177.439428,46.765612 177.759718,46.4452812 178.154868,46.4452812 Z" transform="matrix(1 0 0 -1 0 247.436)"/><g fill="#FFF" transform="rotate(180 93.728 129.821)"><path d="M0.245660384,15.0873386 C0.543672803,14.8279323 0.995612816,14.8591565 1.25509665,15.1570799 C2.70249244,16.8188907 5.25825448,17.6991637 8.96146147,17.7495069 L9.30127875,17.7517959 C16.8005392,17.7517959 20.7489872,20.613051 20.7489872,26.2778541 C20.7489872,31.1006398 18.9709559,33.6704287 15.9299872,34.5067482 C15.0519613,34.7482207 14.2875318,34.8207556 13.1813192,34.8176414 L12.1632059,34.8039123 C8.76643124,34.8039123 5.72386987,32.5531147 5.72386987,28.4080696 C5.72386987,26.0292604 7.37734444,24.2735679 9.53470948,23.8930651 C11.7266886,23.5064573 13.5941694,24.7206589 13.5941694,26.987926 C13.5941694,27.3829576 13.2738373,27.703194 12.8786876,27.703194 C12.483538,27.703194 12.1632059,27.3829576 12.1632059,26.987926 C12.1632059,25.7026512 11.1704653,25.0571896 9.78332979,25.301844 C8.27841723,25.5672713 7.15483342,26.7603151 7.15483342,28.4080696 C7.15483342,31.586113 9.38355101,33.3010621 11.9959535,33.371139 L12.6733083,33.3807636 C13.9533266,33.4062329 14.707664,33.3592283 15.5504301,33.1274528 C17.9427769,32.4695156 19.3180236,30.4818714 19.3180236,26.2778541 C19.3180236,21.5916331 16.1868443,19.2526707 9.60292677,19.1838949 L9.30127875,19.1823319 C5.03910816,19.1823319 1.98306797,18.1713544 0.175898219,16.0964733 C-0.0835856203,15.7985499 -0.0523520349,15.3467449 0.245660384,15.0873386 Z"/><path d="M9.28560281,8.52103374 C17.755464,8.33547316 23.7440817,12.0500583 27.0997195,19.5424368 C29.4994873,23.9031972 32.7626455,26.1187791 36.942625,26.2661402 L37.205068,26.272658 L60.8159666,26.272658 C61.2111163,26.272658 61.5314484,26.5928944 61.5314484,26.987926 C61.5314484,27.354741 61.2552437,27.6570643 60.8994069,27.6983818 L60.8159666,27.703194 L37.1946947,27.703194 C32.3384681,27.6327253 28.5331531,25.1150306 25.8199119,20.1796904 C22.7210266,13.265969 17.3741124,9.8770745 9.64386575,9.94610915 L9.30127875,9.95139805 L0.715497437,9.95139805 C0.320347763,9.95139805 1.566054e-05,9.63116166 1.566054e-05,9.23613005 C1.566054e-05,8.86931498 0.276220381,8.56699171 0.632057147,8.52567418 L0.715497437,8.52086204 L9.28560281,8.52103374 Z"/><path d="M9.30127875-5.68252066e-14C20.1540583-5.68252066e-14 27.7811702 3.41845739 32.0820679 10.267946L32.7840096 11.3462158 33.4281558 12.3191648 33.8762456 12.982835 34.2965847 13.5922944 34.6912126 14.1496995 35.062169 14.657207 35.2973298 14.9688895 35.5234807 15.2599928 35.7412261 15.5311558 35.9511705 15.7830176C35.9855447 15.8234216 36.019619 15.863048 36.053406 15.9019102L36.2527818 16.1260183 36.4458673 16.3324226C36.5092479 16.3983444 36.5716809 16.4614221 36.6332669 16.5217622L36.8155848 16.6946761 36.9934255 16.8518032 37.1673933 16.9937826C37.3109206 17.1059647 37.4510432 17.2030335 37.5893347 17.2866531L37.7545065 17.3806474C37.9738322 17.4976497 38.1900823 17.581926 38.4097029 17.6402923L38.5751511 17.6793153C38.6028647 17.6850449 38.6306561 17.6903964 38.658538 17.6953829L38.8270153 17.7210296 38.9982674 17.7385576C39.0270742 17.7408379 39.0560218 17.7428065 39.0851228 17.7444767L39.2616703 17.7510246 47.2218129 17.7518132C47.6169625 17.7518132 47.9372947 18.0720496 47.9372947 18.4670812 47.9372947 18.8338962 47.6610899 19.1362195 47.3052532 19.1775371L47.2218129 19.1823492 39.3515133 19.1823492C39.2727357 19.1823492 39.195076 19.1811847 39.1184292 19.1787586L38.8914225 19.1675983C38.1067992 19.1146105 37.4222648 18.9118236 36.7161792 18.4468221L36.513749 18.3067323C36.1750376 18.0610338 35.8288124 17.7534485 35.4619387 17.3718378L35.2392316 17.1338912C35.2016657 17.0927206 35.1638671 17.0507854 35.1258226 17.0080736L34.8945 16.7423854C34.8554194 16.6965183 34.8160666 16.6498503 34.7764286 16.6023692L34.5350718 16.3076284 34.2862375 15.9927909 34.0292953 15.6572741 33.7636146 15.3004952 33.4885651 14.9218717 33.2035162 14.5208208 32.9078375 14.09676 32.6008986 13.6491066 32.117998 12.9321157 31.7801501 12.4229316 31.2479307 11.6109136 30.8752335 11.0365572C26.9148778 4.72951635 19.8998427 1.52155945 9.73868347 1.43244562L9.30127875 1.430536.715497437 1.430536C.320347763 1.430536.00001566054 1.11029961.00001566054.715268002.00001566054.348452936.276220381.0461296643.632057147.00481213095L.715497437-5.68252066e-14 9.30127875-5.68252066e-14ZM25.9615545 36.2396607C28.273776 33.9335078 32.0723168 33.2076039 37.3103291 33.9864608 37.7011791 34.0445776 37.9708986 34.4084423 37.9127645 34.7991755 37.8546304 35.1899087 37.4906569 35.4595476 37.0998069 35.4014308 32.2652133 34.6825595 28.9049668 35.3247051 26.9722195 37.2523798L26.0438028 38.1727217 25.7295347 38.4777072C21.5895714 42.4676192 17.8976596 44.3466161 12.1695572 44.3466161 7.02611858 44.3466161 3.00585068 42.666012.168661405 39.3044308-.0861595266 39.0025118-.0479058762 38.5512467.254103325 38.2965019.556112525 38.0417571 1.00751254 38.0799993 1.26233347 38.3819183 3.81346359 41.4045686 7.42923552 42.9160801 12.1695572 42.9160801 17.3613989 42.9160801 20.6956618 41.2753295 24.4883578 37.6847548L25.0250905 37.167758 25.5842868 36.6155056 25.9615545 36.2396607Z"/></g></g></svg>